<svg width="360" height="360" viewBox="0 0 360 360" fill="none" xmlns="http://www.w3.org/2000/svg">
<circle cx="180" cy="180" r="175" stroke="#2F2E41" stroke-width="10"/>
<path d="M119.4 185.6H113.746V165.883H92.2418V185.6H86.6168V142.944H92.2418V161.284H113.746V142.944H119.4V185.6ZM153.472 174.467H135.601L131.587 185.6H125.787L142.076 142.944H146.998L163.316 185.6H157.545L153.472 174.467ZM137.3 169.838H151.802L144.537 149.887L137.3 169.838ZM194.722 147.573H181.011V185.6H175.416V147.573H161.734V142.944H194.722V147.573ZM231.607 172.065C231.08 176.577 229.41 180.063 226.597 182.524C223.804 184.965 220.084 186.186 215.435 186.186C210.396 186.186 206.353 184.379 203.306 180.766C200.279 177.153 198.765 172.319 198.765 166.264V162.162C198.765 158.198 199.468 154.711 200.875 151.703C202.3 148.696 204.312 146.391 206.91 144.789C209.507 143.168 212.515 142.358 215.933 142.358C220.464 142.358 224.097 143.627 226.832 146.166C229.566 148.686 231.158 152.182 231.607 156.655H225.953C225.464 153.256 224.4 150.795 222.759 149.272C221.138 147.748 218.863 146.987 215.933 146.987C212.339 146.987 209.517 148.315 207.466 150.971C205.435 153.627 204.42 157.407 204.42 162.309V166.44C204.42 171.069 205.386 174.75 207.32 177.485C209.253 180.219 211.959 181.586 215.435 181.586C218.56 181.586 220.953 180.883 222.613 179.477C224.293 178.051 225.406 175.58 225.953 172.065H231.607ZM272.095 185.6H266.441V165.883H244.937V185.6H239.312V142.944H244.937V161.284H266.441V142.944H272.095V185.6ZM105.052 258.992C105.468 258.992 105.788 259.2 106.012 259.616C106.268 260 106.396 260.496 106.396 261.104C106.396 261.84 106.284 262.416 106.06 262.832C105.836 263.248 105.484 263.616 105.004 263.936C103.116 265.184 100.108 267.232 95.9799 270.08C94.7319 276.704 93.1159 281.92 91.1319 285.728C89.1479 289.536 86.6359 291.44 83.5959 291.44C81.9639 291.44 80.6359 290.928 79.6119 289.904C78.5879 288.912 78.0759 287.6 78.0759 285.968C78.0759 284.464 78.4119 282.944 79.0839 281.408C79.7559 279.872 81.0039 278.096 82.8279 276.08C84.6839 274.064 87.2919 271.76 90.6519 269.168L90.7959 268.256C88.2679 269.312 85.7879 269.84 83.3559 269.84C79.7719 269.84 76.6199 269.152 73.8999 267.776C71.1799 266.368 69.0679 264.384 67.5639 261.824C66.0599 259.264 65.3079 256.288 65.3079 252.896C65.3079 248.16 66.2039 243.984 67.9959 240.368C69.7879 236.72 72.2519 233.904 75.3879 231.92C78.5559 229.904 82.0919 228.896 85.9959 228.896C89.7399 228.896 92.5399 229.776 94.3959 231.536C96.2839 233.264 97.2279 235.568 97.2279 238.448C97.2279 240.336 96.8759 241.856 96.1719 243.008C95.4999 244.128 94.5239 244.688 93.2439 244.688C92.3799 244.688 91.6759 244.48 91.1319 244.064C90.6199 243.648 90.3639 243.072 90.3639 242.336C90.3639 242.016 90.4279 241.472 90.5559 240.704C90.7479 239.808 90.8439 239.104 90.8439 238.592C90.8439 237.248 90.4279 236.208 89.5959 235.472C88.7959 234.736 87.4359 234.368 85.5159 234.368C83.1799 234.368 81.0039 235.04 78.9879 236.384C77.0039 237.728 75.4039 239.744 74.1879 242.432C72.9719 245.088 72.3639 248.288 72.3639 252.032C72.3639 255.872 73.4039 258.848 75.4839 260.96C77.5959 263.04 80.6359 264.08 84.6039 264.08C86.8119 264.08 89.1159 263.584 91.5159 262.592L92.1879 256.736H87.2919C86.3959 256.736 85.7079 256.528 85.2279 256.112C84.7479 255.664 84.5079 254.944 84.5079 253.952C84.5079 253.056 84.7479 252.352 85.2279 251.84C85.7079 251.328 86.3479 251.072 87.1479 251.072H96.1239C96.8279 251.072 97.4039 251.312 97.8519 251.792C98.3319 252.24 98.5239 252.896 98.4279 253.76C98.3319 254.784 98.0119 257.104 97.4679 260.72L96.9399 264.368C99.4999 262.448 101.836 260.784 103.948 259.376C104.364 259.12 104.732 258.992 105.052 258.992ZM84.1239 286.784C84.9559 286.784 85.8679 285.84 86.8599 283.952C87.8519 282.064 88.7799 279.024 89.6439 274.832C87.2119 276.912 85.4519 278.784 84.3639 280.448C83.3079 282.144 82.7799 283.632 82.7799 284.912C82.7799 286.16 83.2279 286.784 84.1239 286.784ZM115.542 269.84C113.334 269.84 111.334 269.296 109.542 268.208C107.782 267.12 106.39 265.552 105.366 263.504C104.342 261.424 103.83 258.976 103.83 256.16C103.83 251.296 104.87 246.8 106.95 242.672C109.03 238.512 112.102 235.184 116.166 232.688C120.23 230.16 125.11 228.896 130.806 228.896C132.278 228.896 133.846 229.008 135.51 229.232C137.206 229.456 138.742 229.792 140.118 230.24C141.014 230.496 141.462 231.136 141.462 232.16C141.462 232.992 141.142 233.776 140.502 234.512C139.894 235.248 139.174 235.616 138.342 235.616C138.086 235.616 137.894 235.6 137.766 235.568C136.102 235.184 134.678 234.912 133.494 234.752C132.31 234.56 131.062 234.464 129.75 234.464C125.686 234.464 122.23 235.456 119.382 237.44C116.534 239.392 114.406 241.984 112.998 245.216C111.59 248.448 110.886 251.936 110.886 255.68C110.886 258.4 111.414 260.512 112.47 262.016C113.558 263.488 114.966 264.224 116.694 264.224C118.646 264.224 120.358 263.424 121.83 261.824C123.302 260.224 124.646 257.632 125.862 254.048C127.078 250.464 128.278 245.6 129.462 239.456C129.654 238.56 130.038 237.952 130.614 237.632C131.19 237.312 131.958 237.152 132.918 237.152C135.19 237.152 136.326 237.888 136.326 239.36C136.326 239.616 136.278 239.936 136.182 240.32C135.35 243.424 134.582 246.864 133.878 250.64C133.206 254.384 132.87 257.232 132.87 259.184C132.87 260.912 133.126 262.176 133.638 262.976C134.15 263.744 134.934 264.128 135.99 264.128C137.014 264.128 137.99 263.792 138.918 263.12C139.846 262.416 141.014 261.232 142.422 259.568C142.806 259.12 143.238 258.896 143.718 258.896C144.134 258.896 144.454 259.088 144.678 259.472C144.934 259.856 145.062 260.384 145.062 261.056C145.062 262.304 144.758 263.296 144.15 264.032C142.582 265.92 141.046 267.36 139.542 268.352C138.038 269.344 136.198 269.84 134.022 269.84C131.782 269.84 129.974 269.2 128.598 267.92C127.222 266.608 126.358 264.768 126.006 262.4C123.638 267.36 120.15 269.84 115.542 269.84ZM185.965 258.896C186.381 258.896 186.701 259.088 186.925 259.472C187.181 259.856 187.309 260.384 187.309 261.056C187.309 262.304 187.005 263.296 186.397 264.032C184.861 265.888 183.309 267.328 181.741 268.352C180.173 269.344 178.317 269.84 176.173 269.84C174.093 269.84 172.317 269.28 170.845 268.16C169.405 267.04 168.029 265.12 166.717 262.4C165.661 260.224 164.829 258.624 164.221 257.6C163.613 256.544 163.005 255.792 162.397 255.344C161.821 254.896 161.101 254.624 160.237 254.528C160.109 255.2 159.741 257.312 159.133 260.864C158.877 262.464 158.717 263.44 158.653 263.792C158.333 265.744 157.693 267.248 156.733 268.304C155.773 269.328 154.317 269.84 152.365 269.84C150.221 269.84 148.317 269.216 146.653 267.968C145.021 266.688 143.757 264.928 142.861 262.688C141.965 260.416 141.517 257.84 141.517 254.96C141.517 249.584 142.445 244.944 144.301 241.04C146.189 237.136 148.813 234.16 152.173 232.112C155.565 230.032 159.469 228.992 163.885 228.992C166.957 228.992 169.533 229.456 171.613 230.384C173.693 231.312 175.229 232.592 176.221 234.224C177.245 235.856 177.757 237.696 177.757 239.744C177.757 241.536 177.325 243.296 176.461 245.024C175.629 246.72 174.365 248.224 172.669 249.536C170.973 250.848 168.909 251.824 166.477 252.464C168.013 252.88 169.197 253.552 170.029 254.48C170.861 255.408 171.693 256.768 172.525 258.56C173.421 260.48 174.301 261.888 175.165 262.784C176.061 263.68 177.085 264.128 178.237 264.128C179.261 264.128 180.237 263.792 181.165 263.12C182.093 262.416 183.261 261.232 184.669 259.568C185.053 259.12 185.485 258.896 185.965 258.896ZM153.613 254.48C152.525 254.48 151.773 254.224 151.357 253.712C150.973 253.2 150.781 252.624 150.781 251.984C150.781 251.216 151.021 250.608 151.501 250.16C152.013 249.712 152.589 249.488 153.229 249.488H154.429C154.941 246.352 155.421 243.648 155.869 241.376C156.285 239.296 157.629 238.256 159.901 238.256C161.725 238.256 162.637 239.072 162.637 240.704C162.637 241.056 162.621 241.328 162.589 241.52L161.149 249.488C162.877 249.392 164.445 248.976 165.853 248.24C167.293 247.504 168.429 246.48 169.261 245.168C170.125 243.856 170.557 242.368 170.557 240.704C170.557 238.688 169.869 237.104 168.493 235.952C167.117 234.8 165.101 234.224 162.445 234.224C159.309 234.224 156.557 235.008 154.189 236.576C151.853 238.112 150.029 240.416 148.717 243.488C147.405 246.528 146.749 250.24 146.749 254.624C146.749 256.672 146.957 258.432 147.373 259.904C147.789 261.376 148.301 262.48 148.909 263.216C149.517 263.952 150.093 264.32 150.637 264.32C151.053 264.32 151.389 264.112 151.645 263.696C151.933 263.28 152.157 262.608 152.317 261.68L153.613 254.48ZM195.895 269.84C194.039 269.84 191.943 269.68 189.607 269.36C188.327 269.2 187.447 268.864 186.967 268.352C186.487 267.84 186.279 267.008 186.343 265.856C186.567 262.688 187.095 258.784 187.927 254.144C188.759 249.472 189.767 244.976 190.951 240.656C191.175 239.856 191.623 239.296 192.295 238.976C192.967 238.656 193.847 238.496 194.935 238.496C196.887 238.496 197.863 239.04 197.863 240.128C197.863 240.576 197.767 241.088 197.575 241.664C196.743 244.224 195.911 247.664 195.079 251.984C194.247 256.272 193.655 260.368 193.303 264.272C194.263 264.368 195.351 264.416 196.567 264.416C202.167 264.416 206.343 262.72 209.095 259.328C211.879 255.936 213.271 251.408 213.271 245.744C213.271 241.936 212.183 238.992 210.007 236.912C207.831 234.832 204.759 233.792 200.791 233.792C198.231 233.792 195.687 234.192 193.159 234.992C190.663 235.792 188.407 236.848 186.391 238.16C185.975 238.448 185.527 238.592 185.047 238.592C184.503 238.592 184.071 238.368 183.751 237.92C183.431 237.44 183.271 236.864 183.271 236.192C183.271 235.424 183.399 234.8 183.655 234.32C183.911 233.808 184.343 233.344 184.951 232.928C187.159 231.424 189.751 230.288 192.727 229.52C195.703 228.72 198.567 228.32 201.319 228.32C205.223 228.32 208.599 229.008 211.447 230.384C214.295 231.728 216.487 233.712 218.023 236.336C219.559 238.96 220.327 242.128 220.327 245.84C220.327 250.672 219.367 254.896 217.447 258.512C215.527 262.096 212.727 264.88 209.047 266.864C205.367 268.848 200.983 269.84 195.895 269.84ZM257.476 260.864C257.956 260.672 258.356 260.576 258.676 260.576C259.188 260.576 259.572 260.768 259.828 261.152C260.084 261.536 260.212 262.032 260.212 262.64C260.212 263.6 259.972 264.416 259.492 265.088C259.044 265.76 258.26 266.368 257.14 266.912C255.252 267.808 252.804 268.528 249.796 269.072C246.788 269.584 243.828 269.84 240.916 269.84C236.884 269.84 233.508 269.392 230.788 268.496C228.068 267.568 226.036 266.304 224.692 264.704C223.38 263.104 222.724 261.296 222.724 259.28C222.724 256.528 223.604 254.192 225.364 252.272C227.156 250.32 229.78 248.912 233.236 248.048C231.348 247.504 229.892 246.544 228.868 245.168C227.876 243.792 227.38 242.256 227.38 240.56C227.38 238.256 228.1 236.224 229.54 234.464C231.012 232.672 232.98 231.296 235.444 230.336C237.908 229.376 240.612 228.896 243.556 228.896C247.524 228.896 250.5 229.76 252.484 231.488C254.468 233.184 255.46 235.392 255.46 238.112C255.46 240 255.108 241.536 254.404 242.72C253.732 243.872 252.756 244.448 251.476 244.448C250.58 244.448 249.876 244.256 249.364 243.872C248.852 243.456 248.596 242.848 248.596 242.048C248.596 241.504 248.676 240.912 248.836 240.272C248.996 239.216 249.076 238.496 249.076 238.112C249.076 236.96 248.644 236.032 247.78 235.328C246.916 234.592 245.476 234.224 243.46 234.224C240.74 234.224 238.564 234.8 236.932 235.952C235.3 237.104 234.484 238.656 234.484 240.608C234.484 242.112 235.092 243.36 236.308 244.352C237.556 245.312 239.572 245.84 242.356 245.936C243.06 245.968 243.556 246.128 243.844 246.416C244.132 246.704 244.276 247.184 244.276 247.856C244.276 249.968 243.316 251.04 241.396 251.072C238.74 251.136 236.532 251.504 234.772 252.176C233.044 252.848 231.78 253.712 230.98 254.768C230.212 255.792 229.828 256.896 229.828 258.08C229.828 260.064 230.756 261.568 232.612 262.592C234.468 263.584 237.412 264.08 241.444 264.08C244.1 264.08 246.9 263.776 249.844 263.168C252.82 262.528 255.364 261.76 257.476 260.864ZM265.278 269.84C264.094 269.84 263.246 269.584 262.734 269.072C262.222 268.528 261.966 267.52 261.966 266.048C261.966 265.056 262.062 263.856 262.254 262.448C262.446 261.04 262.782 258.912 263.262 256.064C263.326 255.68 263.582 254.128 264.03 251.408C264.478 248.656 264.878 245.776 265.23 242.768C265.55 240.208 265.71 238.288 265.71 237.008C265.71 235.568 265.182 234.848 264.126 234.848C263.326 234.848 262.318 235.28 261.102 236.144C259.918 236.976 258.638 238.32 257.262 240.176C256.814 240.784 256.318 241.088 255.774 241.088C255.326 241.088 254.926 240.88 254.574 240.464C254.254 240.016 254.094 239.52 254.094 238.976C254.094 238.432 254.19 237.92 254.382 237.44C254.574 236.928 254.926 236.32 255.438 235.616C257.006 233.472 258.75 231.824 260.67 230.672C262.59 229.488 264.606 228.896 266.718 228.896C268.478 228.896 269.79 229.44 270.654 230.528C271.55 231.616 271.998 233.2 271.998 235.28C271.998 237.136 271.742 239.824 271.23 243.344C272.83 238.608 274.862 235.024 277.326 232.592C279.79 230.128 282.686 228.896 286.014 228.896C288.638 228.896 290.606 229.648 291.918 231.152C293.262 232.624 293.934 234.608 293.934 237.104C293.934 238.512 293.726 240.224 293.31 242.24L290.382 255.968C290.062 257.568 289.902 258.944 289.902 260.096C289.902 261.44 290.206 262.448 290.814 263.12C291.454 263.792 292.334 264.128 293.454 264.128C294.51 264.128 295.534 263.776 296.526 263.072C297.55 262.368 298.75 261.2 300.126 259.568C300.51 259.12 300.942 258.896 301.422 258.896C301.838 258.896 302.158 259.088 302.382 259.472C302.638 259.856 302.766 260.384 302.766 261.056C302.766 262.304 302.462 263.296 301.854 264.032C300.19 266.048 298.542 267.52 296.91 268.448C295.278 269.376 293.566 269.84 291.774 269.84C289.054 269.84 286.926 269.04 285.39 267.44C283.854 265.808 283.086 263.632 283.086 260.912C283.086 259.856 283.166 258.704 283.326 257.456C283.518 256.208 283.822 254.624 284.238 252.704L286.158 243.92C286.222 243.632 286.334 243.12 286.494 242.384C286.654 241.648 286.782 240.96 286.878 240.32C286.974 239.648 287.022 238.992 287.022 238.352C287.022 237.328 286.734 236.512 286.158 235.904C285.582 235.296 284.766 234.992 283.71 234.992C281.79 234.992 279.87 236.016 277.95 238.064C276.03 240.112 274.254 243.424 272.622 248C270.99 252.544 269.71 258.368 268.782 265.472C268.558 267.104 268.222 268.24 267.774 268.88C267.358 269.52 266.526 269.84 265.278 269.84Z" fill="black"/>
<path d="M164.007 118.8C164.007 118.8 152.236 119.52 145.898 113.76C139.56 108 139.56 90.7199 139.56 90.7199C139.56 90.7199 161.291 89.9999 168.535 94.3199C175.778 98.6399 173.967 110.88 173.967 110.88" stroke="#2F2E41" stroke-width="4" stroke-linecap="round" stroke-linejoin="round"/>
<path d="M175.778 119.52C175.778 119.52 165.655 113.437 159.48 108C153.305 102.563 150.425 97.2 150.425 97.2" stroke="#2F2E41" stroke-width="4" stroke-linecap="round" stroke-linejoin="round"/>
<path d="M159.48 108L160.385 98.6399" stroke="#2F2E41" stroke-width="4" stroke-linecap="round" stroke-linejoin="round"/>
<path d="M159.48 108L150.425 107.28" stroke="#2F2E41" stroke-width="4" stroke-linecap="round" stroke-linejoin="round"/>
<g clip-path="url(#clip0)">
<path d="M182.073 108.988C182.073 108.988 182.55 99.6078 190.485 95.2755C198.419 90.9433 220.001 92.9628 220.001 92.9628C220.001 92.9628 218.361 110.208 212.119 115.424C205.877 120.64 190.801 117.779 190.801 117.779" stroke="#2F2E41" stroke-width="4" stroke-linecap="round" stroke-linejoin="round"/>
<path d="M179.798 118.2C179.798 118.2 188.579 110.916 196.091 106.675C203.604 102.433 210.638 100.786 210.638 100.786" stroke="#2F2E41" stroke-width="4" stroke-linecap="round" stroke-linejoin="round"/>
<path d="M196.091 106.675L207.676 108.484" stroke="#2F2E41" stroke-width="4" stroke-linecap="round" stroke-linejoin="round"/>
<path d="M196.091 106.675L198.049 99.6082" stroke="#2F2E41" stroke-width="4" stroke-linecap="round" stroke-linejoin="round"/>
</g>
<defs>
<clipPath id="clip0">
<rect width="34.697" height="43.3525" fill="white" transform="matrix(-0.146392 0.989227 -0.995651 -0.0931665 224.022 90.4391)"/>
</clipPath>
</defs>
</svg>
