<svg width="124" height="226" viewBox="0 0 124 226" fill="none" xmlns="http://www.w3.org/2000/svg">
<path d="M8.62962 168.247C4.37659 155.311 14.0123 142 27.629 142H97.9242C111.078 142 120.65 154.48 117.241 167.184L105.431 211.184C103.085 219.924 95.1637 226 86.1147 226H42.0957C33.4569 226 25.7945 220.453 23.0963 212.247L8.62962 168.247Z" fill="#988C69"/>
<ellipse cx="62.5" cy="150" rx="47.5" ry="13" fill="#353434"/>
<path d="M36.5757 5C30.6641 9.11725 27.3527 12.3453 23.1282 18C21.6112 20.0306 20.3503 22.3814 18.9259 24.5C17.5118 26.6032 17.8562 29.3409 16.5912 31.2222C15.7756 32.4354 15.991 37.9719 15.6107 39.5556C14.9153 42.4514 16.4183 46.2129 15.3772 49C13.3457 54.4387 13.8831 60.8886 13.8831 67L13.8833 116C13.8833 124.852 16.5367 128.759 19.5798 136C21.2803 140.047 22.288 148.688 22.288 153M35.7353 4.99994C44.3537 4.99994 56.747 4.12638 56.747 17.9999M55.0661 14C56.9084 19.617 60.394 26.3833 60.9494 32C61.2488 35.0285 63.4708 36.9214 63.4708 40C63.4708 42.8185 62.8683 46.7412 63.5175 49.4444C66.0035 59.7972 64.3112 73.8651 64.3112 85L64.3112 105.5C64.3112 109.369 65.7162 118.994 63.4707 122C60.7817 125.599 62.2964 133.392 61.7431 138C61.5671 139.466 61.5057 145.672 60.7626 146.778C59.4745 148.693 58.4279 151.474 58.4279 154M64.3112 94C64.3112 88.0165 64.9145 84.0199 65.9455 78.5C66.7514 74.1849 67.0598 69.1208 68.7003 65C71.207 58.7037 76.975 50.9662 81.961 48M81.1205 48H93.3073C96.2462 48 97.6827 50.7059 99.6108 53C101.075 54.7418 102.257 58.9186 103.393 60C104.865 61.4012 104.603 64.97 106.335 66C109.099 69.3922 112.218 72.6991 112.218 77.5V89C112.218 93.0795 113.749 107.089 110.537 109M110.537 107C110.398 114.915 108.016 122.793 108.016 130.5C108.016 134.374 107.627 147.231 104.654 149M89.5253 51C91.74 64.5047 91.2062 78.1263 91.2062 92C91.2062 100.257 91.0527 106.697 88.6848 114.444C87.3209 118.907 85.3229 123.089 85.3229 128C84.1889 135.084 83.7427 140.48 81.3074 147C80.418 149.381 80.2802 156.58 80.2802 159M40.7783 11C39.9267 16.3192 38.2569 22.6101 38.2569 28C38.2569 31.2885 38.7256 34.9952 37.6032 38C35.0314 44.8848 34.895 52.5503 34.895 60C34.7855 67.4284 33.2141 74.573 33.2141 82V98C33.2141 107.696 34.0545 117.475 34.0545 127C35.3394 136.364 35.0048 145.392 37.4163 154M44.9804 7C55.8162 20.2954 57.5874 35.8469 57.5874 54V87C57.5874 90.5504 55.066 93.2306 55.066 97L55.0661 158M42.4592 6C41.7984 7.89633 40.6351 13.0852 39.0974 14M34.0544 22L37.4163 25C36.2319 26.8038 35.2875 29 33.2141 29M34.895 54C32.9743 54.8918 31.1007 56 29.0117 56M31.5331 56C29.7449 55.5213 28.7137 54.9872 27.3308 54M34.8948 55C31.4463 57.9841 29.852 58.0838 29.852 63M29.0117 51C30.4124 52.302 31.3309 53.4493 32.3736 55M27.3308 86C35.1028 85.7688 29.8522 87.7586 29.8522 93M29.0117 115C32.0352 114.37 34.8247 114.854 32.3736 118.5C31.3771 119.982 31.9983 122.223 30.6926 123M36.5759 2C37.5171 2.8749 40.7782 7.35421 40.7782 7M40.7782 7V1M40.7782 7C42.6993 6.2381 44.1869 4.47298 45.8211 3M51.7044 17C51.7044 2.71449 51.1182 18 54.2258 18M59.2684 43C59.0978 43.2599 54.4988 48.3071 56.3735 48.9444C57.7121 49.3995 58.5904 48.3865 59.2684 50M59.6889 61C58.7276 61.8318 55.9809 63.917 57.1675 64C58.1013 64.0654 58.913 64.5384 59.6889 65M60.5292 84.5C59.5977 85.3061 57.4468 86.1374 56.8405 87.5C56.3045 88.7046 58.2633 89.152 58.8483 89.5M84.4826 46C88.3297 46 89.1051 46.3585 89.1051 51M92.4669 42.5C90.4669 44.3027 89.105 46.0247 89.105 49M87.0038 42.5C88.4707 45.3623 89.5252 46.2892 89.5252 49.5M107.175 56.5C105.706 57.8656 104.654 58.9746 104.654 61.25C104.654 62.5137 106.794 62 107.595 62M114.739 71.5C114.273 71.6247 110.32 73.3931 112.008 75C112.798 75.7522 114.196 77 115.16 77M116 95.5C114.525 96.1851 112.646 96.4152 113.082 98.75C113.353 100.203 114.748 100.02 115.16 101M111.377 116.5C106.583 118.726 110.574 118.588 111.798 121.5M111.798 135C108.815 135 108.436 134.536 108.436 138C108.436 139.615 109.259 140.493 110.537 141M111.798 139.5C110.615 138.401 109.671 136.98 108.436 136M87.0038 60C87.0825 60 91.5945 59.5475 90.6925 60.8888C90.1197 61.7408 89.1066 61.496 88.6848 62.5M87.8444 84C89.6132 84 92.3329 83.5116 91.1129 86.7778C90.6806 87.9349 89.4361 88.3183 89.1051 89.5M86.1635 105.5C87.3191 106.918 90.4677 109.93 88.8717 110.472C87.6176 110.899 85.7906 110.5 84.4826 110.5M88.6848 111.5C87.7224 112.333 86.7235 112.917 85.7432 113.5M79.8599 127.5C80.9568 128.52 81.7256 129.599 82.9883 130.028C83.504 130.203 84.4363 130.556 84.8093 131.111C85.6681 132.388 81.2675 132.5 80.7004 132.5M74.3968 48C74.3968 48.3157 74.9444 53.8495 74.5835 53.9722C73.7605 54.252 72.223 51.9568 71.4551 51.5M66.8327 65C66.4211 63.8477 65.8553 61.8223 65.2451 60.8888C64.9285 60.4044 67.0124 60.5 67.2529 60.5M67.2529 47.0001C66.9823 46.5879 65.6032 44.0672 65.1518 44.0001C64.7507 43.9404 64.0953 43.1476 63.8911 42.7223C62.7578 40.3626 65.0469 41.0001 66.4125 41.0001M63.891 29.5C62.8393 29.2185 60.1165 28.4069 59.712 26.7222C59.2705 24.8839 61.2846 25.2023 61.7898 24M57.1673 9.5C56.8424 11.481 56.747 13.258 56.747 15.25C56.747 16.4768 58.5037 16 59.2684 16M24.3892 8.5C24.5346 9.38674 25.6943 12.9471 25.2296 13.5C24.6297 14.2138 22.7253 14.6599 21.8678 15M13.463 25.5C14.1092 27.3089 16.4668 29.1165 15.9611 31.2222C15.6922 32.342 12.547 32 11.7821 32M9.26062 49C10.042 49.3628 13.8832 50.4873 13.8832 52C13.8832 53.8107 11.3618 53.6416 11.3618 55.5M10.1012 66C12.157 67.0739 14.9365 68.3985 13.5564 71.5C13.0072 72.7344 12.2024 74.0632 12.2024 75.5M8.84057 72.5C10.0047 71.9595 10.9691 71.5 12.2024 71.5M13.0427 98C12.1318 96.6126 9.83246 95.3608 9.26062 94M10.1012 100H13.4631M8 113.5C9.77273 113.5 11.2747 113.22 12.8327 114.25C13.5767 114.742 14.8963 116.323 13.463 117.389C11.9162 118.539 10.4656 121.133 9.68093 123M14.7236 132H18.0855C19.7905 132 18.6244 134.63 18.0855 135.611C17.1391 137.333 16.4046 137.326 16.4046 139.5M56.7472 109.5C55.805 110.376 53.1628 112.317 55.253 113.028C55.862 113.235 57.3615 114.462 57.5877 115M58.0079 124.5C57.2948 124.997 53.9429 125.886 54.9729 127.111C55.4691 127.702 56.0281 128.289 56.327 129M31.5332 139C32.4396 139.21 35.7654 139.251 35.2919 141.222C34.9724 142.553 34.0546 142.936 34.0546 144.5M77.7588 141C78.31 141.128 80.1843 141.087 80.2802 142C80.3142 142.323 80.6488 142.875 80.9339 142.972C82.5173 143.51 81.5029 142.936 80.7939 143.611C79.7628 144.593 78.302 145.5 76.9184 145.5" stroke="black" stroke-linecap="round"/>
</svg>
