<svg width="322" height="322" viewBox="0 0 322 322" fill="none" xmlns="http://www.w3.org/2000/svg">
<path d="M115.178 7.79738C114.605 10.8659 115.174 13.9685 114.65 16.9768C114.225 19.4147 113.303 21.6136 113.175 24.0065C113.037 26.5985 111.172 28.8485 111.172 31.5882C111.172 34.0283 111.172 36.4684 111.172 38.9085C111.172 48.893 110.671 59.3363 110.671 69.4967" stroke="black" stroke-linecap="round"/>
<path d="M110.671 69.4967V72.1111" stroke="black" stroke-linecap="round"/>
<path d="M115.679 6.22876C123.109 6.38707 129.021 13.7629 132.094 19.8235C133.567 22.7293 136.862 23.7062 138.214 26.8824C138.778 28.2056 140.125 30.1867 141.247 31.0654C142.688 32.194 142.39 34.5524 144.224 35.5098" stroke="black" stroke-linecap="round"/>
<path d="M136.211 24.0065C136.978 27.2876 139.19 29.2893 140.718 32.0821C141.66 33.802 144.159 34.8605 145.114 36.5555C146.943 39.8029 148.415 43.135 149.844 46.4902C151.144 49.5462 153.238 52.6562 153.238 55.902C153.238 59.4774 153.739 63.1721 153.739 66.8823" stroke="black" stroke-linecap="round"/>
<path d="M151.376 49.1046C151.376 48.1507 150.908 45.6078 151.675 44.7796C152.067 44.356 152.598 44.2036 152.869 43.6176C153.576 42.0908 154.848 41.0066 155.557 39.5508C157.249 36.0767 161.741 34.7029 163.322 31.0944C164.37 28.7035 166.848 25.3472 168.459 23.4127C169.77 21.8378 170.443 19.5103 171.266 17.732" stroke="black" stroke-linecap="round"/>
<path d="M171.266 18.2549C174.529 20.3324 177.188 22.2081 179.501 25.3137C180.381 26.4955 180.678 27.7898 181.56 28.9739C181.95 29.498 183.249 31.7412 183.285 32.3726C183.354 33.5993 182.94 35.1899 183.674 36.1489C184.229 36.8726 185.057 39.5244 185.26 40.4771C185.863 43.3075 185.789 46.144 185.789 49.1046" stroke="black" stroke-linecap="round"/>
<path d="M175.272 69.4967C175.375 65.09 178.21 63.1098 180.308 59.8235C182.333 56.6518 184.281 52.9592 186.568 49.8889C188.632 47.1176 191.189 44.8892 192.911 41.7843C193.787 40.205 195.89 39.0677 196.416 37.3689C197.067 35.2705 198.316 33.3381 199.699 31.7335C205.913 24.5246 211.692 17.1751 219.091 11.167C221.916 8.8725 224.95 7.40255 227.465 4.77633C229.158 3.00881 231.588 1.7921 233.864 1" stroke="black" stroke-linecap="round"/>
<path d="M233.363 1C233.363 10.7485 233.363 20.4969 233.363 30.2454C233.363 34.8592 232.747 39.3632 232.747 43.9418C232.747 44.9032 232.048 48.2397 231.377 48.9831C229.794 50.7386 231.147 55.0428 230.864 57.3042C229.882 65.1403 225.819 72.3718 225.351 80.2632C225.145 83.7326 222.542 86.8235 219.94 89.131C218.015 90.8389 217.338 94.8957 217.338 97.2092" stroke="black" stroke-linecap="round"/>
<path d="M181.776 119.109C181.514 111.761 184.701 102.066 192.55 101.614C195.377 101.451 197.872 99.4988 200.727 99.3342C203.598 99.1687 206.378 98.4057 209.146 98.2461C214.171 97.9564 219.356 96.7115 223.889 94.8514C228.086 93.1292 233.229 94.2613 237.524 94.1991C238.656 94.1827 239.792 94.426 240.92 94.6394C242.103 94.8632 243.887 94.6688 244.974 95.1087C246.402 95.6863 248.967 96.5525 250.418 96.4688C252.601 96.343 254.639 99.1015 256.627 99.8607C259.359 100.904 262.079 102.196 264.75 103.343C265.785 103.788 266.973 102.963 267.986 103.592C268.896 104.156 270.634 104.343 271.664 104.284C272.916 104.211 276.597 105.029 277.658 105.88C280.527 108.18 284.087 109.12 287.161 110.622" stroke="black" stroke-linecap="round"/>
<path d="M287.948 113.598C286.017 113.548 282.594 112.23 280.687 113.336C278.966 114.334 277.774 116.286 275.93 117.141C272.696 118.642 269.336 120.729 266.192 122.37C264.023 123.502 262.276 123.847 260.656 125.914C259.681 127.158 258.276 129.162 256.9 129.923C255.339 130.786 252.426 131.399 251.197 132.682C249.661 134.286 248.392 135.985 246.634 137.388C243.154 140.167 239.886 143.046 236.117 145.232C232.532 147.311 229.794 151.347 225.601 152.319C223.64 152.774 221.929 153.859 219.842 153.859C218.561 153.859 215.678 154.531 214.584 155.166C211.75 156.81 207.465 156.291 204.318 156.473C202.26 156.593 200.484 157.519 198.308 157.519" stroke="black" stroke-linecap="round"/>
<path d="M186.501 148.451C191.168 150.526 193.754 152.123 197.333 156.201C200.422 159.721 202.969 164.266 206.401 167.394C207.431 168.333 207.398 170.152 207.773 171.54C208.294 173.471 209.331 175.424 209.648 177.408C210.272 181.319 210.487 185.381 211.467 189.208C213.224 196.072 212.699 203.237 212.699 210.448C212.699 212.438 213.202 214.33 213.202 216.188C213.202 218.105 214.21 219.439 214.21 221.354C214.21 223 214.552 229.461 214.098 228.945C212.103 226.672 209.378 225.233 206.877 223.938C204.248 222.576 201.119 220.304 198.34 219.6C197.752 219.452 194.412 217.204 194.17 216.762C193.477 215.499 191.316 214.598 190.251 213.605C187.764 211.285 182.743 211.186 179.7 210.416C177.093 209.756 173.338 206.233 171.387 204.133C168.616 201.151 162.928 202.163 159.911 199.413C159.357 198.908 157.726 197.598 157.029 197.245C155.73 196.587 155.924 194.903 155.153 193.928C153.554 191.903 151.235 188.68 151.235 185.764" stroke="black" stroke-linecap="round"/>
<path d="M169.263 162.046C167.241 167.234 164.526 169.758 161.115 174.026C159.819 175.648 158.411 177.568 156.786 178.869C155.365 180.007 153.205 180.67 151.948 181.928C149.498 184.381 149.163 188.516 146.091 190.566C143.38 192.376 139.216 199.583 139.216 202.83" stroke="black" stroke-linecap="round"/>
<path d="M131.704 150.542C129.696 153.311 128.199 155.198 128.199 158.647C128.199 161.174 128.199 163.702 128.199 166.229C128.199 171.255 132.334 175.179 132.706 180.23C132.844 182.105 133.479 184.647 134.208 186.359C134.852 187.873 136.627 190.865 136.712 192.373C136.834 194.535 136.706 196.401 137.241 198.357C137.811 200.441 139.717 201.516 139.717 203.876" stroke="black" stroke-linecap="round"/>
<path d="M118.183 134.333C114.511 134.333 110.838 134.333 107.166 134.333C104.175 134.333 102.953 135.243 100.405 136.425C99.0415 137.058 96.9343 139.986 96.1486 141.421C94.8218 143.846 92.6076 146.275 91.0295 148.335C89.3887 150.476 88.0471 152.843 87.0233 155.248C85.6715 158.424 82.5509 159.27 80.6244 161.784C79.6232 163.091 77.055 167.48 75.8948 167.826C75.6099 167.911 73.9995 170.031 73.6134 170.412C72.6047 171.406 72.1111 172.669 72.1111 174.072" stroke="black" stroke-linecap="round"/>
<path d="M132.706 179.824C121.939 179.824 111.044 180.689 100.266 179.824C95.7715 179.463 92.1709 175.367 87.6353 175.118C84.9047 174.968 82.3663 173.169 79.6228 173.026C77.2814 172.904 75.0434 172.503 72.6118 172.503" stroke="black" stroke-linecap="round"/>
<path d="M93.6447 141.131C91.007 138.46 88.0272 135.148 84.9088 133.288C83.3898 132.381 82.2558 130.886 80.6244 130.034C79.9009 129.656 77.8791 128.615 77.6475 127.768C76.9824 125.338 73.5647 122.653 71.8328 120.739C69.6039 118.274 68.8924 114.381 66.6024 111.85C64.4582 109.479 64.1409 104.879 61.845 102.961C60.943 102.207 60.3623 99.486 59.981 98.3711C59.3641 96.5676 58.2485 93.1895 56.865 91.9514C52.6305 88.1616 50.6028 82.5819 45.5696 79.9543" stroke="black" stroke-linecap="round"/>
<path d="M45.5696 79.9543C51.3193 79.9543 57.069 79.9543 62.8188 79.9543C68.1031 79.9543 72.9005 81.5229 78.1204 81.5229C83.2948 81.5229 89.5379 80.5777 94.4237 82.2781C96.6523 83.0538 99.5209 85.183 101.908 85.183C103.103 85.183 106.079 86.1843 107.166 86.7516" stroke="black" stroke-linecap="round"/>
<path d="M109.168 74.7255C109.168 87.1842 108.668 99.3606 108.668 111.85" stroke="black" stroke-linecap="round"/>
<path d="M109.169 72.634C113.217 72.634 117.343 72.0652 120.91 74.435C122.189 75.2852 124.937 76.4041 126.418 76.846C130.484 78.0591 135.526 80.802 138.214 84.5439C140.53 87.7679 145.667 87.9794 147.729 91.748C148.774 93.6564 150.846 94.8865 151.847 96.9768C152.735 98.8309 154.74 100.197 154.74 102.438" stroke="black" stroke-linecap="round"/>
<path d="M154.74 109.235C154.74 105.194 154.129 100.972 157.272 97.9644C159.962 95.3902 161.774 92.6229 164.255 89.8889C166.277 87.6606 168.671 84.5284 171.516 83.6144C173.696 82.9141 176.366 83.0435 178.277 82.0457" stroke="black" stroke-linecap="round"/>
<path d="M182.6 112.895C186.237 102.632 187.238 87.9556 178.77 80.029C176.653 78.0473 176.822 74.3412 175.678 71.6629C174.633 69.2187 172.44 66.6547 171.848 64.2265C170.93 60.4674 166.258 58.5687 166.258 54.3333" stroke="black" stroke-linecap="round"/>
<path d="M166.759 54.3333C164.549 55.7406 162.978 58.2824 160.75 59.4459C159.174 60.2686 157.79 61.4479 156.521 62.6994C153.5 65.6779 151.332 69.5522 149.232 73.3893C149.017 73.7821 146.853 76.0535 146.449 76.2941C144.706 77.3344 143.905 79.5084 142.972 81.2614C141.186 84.6177 141.219 87.4495 141.219 91.4575" stroke="black" stroke-linecap="round"/>
<path d="M178.277 120.216C182.166 117.148 187.387 114.76 192.107 113.181C193.635 112.669 195.302 111.957 196.92 111.957C198.973 111.957 200.732 111.871 202.677 111.437C203.546 111.243 206.875 110.133 206.241 111.406" stroke="black" stroke-linecap="round"/>
<path d="M206.321 111.85C204.536 116.935 201.526 121.362 199.72 126.439C199.272 127.697 197.29 130.144 196.223 130.961C194.867 132 192.712 134.439 192.238 136.132C191.881 137.408 190.209 140.24 189.378 141.278C187.799 143.25 186.738 145.863 185.099 147.724C184.233 148.707 183.027 149.592 182.459 150.522C180.955 152.98 178.584 154.142 177.275 156.817" stroke="black" stroke-linecap="round"/>
<path d="M136.211 91.9804C136.211 101.431 136.211 110.881 136.211 120.332C136.211 126.573 133.481 135.666 138.214 140.608" stroke="black" stroke-linecap="round"/>
<path d="M135.71 91.4575C141.907 90.5333 142.342 95.8271 146.728 98.3711C149.259 99.8397 151.989 102.37 153.349 105.052C155.288 108.876 158.766 111.192 160.972 114.58C162.41 116.788 164.756 120.205 164.756 122.83" stroke="black" stroke-linecap="round"/>
<path d="M155.742 124.922C160.161 123.121 165.537 123.876 170.264 123.876" stroke="black" stroke-linecap="round"/>
<path d="M170.264 124.399C169.751 126.841 167.026 128.963 166.759 131.196C166.697 131.71 166.172 132.485 165.869 132.881C165.378 133.522 165.925 134.854 165.507 135.641C164.367 137.782 164.262 144.787 162.252 145.837" stroke="black" stroke-linecap="round"/>
<path d="M151.736 125.967C149.819 125.577 147.993 124.672 146.255 124.37C145.497 124.238 142.864 123.681 142.332 123.237C141.338 122.407 141.217 122.12 139.995 121.755C139.043 121.471 137.593 121.352 136.712 120.739" stroke="black" stroke-linecap="round"/>
<path d="M136.712 120.739C137.528 122.793 139.717 125.592 139.717 127.797C139.717 129.781 140.333 132.13 140.746 134.072C141.046 135.482 141.248 138.678 142.109 139.678C142.873 140.564 142.748 141.481 143.612 142.293C144.141 142.79 144.974 143.221 145.225 143.745" stroke="black" stroke-linecap="round"/>
<path d="M134.709 114.987C128.807 113.697 122.941 113.941 116.931 113.941C112.776 113.941 108.423 113.418 104.161 113.418" stroke="black" stroke-linecap="round"/>
<path d="M104.161 113.418C105.682 115.451 107.549 118.654 109.419 120.216C110.873 121.43 111.549 123.572 113.175 124.515C114.872 125.499 115.976 128.599 116.931 130.15C118.07 132.001 119.558 133.643 119.685 135.902C119.844 138.719 123.786 142.822 125.583 144.907C128.249 147.999 132.74 150.542 136.712 150.542" stroke="black" stroke-linecap="round"/>
<path d="M137.213 137.471C137.213 140.776 137.356 143.985 136.684 147.144C136.388 148.535 135.71 149.281 135.71 150.804C135.71 152.111 135.71 153.418 135.71 154.725" stroke="black" stroke-linecap="round"/>
<path d="M135.835 154.648C140.362 151.801 144.663 151.085 149.923 149.917C150.868 149.707 153.805 149.481 154.28 148.682C154.813 147.784 157.671 146.593 158.722 146.36" stroke="black" stroke-linecap="round"/>
<path d="M150.233 131.719C150.688 129.287 151.357 128.676 152.348 126.723C152.839 125.754 153.739 125.447 153.739 124.399" stroke="black" stroke-linecap="round"/>
<path d="M162.252 136.948C160.866 133.542 159.048 131.041 157.022 128.32C156.404 127.492 155.481 126.713 155.213 125.735C154.924 124.678 154.773 123.37 153.739 122.83" stroke="black" stroke-linecap="round"/>
<path d="M153.739 122.83C151.584 125.71 148.731 127.367 148.731 131.196" stroke="black" stroke-linecap="round"/>
<path d="M166.258 131.719C168.399 133.685 172.527 136.429 173.496 138.789C174.5 141.235 175.853 143.673 177.182 146.078C179.382 150.058 177.587 156.724 177.587 161" stroke="black" stroke-linecap="round"/>
<path d="M149.394 156.817C152.224 157.301 154.34 158.724 157.139 159.203C159.536 159.613 161.934 160.024 164.332 160.434C166.876 160.87 169.42 161.305 171.964 161.741C173.915 162.075 175.607 161.305 177.562 161.64" stroke="black" stroke-linecap="round"/>
<path d="M108.167 72.1111C102.029 68.3594 94.3092 63.6165 87.1346 63.2222C85.3948 63.1266 83.9101 61.8421 82.3772 61.1307C80.6609 60.3343 78.8714 60.6749 77.0077 60.6078C73.3576 60.4764 68.9146 58.6016 65.601 57.0639C62.2322 55.5006 57.8351 54.3333 54.1943 54.3333C50.0457 54.3333 46.2958 53.4412 42.1755 53.2876C36.5051 53.0761 30.7814 52.7647 25.0376 52.7647" stroke="black" stroke-linecap="round"/>
<path d="M25.0376 52.7647C27.9448 55.2079 29.8428 57.2799 31.4365 60.6078C32.4626 62.7506 33.1723 65.0205 34.3021 67.1438C36.5549 71.3779 36.9168 77.3479 41.2852 79.9543C42.6594 80.7742 45.2727 83.493 46.0705 84.9506C46.8064 86.2953 50.4288 88.1237 50.5775 89.366C50.6024 89.5741 52.2388 91.5789 52.5806 91.9804C53.3206 92.8495 53.9519 93.8579 54.8342 94.5948C56.4181 95.9178 57.7753 97.3067 59.5916 98.2549" stroke="black" stroke-linecap="round"/>
<path d="M60.0923 102.961C53.533 102.961 46.7647 103.484 40.061 103.484" stroke="black" stroke-linecap="round"/>
<path d="M40.061 103.484C42.9189 105.744 45.8894 107.692 48.0736 110.542C49.623 112.565 51.8446 113.781 53.1927 116.033C54.0109 117.4 56.1029 119.707 57.338 120.739C59.0532 122.171 59.1321 124.943 61.0939 125.967" stroke="black" stroke-linecap="round"/>
<path d="M78.1205 126.49C73.8638 126.49 69.6072 126.49 65.3505 126.49C61.1647 126.49 58.5468 127.029 54.695 128.466C50.6587 129.971 47.079 132.537 43.2883 134.595C41.5079 135.561 38.1329 136.732 36.6668 138.11C35.6681 139.048 33.1581 139.263 32.5493 140.375C31.8809 141.597 30.1031 141.838 29.2664 142.961C28.1645 144.44 25.4961 145.295 24.036 146.65C22.6055 147.978 17.0744 149.447 16.5521 151.356C15.5443 155.039 11.4024 156.638 8.51174 157.979C6.33299 158.99 2.35232 159.405 1 161.523" stroke="black" stroke-linecap="round"/>
<path d="M1 161.523C6.60654 161.523 11.8934 161.291 17.2754 162.54C20.633 163.319 24.2839 165.706 27.6528 165.706C29.8895 165.706 33.0205 166.534 34.9419 167.797C36.9152 169.095 39.7182 169.034 42.0363 169.337C45.7772 169.825 50.5221 168.902 53.0814 172.242C55.4532 175.337 59.7375 172.861 62.5962 174.188C66.2745 175.895 70.1627 176.126 74.1142 176.715C75.9918 176.995 77.3208 177.732 79.4003 177.732C81.3107 177.732 83.2211 177.732 85.1314 177.732C86.8498 177.732 94.4681 178.627 95.1471 177.209" stroke="black" stroke-linecap="round"/>
<path d="M54.0831 173.026C49.1752 177.03 45.1487 181.283 41.4522 186.33C38.8928 189.825 35.7922 193.598 33.8014 197.34C32.9394 198.96 31.5393 201.971 30.0455 202.946C28.7163 203.814 27.0408 208.922 27.0408 210.412C27.0408 211.431 25.4404 214.673 24.5369 215.263C20.6068 217.828 21.2643 225.192 17.0251 227.405" stroke="black" stroke-linecap="round"/>
<path d="M17.0251 227.405C22.0014 227.405 26.213 225.579 31.0471 225.314C33.625 225.172 37.0363 224.661 39.4491 223.745C41.7076 222.888 44.8155 220.703 47.1834 220.608C51.9097 220.418 56.6691 219.562 61.3444 219.562C67.5541 219.562 72.8116 214.333 78.8718 214.333C83.6338 214.333 87.7988 212.708 92.1425 211.196" stroke="black" stroke-linecap="round"/>
<path d="M100.656 180.346C98.8493 185.006 95.8594 189.026 93.756 193.418C92.8063 195.401 93.9147 199.085 93.6169 201.261C92.677 208.131 92.0114 215.227 91.6416 222.176C91.584 223.259 90.8295 224.33 90.6678 225.343C90.4107 226.954 90.64 228.798 90.64 230.426C90.64 233.37 90.1392 235.989 90.1392 238.908C90.1392 243.734 88.1361 248.355 88.1361 252.997C88.1361 255.593 87.1345 257.669 87.1345 260.346" stroke="black" stroke-linecap="round"/>
<path d="M87.1345 260.346C89.5292 256.457 94.5556 253.989 98.263 251.458C101.66 249.139 104.73 246.435 107.917 243.847C109.312 242.714 110.291 240.908 111.895 240.07C115.64 238.115 119.938 235.981 123.08 233.041C125.782 230.511 128.818 228.327 131.454 225.575C132.894 224.072 133.671 223.067 135.822 222.293C137.82 221.573 138.453 220.559 139.967 219.33C142.57 217.216 144.058 214.25 146.227 211.719C147.876 209.795 150.758 205.956 152.987 204.922C155.672 203.676 155.715 200.272 156.743 198.124" stroke="black" stroke-linecap="round"/>
<path d="M219.341 88.8431C224.26 85.9328 228.38 81 233.649 81C237.779 81 241.112 79.2571 245.175 79.2571C246.482 79.2571 247.496 78.0277 248.724 77.5626C249.98 77.0867 251.528 77.5142 252.812 77.5142C254.775 77.5142 256.448 76.6427 258.433 76.6427C260.589 76.6427 262.838 75.7712 265.076 75.7712C266.514 75.7712 267.935 73.1569 269.419 73.1569" stroke="black" stroke-linecap="round"/>
<path d="M269.42 73.1569C268.68 77.1163 267.173 79.4312 265.135 82.6848C264.077 84.3745 263.679 87.4864 262.13 88.8722C259.481 91.2431 257.47 96.9926 256.399 100.346" stroke="black" stroke-linecap="round"/>
<path d="M254.396 129.627C257.363 129.627 261.127 130.09 263.299 132.358C264.42 133.529 267.351 132.524 268.891 133.026C270.966 133.703 272.907 134.776 274.928 135.379C277.82 136.242 280.724 139.073 283.441 140.492C284.648 141.122 286.022 141.144 287.225 141.944C289.494 143.452 291.885 143.44 294.18 144.529C299.453 147.032 304.554 148.614 309.482 151.472C311.966 152.913 315.667 152.359 316.521 155.481C316.957 157.074 319.278 160.477 321 160.477" stroke="black" stroke-linecap="round"/>
<path d="M213.332 155.771C216.95 158.634 221.44 160.792 224.126 164.399C226.498 167.583 229.525 170.602 232.862 172.619C234.908 173.856 236.388 176.706 237.898 178.545C239.153 180.074 240.886 181.404 242.266 182.845C243.104 183.72 244.292 186.104 245.159 186.621C246.233 187.262 247.546 189.956 248.136 191.065C249.422 193.481 251.099 195.47 252.393 197.834C254.298 201.315 256.612 204.786 258.291 208.291C260.556 213.022 261.757 217.92 264.161 222.438C266.518 226.867 270.237 233.086 270.421 238.269C270.493 240.298 270.231 242.253 271.033 244.137C271.708 245.722 272.925 247.079 272.925 248.843" stroke="black" stroke-linecap="round"/>
<path d="M241.876 182.961C245.338 182.961 247.842 184.007 251.141 184.007C255.067 184.007 259.76 184.49 263.521 183.367C264.817 182.981 266.773 183.411 267.917 182.845C269.563 182.03 271.341 180.973 272.953 180.027C274.592 179.064 275.809 177.673 277.682 177.238C279.472 176.823 281.229 176.132 282.829 175.118C285.406 173.484 288.129 173.212 290.703 171.719C292.935 170.424 297.135 167.463 299.578 167.275C301.493 167.126 303.016 165.148 304.697 164.253C306.552 163.266 308.374 162.157 310.261 161.261C312.373 160.259 315.619 160.737 317.495 159.431" stroke="black" stroke-linecap="round"/>
<path d="M252.393 184.007C257.548 184.141 260.405 192.488 260.405 197.078" stroke="black" stroke-linecap="round"/>
<path d="M260.405 197.078C257.368 195.841 254.592 196.033 251.391 196.033" stroke="black" stroke-linecap="round"/>
<path d="M271.423 247.275C269.371 245.601 267.61 243.6 265.413 242.452C264.173 241.805 263.067 240.311 261.657 239.983C260.309 239.671 259.229 239.641 257.901 239.025C257.054 238.632 255.58 238.573 254.646 238.357C253.537 238.099 252.43 236.877 251.391 236.817C248.594 236.655 245.678 234.021 243.379 232.75C241.524 231.725 238.499 231.294 236.368 230.659C233.487 229.799 230.543 228.925 227.854 227.521C225.918 226.511 222.954 225.546 220.843 225.314C219.627 225.18 214.207 224.527 213.833 223.745" stroke="black" stroke-linecap="round"/>
<path d="M178.277 211.196C178.277 214.908 177.939 217.94 176.868 221.442C176.255 223.447 175.233 226.412 175.233 228.52C175.233 232.635 174.146 237.162 173.712 241.046C173.493 242.997 172.304 244.692 172.19 246.909C172.035 249.908 170.827 253.461 169.653 256.237C168.504 258.953 167.504 262.027 165.877 264.469C164.748 266.164 164.516 268.997 163.453 270.895C158.774 279.254 155.975 288.753 152.011 297.547C151.081 299.61 151.366 302.667 149.756 304.358C148.295 305.893 146.048 307.439 145.05 309.303C143.193 312.771 139.216 316.915 139.216 321" stroke="black" stroke-linecap="round"/>
<path d="M118.183 237.34C120.608 240.926 121.022 244.977 122.941 248.582C123.833 250.26 124.183 252.6 124.665 254.362C124.864 255.087 124.455 255.996 124.805 256.686C125.27 257.604 126.303 258.247 126.808 259.301C127.569 260.89 128.632 262.592 128.7 264.413C128.774 266.436 130.202 267.961 130.202 270.02C130.202 273.806 132.127 276.366 132.817 279.809C133.611 283.771 134.138 287.752 134.681 291.719C134.922 293.478 134.709 295.427 134.709 297.209C134.709 299.23 135.71 300.75 135.71 302.699C135.71 305.613 137.451 308.669 138.187 311.356C138.553 312.696 138.214 314.636 138.214 316.033C138.214 317.889 138.715 319.209 138.715 321" stroke="black" stroke-linecap="round"/>
<path d="M173.269 241.523C176.177 245.531 179.72 250.161 183.313 253.288C184.394 254.229 188.323 253.811 189.572 253.956C191.914 254.227 194.16 254.291 196.305 255.234C197.987 255.973 201.169 256.942 202.203 258.778C203.408 260.916 206.354 261.894 208.574 262.409C209.948 262.728 213.409 263.062 214.333 264.268C215.125 265.302 219.18 265.797 219.341 267.144C219.548 268.869 223.109 270.157 224.349 270.804" stroke="black" stroke-linecap="round"/>
<path d="M224.85 227.928C224.85 233.376 227.146 238.682 229.246 243.614C230.114 245.655 229.357 249.449 229.357 251.69C229.357 254.307 231.18 258.138 232.111 260.666C232.373 261.377 233.973 274.543 232.584 274.958C231.082 275.406 229.658 272.477 227.854 272.373C226.182 272.276 224.963 270.804 223.347 270.804" stroke="black" stroke-linecap="round"/>
<path d="M143.222 150.542C143.821 150.86 146.947 151.587 146.997 152.739C147.043 153.799 147.18 154.255 147.806 154.935C148.67 155.872 149.267 157.207 150.233 157.863" stroke="black" stroke-linecap="round"/>
<path d="M149.232 129.105C148.538 132.405 147.398 134.015 145.977 136.686C145.035 138.456 145.726 142.246 145.726 144.268" stroke="black" stroke-linecap="round"/>
<path d="M148.23 144.268C153.073 143.158 155.175 138.516 160.249 138.516" stroke="black" stroke-linecap="round"/>
<path d="M160.249 148.451C159.111 147.987 156.934 146.956 155.742 146.882C154.777 146.823 153.881 147.106 153.127 146.476C151.886 145.44 148.508 147.462 147.729 145.837" stroke="black" stroke-linecap="round"/>
<path d="M161.25 138.516C160.775 140.724 160.249 142.018 160.249 144.268C160.249 145.812 160.209 147.008 159.748 148.451" stroke="black" stroke-linecap="round"/>
<path d="M149.232 134.856C152.022 136.975 152.737 138.091 152.737 141.654" stroke="black" stroke-linecap="round"/>
<path d="M181.282 118.124C176.513 123.103 173.636 128.339 170.765 134.333" stroke="black" stroke-linecap="round"/>
</svg>
