<svg width="89" height="186" viewBox="0 0 89 186" fill="none" xmlns="http://www.w3.org/2000/svg">
<path d="M7.32372 142.451C3.65532 129.669 13.2501 116.933 26.5476 116.933H63.7725C76.6617 116.933 86.1855 128.946 83.2452 141.496L76.4351 170.562C74.3164 179.606 66.2506 186 56.9624 186H34.89C25.9692 186 18.1271 180.092 15.6661 171.517L7.32372 142.451Z" fill="#988C69"/>
<ellipse cx="44.8589" cy="123.511" rx="34.0927" ry="10.6889" fill="#353434"/>
<path d="M26.2519 4.28889C22.0089 7.67419 19.6322 10.3284 16.6001 14.9778C15.5113 16.6474 14.6063 18.5803 13.5839 20.3222C12.5689 22.0515 12.8162 24.3025 11.9082 25.8494C11.3228 26.8469 11.4774 31.3991 11.2045 32.7012C10.7054 35.0823 11.7841 38.175 11.0369 40.4667C9.57875 44.9385 9.96447 50.2417 9.96447 55.2667L9.96463 95.5556C9.96463 102.834 11.8691 106.046 14.0532 112C15.2738 115.327 15.997 122.433 15.997 125.978M25.6487 4.28884C31.8346 4.28884 40.7297 3.57058 40.7297 14.9777M39.5233 11.6889C40.8456 16.3073 43.3473 21.8707 43.7459 26.4889C43.9609 28.979 45.5556 30.5354 45.5556 33.0667C45.5556 35.3841 45.1232 38.6094 45.5892 40.8321C47.3735 49.3443 46.1589 60.9113 46.1589 70.0667L46.1588 86.9222C46.1588 90.1037 47.1673 98.0176 45.5556 100.489C43.6256 103.448 44.7127 109.855 44.3156 113.644C44.1893 114.85 44.1453 119.953 43.6118 120.862C42.6874 122.437 41.9362 124.723 41.9362 126.8M46.1589 77.4667C46.1589 72.5469 46.5919 69.2608 47.3318 64.7222C47.9103 61.1742 48.1316 57.0104 49.3091 53.6222C51.1082 48.4453 55.2482 42.0834 58.8269 39.6444M58.2236 39.6444H66.9706C69.08 39.6444 70.111 41.8693 71.4948 43.7556C72.5456 45.1877 73.394 48.6219 74.2094 49.5111C75.266 50.6632 75.078 53.5975 76.3208 54.4444C78.3051 57.2336 80.5435 59.9526 80.5435 63.9V73.3556C80.5435 76.7098 81.6421 88.2291 79.337 89.8M79.337 88.1556C79.2375 94.6638 77.5273 101.141 77.5273 107.478C77.5273 110.663 77.2483 121.235 75.1144 122.689M64.2561 42.1111C65.8456 53.215 65.4625 64.415 65.4625 75.8222C65.4625 82.6114 65.3524 87.906 63.6528 94.2765C62.6739 97.9457 61.2398 101.384 61.2398 105.422C60.4259 111.247 60.1057 115.684 58.3578 121.044C57.7194 123.002 57.6205 128.922 57.6205 130.911M29.2683 9.22222C28.6571 13.5958 27.4586 18.7683 27.4586 23.2C27.4586 25.9039 27.795 28.9516 26.9894 31.4222C25.1435 37.083 25.0456 43.3858 25.0456 49.5111C24.967 55.6189 23.8391 61.4933 23.8391 67.6V80.7556C23.8391 88.7278 24.4424 96.7683 24.4424 104.6C25.3646 112.299 25.1244 119.723 26.8552 126.8M32.2844 5.93333C40.0616 16.8651 41.3329 29.6519 41.3329 44.5778V71.7111C41.3329 74.6303 39.5232 76.8341 39.5232 79.9333L39.5233 130.089M30.4748 5.11111C30.0005 6.67031 29.1655 10.9367 28.0618 11.6889M24.4423 18.2667L26.8552 20.7333C26.0051 22.2165 25.3274 24.0222 23.8391 24.0222M25.0456 44.5778C23.6671 45.311 22.3223 46.2222 20.8229 46.2222M22.6326 46.2222C21.3492 45.8286 20.609 45.3895 19.6165 44.5778M25.0455 45.4C22.5703 47.8536 21.4261 47.9356 21.4261 51.9778M20.8229 42.1111C21.8282 43.1816 22.4875 44.125 23.2359 45.4M19.6165 70.8889C25.1948 70.6988 21.4262 72.3348 21.4262 76.6444M20.8229 94.7333C22.993 94.2157 24.9952 94.6137 23.2359 97.6111C22.5206 98.8297 22.9665 100.672 22.0294 101.311M26.2521 1.82222C26.9276 2.54159 29.2683 6.22458 29.2683 5.93333M29.2683 5.93333V1M29.2683 5.93333C30.6471 5.30688 31.7148 3.85556 32.8877 2.64444M37.1104 14.1555C37.1104 2.40969 36.6897 14.9778 38.9202 14.9778M42.5395 35.5333C42.417 35.747 39.1161 39.897 40.4616 40.421C41.4224 40.7951 42.0528 39.9622 42.5395 41.2889M42.8412 50.3333C42.1513 51.0173 40.1799 52.7317 41.0315 52.8C41.7017 52.8537 42.2843 53.2427 42.8412 53.6222M43.4444 69.6556C42.7757 70.3184 41.232 71.0019 40.7968 72.1222C40.4121 73.1127 41.818 73.4805 42.2379 73.7667M60.6367 38C63.3979 38 63.9545 38.2948 63.9545 42.1111M66.3674 35.1222C64.9319 36.6044 63.9544 38.0203 63.9544 40.4667M62.4463 35.1222C63.4991 37.4757 64.256 38.2378 64.256 40.8778M76.9241 46.6333C75.8696 47.7562 75.1144 48.668 75.1144 50.5389C75.1144 51.578 76.6508 51.1556 77.2257 51.1556M82.3532 58.9667C82.0188 59.0692 79.181 60.5232 80.3927 61.8444C80.9599 62.4629 81.9634 63.4889 82.6548 63.4889M83.2581 78.7C82.1991 79.2633 80.8505 79.4525 81.1635 81.3722C81.3583 82.5668 82.3593 82.4166 82.6549 83.2222M79.9402 95.9667C76.4989 97.7972 79.3636 97.6836 80.2419 100.078M80.2419 111.178C78.101 111.178 77.8289 110.796 77.8289 113.644C77.8289 114.972 78.42 115.694 79.337 116.111M80.2419 114.878C79.3931 113.974 78.7153 112.805 77.8289 112M62.4463 49.5111C62.5028 49.5111 65.7412 49.139 65.0938 50.2419C64.6827 50.9424 63.9556 50.7412 63.6528 51.5666M63.0496 69.2445C64.3191 69.2445 66.2712 68.8429 65.3955 71.5284C65.0853 72.4798 64.1921 72.7951 63.9545 73.7667M61.8432 86.9222C62.6726 88.088 64.9325 90.5644 63.7869 91.0105C62.8868 91.361 61.5755 91.0333 60.6367 91.0333M63.6528 91.8556C62.9621 92.5403 62.2451 93.0205 61.5415 93.5M57.3188 105.011C58.1061 105.849 58.6579 106.737 59.5642 107.09C59.9343 107.234 60.6035 107.524 60.8712 107.98C61.4876 109.03 58.3291 109.122 57.9221 109.122M53.3977 39.6444C53.3977 39.904 53.7908 44.4541 53.5317 44.5549C52.941 44.785 51.8375 42.8978 51.2864 42.5222M47.9686 53.6222C47.6732 52.6748 47.2671 51.0094 46.8292 50.2419C46.6019 49.8436 48.0976 49.9222 48.2703 49.9222M48.2703 38.8223C48.076 38.4834 47.0862 36.4108 46.7622 36.3556C46.4743 36.3066 46.0039 35.6547 45.8573 35.305C45.0439 33.3648 46.6869 33.8889 47.667 33.8889M45.8572 24.4333C45.1024 24.2018 43.1482 23.5346 42.8578 22.1494C42.541 20.6378 43.9865 20.8997 44.3492 19.9111M41.0313 7.98889C40.7982 9.61768 40.7297 11.0788 40.7297 12.7167C40.7297 13.7254 41.9905 13.3333 42.5394 13.3333M17.5051 7.16667C17.6095 7.89577 18.4419 10.8232 18.1084 11.2778C17.6778 11.8647 16.3109 12.2315 15.6954 12.5111M9.66299 21.1444C10.1268 22.6318 11.8189 24.118 11.4559 25.8494C11.263 26.7701 9.00552 26.4889 8.45652 26.4889M6.64675 40.4667C7.20757 40.765 9.96456 41.6896 9.96456 42.9333C9.96456 44.4221 8.15484 44.2831 8.15484 45.8111M7.25006 54.4444C8.72559 55.3274 10.7205 56.4166 9.73004 58.9667C9.33582 59.9816 8.75815 61.0742 8.75815 62.2556M6.34525 59.7889C7.1808 59.3445 7.87297 58.9667 8.75821 58.9667M9.36132 80.7556C8.70748 79.6148 7.05718 78.5855 6.64675 77.4667M7.25006 82.4H9.66301M5.74194 93.5C7.01431 93.5 8.09231 93.2699 9.21056 94.1167C9.74458 94.5211 10.6917 95.8212 9.66299 96.6976C8.55277 97.6434 7.5116 99.7759 6.94842 101.311M10.5678 108.711H12.9807C14.2045 108.711 13.3675 110.874 12.9807 111.68C12.3014 113.096 11.7743 113.091 11.7743 114.878M40.7299 90.2111C40.0536 90.9313 38.1572 92.5275 39.6574 93.1117C40.0945 93.2819 41.1708 94.2909 41.3331 94.7333M41.6347 102.544C41.1229 102.953 38.7171 103.684 39.4563 104.691C39.8125 105.177 40.2137 105.66 40.4282 106.244M22.6327 114.467C23.2832 114.64 25.6703 114.673 25.3305 116.294C25.1012 117.388 24.4424 117.703 24.4424 118.989M55.8108 116.111C56.2064 116.216 57.5516 116.182 57.6205 116.933C57.6449 117.199 57.8851 117.653 58.0897 117.733C59.2262 118.175 58.498 117.703 57.9891 118.258C57.2491 119.065 56.2006 119.811 55.2075 119.811" stroke="black" stroke-linecap="round"/>
</svg>
