<svg width="241" height="224" viewBox="0 0 241 224" fill="none" xmlns="http://www.w3.org/2000/svg">
<path d="M140 167.598C140.835 166.609 141.996 165.312 143.054 164.666C144.005 164.086 145.504 163.992 146.33 163.152C147.33 162.135 148.224 161.122 149.397 160.363C150.237 159.82 151.042 159.549 151.929 159.216C152.316 159.071 153.922 158.631 154.096 158.26C154.809 156.737 156.495 156.08 157.098 154.691C157.427 153.932 157.385 153.299 157.385 152.396C157.385 151.464 156.215 151.822 155.623 151.822C154.091 151.822 153.236 152.458 152.164 153.766C150.566 155.718 147.988 158.349 147.988 161.288" stroke="black" stroke-linecap="round" stroke-linejoin="round"/>
<path d="M143.759 164.156C143.406 161.896 143.524 159.567 143.524 157.272" stroke="black" stroke-linecap="round" stroke-linejoin="round"/>
<path d="M143.524 157.272C144.657 155.501 146.348 155.559 147.648 154.261C148.54 153.37 149.433 152.53 150.337 151.663C150.851 151.17 151.383 150.064 151.995 149.815C152.646 149.55 153.022 149.059 153.626 148.731C154.397 148.313 155.35 148.199 156.158 147.871C157.727 147.232 159.715 145.823 160.909 144.365" stroke="black" stroke-linecap="round" stroke-linejoin="round"/>
<path d="M160.909 144.365C160.909 142.913 161.422 140.636 159.852 140.636C158.755 140.636 157.659 140.636 156.563 140.636C155.379 140.636 154.475 141.136 153.391 141.21C152.749 141.253 151.197 141.466 150.755 142.006C150.255 142.616 149.401 143.214 148.81 143.791C148.106 144.479 147.507 145.304 146.917 146.229C145.719 148.11 145.168 150.494 145.168 152.97" stroke="black" stroke-linecap="round" stroke-linejoin="round"/>
<path d="M145.169 152.97C145.169 151.014 144.763 150.279 144.177 148.667C143.74 147.469 143.994 145.68 143.994 144.365C143.994 142.777 144.228 142.231 145.116 141.146C145.842 140.261 145.997 138.994 146.865 138.342C149.056 136.696 151.297 136.518 153.861 136.334C155.19 136.238 156.487 135.76 157.855 135.76C158.443 135.76 160.443 135.463 160.674 134.9" stroke="black" stroke-linecap="round" stroke-linejoin="round"/>
<path d="M160.674 134.9C161.846 132.909 160.089 133.466 158.912 133.466C157.933 133.466 156.954 133.466 155.975 133.466C153.993 133.466 152.395 134.463 151.511 136.621" stroke="black" stroke-linecap="round" stroke-linejoin="round"/>
<path d="M149.162 136.907C149.852 134.749 149.401 132.528 150.572 130.74C150.913 130.221 151.471 129.88 151.747 129.29C152.222 128.274 152.759 128.415 153.391 127.729C154.458 126.571 155.746 125.877 157.033 125.004C157.807 124.479 158.512 124.574 159.382 124.574C160.15 124.574 160.404 124 161.144 124" stroke="black" stroke-linecap="round" stroke-linejoin="round"/>
<path d="M161.144 124C162.7 124 164.803 124.005 165.79 125.211C166.355 125.901 167.289 127.529 167.5 128.43C167.545 128.624 168.226 129.942 168.309 130.023C168.824 130.527 168.662 131.449 168.662 132.175C168.662 132.968 168.566 133.747 168.897 134.453C169.214 135.131 169.836 135.06 169.836 136.047" stroke="black" stroke-linecap="round" stroke-linejoin="round"/>
<path d="M151.512 188.823C151.512 187.728 151.924 185.007 150.937 184.298C150.272 183.82 149.864 183.211 149.345 182.577C148.266 181.26 146.98 179.529 146.343 177.78C145.69 175.985 143.958 175.117 143.511 173.207C143.305 172.328 142.678 171.226 142.349 170.323C141.946 169.215 141.043 168.817 140.47 167.885" stroke="black" stroke-linecap="round" stroke-linejoin="round"/>
<path d="M151.747 188.537C151.908 188.072 152.447 185.802 152.739 185.445C152.891 185.259 154.085 185.112 154.331 185.095C154.782 185.062 155.324 184.425 155.74 184.171C156.353 183.796 157.052 183.661 157.737 183.661C160.33 183.661 162.035 182.686 164.198 181.366" stroke="black" stroke-linecap="round" stroke-linejoin="round"/>
<path d="M164.198 181.366C165.788 181.005 167.207 180.657 168.662 179.868C169.281 179.532 171.011 178.06 171.011 177.35" stroke="black" stroke-linecap="round" stroke-linejoin="round"/>
<path d="M171.011 177.637C170.986 176.394 170.621 175.364 170.306 174.211C170.094 173.435 169.404 172.778 169.366 171.9C169.313 170.652 169.264 168.751 168.844 167.598C168.457 166.533 167.722 165.028 167.722 163.869C167.722 162.779 167.376 161.279 166.73 160.491C166.317 159.987 166.349 157.745 166.312 156.985C166.245 155.581 165.647 154.978 167.252 154.978C169.605 154.978 170.306 158.254 170.306 160.714C170.306 161.939 170.666 163.351 171.063 164.443C171.661 166.084 171.716 167.458 171.716 169.255C171.716 170.629 171.888 171.955 171.951 173.335C172.007 174.573 172.656 175.783 172.656 177C172.656 177.224 172.671 178.733 172.773 178.609C173.111 178.196 173.413 177.291 173.647 176.777C174.247 175.46 175.545 174.268 176.414 173.207C177.329 172.091 178.174 170.673 178.816 169.319C179.416 168.053 180.446 167.099 181.113 165.877" stroke="black" stroke-linecap="round" stroke-linejoin="round"/>
<path d="M178.529 159.567C176.687 156.696 174.954 153.545 173.073 150.739C172.966 150.58 172.716 150.433 172.669 150.229C172.537 149.667 172.212 148.957 172.186 148.381C172.135 147.27 171.011 146.528 171.011 145.369C171.011 144.264 173.11 144.652 173.713 144.652C174.707 144.652 175.006 146.177 175.527 146.883C176.111 147.676 175.971 149.182 176.884 149.878C177.76 150.547 178.059 152.26 178.059 153.4C178.059 153.937 177.931 154.769 178.111 155.264C178.338 155.887 178.871 155.937 179.012 156.539C179.152 157.138 179.469 157.391 179.469 158.133C179.469 158.802 179.469 159.471 179.469 160.141" stroke="black" stroke-linecap="round" stroke-linejoin="round"/>
<path d="M169.836 135.473C171.513 136.962 171.972 137.222 173.308 135.41C174.002 134.468 174.45 133.179 175.71 133.179" stroke="black" stroke-linecap="round" stroke-linejoin="round"/>
<path d="M175.709 133.178C177.341 133.178 178.963 133.057 180.526 133.481C182.015 133.885 181.834 135.741 182.34 136.907C182.594 137.494 183.304 138.566 183.697 139.074C184.022 139.495 184.234 140.715 184.532 140.923C185.36 141.5 185.185 143.981 185.577 144.938" stroke="black" stroke-linecap="round" stroke-linejoin="round"/>
<path d="M185.577 144.938C185.867 146.755 185.812 148.545 185.812 150.388C185.812 151.566 186.08 154.428 185.224 155.264C184.624 155.851 184.492 157.958 184.167 158.85C183.761 159.966 183.481 160.848 183.214 161.989C183.181 162.131 182.97 162.342 182.875 162.435C182.624 162.68 182.818 163.24 182.705 163.582C182.585 163.949 182.523 165.758 182.523 164.73C182.523 163.259 182.009 162.441 181.296 161.351C180.067 159.476 180.484 156.458 178.529 155.264" stroke="black" stroke-linecap="round" stroke-linejoin="round"/>
<path d="M183.697 162.148C184.107 163.431 184.244 165.185 184.754 166.307C185.136 167.145 185.577 168.68 185.577 169.606" stroke="black" stroke-linecap="round" stroke-linejoin="round"/>
<path d="M181.789 164.647C182.3 165.952 183.412 167.838 183.412 169.213C183.412 170.918 183.553 172.582 183.644 174.215C183.709 175.388 184.571 176.476 184.571 177.772C184.571 178.9 184.933 180.268 185.267 181.329" stroke="black" stroke-linecap="round" stroke-linejoin="round"/>
<path d="M188.396 166.164C187.308 167.492 185.948 168.918 185.055 166.738C184.374 165.076 186.216 164.468 187.039 163.646C187.863 162.823 188.441 161.744 189.153 160.778C189.91 159.75 190.581 159.022 190.98 157.559" stroke="black" stroke-linecap="round" stroke-linejoin="round"/>
<path d="M182.758 163.296C184.361 160.956 185.903 158.908 187.874 157.272C188.622 156.651 189.051 156.699 190.04 156.699C191.265 156.699 191.208 156.716 190.745 157.846" stroke="black" stroke-linecap="round" stroke-linejoin="round"/>
<path d="M186.047 152.396C187.887 151.903 190.401 150.986 190.275 148.381C190.23 147.434 186.276 150.298 185.812 150.675" stroke="black" stroke-linecap="round" stroke-linejoin="round"/>
<path d="M183.697 138.055C184.129 137.671 185.216 137.087 185.355 136.493C185.479 135.963 186.421 135.968 186.699 135.696C187.107 135.298 189.232 135.2 189.688 135.633C190.677 136.572 190.439 137.678 190.758 139.043C190.974 139.963 192.023 140.887 192.39 141.783" stroke="black" stroke-linecap="round" stroke-linejoin="round"/>
<path d="M188.396 148.954C188.396 149.719 188.396 150.484 188.396 151.249" stroke="black" stroke-linecap="round" stroke-linejoin="round"/>
<path d="M186.986 157.846C186.986 159.949 186.986 162.053 186.986 164.156" stroke="black" stroke-linecap="round" stroke-linejoin="round"/>
<path d="M186.281 168.172C186.281 169.032 186.281 169.893 186.281 170.753" stroke="black" stroke-linecap="round" stroke-linejoin="round"/>
<ellipse rx="14.6494" ry="7.07775" transform="matrix(0.968487 0.249066 -0.170015 0.985442 190.956 213.377)" fill="#F2EDDC"/>
<path d="M188.161 169.319C188.161 168.554 188.161 167.789 188.161 167.024" stroke="black" stroke-linecap="round" stroke-linejoin="round"/>
<path d="M188.161 161.575C188.161 160.236 188.161 158.898 188.161 157.559" stroke="black" stroke-linecap="round" stroke-linejoin="round"/>
<path d="M189.336 150.675C189.336 150.006 189.336 149.337 189.336 148.667" stroke="black" stroke-linecap="round" stroke-linejoin="round"/>
<path d="M192.39 140.923C192.418 139.514 192.86 138.063 192.86 136.764C192.86 135.455 193.629 134.87 194.086 133.752C194.823 131.952 197.036 132.031 198.498 132.031" stroke="black" stroke-linecap="round" stroke-linejoin="round"/>
<path d="M198.498 132.031C200.224 132.031 201.259 131.675 202.139 133.609C202.59 134.6 203.272 135.372 203.666 136.334" stroke="black" stroke-linecap="round" stroke-linejoin="round"/>
<path d="M203.666 136.333C206.442 137.077 206.345 141.092 207.791 143.361C208.451 144.397 209.437 145.432 209.762 146.819C210.038 148 209.588 146.455 209.357 146.149C209.225 145.975 209.079 145.29 208.939 145.241C208.676 145.149 208.389 145.302 208.13 145.161C206.508 144.281 205.23 142.636 203.562 142.054C202.857 141.808 198.263 139.653 198.263 141.496" stroke="black" stroke-linecap="round" stroke-linejoin="round"/>
<path d="M198.263 141.497C199.266 143.064 199.346 142.858 200.73 143.233C201.572 143.462 202.369 143.614 203.21 143.935C205.383 144.764 207.132 144.855 208.835 146.819C209.803 147.935 210.714 149.004 210.714 150.819C210.714 152.492 210.714 154.165 210.714 155.838" stroke="black" stroke-linecap="round" stroke-linejoin="round"/>
<path d="M210.714 155.838C210.695 154.644 210.892 152.396 209.553 152.396C208.703 152.396 207.832 151.661 207.073 151.249C206.046 150.692 205.021 150.185 204.006 149.831C203.054 149.498 201.74 149.662 200.847 149.177C199.972 148.702 198.888 148.206 198.315 149.528C198.015 150.221 198.197 150.101 198.85 150.101C199.44 150.101 199.46 150.722 199.803 150.962C200.133 151.192 200.612 151.893 200.847 152.253C201.13 152.684 201.777 152.902 202.139 153.257C202.7 153.805 203.787 154.825 204.084 155.551C204.328 156.147 204.841 156.264 204.841 156.985C204.841 157.528 204.673 158.461 205.076 158.706" stroke="black" stroke-linecap="round" stroke-linejoin="round"/>
<path d="M205.076 158.706C205.545 161.313 206.507 164.11 206.003 166.881C205.768 168.17 204.935 168.481 204.019 168.729C203.293 168.926 202.71 169.893 202.022 169.893" stroke="black" stroke-linecap="round" stroke-linejoin="round"/>
<path d="M202.022 169.893C202.657 168.568 204.053 166.877 204.384 165.463C204.82 163.6 204.009 163.944 202.949 162.865C201.32 161.208 199.223 160.14 197.088 160.14" stroke="black" stroke-linecap="round" stroke-linejoin="round"/>
<path d="M197.088 160.14C197.088 161.087 197.043 162.061 197.088 163.009C197.109 163.433 197.63 163.68 197.793 164.029C198.317 165.148 199.193 165.812 199.855 166.801C200.075 167.129 200.065 167.631 200.325 167.949C200.511 168.175 200.999 168.604 201.069 168.905C201.119 169.117 202.454 170.586 202.727 170.753" stroke="black" stroke-linecap="round" stroke-linejoin="round"/>
<path d="M185.342 172.187C187.196 173.103 189.296 174.245 190.745 175.916C191.107 176.333 191.382 177.048 191.815 177.35C192.474 177.81 193.305 177.652 193.917 178.067C195.021 178.816 194.357 176.956 195.627 178.211C196.28 178.857 196.978 179.546 197.898 179.342C198.26 179.262 199.31 178.201 199.62 177.86C200.121 177.31 200.389 177.35 201.082 177.35" stroke="black" stroke-linecap="round" stroke-linejoin="round"/>
<path d="M213.299 165.877C214.287 165.906 214.531 166.213 215.282 166.738C215.712 167.037 215.466 167.463 215.7 167.821C216.001 168.281 217.057 169.224 217.057 168.172C217.057 167.43 216.81 165.765 217.24 165.24C217.839 164.508 218.467 164.344 218.467 163.009C218.467 161.748 219.166 161.396 219.877 160.937C220.362 160.623 220.274 160.427 220.934 160.427C221.221 160.427 221.944 160.588 222.174 160.364C222.874 159.679 223.421 158.993 224.34 158.993C224.963 158.993 226.455 158.602 226.455 159.567" stroke="black" stroke-linecap="round" stroke-linejoin="round"/>
<path d="M226.22 158.706C227.157 160.217 227.504 161.759 228.687 162.881C229.682 163.827 230.676 165.286 231.271 166.594C231.657 167.444 232.92 168.218 233.033 169.319C233.099 169.966 233.842 170.54 233.959 171.183C234.049 171.674 234.383 172.868 234.677 173.048" stroke="black" stroke-linecap="round" stroke-linejoin="round"/>
<path d="M233.033 169.606C234.231 170.176 235.01 170.677 235.969 171.614C236.441 172.074 236.61 173.395 236.909 174.052C237.093 174.456 237.068 175.232 237.314 175.565C237.608 175.964 237.999 176.243 238.319 176.633C239.337 177.877 239.611 178.31 239.611 180.075C239.611 182.323 239.846 184.449 239.846 186.688C239.846 187.307 239.68 189.974 238.802 189.668C238.47 189.552 238.671 186.88 238.671 186.385C238.671 185.474 238.25 184.086 237.731 183.374C237.065 182.458 236.683 181.153 236.035 180.282C235.504 179.569 235.027 178.758 234.625 177.924C234.026 176.68 233.044 176.949 232.38 176.139C231.822 175.457 231.157 174.803 230.449 174.418C229.586 173.95 228.79 172.761 227.864 172.761C227.193 172.761 225.699 172.409 225.228 172.984C224.599 173.751 224.718 174.195 223.635 174.195" stroke="black" stroke-linecap="round" stroke-linejoin="round"/>
<path d="M223.635 174.195C224.174 174.596 224.904 174.984 225.332 175.565C225.59 175.915 225.362 176.399 225.567 176.713C226.041 177.435 226.309 177.813 227.042 178.211C228.448 178.974 230.357 179.06 231.636 180.362C232.147 180.882 234.883 182.198 234.912 182.8C234.993 184.47 235.626 185.243 236.792 185.955" stroke="black" stroke-linecap="round" stroke-linejoin="round"/>
<path d="M236.792 185.955C238.622 188.731 241.057 191.922 239.507 195.707C238.951 197.063 237.843 197.78 237.262 199.022C236.816 199.974 235.461 201.539 234.677 202.018" stroke="black" stroke-linecap="round" stroke-linejoin="round"/>
<path d="M234.678 202.017C235.075 199.529 235.147 197.098 235.147 194.56C235.147 192.317 234.318 190.966 233.033 189.397C231.742 187.821 231.065 186.366 229.274 185.445C228.449 185.021 225.673 186.052 225.28 185.094" stroke="black" stroke-linecap="round" stroke-linejoin="round"/>
<path d="M225.28 185.094C225.28 185.468 225.015 188.834 225.411 189.11C226.325 189.748 227.051 190.764 227.969 191.405C228.525 191.793 228.877 193.222 229.026 193.859C229.364 195.301 229.695 195.361 230.566 196.424C230.879 196.806 231.473 196.916 231.728 197.317C232.023 197.781 232.011 198.427 232.328 198.862C232.855 199.586 233.145 200.385 233.79 201.093C234.517 201.892 234.677 202.221 234.677 203.452C234.677 204.662 234.576 205.323 235.617 205.746" stroke="black" stroke-linecap="round" stroke-linejoin="round"/>
<path d="M235.617 205.746C235.243 208.232 233.839 208.752 233.085 210.846C232.944 211.236 232.263 212.104 231.963 212.471C231.568 212.952 231.411 213.567 231.049 214.064C230.318 215.068 229.524 215.944 228.804 216.933C227.843 218.253 227.629 219.204 227.629 220.948" stroke="black" stroke-linecap="round" stroke-linejoin="round"/>
<path d="M227.629 220.088C227.629 218.77 227.933 216.439 227.616 215.084C227.474 214.476 226.075 214.408 225.646 214.192C224.028 213.378 223.099 211.235 221.521 210.272C218.779 208.598 215.819 207.141 213.064 205.459" stroke="black" stroke-linecap="round" stroke-linejoin="round"/>
<path d="M213.064 205.46C213.97 202.073 216.118 198.912 216.118 195.277C216.118 192.103 218.232 189.824 218.232 186.816" stroke="black" stroke-linecap="round" stroke-linejoin="round"/>
<path d="M211.184 208.041C211.184 205.651 211.184 203.261 211.184 200.87C211.184 199.786 210.873 197.941 211.302 196.998C212.311 194.781 212.961 192.453 214.251 190.385C215.087 189.047 216.059 187.748 217.057 186.529" stroke="black" stroke-linecap="round" stroke-linejoin="round"/>
<path d="M215.178 175.916C215.178 177.705 215.141 178.957 214.056 180.282C213.372 181.116 212.734 181.575 212.241 182.657C211.274 184.784 209.882 187.19 208.6 188.951C207.423 190.567 205.948 192.853 205.559 194.99C205.257 196.649 205.069 198.602 204.606 200.297" stroke="black" stroke-linecap="round" stroke-linejoin="round"/>
<path d="M205.076 196.281C205.076 193.078 204.896 190.286 205.963 187.389C206.287 186.511 206.108 185.207 206.616 184.41C207.154 183.566 207.663 182.682 208.026 181.669C208.681 179.839 209.904 178.728 211.302 177.781C212.464 176.992 213.767 175.343 215.178 175.343" stroke="black" stroke-linecap="round" stroke-linejoin="round"/>
<path d="M204.606 200.297C206.129 201.649 206.702 202.755 207.425 204.742C208.054 206.47 210.949 206.083 210.949 208.615" stroke="black" stroke-linecap="round" stroke-linejoin="round"/>
<path d="M204.841 194.847C204.225 193.644 202.962 192.341 202.962 190.831C202.962 189.98 202.645 188.411 202.205 187.74C201.117 186.08 201.082 183.46 201.082 181.366" stroke="black" stroke-linecap="round" stroke-linejoin="round"/>
<path d="M186.261 173.14C186.348 173.963 186.395 173.827 186.592 174.278C186.65 174.411 186.81 174.73 186.836 174.893C186.932 175.509 187.006 176.093 187.006 176.78" stroke="black" stroke-linecap="round" stroke-linejoin="round"/>
<path d="M200.985 182.846C200.985 179.823 200.629 176.408 201.557 173.626C201.961 172.415 202.912 170.199 203.73 169.501C204.071 169.211 204.3 168.479 204.518 168.011C204.935 167.118 205.358 166.328 205.789 165.446C206.529 163.934 206.908 163.505 208.192 163.505C209.031 163.505 209.869 163.505 210.708 163.505C211.416 163.505 212.503 163.123 212.831 164.129C213.135 165.06 212.536 167.637 213.339 168.184" stroke="black" stroke-linecap="round" stroke-linejoin="round"/>
<path d="M186.047 172.474C186.472 171.586 187.132 170.672 187.456 169.781C187.617 169.339 188.214 169.19 188.396 168.745" stroke="black" stroke-linecap="round" stroke-linejoin="round"/>
<path d="M151.981 185.095C151.981 181.733 153.184 179.071 153.626 175.837C154.371 170.381 156.28 164.277 158.573 159.519C160.762 154.976 162.713 150.182 165.19 145.863C166.464 143.641 167.567 141.148 169.131 139.202C169.619 138.595 170.474 137.236 171.011 136.907" stroke="black" stroke-linecap="round" stroke-linejoin="round"/>
<path d="M191.92 141.783C191.92 144.634 192.587 147.042 192.912 149.815C193.137 151.741 193.382 153.801 193.695 155.711C194.278 159.267 194.269 162.508 194.269 166.164C194.269 168.034 194.425 170.041 194.256 171.901C194.101 173.602 193.33 175.162 193.33 176.777" stroke="black" stroke-linecap="round" stroke-linejoin="round"/>
<path d="M227.864 216.072C227.222 212.005 226.508 208.114 224.993 204.599C224.551 203.573 224.526 202.677 224.327 201.587C224.137 200.539 223.662 199.682 223.636 198.576C223.56 195.427 222.327 192.367 222.226 189.174C222.147 186.651 222.215 183.92 221.286 181.653" stroke="black" stroke-linecap="round" stroke-linejoin="round"/>
<path d="M221.286 181.653C220.692 178.451 220.279 174.735 218.989 171.9C218.625 171.1 217.659 169.113 217.058 168.745" stroke="black" stroke-linecap="round" stroke-linejoin="round"/>
<path d="M188.396 181.653C188.006 179.536 187.28 177.851 186.751 175.916" stroke="black" stroke-linecap="round" stroke-linejoin="round"/>
<path d="M188.631 174.482C188.631 177.243 188.866 180.195 188.866 182.8" stroke="black" stroke-linecap="round" stroke-linejoin="round"/>
<path d="M187.221 177.35C187.221 176.012 187.221 174.673 187.221 173.335" stroke="black" stroke-linecap="round" stroke-linejoin="round"/>
<path d="M181.348 165.017C180.909 163.441 180.217 161.343 179.181 160.204C178.942 159.942 178.591 159.877 178.346 159.503C178.093 159.117 178.164 158.547 177.824 158.133" stroke="black" stroke-linecap="round" stroke-linejoin="round"/>
<path d="M154.566 169.319C152.225 169.795 149.614 170.33 147.57 171.901C146.893 172.421 146.044 173.231 145.404 173.622" stroke="black" stroke-linecap="round" stroke-linejoin="round"/>
<path d="M157.15 163.296C159.232 165.778 161.18 168.445 161.835 172.044C162.033 173.13 161.849 174.515 161.849 175.629" stroke="black" stroke-linecap="round" stroke-linejoin="round"/>
<path d="M167.725 190.447C167.672 185.757 171.43 181.891 176.12 181.812L196.15 181.473C200.839 181.394 204.684 185.131 204.737 189.821L204.816 196.789C204.932 207.011 196.741 215.437 186.52 215.61V215.61C176.299 215.783 167.92 207.636 167.804 197.415L167.725 190.447Z" fill="#988C69"/>
<path d="M171.951 180.505C170.605 180.708 169.867 180.468 169.014 181.509C168.66 181.942 168.411 182.5 168.061 182.927C167.268 183.897 167.649 185.134 167.069 186.019C166.172 187.388 166.782 191.641 166.782 193.413" stroke="black" stroke-linecap="round" stroke-linejoin="round"/>
<path d="M166.782 193.126C166.782 195.612 166.782 198.098 166.782 200.584" stroke="black" stroke-linecap="round" stroke-linejoin="round"/>
<path d="M166.782 200.583C166.782 202.325 167.722 203.121 167.722 204.743C167.722 205.35 167.922 205.655 168.309 206.033C168.813 206.525 168.632 207.494 168.949 207.977C169.23 208.407 169.743 208.341 170.019 208.678C170.313 209.037 170.445 209.709 170.554 210.176C170.723 210.896 172.224 212.08 172.656 212.343" stroke="black" stroke-linecap="round" stroke-linejoin="round"/>
<path d="M182.992 165.017C183.299 166.936 183.932 168.229 183.932 170.18C183.932 171.633 184.402 173.068 184.402 174.625C184.402 175.936 185.342 176.816 185.342 178.067C185.342 179.499 186.047 180.637 186.047 181.94" stroke="black" stroke-linecap="round" stroke-linejoin="round"/>
<path d="M186.751 171.9C188.126 171.9 188.442 171.773 189.388 172.697C189.908 173.205 190.016 173.66 190.458 174.259C191.455 175.611 192.173 176.49 193.799 176.49" stroke="black" stroke-linecap="round" stroke-linejoin="round"/>
<path d="M200.847 176.203C200.212 176.354 198.7 176.54 198.263 177.207C197.718 178.039 197.732 178.211 196.736 178.211C196.649 178.211 195.554 177.286 195.392 177.127C194.812 176.561 194.074 176.49 193.329 176.49" stroke="black" stroke-linecap="round" stroke-linejoin="round"/>
<path d="M140.94 168.172C142.195 167.057 143.834 164.73 145.403 164.73C146.089 164.73 146.99 163.812 147.466 163.232C147.884 162.721 148.84 162.202 149.397 161.861" stroke="black" stroke-linecap="round" stroke-linejoin="round"/>
<path d="M149.867 161.862C150.408 161.581 151.864 160.698 152.269 160.204C152.815 159.538 153.591 160.194 154.096 159.423C154.479 158.838 155.244 158.822 155.623 157.989C156.037 157.079 156.21 156.656 156.21 155.551" stroke="black" stroke-linecap="round" stroke-linejoin="round"/>
<path d="M149.867 162.148C149.397 162.26 148.931 162.353 148.458 162.435" stroke="black" stroke-linecap="round" stroke-linejoin="round"/>
<path d="M218.232 186.816C217.591 186.968 216.427 187.208 216.118 187.963" stroke="black" stroke-linecap="round" stroke-linejoin="round"/>
<path d="M212.594 176.49C211.402 176.817 209.236 177.84 208.6 179.199C208.424 179.574 207.82 180.151 207.478 180.569C207.168 180.947 206.087 181.762 206.029 182.083C205.878 182.913 205.499 183.646 205.324 184.393C205.167 185.065 205.618 186.491 205.259 187.039C204.644 187.977 205.076 191.022 205.076 192.265" stroke="black" stroke-linecap="round" stroke-linejoin="round"/>
<path d="M124.681 18.1243C124.501 19.0832 124.679 20.0527 124.515 20.9928C124.383 21.7547 124.094 22.4418 124.055 23.1896C124.012 23.9996 123.429 24.7028 123.429 25.5589C123.429 26.3214 123.429 27.084 123.429 27.8465C123.429 30.9666 123.272 34.2302 123.272 37.4053" stroke="black" stroke-linecap="round"/>
<path d="M123.272 37.4053V38.2223" stroke="black" stroke-linecap="round"/>
<path d="M124.837 17.634C127.159 17.6835 129.007 19.9885 129.967 21.8824C130.427 22.7905 131.457 23.0957 131.88 24.0883C132.056 24.5018 132.477 25.1209 132.827 25.3955C133.278 25.7482 133.184 26.4852 133.758 26.7844" stroke="black" stroke-linecap="round"/>
<path d="M131.253 23.1895C131.493 24.2148 132.184 24.8403 132.662 25.7131C132.956 26.2505 133.737 26.5813 134.036 27.111C134.607 28.1258 135.067 29.1671 135.514 30.2156C135.92 31.1706 136.574 32.1425 136.574 33.1568C136.574 34.2741 136.731 35.4287 136.731 36.5881" stroke="black" stroke-linecap="round"/>
<path d="M135.992 31.0327C135.992 30.7346 135.846 29.9399 136.086 29.6811C136.208 29.5487 136.374 29.5011 136.459 29.318C136.68 28.8409 137.077 28.5021 137.299 28.0471C137.828 26.9615 139.231 26.5322 139.726 25.4045C140.053 24.6573 140.827 23.6085 141.331 23.004C141.741 22.5118 141.951 21.7845 142.208 21.2288" stroke="black" stroke-linecap="round"/>
<path d="M142.208 21.3923C143.228 22.0415 144.059 22.6277 144.781 23.5982C145.057 23.9675 145.149 24.372 145.425 24.742C145.547 24.9058 145.953 25.6068 145.964 25.8041C145.985 26.1875 145.856 26.6845 146.086 26.9842C146.259 27.2103 146.518 28.0391 146.581 28.3368C146.769 29.2213 146.746 30.1077 146.746 31.0329" stroke="black" stroke-linecap="round"/>
<path d="M143.46 37.4052C143.492 36.0281 144.378 35.4093 145.034 34.3824C145.667 33.3912 146.275 32.2372 146.99 31.2778C147.635 30.4118 148.434 29.7154 148.972 28.7451C149.246 28.2515 149.903 27.8962 150.068 27.3653C150.271 26.7095 150.661 26.1056 151.094 25.6042C153.035 23.3515 154.842 21.0547 157.153 19.1772C158.036 18.4602 158.984 18.0008 159.77 17.1801C160.299 16.6278 161.059 16.2475 161.77 16" stroke="black" stroke-linecap="round"/>
<path d="M161.614 16C161.614 19.0464 161.614 22.0928 161.614 25.1392C161.614 26.581 161.421 27.9885 161.421 29.4193C161.421 29.7198 161.202 30.7624 160.993 30.9947C160.498 31.5433 160.921 32.8884 160.832 33.5951C160.526 36.0438 159.256 38.3037 159.11 40.7698C159.045 41.8539 158.232 42.8198 157.419 43.5409C156.817 44.0747 156.606 45.3424 156.606 46.0654" stroke="black" stroke-linecap="round"/>
<path d="M145.493 52.9091C145.411 50.6126 146.407 47.5831 148.86 47.4417C149.743 47.3908 150.523 46.7808 151.415 46.7294C152.312 46.6776 153.181 46.4392 154.046 46.3893C155.616 46.2988 157.236 45.9098 158.653 45.3285C159.965 44.7903 161.572 45.1441 162.914 45.1246C163.268 45.1195 163.623 45.1955 163.975 45.2622C164.345 45.3322 164.902 45.2714 165.242 45.4089C165.688 45.5894 166.49 45.8601 166.943 45.8339C167.625 45.7946 168.262 46.6566 168.884 46.8939C169.737 47.2201 170.587 47.6236 171.422 47.9821C171.745 48.121 172.117 47.8633 172.433 48.0598C172.718 48.2361 173.261 48.2946 173.583 48.276C173.974 48.2535 175.124 48.509 175.456 48.7749C176.352 49.4937 177.465 49.7873 178.426 50.2568" stroke="black" stroke-linecap="round"/>
<path d="M178.671 51.1867C178.068 51.1713 176.998 50.7594 176.402 51.105C175.864 51.417 175.492 52.0267 174.916 52.2942C173.905 52.7631 172.855 53.4153 171.873 53.9282C171.195 54.282 170.649 54.3896 170.143 55.0356C169.838 55.4243 169.399 56.0507 168.969 56.2884C168.481 56.5581 167.571 56.7495 167.186 57.1507C166.707 57.6517 166.31 58.1827 165.761 58.6213C164.673 59.4895 163.652 60.3893 162.474 61.0723C161.354 61.7223 160.498 62.9833 159.188 63.2873C158.575 63.4295 158.04 63.7684 157.388 63.7684C156.988 63.7684 156.087 63.9785 155.745 64.1769C154.859 64.6905 153.52 64.5283 152.537 64.5854C151.894 64.6227 151.339 64.9122 150.659 64.9122" stroke="black" stroke-linecap="round"/>
<path d="M146.969 62.0784C148.427 62.7269 149.235 63.2258 150.354 64.5001C151.319 65.6002 152.115 67.0205 153.188 67.9982C153.509 68.2915 153.499 68.8598 153.616 69.2938C153.779 69.8973 154.103 70.5073 154.202 71.1275C154.397 72.3497 154.465 73.6189 154.771 74.8149C155.32 76.9598 155.156 79.199 155.156 81.4523C155.156 82.0744 155.313 82.6657 155.313 83.2462C155.313 83.8451 155.628 84.2621 155.628 84.8607C155.628 85.3751 155.735 87.3941 155.593 87.2326C154.97 86.5223 154.118 86.0727 153.336 85.6679C152.515 85.2424 151.537 84.5324 150.669 84.3126C150.485 84.266 149.441 83.5636 149.365 83.4256C149.149 83.031 148.474 82.7492 148.141 82.4389C147.363 81.7141 145.794 81.6831 144.843 81.4423C144.029 81.2361 142.856 80.1352 142.246 79.479C141.38 78.5471 139.602 78.8634 138.66 78.0041C138.486 77.8461 137.977 77.4368 137.759 77.3264C137.353 77.1208 137.413 76.5947 137.173 76.2899C136.673 75.6571 135.948 74.6499 135.948 73.7386" stroke="black" stroke-linecap="round"/>
<path d="M141.582 66.3269C140.95 67.9481 140.102 68.7369 139.036 70.0708C138.631 70.5776 138.191 71.1775 137.683 71.5843C137.239 71.9399 136.564 72.1469 136.171 72.5401C135.405 73.3066 135.301 74.5989 134.341 75.2396C133.494 75.8051 132.192 78.0574 132.192 79.072" stroke="black" stroke-linecap="round"/>
<path d="M129.845 62.7319C129.217 63.597 128.75 64.1869 128.75 65.2646C128.75 66.0544 128.75 66.8441 128.75 67.6339C128.75 69.2045 130.042 70.4309 130.158 72.0093C130.201 72.5953 130.4 73.3897 130.627 73.9247C130.829 74.3976 131.383 75.3326 131.41 75.8038C131.448 76.4795 131.408 77.0628 131.575 77.6738C131.753 78.3252 132.349 78.6611 132.349 79.3986" stroke="black" stroke-linecap="round"/>
<path d="M125.62 57.6667C124.472 57.6667 123.324 57.6667 122.177 57.6667C121.242 57.6667 120.86 57.9509 120.064 58.3203C119.638 58.5181 118.979 59.4331 118.734 59.8817C118.319 60.6393 117.627 61.3986 117.134 62.0422C116.621 62.7114 116.202 63.451 115.882 64.2027C115.46 65.1951 114.485 65.4594 113.883 66.2452C113.57 66.6535 112.767 68.0252 112.405 68.1333C112.316 68.1599 111.812 68.8223 111.692 68.9413C111.376 69.2521 111.222 69.6466 111.222 70.085" stroke="black" stroke-linecap="round"/>
<path d="M130.158 71.8823C126.794 71.8823 123.389 72.1528 120.021 71.8823C118.616 71.7695 117.491 70.4896 116.073 70.4117C115.22 70.3648 114.427 69.8029 113.57 69.7581C112.838 69.7199 112.139 69.5947 111.379 69.5947" stroke="black" stroke-linecap="round"/>
<path d="M117.951 59.7907C117.127 58.9562 116.196 57.9212 115.221 57.3398C114.747 57.0565 114.392 56.5892 113.883 56.3231C113.657 56.205 113.025 55.8795 112.952 55.615C112.744 54.8555 111.676 54.0165 111.135 53.4182C110.439 52.6482 110.216 51.4315 109.501 50.6404C108.831 49.8996 108.732 48.4619 108.014 47.8626C107.732 47.6272 107.551 46.7768 107.432 46.4284C107.239 45.8648 106.89 44.8091 106.458 44.4222C105.135 43.2379 104.501 41.4942 102.928 40.6731" stroke="black" stroke-linecap="round"/>
<path d="M102.928 40.6731C104.725 40.6731 106.522 40.6731 108.318 40.6731C109.97 40.6731 111.469 41.1633 113.1 41.1633C114.717 41.1633 116.668 40.8679 118.195 41.3993C118.891 41.6417 119.788 42.3071 120.534 42.3071C120.907 42.3071 121.837 42.62 122.177 42.7973" stroke="black" stroke-linecap="round"/>
<path d="M122.803 39.0391C122.803 42.9324 122.646 46.7375 122.646 50.6404" stroke="black" stroke-linecap="round"/>
<path d="M122.803 38.3856C124.068 38.3856 125.357 38.2079 126.472 38.9485C126.872 39.2142 127.73 39.5638 128.193 39.7019C129.464 40.081 131.039 40.9382 131.879 42.1075C132.603 43.115 134.208 43.1811 134.853 44.3588C135.179 44.9552 135.827 45.3396 136.14 45.9928C136.417 46.5722 137.044 46.9989 137.044 47.6994" stroke="black" stroke-linecap="round"/>
<path d="M137.044 49.8236C137.044 48.5607 136.853 47.2415 137.835 46.3015C138.675 45.4971 139.242 44.6323 140.017 43.7779C140.649 43.0815 141.397 42.1027 142.286 41.8171C142.968 41.5983 143.802 41.6387 144.399 41.3269" stroke="black" stroke-linecap="round"/>
<path d="M145.75 50.9674C146.887 47.76 147.199 43.1737 144.553 40.6966C143.892 40.0774 143.945 38.9192 143.587 38.0822C143.26 37.3184 142.575 36.5172 142.39 35.7584C142.103 34.5836 140.643 33.9903 140.643 32.6667" stroke="black" stroke-linecap="round"/>
<path d="M140.8 32.6667C140.109 33.1065 139.618 33.9008 138.922 34.2644C138.429 34.5215 137.997 34.8901 137.6 35.2811C136.656 36.2119 135.979 37.4226 135.322 38.6217C135.255 38.7445 134.579 39.4543 134.453 39.5295C133.908 39.8546 133.658 40.534 133.366 41.0818C132.808 42.1306 132.818 43.0155 132.818 44.2681" stroke="black" stroke-linecap="round"/>
<path d="M144.399 53.2549C145.614 52.2962 147.246 51.5501 148.721 51.0564C149.198 50.8966 149.719 50.6741 150.225 50.6741C150.867 50.6741 151.416 50.6472 152.024 50.5116C152.296 50.451 153.336 50.1042 153.138 50.502" stroke="black" stroke-linecap="round"/>
<path d="M153.163 50.6404C152.605 52.2297 151.664 53.613 151.1 55.1996C150.96 55.5926 150.34 56.3573 150.007 56.6126C149.583 56.9373 148.91 57.6994 148.762 58.2286C148.65 58.6273 148.128 59.5124 147.868 59.8368C147.375 60.453 147.043 61.2695 146.531 61.851C146.26 62.1584 145.883 62.4348 145.706 62.7253C145.236 63.4937 144.495 63.8567 144.086 64.6927" stroke="black" stroke-linecap="round"/>
<path d="M131.253 44.4314C131.253 47.3847 131.253 50.338 131.253 53.2912C131.253 55.2417 130.4 58.083 131.879 59.6275" stroke="black" stroke-linecap="round"/>
<path d="M131.097 44.2678C133.033 43.979 133.169 45.6333 134.54 46.4283C135.331 46.8873 136.184 47.678 136.609 48.5162C137.215 49.7111 138.302 50.4349 138.991 51.4937C139.441 52.1836 140.174 53.2514 140.174 54.0717" stroke="black" stroke-linecap="round"/>
<path d="M137.357 54.7255C138.738 54.1627 140.418 54.3987 141.895 54.3987" stroke="black" stroke-linecap="round"/>
<path d="M141.895 54.562C141.735 55.3251 140.883 55.9884 140.8 56.6862C140.781 56.8469 140.616 57.0891 140.522 57.2127C140.368 57.4129 140.539 57.8295 140.409 58.0751C140.052 58.7444 140.02 60.9334 139.391 61.2614" stroke="black" stroke-linecap="round"/>
<path d="M136.105 55.0522C135.506 54.9302 134.935 54.6475 134.392 54.5529C134.155 54.5117 133.332 54.3377 133.166 54.1989C132.856 53.9395 132.818 53.8498 132.436 53.7359C132.138 53.6471 131.685 53.6099 131.41 53.4182" stroke="black" stroke-linecap="round"/>
<path d="M131.41 53.4182C131.665 54.0601 132.349 54.9348 132.349 55.6241C132.349 56.2439 132.541 56.978 132.671 57.5849C132.764 58.0256 132.827 59.0244 133.097 59.3369C133.335 59.6136 133.296 59.9003 133.566 60.1539C133.732 60.3093 133.992 60.4438 134.07 60.6078" stroke="black" stroke-linecap="round"/>
<path d="M130.784 51.6208C128.94 51.2178 127.107 51.294 125.228 51.294C123.93 51.294 122.57 51.1306 121.238 51.1306" stroke="black" stroke-linecap="round"/>
<path d="M121.238 51.1306C121.713 51.7657 122.297 52.7666 122.881 53.2548C123.335 53.6342 123.546 54.3035 124.055 54.5983C124.585 54.906 124.93 55.8746 125.228 56.3594C125.584 56.9376 126.049 57.4509 126.089 58.1568C126.139 59.0371 127.371 60.3193 127.932 60.9708C128.765 61.9372 130.169 62.7319 131.41 62.7319" stroke="black" stroke-linecap="round"/>
<path d="M131.567 58.6472C131.567 59.6802 131.612 60.683 131.401 61.6701C131.309 62.1048 131.097 62.338 131.097 62.8139C131.097 63.2224 131.097 63.6309 131.097 64.0394" stroke="black" stroke-linecap="round"/>
<path d="M131.136 64.0151C132.55 63.1252 133.894 62.9015 135.538 62.5365C135.834 62.4709 136.751 62.4002 136.9 62.1507C137.067 61.8701 137.96 61.4977 138.288 61.4249" stroke="black" stroke-linecap="round"/>
<path d="M135.635 56.8496C135.777 56.0897 135.987 55.8987 136.296 55.2882C136.45 54.9854 136.731 54.8897 136.731 54.562" stroke="black" stroke-linecap="round"/>
<path d="M139.391 58.4838C138.958 57.4196 138.39 56.638 137.757 55.7877C137.564 55.5287 137.275 55.2855 137.192 54.9798C137.101 54.6494 137.054 54.2408 136.731 54.072" stroke="black" stroke-linecap="round"/>
<path d="M136.731 54.072C136.058 54.972 135.166 55.4897 135.166 56.6864" stroke="black" stroke-linecap="round"/>
<path d="M140.643 56.8499C141.312 57.4643 142.602 58.3219 142.905 59.0592C143.219 59.8236 143.642 60.5855 144.057 61.337C144.744 62.5808 144.183 64.6639 144.183 66.0002" stroke="black" stroke-linecap="round"/>
<path d="M135.373 64.6929C136.257 64.8443 136.919 65.2887 137.793 65.4384C138.543 65.5667 139.292 65.695 140.041 65.8233C140.836 65.9594 141.631 66.0955 142.426 66.2316C143.036 66.336 143.565 66.0954 144.176 66.2" stroke="black" stroke-linecap="round"/>
<path d="M122.49 38.2223C120.572 37.0499 118.159 35.5677 115.917 35.4445C115.373 35.4146 114.909 35.0132 114.43 34.7909C113.894 34.542 113.335 34.6485 112.752 34.6275C111.612 34.5864 110.223 34.0005 109.188 33.52C108.135 33.0315 106.761 32.6667 105.623 32.6667C104.327 32.6667 103.155 32.3879 101.867 32.3399C100.095 32.2738 98.3067 32.1765 96.5117 32.1765" stroke="black" stroke-linecap="round"/>
<path d="M96.5117 32.1765C97.4202 32.94 98.0133 33.5875 98.5114 34.6275C98.832 35.2971 99.0538 36.0065 99.4069 36.67C100.111 37.9931 100.224 39.8588 101.589 40.6732C102.019 40.9295 102.835 41.7791 103.084 42.2346C103.314 42.6548 104.446 43.2262 104.493 43.6144C104.501 43.6794 105.012 44.3059 105.119 44.4314C105.35 44.703 105.547 45.0181 105.823 45.2484C106.318 45.6619 106.742 46.0959 107.31 46.3922" stroke="black" stroke-linecap="round"/>
<path d="M107.466 47.8628C105.417 47.8628 103.301 48.0262 101.207 48.0262" stroke="black" stroke-linecap="round"/>
<path d="M101.207 48.0261C102.1 48.7326 103.028 49.3412 103.71 50.232C104.195 50.864 104.889 51.2439 105.31 51.9477C105.566 52.3749 106.22 53.0959 106.606 53.4183C107.142 53.866 107.166 54.7322 107.779 55.0523" stroke="black" stroke-linecap="round"/>
<path d="M113.1 55.2158C111.77 55.2158 110.44 55.2158 109.11 55.2158C107.801 55.2158 106.983 55.3842 105.78 55.8331C104.518 56.3035 103.4 57.1053 102.215 57.7485C101.659 58.0506 100.604 58.4164 100.146 58.8469C99.8338 59.1402 99.0494 59.2073 98.8592 59.555C98.6503 59.9366 98.0947 60.0119 97.8332 60.3629C97.4889 60.8252 96.655 61.0923 96.1987 61.5157C95.7517 61.9306 94.0232 62.3899 93.86 62.9863C93.5451 64.1372 92.2507 64.6369 91.3474 65.0561C90.6666 65.372 89.4226 65.5017 89 66.1635" stroke="black" stroke-linecap="round"/>
<path d="M89 66.1635C90.752 66.1635 92.4042 66.091 94.0861 66.4812C95.1353 66.7247 96.2762 67.4707 97.329 67.4707C98.028 67.4707 99.0064 67.7296 99.6069 68.1243C100.223 68.5297 101.099 68.5109 101.824 68.6054C102.993 68.758 104.476 68.4694 105.275 69.5132C106.017 70.4806 107.355 69.7068 108.249 70.1214C109.398 70.6548 110.613 70.727 111.848 70.9112C112.435 70.9987 112.85 71.2289 113.5 71.2289C114.097 71.2289 114.694 71.2289 115.291 71.2289C115.828 71.2289 118.209 71.5086 118.421 71.0655" stroke="black" stroke-linecap="round"/>
<path d="M105.588 69.7583C104.055 71.0094 102.796 72.3387 101.641 73.9159C100.841 75.0079 99.8725 76.1871 99.2504 77.3563C98.981 77.8626 98.5435 78.8037 98.0767 79.1083C97.6613 79.3794 97.1377 80.9757 97.1377 81.4413C97.1377 81.7598 96.6376 82.773 96.3552 82.9573C95.1271 83.7587 95.3326 86.0602 94.0078 86.7518" stroke="black" stroke-linecap="round"/>
<path d="M94.0078 86.7516C95.5629 86.7516 96.879 86.1811 98.3897 86.098C99.1953 86.0538 100.261 85.8941 101.015 85.6078C101.721 85.3399 102.692 84.6572 103.432 84.6275C104.909 84.5681 106.397 84.3007 107.858 84.3007C109.798 84.3007 111.441 82.6667 113.335 82.6667C114.823 82.6667 116.125 82.1587 117.482 81.6863" stroke="black" stroke-linecap="round"/>
<path d="M120.142 72.0457C119.578 73.5018 118.644 74.758 117.986 76.1306C117.689 76.7503 118.036 77.9014 117.943 78.5816C117.649 80.7283 117.441 82.9457 117.325 85.1176C117.307 85.4557 117.072 85.7905 117.021 86.107C116.941 86.6104 117.012 87.1868 117.012 87.6956C117.012 88.6156 116.856 89.4341 116.856 90.3463C116.856 91.8543 116.23 93.2983 116.23 94.749C116.23 95.5604 115.917 96.209 115.917 97.0457" stroke="black" stroke-linecap="round"/>
<path d="M115.917 97.0458C116.665 95.8303 118.236 95.0589 119.395 94.268C120.456 93.5433 121.416 92.6984 122.412 91.8896C122.847 91.5356 123.153 90.9713 123.655 90.7095C124.825 90.0986 126.168 89.4317 127.15 88.5127C127.994 87.7222 128.943 87.0397 129.767 86.1798C130.217 85.7099 130.459 85.396 131.132 85.154C131.756 84.9291 131.954 84.6122 132.427 84.228C133.241 83.5674 133.705 82.6408 134.383 81.8497C134.899 81.2483 135.799 80.0487 136.496 79.7255C137.335 79.3363 137.348 78.2727 137.67 77.6013" stroke="black" stroke-linecap="round"/>
<path d="M157.232 43.451C158.769 42.5415 160.056 41.0001 161.703 41.0001C162.993 41.0001 164.035 40.4554 165.305 40.4554C165.713 40.4554 166.03 40.0712 166.414 39.9259C166.806 39.7771 167.29 39.9107 167.691 39.9107C168.305 39.9107 168.828 39.6384 169.448 39.6384C170.122 39.6384 170.825 39.3661 171.524 39.3661C171.973 39.3661 172.417 38.5491 172.881 38.5491" stroke="black" stroke-linecap="round"/>
<path d="M172.881 38.5491C172.65 39.7864 172.179 40.5098 171.542 41.5266C171.212 42.0546 171.087 43.0271 170.603 43.4601C169.775 44.201 169.147 45.9977 168.812 47.0458" stroke="black" stroke-linecap="round"/>
<path d="M168.186 56.196C169.113 56.196 170.29 56.3407 170.968 57.0493C171.319 57.4151 172.235 57.1011 172.716 57.2581C173.364 57.4697 173.971 57.805 174.603 57.9934C175.506 58.263 176.414 59.1479 177.263 59.5911C177.64 59.788 178.069 59.7951 178.445 60.045C179.154 60.5161 179.902 60.5124 180.619 60.8529C182.266 61.6348 183.861 62.1292 185.401 63.0225C186.177 63.4727 187.333 63.2998 187.6 64.2752C187.737 64.7732 188.462 65.8366 189 65.8366" stroke="black" stroke-linecap="round"/>
<path d="M155.354 64.366C156.485 65.2604 157.888 65.935 158.727 67.062C159.468 68.0571 160.414 69.0005 161.457 69.631C162.096 70.0174 162.559 70.9082 163.031 71.4829C163.423 71.9605 163.964 72.3761 164.396 72.8264C164.658 73.1 165.029 73.8448 165.3 74.0065C165.635 74.2067 166.046 75.0488 166.23 75.3954C166.632 76.1503 167.156 76.7718 167.56 77.5105C168.156 78.5983 168.879 79.683 169.403 80.7785C170.111 82.2568 170.487 83.7873 171.238 85.1993C171.974 86.5833 173.137 88.5269 173.194 90.1466C173.217 90.7806 173.135 91.3915 173.385 91.9803C173.596 92.4755 173.977 92.8998 173.977 93.4509" stroke="black" stroke-linecap="round"/>
<path d="M164.274 72.8627C165.356 72.8627 166.138 73.1895 167.169 73.1895C168.396 73.1895 169.863 73.3405 171.038 72.9898C171.443 72.869 172.054 73.0033 172.412 72.8264C172.926 72.572 173.482 72.2417 173.985 71.9459C174.498 71.645 174.878 71.2102 175.463 71.0744C176.023 70.9446 176.572 70.7288 177.072 70.4117C177.877 69.9013 178.728 69.8161 179.532 69.3496C180.23 68.945 181.542 68.0198 182.306 67.9607C182.904 67.9145 183.38 67.2963 183.905 67.0167C184.485 66.7081 185.054 66.3615 185.644 66.0817C186.304 65.7685 187.318 65.9178 187.905 65.5098" stroke="black" stroke-linecap="round"/>
<path d="M167.56 73.1895C169.171 73.2315 170.064 75.8399 170.064 77.2744" stroke="black" stroke-linecap="round"/>
<path d="M170.064 77.2745C169.115 76.8877 168.248 76.9477 167.247 76.9477" stroke="black" stroke-linecap="round"/>
<path d="M173.507 92.9609C172.866 92.4378 172.316 91.8124 171.629 91.454C171.241 91.2517 170.896 90.7846 170.455 90.6823C170.034 90.5846 169.696 90.5753 169.282 90.3828C169.017 90.26 168.556 90.2417 168.264 90.174C167.918 90.0936 167.572 89.7117 167.247 89.6929C166.373 89.6422 165.462 88.8192 164.743 88.422C164.164 88.1017 163.218 87.9671 162.552 87.7684C161.652 87.4998 160.732 87.2267 159.892 86.788C159.287 86.4721 158.36 86.1706 157.701 86.0981C157.321 86.0563 155.627 85.8521 155.51 85.6079" stroke="black" stroke-linecap="round"/>
<path d="M144.399 81.6863C144.399 82.8464 144.293 83.7939 143.959 84.8882C143.767 85.5147 143.448 86.4413 143.448 87.0999C143.448 88.386 143.108 89.8007 142.972 91.0143C142.904 91.6241 142.532 92.1536 142.497 92.8466C142.448 93.7838 142.071 94.8942 141.704 95.7616C141.345 96.6103 141.032 97.571 140.524 98.3342C140.171 98.8637 140.098 99.7492 139.766 100.342C138.304 102.954 137.43 105.923 136.191 108.671C135.9 109.316 135.989 110.271 135.486 110.799C135.03 111.279 134.327 111.762 134.015 112.345C133.435 113.429 132.192 114.724 132.192 116" stroke="black" stroke-linecap="round"/>
<path d="M125.62 89.8562C126.377 90.9769 126.507 92.2428 127.106 93.3693C127.385 93.8936 127.495 94.625 127.645 95.1757C127.707 95.4023 127.58 95.6864 127.689 95.902C127.834 96.1887 128.157 96.3896 128.315 96.7189C128.553 97.2155 128.885 97.7475 128.906 98.3166C128.929 98.9488 129.375 99.4253 129.375 100.069C129.375 101.252 129.977 102.052 130.193 103.128C130.441 104.366 130.606 105.61 130.775 106.85C130.85 107.399 130.784 108.008 130.784 108.565C130.784 109.197 131.097 109.672 131.097 110.281C131.097 111.192 131.641 112.147 131.871 112.986C131.985 113.405 131.879 114.011 131.879 114.448C131.879 115.028 132.036 115.44 132.036 116" stroke="black" stroke-linecap="round"/>
<path d="M142.834 91.1633C143.743 92.4159 144.85 93.8629 145.973 94.8398C146.311 95.1339 147.538 95.0033 147.929 95.0486C148.661 95.1335 149.362 95.1533 150.033 95.448C150.558 95.6791 151.553 95.9817 151.876 96.5555C152.252 97.2237 153.173 97.5292 153.867 97.6902C154.296 97.7898 155.378 97.8944 155.667 98.2712C155.914 98.5942 157.181 98.7489 157.231 99.1699C157.296 99.709 158.409 100.111 158.796 100.314" stroke="black" stroke-linecap="round"/>
<path d="M158.953 86.915C158.953 88.6176 159.671 90.2756 160.327 91.817C160.598 92.4546 160.362 93.6402 160.362 94.3406C160.362 95.1585 160.931 96.3556 161.222 97.1456C161.304 97.3679 161.804 101.482 161.37 101.612C160.901 101.752 160.456 100.837 159.892 100.804C159.37 100.774 158.989 100.314 158.484 100.314" stroke="black" stroke-linecap="round"/>
<path d="M133.445 62.7319C133.632 62.831 134.609 63.0583 134.624 63.4182C134.639 63.7497 134.681 63.8919 134.877 64.1045C135.147 64.3975 135.334 64.8146 135.636 65.0195" stroke="black" stroke-linecap="round"/>
<path d="M135.322 56.0327C135.105 57.0641 134.749 57.5672 134.305 58.402C134.011 58.9552 134.227 60.1395 134.227 60.7713" stroke="black" stroke-linecap="round"/>
<path d="M135.009 60.7713C136.523 60.4244 137.179 58.9739 138.765 58.9739" stroke="black" stroke-linecap="round"/>
<path d="M138.765 62.0782C138.41 61.9333 137.729 61.6109 137.357 61.588C137.056 61.5695 136.775 61.6579 136.54 61.4609C136.152 61.1372 135.096 61.7692 134.853 61.2612" stroke="black" stroke-linecap="round"/>
<path d="M139.078 58.9739C138.929 59.6638 138.765 60.0681 138.765 60.7713C138.765 61.2538 138.753 61.6275 138.609 62.0785" stroke="black" stroke-linecap="round"/>
<path d="M135.323 57.8301C136.195 58.4923 136.418 58.8409 136.418 59.9543" stroke="black" stroke-linecap="round"/>
<path d="M145.338 52.6013C143.848 54.1571 142.949 55.7934 142.052 57.6667" stroke="black" stroke-linecap="round"/>
<path d="M7.32372 142.451C3.65532 129.669 13.2501 116.933 26.5476 116.933H63.7725C76.6617 116.933 86.1855 128.946 83.2452 141.496L76.4351 170.562C74.3164 179.606 66.2506 186 56.9624 186H34.89C25.9692 186 18.1271 180.092 15.6661 171.517L7.32372 142.451Z" fill="#988C69"/>
<ellipse cx="44.8589" cy="123.511" rx="34.0927" ry="10.6889" fill="#353434"/>
<path d="M26.2519 4.28889C22.0089 7.67419 19.6322 10.3284 16.6001 14.9778C15.5113 16.6474 14.6063 18.5803 13.5839 20.3222C12.5689 22.0515 12.8162 24.3025 11.9082 25.8494C11.3228 26.8469 11.4774 31.3991 11.2045 32.7012C10.7054 35.0823 11.7841 38.175 11.0369 40.4667C9.57875 44.9385 9.96447 50.2417 9.96447 55.2667L9.96463 95.5556C9.96463 102.834 11.8691 106.046 14.0532 112C15.2738 115.327 15.997 122.433 15.997 125.978M25.6487 4.28884C31.8346 4.28884 40.7297 3.57058 40.7297 14.9777M39.5233 11.6889C40.8456 16.3073 43.3473 21.8707 43.7459 26.4889C43.9609 28.979 45.5556 30.5354 45.5556 33.0667C45.5556 35.3841 45.1232 38.6094 45.5892 40.8321C47.3735 49.3443 46.1589 60.9113 46.1589 70.0667L46.1588 86.9222C46.1588 90.1037 47.1673 98.0176 45.5556 100.489C43.6256 103.448 44.7127 109.855 44.3156 113.644C44.1893 114.85 44.1453 119.953 43.6118 120.862C42.6874 122.437 41.9362 124.723 41.9362 126.8M46.1589 77.4667C46.1589 72.5469 46.5919 69.2608 47.3318 64.7222C47.9103 61.1742 48.1316 57.0104 49.3091 53.6222C51.1082 48.4453 55.2482 42.0834 58.8269 39.6444M58.2236 39.6444H66.9706C69.08 39.6444 70.111 41.8693 71.4948 43.7556C72.5456 45.1877 73.394 48.6219 74.2094 49.5111C75.266 50.6632 75.078 53.5975 76.3208 54.4444C78.3051 57.2336 80.5435 59.9526 80.5435 63.9V73.3556C80.5435 76.7098 81.6421 88.2291 79.337 89.8M79.337 88.1556C79.2375 94.6638 77.5273 101.141 77.5273 107.478C77.5273 110.663 77.2483 121.235 75.1144 122.689M64.2561 42.1111C65.8456 53.215 65.4625 64.415 65.4625 75.8222C65.4625 82.6114 65.3524 87.906 63.6528 94.2765C62.6739 97.9457 61.2398 101.384 61.2398 105.422C60.4259 111.247 60.1057 115.684 58.3578 121.044C57.7194 123.002 57.6205 128.922 57.6205 130.911M29.2683 9.22222C28.6571 13.5958 27.4586 18.7683 27.4586 23.2C27.4586 25.9039 27.795 28.9516 26.9894 31.4222C25.1435 37.083 25.0456 43.3858 25.0456 49.5111C24.967 55.6189 23.8391 61.4933 23.8391 67.6V80.7556C23.8391 88.7278 24.4424 96.7683 24.4424 104.6C25.3646 112.299 25.1244 119.723 26.8552 126.8M32.2844 5.93333C40.0616 16.8651 41.3329 29.6519 41.3329 44.5778V71.7111C41.3329 74.6303 39.5232 76.8341 39.5232 79.9333L39.5233 130.089M30.4748 5.11111C30.0005 6.67031 29.1655 10.9367 28.0618 11.6889M24.4423 18.2667L26.8552 20.7333C26.0051 22.2165 25.3274 24.0222 23.8391 24.0222M25.0456 44.5778C23.6671 45.311 22.3223 46.2222 20.8229 46.2222M22.6326 46.2222C21.3492 45.8286 20.609 45.3895 19.6165 44.5778M25.0455 45.4C22.5703 47.8536 21.4261 47.9356 21.4261 51.9778M20.8229 42.1111C21.8282 43.1816 22.4875 44.125 23.2359 45.4M19.6165 70.8889C25.1948 70.6988 21.4262 72.3348 21.4262 76.6444M20.8229 94.7333C22.993 94.2157 24.9952 94.6137 23.2359 97.6111C22.5206 98.8297 22.9665 100.672 22.0294 101.311M26.2521 1.82222C26.9276 2.54159 29.2683 6.22458 29.2683 5.93333M29.2683 5.93333V1M29.2683 5.93333C30.6471 5.30688 31.7148 3.85556 32.8877 2.64444M37.1104 14.1555C37.1104 2.40969 36.6897 14.9778 38.9202 14.9778M42.5395 35.5333C42.417 35.747 39.1161 39.897 40.4616 40.421C41.4224 40.7951 42.0528 39.9622 42.5395 41.2889M42.8412 50.3333C42.1513 51.0173 40.1799 52.7317 41.0315 52.8C41.7017 52.8537 42.2843 53.2427 42.8412 53.6222M43.4444 69.6556C42.7757 70.3184 41.232 71.0019 40.7968 72.1222C40.4121 73.1127 41.818 73.4805 42.2379 73.7667M60.6367 38C63.3979 38 63.9545 38.2948 63.9545 42.1111M66.3674 35.1222C64.9319 36.6044 63.9544 38.0203 63.9544 40.4667M62.4463 35.1222C63.4991 37.4757 64.256 38.2378 64.256 40.8778M76.9241 46.6333C75.8696 47.7562 75.1144 48.668 75.1144 50.5389C75.1144 51.578 76.6508 51.1556 77.2257 51.1556M82.3532 58.9667C82.0188 59.0692 79.181 60.5232 80.3927 61.8444C80.9599 62.4629 81.9634 63.4889 82.6548 63.4889M83.2581 78.7C82.1991 79.2633 80.8505 79.4525 81.1635 81.3722C81.3583 82.5668 82.3593 82.4166 82.6549 83.2222M79.9402 95.9667C76.4989 97.7972 79.3636 97.6836 80.2419 100.078M80.2419 111.178C78.101 111.178 77.8289 110.796 77.8289 113.644C77.8289 114.972 78.42 115.694 79.337 116.111M80.2419 114.878C79.3931 113.974 78.7153 112.805 77.8289 112M62.4463 49.5111C62.5028 49.5111 65.7412 49.139 65.0938 50.2419C64.6827 50.9424 63.9556 50.7412 63.6528 51.5666M63.0496 69.2445C64.3191 69.2445 66.2712 68.8429 65.3955 71.5284C65.0853 72.4798 64.1921 72.7951 63.9545 73.7667M61.8432 86.9222C62.6726 88.088 64.9325 90.5644 63.7869 91.0105C62.8868 91.361 61.5755 91.0333 60.6367 91.0333M63.6528 91.8556C62.9621 92.5403 62.2451 93.0205 61.5415 93.5M57.3188 105.011C58.1061 105.849 58.6579 106.737 59.5642 107.09C59.9343 107.234 60.6035 107.524 60.8712 107.98C61.4876 109.03 58.3291 109.122 57.9221 109.122M53.3977 39.6444C53.3977 39.904 53.7908 44.4541 53.5317 44.5549C52.941 44.785 51.8375 42.8978 51.2864 42.5222M47.9686 53.6222C47.6732 52.6748 47.2671 51.0094 46.8292 50.2419C46.6019 49.8436 48.0976 49.9222 48.2703 49.9222M48.2703 38.8223C48.076 38.4834 47.0862 36.4108 46.7622 36.3556C46.4743 36.3066 46.0039 35.6547 45.8573 35.305C45.0439 33.3648 46.6869 33.8889 47.667 33.8889M45.8572 24.4333C45.1024 24.2018 43.1482 23.5346 42.8578 22.1494C42.541 20.6378 43.9865 20.8997 44.3492 19.9111M41.0313 7.98889C40.7982 9.61768 40.7297 11.0788 40.7297 12.7167C40.7297 13.7254 41.9905 13.3333 42.5394 13.3333M17.5051 7.16667C17.6095 7.89577 18.4419 10.8232 18.1084 11.2778C17.6778 11.8647 16.3109 12.2315 15.6954 12.5111M9.66299 21.1444C10.1268 22.6318 11.8189 24.118 11.4559 25.8494C11.263 26.7701 9.00552 26.4889 8.45652 26.4889M6.64675 40.4667C7.20757 40.765 9.96456 41.6896 9.96456 42.9333C9.96456 44.4221 8.15484 44.2831 8.15484 45.8111M7.25006 54.4444C8.72559 55.3274 10.7205 56.4166 9.73004 58.9667C9.33582 59.9816 8.75815 61.0742 8.75815 62.2556M6.34525 59.7889C7.1808 59.3445 7.87297 58.9667 8.75821 58.9667M9.36132 80.7556C8.70748 79.6148 7.05718 78.5855 6.64675 77.4667M7.25006 82.4H9.66301M5.74194 93.5C7.01431 93.5 8.09231 93.2699 9.21056 94.1167C9.74458 94.5211 10.6917 95.8212 9.66299 96.6976C8.55277 97.6434 7.5116 99.7759 6.94842 101.311M10.5678 108.711H12.9807C14.2045 108.711 13.3675 110.874 12.9807 111.68C12.3014 113.096 11.7743 113.091 11.7743 114.878M40.7299 90.2111C40.0536 90.9313 38.1572 92.5275 39.6574 93.1117C40.0945 93.2819 41.1708 94.2909 41.3331 94.7333M41.6347 102.544C41.1229 102.953 38.7171 103.684 39.4563 104.691C39.8125 105.177 40.2137 105.66 40.4282 106.244M22.6327 114.467C23.2832 114.64 25.6703 114.673 25.3305 116.294C25.1012 117.388 24.4424 117.703 24.4424 118.989M55.8108 116.111C56.2064 116.216 57.5516 116.182 57.6205 116.933C57.6449 117.199 57.8851 117.653 58.0897 117.733C59.2262 118.175 58.498 117.703 57.9891 118.258C57.2491 119.065 56.2006 119.811 55.2075 119.811" stroke="black" stroke-linecap="round"/>
</svg>
