<svg width="198" height="330" viewBox="0 0 198 330" fill="none" xmlns="http://www.w3.org/2000/svg">
<path d="M52.51 275.47L81.4059 262.746L111.558 275.47L104.02 330H62.5608L52.51 275.47Z" fill="#988C69"/>
<ellipse cx="82.6623" cy="273.652" rx="28.8959" ry="14.5414" fill="#54392D"/>
<path d="M83.9291 215.867C83.9291 214.317 83.972 213.571 83.0566 212.467C82.4376 211.721 82.6727 210.371 82.6727 209.438C82.6727 207.739 82.6785 206.988 83.5452 205.567C83.995 204.829 84.7505 204.588 85.1854 203.749" stroke="black" stroke-linecap="round"/>
<path d="M87.384 201.023C88.6476 199.024 90.1717 197.318 91.4846 195.418C92.6105 193.789 94.856 191.158 96.9637 190.706C98.4579 190.386 100.454 189.814 101.989 189.814C102.922 189.814 103.475 189.633 104.205 189.056C105.006 188.424 106.047 188.602 107.014 188.602C108.358 188.602 109.779 188.612 110.766 189.511C112.397 190.996 115.008 191.095 116.594 192.54C118.788 194.539 120.303 197.065 123.19 197.993" stroke="black" stroke-linecap="round"/>
<path d="M85.8135 217.685C87.1516 217.685 88.1098 217.424 88.9543 218.442C89.4005 218.98 90.1202 219.503 90.8389 219.503" stroke="black" stroke-linecap="round"/>
<path d="M83.615 235.862C83.615 231.52 83.615 227.177 83.615 222.835C83.615 219.419 82.6625 214.189 84.4002 211.172C84.9115 210.284 84.4172 208.913 84.6271 207.923C85.1014 205.687 85.8136 203.751 85.8136 201.461C85.8136 199.777 85.4532 197.664 85.8311 196.024C86.5635 192.845 86.1277 189.152 86.1277 185.808C86.1277 184.619 86.1277 183.43 86.1277 182.24C86.1277 179.038 87.6981 176.027 87.6981 172.849C87.6981 168.416 88.6404 164.098 88.6404 159.671C88.6404 155.279 88.183 150.576 88.7102 146.19C88.8306 145.188 89.2448 144.235 89.2686 143.227C89.2856 142.505 89.1227 141.631 89.286 140.922C89.9846 137.889 90.839 135.199 90.839 131.968C90.839 129.589 90.839 127.211 90.839 124.832C90.839 120.032 91.1531 115.186 91.1531 110.425C91.1531 107.763 91.4319 104.938 92.4094 102.498C93.4211 99.9724 93.6658 98.3166 93.6658 95.5975" stroke="black" stroke-linecap="round"/>
<path d="M94.2939 98.324C93.8296 99.4305 93.0376 100.459 93.0376 101.656C93.0376 102.169 93.1904 102.991 92.9678 103.474C92.5702 104.337 91.9556 105.915 91.7987 106.823C91.3637 109.341 91.1531 111.676 91.1531 114.313C91.1531 116.913 91.2224 119.604 91.7987 122.105C91.9107 122.591 92.4094 122.831 92.4094 123.317C92.4094 123.923 92.4094 124.529 92.4094 125.135C92.4094 126.748 92.7235 128.234 92.7235 129.965C92.7235 135.677 92.4094 141.596 92.4094 147.166C92.4094 150.694 91.7812 153.968 91.7812 157.5C91.7812 160.026 92.3299 163.239 91.7638 165.696C90.4707 171.309 90.5249 177.507 90.5249 183.3C90.5249 185.562 90.2108 187.524 90.2108 189.814C90.2108 191.137 90.4143 192.572 89.9665 193.819C89.6641 194.662 89.4771 196.863 88.7974 197.388C87.7099 198.227 88.3263 201.458 88.3263 202.487C88.3263 204.161 88.3175 205.925 87.9424 207.553C87.5632 209.199 87.0699 210.554 87.0699 212.232C87.0699 214.1 87.0699 215.968 87.0699 217.836C87.0699 223.948 86.7559 230.257 86.7559 236.468" stroke="black" stroke-linecap="round"/>
<path d="M73.2502 225.259C73.2502 222.05 73.2502 218.841 73.2502 215.632C73.2502 214.371 73.447 213.286 73.7039 212.047C74.0078 210.581 73.6615 209.072 73.9482 207.62C74.5163 204.744 77.9615 202.529 77.9615 199.508C77.9615 197.597 78.2756 195.818 78.2756 193.887C78.2756 189.926 78.5897 185.924 78.5897 181.937C78.5897 178.948 80.1601 176.214 80.1601 173.152C80.1601 169.546 80.646 166.11 80.9279 162.498C81.4266 156.107 81.7306 149.659 81.7306 143.244C81.7306 141.051 82.3587 138.939 82.3587 136.731C82.3587 135.435 82.3587 134.139 82.3587 132.843C82.3587 132.142 82.3587 131.441 82.3587 130.739C82.3587 128.368 83.2495 126.175 83.301 123.839C83.3596 121.182 83.9273 118.642 84.3131 115.996C84.7279 113.151 86.4419 110.102 86.4419 107.261C86.4419 102.504 88.3264 97.9671 88.3264 93.1739" stroke="black" stroke-linecap="round"/>
<path d="M88.3261 93.1739C89.7391 94.2387 91.1529 95.2337 91.1529 96.9776C91.1529 98.9411 91.1529 100.905 91.1529 102.868C91.1529 106.65 90.1164 110.018 89.2858 113.623C88.7829 115.806 88.9543 118.501 88.9543 120.742C88.9543 123.775 88.0121 126.542 88.0121 129.511C88.0121 132.014 86.1275 134.166 86.1275 136.495C86.1275 141.247 85.4994 145.989 85.4994 150.734C85.4994 153.956 85.3689 157.774 85.1678 161.169C85.09 162.482 84.5571 163.655 84.5571 164.972C84.5571 166.105 84.5571 167.239 84.5571 168.372C84.5571 168.915 84.3784 169.008 84.243 169.432C83.6692 171.231 83.7201 173.161 83.2833 174.986C82.9862 176.228 83.0538 177.934 82.5155 179.076C82.3479 179.432 82.0444 179.885 82.0444 180.271C82.0444 184.668 81.7303 189.363 81.7303 193.853C81.7303 197.069 79.8458 200.308 79.8458 203.514C79.8458 207.504 79.0299 211.798 77.8043 215.581C77.564 216.323 77.0316 216.815 76.862 217.567C76.6075 218.696 76.8681 219.872 76.5479 220.984C74.7167 227.342 75.1345 234.15 75.1345 240.709" stroke="black" stroke-linecap="round"/>
<path d="M72.936 238.891C72.936 234.438 72.3079 230.006 72.3079 225.562" stroke="black" stroke-linecap="round"/>
<path d="M75.1348 239.194C75.1348 243.177 75.1348 247.16 75.1348 251.144C75.1348 253.63 76.077 255.681 76.077 258.28" stroke="black" stroke-linecap="round"/>
<path d="M73.2502 260.4C73.2502 259.086 73.0346 258.262 72.6221 257.068" stroke="black" stroke-linecap="round"/>
<path d="M23.6245 282.819C23.6245 280.072 22.7293 274.853 24.1829 272.283C24.9968 270.843 25.4436 269.21 25.7533 267.604C25.9222 266.728 25.7335 265.85 25.9627 264.978C26.0992 264.459 26.4725 262.262 26.9224 261.915C27.9137 261.15 27.9733 259.141 28.7895 258.128C29.6077 257.114 29.7551 255.713 30.6042 254.712C32.1119 252.934 32.2502 250.263 33.9893 248.586C35.6176 247.015 36.7387 245.025 38.3691 243.452C39.6412 242.225 41.2286 241.409 42.6093 240.255C44.9068 238.334 47.5045 236.931 50.4614 236.232C52.6754 235.709 55.204 235.337 57.476 235.256C58.8787 235.206 60.2425 234.538 61.6289 234.347C64.0394 234.015 66.4138 234.044 68.8529 234.044" stroke="black" stroke-linecap="round"/>
<path d="M75.4487 237.376C76.6886 237.604 80.4809 238.298 81.1023 239.497" stroke="black" stroke-linecap="round"/>
<path d="M81.1023 239.497C80.3807 241.716 80.4742 243.875 80.4742 246.162C80.4742 248.67 81.6791 249.967 83.5452 251.851C84.8765 253.194 85.3565 254.379 85.8136 256.142C86.1808 257.559 87.346 258.232 88.0122 259.357C89.2872 261.509 91.621 263.259 93.3517 265.18C94.6334 266.603 96.4301 268.857 98.5341 269.169C101.031 269.54 105.794 271.283 108.114 269.792" stroke="black" stroke-linecap="round"/>
<path d="M107.799 269.489C107.799 268.189 108.028 267.295 108.428 266.14C108.685 265.394 109.472 264.996 109.667 264.154C110.076 262.376 109.998 260.493 109.998 258.6C109.998 256.8 109.671 255.095 109.387 253.315C109.139 251.757 108.5 250.446 108.148 248.922C107.619 246.625 105.109 242.741 102.617 242.207C101.65 242 100.547 240.893 99.6332 240.473C97.8682 239.663 95.7176 239.664 93.9797 238.959C92.7083 238.442 90.419 238.143 89.3382 237.309C88.4044 236.589 85.5024 237.074 84.243 237.074C82.7677 237.074 80.804 236.763 79.5317 237.377" stroke="black" stroke-linecap="round"/>
<path d="M91.7812 237.679C94.9262 237.128 98.3604 236.165 101.535 236.165C101.881 236.165 103.675 235.712 103.961 235.491C104.552 235.035 105.658 235.275 106.247 234.801C107.467 233.82 110.497 233.438 112.04 233.438C112.96 233.438 114.497 233.145 115.338 233.505C116.942 234.193 115.766 236.01 116.751 236.771C117.166 237.091 116.87 238.443 116.926 238.925C117.042 239.935 117.75 241.176 118.479 241.921C119.334 242.794 119.735 242.931 119.735 244.176C119.735 245.034 119.774 245.69 119.351 246.465C118.703 247.652 117.528 247.758 116.454 248.417C115.435 249.043 113.898 248.193 112.825 248.653C111.04 249.418 107.697 249.112 106.229 247.98" stroke="black" stroke-linecap="round"/>
<path d="M93.6658 217.988C94.6217 219.344 96.2883 221.574 98.2026 221.909C98.9977 222.049 99.8347 222.793 100.576 222.835C102.644 222.952 104.678 223.441 106.718 223.441C112.007 223.441 117.346 223.953 122.091 221.489C124.367 220.306 126.899 218.524 129.315 217.702C132.374 216.66 136.502 217.131 138.894 214.824C140.024 213.734 140.887 212.528 142.157 211.491C142.951 210.843 143.788 209.963 144.408 209.202C145.438 207.939 146.434 206.403 147.549 205.264C148.437 204.358 148.807 203.22 149.573 202.235" stroke="black" stroke-linecap="round"/>
<path d="M122.248 198.296C126.393 198.296 130.541 197.993 134.637 197.993C136.509 197.993 138.382 197.993 140.255 197.993C141.305 197.993 142.92 197.693 143.919 198.061C145.594 198.676 149.258 199.807 149.887 201.629" stroke="black" stroke-linecap="round"/>
<path d="M124.76 198.599C121.074 198.599 117.866 200.039 114.709 201.561C113.146 202.315 111.473 203.491 110.242 204.725C108.386 206.587 105.931 207.669 104.17 209.522C103.552 210.173 102.636 210.413 102.076 210.953C101.647 211.367 101.293 211.992 100.733 212.232C99.5059 212.758 98.1042 214.455 97.2776 215.43C95.9892 216.949 94.8359 217.944 92.9851 218.762C90.027 220.07 86.3752 219.87 83.929 222.229" stroke="black" stroke-linecap="round"/>
<path d="M93.6656 217.988C91.4492 217.988 89.421 218.594 87.2443 218.594C86.2316 218.594 85.4278 217.371 86.4417 218.594" stroke="black" stroke-linecap="round"/>
<path d="M49.3795 168.608C47.8667 171.47 47.1809 173.532 47.1809 176.636C47.1809 179.188 49.0267 181.704 50.3218 183.89C51.4852 185.853 54.4799 188.151 56.586 189.04C58.9069 190.019 62.6538 190.117 65.206 190.117C66.0557 190.117 66.6473 190.233 67.4395 190.403C69.1367 190.767 70.7374 190.239 70.7374 192.305C70.7374 193.52 71.0846 194.578 71.3481 195.721C71.5228 196.48 72.259 196.588 72.3078 197.388C72.3866 198.679 73.7247 199.764 73.8782 201.023C73.9387 201.518 74.531 204.822 74.8205 204.961" stroke="black" stroke-linecap="round"/>
<path d="M71.9939 189.511C71.9939 191.268 71.7592 193.999 73.0059 195.502C73.5486 196.157 74.2572 197.076 74.4891 197.859C74.9514 199.419 75.4488 201.182 75.4488 202.841" stroke="black" stroke-linecap="round"/>
<path d="M71.3657 189.208C73.7711 186.888 75.8983 184.403 77.3334 181.634" stroke="black" stroke-linecap="round"/>
<path d="M69.167 165.578C70.6925 167.446 72.6136 167.777 74.3494 169.079C75.8619 170.213 77.0573 171.952 78.9037 172.546" stroke="black" stroke-linecap="round"/>
<path d="M66.6543 167.396C68.7347 169.875 71.5144 171.438 73.5642 173.909C74.9632 175.596 77.3818 176.554 78.5896 178.302" stroke="black" stroke-linecap="round"/>
<path d="M64.7698 154.369C68.0957 155.056 71.7893 155.794 74.0353 158.442C74.4379 158.917 75.0582 159.311 75.5185 159.755C75.8955 160.118 76.5014 161.128 76.8795 161.337C77.3321 161.586 78.7596 163.343 78.9036 163.76" stroke="black" stroke-linecap="round"/>
<path d="M72.9361 209.808C72.2928 206.982 69.387 203.157 67.1255 201.46C64.389 199.407 59.6755 199.205 56.2896 199.205" stroke="black" stroke-linecap="round"/>
<path d="M61.943 218.291C61.943 215.469 61.943 212.647 61.943 209.825C61.943 208.121 60.6146 206.541 59.4303 205.264C58.1676 203.903 56.9176 202.263 56.9176 200.266C56.9176 198.768 54.0954 196.737 52.7647 196.243C52.1812 196.027 51.8133 195.7 51.2641 195.435C50.7039 195.165 50.0755 195.404 49.5366 195.115C48.0983 194.345 46.3987 194.618 45.122 193.584C43.2272 192.049 41.1102 191.741 38.8403 191.026C37.8373 190.709 36.6094 190.117 35.5598 190.117C33.937 190.117 32.3142 190.117 30.6915 190.117C29.9063 190.117 29.121 190.117 28.3358 190.117C27.1306 190.117 26.7566 191.064 25.8231 191.564C24.1993 192.434 23.2563 193.934 22.0716 195.267C21.4579 195.957 21.74 197.286 21.74 198.145C21.74 199.519 21.4124 201.234 22.2984 202.302C23.2733 203.477 23.8648 205.463 24.3923 206.897C24.9737 208.477 26.087 209.699 26.7654 211.172C27.2544 212.233 28.5811 213.011 29.2781 213.982C30.3041 215.412 31.8469 214.982 33.3612 215.632C34.2437 216.01 34.9402 216.362 35.7168 216.944C36.3946 217.453 36.9499 218.739 37.5839 218.914C38.0824 219.051 38.4867 219.815 39.0147 220.041C39.7595 220.36 40.6309 220.457 41.3878 220.782C44.9128 222.293 48.6039 222.532 52.5204 222.532" stroke="black" stroke-linecap="round"/>
<path d="M53.1487 222.532C56.2998 222.532 60.023 222.128 62.8853 223.508C63.9596 224.026 70.1616 224.249 70.7375 223.138" stroke="black" stroke-linecap="round"/>
<path d="M66.9685 224.653C67.9448 226.868 69.7953 227.913 69.7953 230.409" stroke="black" stroke-linecap="round"/>
<path d="M68.853 223.744C69.6936 224.814 71.3657 225.664 71.3657 227.076" stroke="black" stroke-linecap="round"/>
<path d="M69.1671 165.275C69.1671 163.508 69.1671 161.741 69.1671 159.974C69.1671 159.094 68.3186 158.525 67.9107 157.836C67.133 156.523 65.8429 155.625 65.1538 154.369C64.3147 152.84 61.7822 150.807 60.2156 149.993C58.8136 149.265 57.4729 148.453 56.0453 147.452C54.6416 146.467 52.9978 146.695 51.4038 146.324C49.1748 145.805 47.0932 145.945 44.808 145.887C44.1091 145.869 43.6094 145.344 42.8711 145.298C40.909 145.175 38.9214 145.307 36.9558 145.281C35.2109 145.257 33.4347 144.978 31.6338 144.978C28.8102 144.978 26.0682 145.754 23.3105 145.887C21.8323 145.958 19.5782 146.475 18.2852 147.098" stroke="black" stroke-linecap="round"/>
<path d="M18.9132 147.704C15.3978 149.689 13.0793 150.128 9.17655 150.128C8.3669 150.128 5.47838 150.128 5.8263 150.128C7.87517 150.128 10.5449 150.542 12.2825 151.609C14.0267 152.679 16.5912 152.399 18.1454 153.898C19.7665 155.461 22.609 159.529 25.1949 159.822C27.1479 160.044 29.9614 162.033 31.5116 163.155C34.8336 165.558 37.1747 166.476 41.1784 167.396C47.5916 168.869 54.3707 168.911 61.0007 168.911" stroke="black" stroke-linecap="round"/>
<path d="M61.0007 168.91C66.0219 175.303 67.8413 182.039 70.4233 189.511" stroke="black" stroke-linecap="round"/>
<path d="M90.8389 173.455C92.7539 173.455 93.5185 173.578 94.922 172.781C95.6848 172.349 96.4759 171.35 97.1206 170.728C97.7778 170.094 98.5364 168.772 99.3192 168.372C100.727 167.653 103.297 166.713 104.205 165.359C106.256 162.302 108.485 158.527 109.841 155.126C110.713 152.941 109.998 149.194 109.998 146.795" stroke="black" stroke-linecap="round"/>
<path d="M90.2107 156.187C91.1823 154.95 93.3516 152.921 93.3516 151.34" stroke="black" stroke-linecap="round"/>
<path d="M94.9221 152.854C96.5992 153.17 99.8967 153.741 101.448 152.854C102.11 152.476 102.713 152.042 103.402 151.71C104.33 151.263 104.824 150.225 105.758 149.825C106.43 149.537 106.506 148.503 107.329 148.327C107.777 148.231 107.658 148.123 107.992 147.873C108.749 147.304 110.891 147.704 111.743 147.704C115.674 147.704 117.034 146.697 120.206 144.658C120.935 144.189 121.339 142.891 122.125 142.554C122.899 142.223 123.558 141.719 124.307 141.326C126.14 140.361 127.626 138.932 129.472 137.943C132.045 136.564 134.978 134.658 136.381 131.951" stroke="black" stroke-linecap="round"/>
<path d="M95.2361 151.037C96.9321 148.812 98.7801 146.373 100.715 144.506C102.013 143.255 103.415 141.559 104.414 140.063C105.179 138.919 106.483 138.128 107.171 136.966C108.046 135.49 111.675 134.256 113.069 133.348C115.018 132.079 116.955 130.828 118.618 129.225C121.597 126.351 125.533 125.093 129.402 123.771C130.961 123.239 133.603 122.839 134.985 121.886C136.614 120.765 138.346 119.53 140.464 119.53C141.43 119.53 142.396 119.53 143.361 119.53C145.174 119.53 146.638 118.621 148.439 118.621C150.706 118.621 153.886 119.449 155.541 121.045C156.722 122.184 157.882 122.863 159.624 122.863" stroke="black" stroke-linecap="round"/>
<path d="M159.624 122.863C156.32 122.863 153.016 122.863 149.713 122.863C148.593 122.863 147.155 122.892 146.118 122.492C145.233 122.151 143.26 121.348 142.349 121.348C140.981 121.348 141.093 121.602 141.093 122.863C141.093 124.089 141.03 125.181 140.761 126.346C140.356 128.103 137.638 129.963 137.638 131.648" stroke="black" stroke-linecap="round"/>
<path d="M92.7234 142.857C94.1324 140.139 94.2938 138.734 94.2938 135.889C94.2938 135.546 94.0954 133.869 94.4858 133.786C95.2074 133.631 97.1216 133.542 97.7488 133.92C98.2885 134.246 99.364 134.392 100.017 134.61C101.028 134.948 101.866 135.42 102.914 135.603C104.492 135.88 105.34 137.733 106.543 138.313" stroke="black" stroke-linecap="round"/>
<path d="M81.4163 126.195C79.3288 125.783 76.9553 125.04 74.8205 124.983C73.4742 124.947 72.1767 124.377 70.8945 124.377C69.0412 124.377 67.1553 122.863 65.3456 122.863C62.4564 122.863 59.7482 122.56 56.9176 122.56C55.5009 122.56 54.5757 122.102 53.2882 121.651C52.551 121.392 50.9665 121.421 50.3916 120.978C49.5717 120.345 46.2191 120.439 45.122 120.439C43.7332 120.439 42.2762 120.299 40.8993 120.439C40.2417 120.506 39.9005 121.818 39.608 122.257C39.0702 123.064 38.2479 123.657 37.4618 124.226C36.8027 124.703 36.2378 124.599 35.6819 125.135C34.5503 126.226 33.4613 127.143 32.4189 128.316C30.4739 130.504 29.9062 134.371 29.9062 137.168C29.9062 138.423 30.2593 139.331 30.7787 140.434C31.5934 142.162 33.6753 147.297 33.6753 145.398C33.6753 143.106 33.9131 141.848 35.4202 139.979C38.0158 136.76 42.8913 136.798 46.7971 136.798C48.8982 136.798 50.914 137.101 52.9916 137.101C55.0624 137.101 56.6833 136.803 58.6451 136.512C60.0019 136.311 61.2441 135.679 62.5537 135.267C64.6408 134.609 66.8688 134.473 68.8529 133.533C69.9382 133.019 70.8178 132.286 71.8193 131.648C74.8166 129.739 77.4366 127.71 81.1023 127.71" stroke="black" stroke-linecap="round"/>
<path d="M93.0376 104.686C96.1324 104.553 99.0619 103.474 102.146 103.474C102.925 103.474 105.254 103.538 105.601 102.868" stroke="black" stroke-linecap="round"/>
<path d="M105.915 102.565C108.119 100.227 109.958 99.2583 112.982 98.6101C115.627 98.0432 118.319 97.4658 120.991 96.8766C124.108 96.1894 127.384 96.6543 130.536 96.1865C137.587 95.1403 145.175 95.2945 152.4 95.2945C153.423 95.2945 154.599 95.2823 155.541 95.6648C156.33 95.9853 157.104 95.8753 157.949 95.9004C160.333 95.9712 162.586 96.7532 164.893 97.23C168.455 97.9662 172.149 98.324 175.817 98.324C179.434 98.324 184.469 99.7527 185.361 103.626C185.693 105.065 178.774 104.08 177.841 104.08C173.108 104.08 168.956 101.959 164.161 101.959C159.441 101.959 154.688 101.352 150.498 103.626C148.294 104.821 146.342 104.726 144.059 104.097C141.535 103.401 138.895 103.857 136.312 103.339C134.149 102.906 131.782 102.307 129.751 101.505C128.113 100.859 126.108 100.913 124.376 100.579C122.929 100.3 121.364 100.445 119.892 100.445C118.699 100.445 117.507 100.445 116.315 100.445C114.837 100.445 113.838 101.328 112.441 101.589C107.653 102.483 103.363 103.937 99.0051 106.201" stroke="black" stroke-linecap="round"/>
<path d="M82.3586 109.533C82.3586 105.966 81.9127 103.653 83.6847 100.748C84.4849 99.4355 86.7558 99.4874 86.7558 97.7181" stroke="black" stroke-linecap="round"/>
<path d="M90.8389 93.7798C92.8624 91.3221 95.3663 90.2873 97.679 88.2595C98.5254 87.5173 99.5074 86.9092 100.418 86.2062C100.885 85.8463 101.573 84.7605 102.146 84.6914C102.596 84.6371 103.635 83.6457 103.891 83.3282C104.475 82.6035 105.335 82.0535 105.985 81.4263C107.537 79.9294 108.114 83.1806 108.114 84.3885" stroke="black" stroke-linecap="round"/>
<path d="M106.229 100.445C106.293 97.7518 108.114 95.324 108.114 92.7026C108.114 91.446 108.114 90.1893 108.114 88.9326" stroke="black" stroke-linecap="round"/>
<path d="M91.467 115.895C92.951 113.147 96.1578 111.163 98.3071 108.86C98.7092 108.429 99.7906 106.863 100.261 106.806C100.642 106.761 102.028 106.125 102.146 105.898" stroke="black" stroke-linecap="round"/>
<path d="M69.1671 124.074C67.0535 123.036 64.2684 121.348 61.786 121.348C61.0103 121.348 59.9476 120.952 59.2733 120.59C57.8527 119.829 56.9742 118.508 55.9056 117.477C54.0685 115.705 52.7739 113.693 51.4212 111.519C50.2618 109.655 48.7515 108.501 48.7515 106.201" stroke="black" stroke-linecap="round"/>
<path d="M66.9685 98.021C71.3257 98.021 76.2277 100.096 78.9038 103.323C80.2314 104.923 81.7987 105.726 82.6728 107.412" stroke="black" stroke-linecap="round"/>
<path d="M84.5571 111.957C82.7464 110.9 80.8475 109.142 78.9036 108.473C77.7178 108.064 76.5726 107.644 75.4486 107.042C73.4617 105.977 71.1563 105.127 69.5508 103.407C68.4453 102.222 66.8923 101.094 65.4153 100.293C63.7544 99.3919 63.5056 98.4064 62.4315 97.0448C61.4004 95.7377 60.8029 93.698 59.3605 92.8036C57.7405 91.7991 55.9287 91.1901 54.1431 90.481C53.1134 90.072 51.9864 89.7596 50.9325 89.4039C49.8661 89.0439 48.4714 89.285 47.8091 88.3267" stroke="black" stroke-linecap="round"/>
<path d="M59.1162 92.568C57.7973 90.8379 54.5655 88.4937 54.0734 86.3576C53.8083 85.207 53.2115 84.3905 53.1486 83.1766C53.0288 80.8671 52.8345 78.5571 52.8345 76.2089" stroke="black" stroke-linecap="round"/>
<path d="M47.495 88.9326C45.8979 88.2569 44.4051 87.0303 42.7837 86.509" stroke="black" stroke-linecap="round"/>
<path d="M52.2064 75.9059C50.3824 76.5924 48.7686 76.7703 47.4951 75.0644C46.6111 73.8801 44.4393 69.1045 46.2737 68.2649C48.3123 67.3317 50.3783 66.2423 52.2064 64.9325C53.3659 64.1017 54.3907 63.0215 55.6613 62.3406C57.6406 61.28 59.6321 60.5771 61.629 59.6141C63.6432 58.6427 65.4754 57.4056 67.457 56.45C67.9721 56.2015 69.2601 55.2291 68.6785 56.2143C67.8815 57.5642 66.4231 58.7612 65.7819 60.1526C65.0864 61.6621 64.4672 63.474 63.1994 64.6968C60.9597 66.8571 59.0304 69.0914 57.2318 71.5973C55.885 73.4737 54.0925 74.9948 52.8346 76.8147" stroke="black" stroke-linecap="round"/>
<path d="M93.0376 102.262C94.0893 100.936 95.3805 99.1129 96.8241 98.1557C98.7592 96.8725 99.8281 94.5587 101.448 92.9382C103.273 91.1131 105.976 90.5942 107.8 88.9326C109.227 87.6325 110.315 86.0354 111.429 84.4557C112.85 82.4406 114.571 80.6294 115.809 78.481C116.728 76.8857 118.132 74.0105 120.049 73.4823C121.422 73.104 123.127 70.8921 123.486 69.6787C123.981 68.0086 125.208 67.4088 126.017 66.0433C126.608 65.0444 127.996 64.0236 128.843 63.1822C129.752 62.2802 130.483 61.298 131.356 60.4556" stroke="black" stroke-linecap="round"/>
<path d="M118.164 74.0882C118.499 72.6188 119.893 70.8989 120.049 69.544C120.167 68.5152 120.933 66.962 121.549 66.1442C121.905 65.6732 122.21 64.4002 122.492 63.788C122.763 63.1985 123.504 61.4783 123.504 60.91C123.504 59.1539 125.074 57.9062 125.074 56.0629C125.074 52.9246 126.645 50.0108 126.645 46.823" stroke="black" stroke-linecap="round"/>
<path d="M131.984 42.8847C130.894 47.4879 129.435 51.9701 127.532 56.1957C125.878 59.8666 125.47 64.29 124.446 68.3322" stroke="black" stroke-linecap="round"/>
<path d="M110.312 84.3885C111.726 82.5345 112.566 79.046 111.865 76.6801C111.677 76.0457 105.602 77.9255 104.659 78.0266C102.967 78.2079 101.199 78.9229 100.419 76.8148C99.5447 74.4545 102.888 73.2776 103.717 71.4796C104.074 70.7045 104.886 70.6587 105.287 69.9817C105.448 69.7093 106.499 68.5102 106.683 68.3996C108.219 67.4737 109.97 66.9152 111.394 65.7909C114.213 63.5664 119.285 63.8282 120.991 67.1205" stroke="black" stroke-linecap="round"/>
<path d="M130.414 61.6674C132.072 60.6772 133.113 59.6053 134.305 58.2003C135.299 57.0289 133.652 54.6061 134.811 53.4878C135.53 52.7945 137.282 52.2463 138.249 51.8385C139.715 51.2198 141.131 50.6021 142.733 50.3237C146.334 49.6978 149.925 48.5484 153.499 48.018C154.57 47.8591 155.427 47.1694 156.553 47.126C157.384 47.0939 158.299 46.3833 159.153 46.2003C160.279 45.9589 161.424 45.4323 162.59 45.3251C170.761 44.5746 178.496 41.067 186.792 41.067C189.668 41.067 194.518 39.5743 197 41.37" stroke="black" stroke-linecap="round"/>
<path d="M133.869 61.0616C137.008 62.329 139.777 63.5673 142.663 61.0616C144.271 59.6655 146.488 59.0214 148.003 57.5609C149.637 55.9844 152.409 55.6317 154.145 53.9255C155.628 52.4678 156.723 50.427 158.681 49.4823C161.356 48.1922 163.804 46.1468 166.22 44.3995" stroke="black" stroke-linecap="round"/>
<path d="M129.157 44.3994C127.642 43.4856 127.061 42.9178 126.488 41.37C126.215 40.6335 126.299 40.1198 125.772 39.485C125.558 39.227 125.249 38.2647 125.074 37.8861C124.785 37.2588 124.132 37.3113 124.132 36.5228" stroke="black" stroke-linecap="round"/>
<path d="M125.388 47.1259C124.885 44.8602 123.843 42.8678 122.719 40.9155C122.094 39.8305 120.991 38.2378 120.991 36.9772C120.991 36.4757 112.756 36.2198 111.115 36.2198C110.187 36.2198 109.812 35.8747 108.934 35.6139C108.113 35.3705 107.487 34.6439 106.84 34.4358C104.987 33.8403 103.333 32.9737 101.448 32.4498C98.5853 31.6542 96.7641 29.1146 94.0495 28.1076C92.3949 27.4938 90.8749 26.721 89.2684 25.987C88.2616 25.527 87.6156 24.6981 86.7557 24.0346C86.1319 23.5533 85.82 22.8198 85.1853 22.3516C84.6348 21.9456 84.0875 22.0654 83.4753 21.8467C79.447 20.4077 76.7395 16.7108 73.1104 14.7106C70.8578 13.4691 75.2453 9.19974 76.0768 8.19727C78.1209 5.7328 80.3486 5.91163 82.9867 4.78071C84.2408 4.2431 85.7686 4.99037 87 4.04017C88.4304 2.93647 95.0076 -0.0511289 96.4924 1.38097" stroke="black" stroke-linecap="round"/>
<path d="M94.2939 1.3811C95.8484 3.4484 97.2429 5.9169 99.6334 7.06976C100.325 7.40316 101.57 8.51814 101.902 9.12306C102.448 10.1174 103.519 11.2352 104.275 12.0515C105.62 13.5045 105.727 16.2015 107.329 17.4373C107.822 17.818 108.492 19.0478 108.899 19.5916C109.857 20.8712 110.229 22.3546 111.237 23.6308C112.898 25.7337 114.71 27.6876 116.437 29.7234C118.645 32.3265 120.673 35.0811 123.504 37.1288" stroke="black" stroke-linecap="round"/>
<path d="M131.67 46.217C131.691 44.528 132.298 42.8017 132.298 41.2184C132.298 40.6559 132.612 40.2385 132.612 39.7037C132.612 38.8469 132.618 38.0302 132.857 37.196C133.139 36.2093 132.846 37.1325 132.612 37.4989C131.754 38.8447 130.885 40.0899 129.96 41.3867C129.487 42.05 129.105 42.5998 128.529 43.1876C128.111 43.6143 128.397 44.1604 127.901 44.3994" stroke="black" stroke-linecap="round"/>
<path d="M61.0008 97.4151C58.3243 96.6807 54.7687 96.3256 52.2064 95.2272C51.1093 94.7569 49.8731 95.244 48.7514 94.8232C47.5632 94.3776 46.1152 94.501 44.9824 94.0154C43.7183 93.4735 42.5602 92.6914 41.2308 92.1304C38.082 90.8016 34.7488 90.9029 31.3371 90.4642C27.8161 90.0114 24.3679 90.2381 20.9897 89.2356C16.9346 88.0321 12.223 88.0962 7.92025 88.3267C6.71488 88.3913 4.2726 89.4552 3.5405 90.279C2.96836 90.9229 2.31307 92.93 2.2667 93.7798C2.19434 95.1059 1.63853 96.1751 1.63853 97.5498C1.63853 98.4137 1.63853 99.2777 1.63853 100.142C1.63853 100.963 1.81112 102.012 1.56874 102.801C1.40201 103.344 0.873813 105.209 1.02781 105.729C1.267 106.537 13.3221 104.897 13.6959 104.854C16.4556 104.538 19.2772 104.686 22.0541 104.686C23.4505 104.686 24.7537 104.245 26.1372 104.097C29.1882 103.77 32.4678 104.08 35.5424 104.08C42.2254 104.08 48.9085 104.08 55.5915 104.08C59.4245 104.08 63.1616 103.777 66.9684 103.777C68.8831 103.777 69.9481 105.115 71.6099 106.1C74.9436 108.074 78.6585 109.112 82.0445 110.745" stroke="black" stroke-linecap="round"/>
<path d="M42.4698 86.509C39.361 86.609 36.3178 87.4179 33.2217 87.4179C32.3623 87.4179 31.2817 87.6937 30.4647 87.9564C28.1621 88.6967 26.3927 89.8932 24.2528 90.9859C22.398 91.933 21.1428 93.4289 18.9831 94.15C17.2994 94.7122 15.3293 94.9735 13.8879 95.9004" stroke="black" stroke-linecap="round"/>
<path d="M57.5457 92.568C55.1012 91.6923 52.417 90.8969 50.1647 89.69C48.6939 88.9019 47.2692 88.9965 45.9246 88.0238" stroke="black" stroke-linecap="round"/>
<path d="M45.2965 88.0238C41.6777 89.42 37.487 90.41 34.129 92.0295C33.7902 92.1929 33.8302 92.7223 33.4834 92.871C32.9695 93.0913 32.4462 93.2969 31.9479 93.5105C30.9617 93.9333 29.9185 94.8105 28.7896 95.0084C24.8903 95.6922 21.6735 97.5387 17.8664 98.6943C15.4454 99.4291 12.8392 99.7477 10.59 100.916C8.81183 101.839 7.39173 103.455 5.73916 104.551C4.89826 105.109 4.63326 106.074 4.08149 106.739C2.9684 108.081 3.72225 105.676 4.15128 105.174C5.89854 103.128 7.03051 101.167 9.49075 99.7714C10.272 99.3281 11.3451 98.5129 11.8638 97.8696C12.2886 97.3428 13.1017 97.3268 13.7135 97.1122C14.2333 96.9299 14.3588 96.3606 14.8477 96.2034C16.8524 95.5588 18.787 94.4263 20.7978 93.7798" stroke="black" stroke-linecap="round"/>
<path d="M71.6797 237.982C70.5209 236.399 69.7952 235.191 69.7952 233.287C69.7952 232.251 70.0178 230.712 71.3656 230.712" stroke="black" stroke-linecap="round"/>
<path d="M28.6499 292.816C29.1484 288.728 32.7998 285.248 34.6873 281.607C35.7709 279.516 37.5309 277.697 38.5611 275.615C39.4147 273.89 40.8209 272.464 41.7019 270.684C42.6363 268.795 43.6864 266.762 44.9824 265.079C47.0753 262.362 49.5741 259.898 51.7527 257.236C56.2851 251.699 59.7186 245.278 64.9268 240.254C66.5526 238.686 69.0597 237.886 70.1093 235.862" stroke="black" stroke-linecap="round"/>
<path d="M80.4741 237.982C83.0167 240.309 86.0735 241.876 89.0591 243.604C90.5363 244.459 91.5941 245.954 92.7235 247.172C94.2339 248.8 95.7876 250.413 97.4348 251.918C98.7123 253.085 100.577 254.313 101.588 255.856C102.34 257.005 103.663 257.973 103.716 259.424C103.763 260.681 104.099 261.701 104.589 262.824C105.45 264.796 106.528 268.421 108.742 269.489" stroke="black" stroke-linecap="round"/>
<path d="M95.5503 218.897C98.6594 218.567 101.729 218.153 104.694 217.146C106.078 216.676 107.184 215.854 108.498 215.261C110.868 214.193 113.009 212.913 115.442 211.996C119.003 210.655 123.035 210.369 126.715 209.371C129.563 208.598 133.871 207.561 136.067 205.567C137.041 204.683 138.46 203.446 139.836 203.446" stroke="black" stroke-linecap="round"/>
<path d="M139.836 203.446C141.208 202.695 143.65 201.629 145.333 201.629C146.391 201.629 147.211 201.023 148.317 201.023" stroke="black" stroke-linecap="round"/>
<path d="M61.3149 216.776C61.3149 218.892 61.629 221.114 61.629 223.138" stroke="black" stroke-linecap="round"/>
<path d="M61.0009 222.229C58.5959 218.595 55.1554 215.796 51.8924 212.905C50.0812 211.3 48.6566 209.182 46.6227 207.991C43.3666 206.084 39.3587 204.24 37.2001 201.023C36.8604 200.516 35.9999 200.61 35.4901 200.282C34.8684 199.883 34.2911 199.389 33.6754 198.97C32.0222 197.844 29.9256 197.574 28.4057 196.108C27.2116 194.957 25.7407 194.055 23.9387 194.055" stroke="black" stroke-linecap="round"/>
<path d="M119.107 245.556C117.637 243.702 116.755 243.763 114.64 243.2C113.945 243.015 112.388 243.288 111.883 242.678C111.037 241.658 108.391 241.641 107.329 240.844C104.828 238.968 100.743 240.312 98.063 238.588" stroke="black" stroke-linecap="round"/>
<path d="M99.3192 239.497C97.2992 239.497 95.4257 239.194 93.3516 239.194" stroke="black" stroke-linecap="round"/>
<path d="M11.6892 150.431C17.2065 150.556 22.5428 151.378 27.9519 152.349C29.6197 152.649 31.1666 153.243 32.8028 153.528C35.2019 153.945 37.3423 155.151 39.7825 155.514C42.1479 155.865 44.3863 156.357 46.797 156.557C48.9153 156.733 51.8847 156.721 53.7069 157.87C54.8263 158.576 56.5512 158.997 57.476 159.889C58.3055 160.69 58.6823 162.047 59.7444 162.616C60.74 163.149 61.3969 163.971 62.6409 164.063C63.5258 164.129 64.3568 164.622 65.0838 164.972" stroke="black" stroke-linecap="round"/>
<path d="M60.3726 168.305C61.7389 167.316 64.8217 165.578 66.6543 165.578C68.7218 165.578 68.2247 164.275 68.2247 162.549" stroke="black" stroke-linecap="round"/>
<path d="M94.2938 151.946C93.5837 152.212 93.0394 152.55 93.9797 151.946" stroke="black" stroke-linecap="round"/>
<path d="M33.6754 144.069C32.8463 141.34 32.7332 138.419 32.7332 135.586C32.7332 134.419 33.2838 133.792 34.164 133.011C37.9485 129.653 42.5988 127.853 47.7395 127.474C52.7519 127.105 58.3011 128.121 63.182 126.649C64.5708 126.231 66.3281 126.536 67.7712 126.498C69.2311 126.46 70.6723 126.195 72.1684 126.195C75.3625 126.195 78.5637 126.498 81.7306 126.498" stroke="black" stroke-linecap="round"/>
<path d="M94.2939 152.551C96.6204 150.765 99.2525 148.811 102.007 147.704C103.546 147.086 105.108 146.49 106.561 145.701C108.181 144.822 108.934 143.413 110.138 142.251C111.484 140.953 112.896 139.726 114.221 138.448C116.018 136.714 118.751 135.797 120.433 133.769C121.516 132.463 123.47 130.668 125.057 129.999C125.746 129.708 126.459 129.425 127.116 129.073C127.762 128.727 128.207 128.301 128.843 127.945C130.838 126.832 132.904 125.314 134.968 124.377C136.618 123.629 137.92 122.257 139.836 122.257" stroke="black" stroke-linecap="round"/>
<path d="M78.2754 163.458C79.2057 165.041 80.474 166.756 80.474 168.608" stroke="black" stroke-linecap="round"/>
<path d="M68.8529 98.324C67.4632 98.5793 66.1685 98.6269 64.7698 98.6269" stroke="black" stroke-linecap="round"/>
<path d="M43.4119 276.76C43.4977 280.073 44.6682 282.966 44.6682 286.454C44.6682 289.167 45.2964 291.571 45.2964 294.33" stroke="black" stroke-linecap="round"/>
<path d="M40.8992 271.912C41.702 274.332 42.7837 277.227 42.7837 279.789" stroke="black" stroke-linecap="round"/>
<path d="M52.2063 256.159C53.3827 263.251 54.0908 269.464 54.0908 276.625C54.0908 280.911 54.0908 285.197 54.0908 289.483" stroke="black" stroke-linecap="round"/>
<path d="M57.8599 248.888C62.7027 255.054 61.0007 263.72 61.0007 271.306" stroke="black" stroke-linecap="round"/>
<path d="M68.5388 240.406V264.036" stroke="black" stroke-linecap="round"/>
<path d="M64.1418 237.982C60.6337 238.744 58.2777 240.265 55.3473 241.752C53.7901 242.543 52.0702 243.476 50.6012 244.378C48.9216 245.409 47.186 244.712 45.6107 245.556C43.4148 246.733 41.0623 246.598 38.7008 247.104C37.244 247.417 32.664 248.416 32.105 249.494" stroke="black" stroke-linecap="round"/>
<path d="M57.86 246.465C53.5911 246.542 50.0645 247.481 46.29 248.994C43.896 249.953 43.0187 252.225 41.0309 253.279C38.6944 254.518 36.8502 256.851 34.3693 257.845C31.9366 258.82 30.0082 259.624 27.7078 261.006" stroke="black" stroke-linecap="round"/>
<path d="M22.6824 277.971C24.8696 274.512 28.5678 270.336 31.8917 267.368C33.9532 265.527 36.3862 262.045 39.2591 260.872C44.7207 258.641 46.8231 253.736 54.091 253.736" stroke="black" stroke-linecap="round"/>
<path d="M102.46 190.117C99.9824 195.74 98.063 202.057 98.063 208.294" stroke="black" stroke-linecap="round"/>
<path d="M93.0376 194.964V211.323" stroke="black" stroke-linecap="round"/>
<path d="M88.0122 216.776C90.4463 214.357 93.2639 208.466 96.4925 207.082C97.7543 206.541 98.9999 205.02 99.9475 204.052C100.544 203.443 102.806 200.625 103.437 200.451C108.15 199.152 112.508 194.358 117.536 194.358" stroke="black" stroke-linecap="round"/>
<path d="M108.742 190.723C107.566 193.63 107.913 198.587 106.229 201.023" stroke="black" stroke-linecap="round"/>
<path d="M106.229 201.629L109.37 202.841" stroke="black" stroke-linecap="round"/>
<path d="M109.37 213.747C110.476 208.779 112.311 208.712 115.743 206.005C117.369 204.721 119.155 205.127 120.426 203.177C120.945 202.38 122.401 200.763 123.19 200.417" stroke="black" stroke-linecap="round"/>
<path d="M116.28 211.323C122.613 208.79 123.943 202.477 129.472 199.811" stroke="black" stroke-linecap="round"/>
<path d="M119.421 210.717C121.85 213.716 123.683 214.155 127.273 214.925C129.184 215.334 132.234 214.229 133.24 216.17" stroke="black" stroke-linecap="round"/>
<path d="M130.728 207.688C135.251 208.539 138.581 209.505 143.291 209.505" stroke="black" stroke-linecap="round"/>
<path d="M108.742 216.17C113.234 217.966 117.717 220.411 122.562 220.411" stroke="black" stroke-linecap="round"/>
<path d="M35.2456 147.704C37.18 150.092 38.9585 151.837 40.271 154.369" stroke="black" stroke-linecap="round"/>
<path d="M32.7332 144.675C34.276 146.58 35.4391 148.077 36.5022 150.128" stroke="black" stroke-linecap="round"/>
<path d="M42.1555 145.281C45.135 146.963 47.3646 148.132 49.0654 151.003C50.0948 152.741 52.8344 154.783 52.8344 156.793" stroke="black" stroke-linecap="round"/>
<path d="M52.2063 149.522C54.033 151.848 58.819 154.729 59.7095 157.735C60.0796 158.985 61.3172 159.527 61.6638 160.697C61.9766 161.753 62.3601 163.05 62.8852 164.063" stroke="black" stroke-linecap="round"/>
<path d="M22.6824 158.61C29.9141 158.505 36.968 157.399 44.0402 157.399" stroke="black" stroke-linecap="round"/>
<path d="M33.9893 165.881C42.1655 163.306 49.9847 163.458 58.488 163.458" stroke="black" stroke-linecap="round"/>
<path d="M46.5527 128.922C42.2819 131.333 40.271 131.246 40.271 136.192" stroke="black" stroke-linecap="round"/>
<path d="M57.8598 127.104C53.8806 130.102 52.3436 132.898 50.3218 136.798" stroke="black" stroke-linecap="round"/>
<path d="M60.3726 136.798C62.4102 133.441 63.2873 129.269 66.6543 127.104" stroke="black" stroke-linecap="round"/>
<path d="M64.1416 125.892C62.0206 125.493 58.6604 125.116 57.0921 123.603C56.4792 123.012 56.1768 122.785 55.9404 121.987C55.7501 121.345 54.4869 121.809 54.0908 121.045" stroke="black" stroke-linecap="round"/>
<path d="M54.0908 127.104C52.2868 124.877 51.4134 124.466 49.0654 123.334C47.9021 122.773 45.8292 123.285 45.2964 122.257" stroke="black" stroke-linecap="round"/>
<path d="M44.6682 127.104C42.0954 125.224 40.2452 124.074 37.1301 124.074" stroke="black" stroke-linecap="round"/>
<path d="M51.5781 111.351C59.0737 114.277 66.6545 117.107 73.5641 120.439" stroke="black" stroke-linecap="round"/>
<path d="M77.3332 125.892C76.7651 123.084 76.0269 120.739 73.285 119.227C72.0642 118.554 69.6227 116.625 69.0274 115.592C67.7493 113.373 65.8817 111.643 64.7698 109.23C64.1488 107.883 62.8704 105.085 61.6289 104.686" stroke="black" stroke-linecap="round"/>
<path d="M77.9614 127.71C79.1616 131.27 82.9868 135.246 82.9868 138.616" stroke="black" stroke-linecap="round"/>
<path d="M76.7051 130.133C77.9053 133.693 81.7305 137.669 81.7305 141.039" stroke="black" stroke-linecap="round"/>
<path d="M66.6542 110.745C63.5679 110.164 59.6869 109.169 56.9525 107.85C54.6351 106.732 52.0753 104.846 49.6936 104.08" stroke="black" stroke-linecap="round"/>
<path d="M1.32446 97.4151C5.00346 97.4151 8.47351 96.8092 12.0034 96.8092" stroke="black" stroke-linecap="round"/>
<path d="M18.2852 104.686C21.5709 102.831 25.5227 99.4655 29.2782 98.6605C31.9398 98.09 35.4373 97.9286 37.7585 96.8092" stroke="black" stroke-linecap="round"/>
<path d="M31.4768 94.3856C37.0143 94.3856 42.4554 93.9248 47.1811 96.3379C49.0052 97.2693 51.39 98.7913 53.1138 99.2664C54.7566 99.7191 56.9441 100.306 58.4882 101.05" stroke="black" stroke-linecap="round"/>
<path d="M54.7192 99.8387C49.3797 99.8387 44.0402 99.8387 38.7008 99.8387C34.6402 99.8387 31.916 104.686 28.3359 104.686" stroke="black" stroke-linecap="round"/>
<path d="M108.114 154.975C105.737 156.764 103.061 157.885 101.204 160.125C100.1 161.455 99.0114 163.369 97.9234 164.535C96.8109 165.727 95.203 167.361 93.9799 168.305C92.621 169.353 92.3924 171.948 91.1531 172.546" stroke="black" stroke-linecap="round"/>
<path d="M99.9475 136.798C99.9475 140.251 100.644 143.667 98.6912 146.493" stroke="black" stroke-linecap="round"/>
<path d="M94.9221 159.822C98.3447 157.243 101.189 153.792 103.088 150.128" stroke="black" stroke-linecap="round"/>
<path d="M96.1785 157.399C94.4485 158.612 92.1272 159.761 91.1531 161.64" stroke="black" stroke-linecap="round"/>
<path d="M47.8091 178.605C54.7315 179.908 61.9529 181.653 65.3979 188.299" stroke="black" stroke-linecap="round"/>
<path d="M47.1809 173.152C49.9129 173.218 53.5597 174.069 55.9753 175.104C58.1083 176.018 61.1883 177.393 63.5134 177.393" stroke="black" stroke-linecap="round"/>
<path d="M66.0261 179.211C67.1168 176.515 67.9578 174.273 69.167 171.94" stroke="black" stroke-linecap="round"/>
<path d="M71.0515 188.299C73.6004 184.099 73.5642 181.45 73.5642 176.787" stroke="black" stroke-linecap="round"/>
<path d="M76.7051 164.063V172.546" stroke="black" stroke-linecap="round"/>
<path d="M72.936 159.216C71.6839 162.311 71.0515 165.073 71.0515 168.305" stroke="black" stroke-linecap="round"/>
<path d="M51.5781 195.57C51.5781 199.142 51.9969 202.988 51.9969 206.173C51.9969 209.021 52.8345 210.921 52.8345 213.747" stroke="black" stroke-linecap="round"/>
<path d="M40.271 191.934C42.1477 197.416 44.04 201.561 44.04 207.688" stroke="black" stroke-linecap="round"/>
<path d="M28.9641 191.329C30.1831 194.341 31.091 198.071 34.6177 199.205" stroke="black" stroke-linecap="round"/>
<path d="M23.3105 202.841C28.0007 203.723 32.1933 202.841 36.5022 202.841" stroke="black" stroke-linecap="round"/>
<path d="M24.5669 207.688C31.6789 210.301 37.5782 208.9 44.6684 208.9" stroke="black" stroke-linecap="round"/>
<path d="M28.3359 214.958C34.965 217.454 45.7471 217.035 52.2065 214.958" stroke="black" stroke-linecap="round"/>
<path d="M82.3586 241.012C83.0692 244.524 83.8215 244.091 85.3599 246.465C85.875 247.26 86.3797 248.962 87.0699 249.494C88.9224 250.924 87.8846 255.79 88.6404 257.977" stroke="black" stroke-linecap="round"/>
<path d="M91.1531 248.888C91.1531 253.542 94.2939 255.832 94.2939 260.4C94.2939 262.951 94.9221 266.022 94.9221 268.883" stroke="black" stroke-linecap="round"/>
<path d="M98.063 254.341C101.93 259.47 98.5861 265.651 101.204 270.701" stroke="black" stroke-linecap="round"/>
<path d="M94.9221 248.888C99.699 249.787 103.319 250.514 107.486 252.524" stroke="black" stroke-linecap="round"/>
<path d="M86.1277 241.012C89.2637 241.084 90.8413 242.094 93.3866 242.796C94.5224 243.109 96.0396 244.041 97.1207 244.041C99.1783 244.041 102.66 245.382 104.345 246.465" stroke="black" stroke-linecap="round"/>
<path d="M103.717 257.977C105.278 259.072 108.742 260.025 108.742 262.218" stroke="black" stroke-linecap="round"/>
<path d="M98.6912 88.3267C97.3739 91.5824 94.9221 94.5658 94.9221 98.021" stroke="black" stroke-linecap="round"/>
<path d="M61.0007 61.0615C57.7878 65.1522 53.4626 70.8552 53.4626 76.2089" stroke="black" stroke-linecap="round"/>
<path d="M54.0908 64.091C54.8259 65.3023 55.413 66.4609 55.9753 67.7264" stroke="black" stroke-linecap="round"/>
<path d="M49.0654 68.3322C49.4058 69.8276 49.9641 74.2186 51.5781 74.997" stroke="black" stroke-linecap="round"/>
<path d="M109.37 68.9381C110.48 71.6809 110.613 74.9717 111.883 77.4206" stroke="black" stroke-linecap="round"/>
<path d="M104.345 71.9676C106.351 72.016 109.37 72.5727 109.37 74.997" stroke="black" stroke-linecap="round"/>
<path d="M111.255 74.9971C112.291 70.555 114.588 69.4202 118.165 67.1205" stroke="black" stroke-linecap="round"/>
<path d="M88.6404 24.1021H93.0376" stroke="black" stroke-linecap="round"/>
<path d="M74.1924 11.9842C77.7407 12.7005 81.7257 13.672 85.3599 13.8019C88.1067 13.9 89.6891 15.0701 92.0953 15.5859C95.9441 16.4108 98.1081 19.5321 100.89 21.6785C101.311 22.0037 102.149 23.1407 102.181 22.621C102.239 21.6652 101.357 20.3689 100.89 19.5578C100.005 18.0217 98.449 17.213 97.5743 15.6195C95.2153 11.3216 94.2939 7.90606 94.2939 2.89578" stroke="black" stroke-linecap="round"/>
<path d="M101.832 22.2844C105.579 24.4881 108.448 27.2436 112.197 29.2522C114.381 30.4223 116.688 31.9462 117.536 34.4023" stroke="black" stroke-linecap="round"/>
<path d="M101.204 22.2843C96.3375 22.2843 93.2445 22.1513 89.2686 24.7079" stroke="black" stroke-linecap="round"/>
<path d="M81.1023 6.53117C83.5117 8.29174 86.3452 12.695 88.6404 13.8019" stroke="black" stroke-linecap="round"/>
<path d="M100.576 31.9787H113.139" stroke="black" stroke-linecap="round"/>
<path d="M67.2825 204.052C67.2825 209.435 66.1018 216.922 68.5389 221.623" stroke="black" stroke-linecap="round"/>
<path d="M134.497 97.4151C137.337 97.4803 139.898 98.3306 142.663 98.6269C143.494 98.7159 143.713 99.7913 144.548 99.8386C146.771 99.9648 148.641 101.656 150.829 101.656" stroke="black" stroke-linecap="round"/>
<path d="M133.869 59.8498C136.253 58.4475 138.461 56.6626 140.813 55.3392C142.469 54.4077 143.394 53.0628 144.862 52.2761C147.912 50.6417 151.053 48.9437 154.598 48.9437" stroke="black" stroke-linecap="round"/>
<path d="M152.714 96.8092C156.297 97.7793 160.68 97.3294 164.021 98.7615C165.231 99.28 165.074 100.172 166.185 100.478C167.019 100.708 168.272 101.158 169.046 101.656" stroke="black" stroke-linecap="round"/>
<path d="M121.933 98.021C124.802 98.021 126.856 97.275 128.215 99.5694C128.876 100.685 130.626 102.262 131.984 102.262" stroke="black" stroke-linecap="round"/>
<path d="M76.7051 257.977C76.7051 262.109 77.3333 265.461 77.3333 269.489" stroke="black" stroke-linecap="round"/>
<path d="M72.936 258.583V273.124" stroke="black" stroke-linecap="round"/>
<path d="M82.9868 253.13V271.306" stroke="black" stroke-linecap="round"/>
<path d="M85.4995 254.947V271.912" stroke="black" stroke-linecap="round"/>
<path d="M132.612 57.4261C128.737 58.2672 130.212 58.7988 128.355 60.5903C127.402 61.5088 127.038 62.8792 125.702 62.8792" stroke="black" stroke-linecap="round"/>
<path d="M106.229 94.9916C102.478 96.5292 102.451 96.8252 100.89 99.5358C100.019 101.047 99.092 101.985 98.063 103.474" stroke="black" stroke-linecap="round"/>
<path d="M93.0376 111.957C93.7136 108.615 94.8402 107.873 96.1785 105.292" stroke="black" stroke-linecap="round"/>
<path d="M111.255 141.645H125.074" stroke="black" stroke-linecap="round"/>
<path d="M121.305 133.163H136.381" stroke="black" stroke-linecap="round"/>
<path d="M145.804 53.1849H153.342" stroke="black" stroke-linecap="round"/>
<path d="M138.894 57.4261C141.866 57.4961 144.673 58.032 147.688 58.032" stroke="black" stroke-linecap="round"/>
<path d="M138.266 52.5791V56.2144" stroke="black" stroke-linecap="round"/>
<path d="M133.869 56.8202C132.564 57.3552 131.737 57.8594 130.728 58.6379" stroke="black" stroke-linecap="round"/>
<path d="M22.9965 280.698C22.9965 281.892 22.6367 284.087 23.5025 285.107C24.7868 286.621 25.8398 288.277 26.6085 290.089C27.0723 291.183 27.5189 292.912 28.2661 293.489C29.2868 294.276 30.9117 294.226 32.105 294.802C32.963 295.215 33.6855 295.864 34.5479 296.215C34.9813 296.392 35.0129 296.727 35.3156 296.99C35.6457 297.276 36.9948 297.057 37.3397 297.057C39.7245 297.057 42.1092 297.057 44.4939 297.057C45.4448 297.057 46.1777 297.128 47.0066 296.619C49.096 295.337 50.4741 292.501 52.2763 290.762C53.8428 289.251 54.7715 287.514 55.8185 285.696C57.3621 283.016 59.2615 280.543 60.7566 277.803C62.2668 275.035 62.8437 271.277 64.927 268.866C66.0088 267.614 67.034 265.515 67.841 264.036C69.5432 260.916 72.3008 258.002 73.6341 254.947C74.6482 252.624 76.7052 250.481 76.7052 247.828C76.7052 246.804 76.8716 245.796 76.3213 244.883C75.7933 244.007 75.1347 242.968 75.1347 241.921C75.1347 240.835 74.7246 239.493 73.4073 239.211C72.3291 238.98 71.7429 237.679 70.7375 237.679" stroke="black" stroke-linecap="round"/>
</svg>
