<svg width="183" height="162" viewBox="0 0 183 162" fill="none" xmlns="http://www.w3.org/2000/svg">
<path d="M44 5.5C48.3288 8.88191 45.5 19.3732 45.5 24.5C45.5 27.8394 46 30.8042 46 34C46 36.5009 45.713 41.713 47.5 43.5" stroke="black" stroke-linecap="round"/>
<path d="M46.5 43.5C48.7733 46.3244 49.5885 49.3602 50.8889 52.6111C51.3474 53.7574 51.8643 54.8932 52.6111 55.8889C52.8833 56.2518 53.3483 56.844 53.4722 57.2778C53.7497 58.249 54.0903 57.6459 54.7222 58.2778C55.2341 58.7896 56.5 59.6875 56.5 60.25C56.5 60.6986 57.6999 62.9625 58 63C58.8761 63.1095 59.4918 64.8249 59.8889 65.5C60.5236 66.579 61.492 66.5475 62.2222 67.2778C63.8189 68.8745 65.4568 69.8805 67.7222 70.5278C68.5266 70.7576 69.435 71.5502 70.2222 72C71.2348 72.5786 72.5917 72.1926 73.5 73C74.7922 74.1486 78.8634 75.1093 80.25 74C80.9193 73.4646 81.5203 72.6728 82.2222 72.4722C83.5715 72.0867 83.1294 70.4353 84 70" stroke="black" stroke-linecap="round"/>
<path d="M84 70C84.6111 73.1317 84 75.0293 84 78" stroke="black" stroke-linecap="round"/>
<path d="M86.5 67.5C86.5 71.5435 86 75.0969 86 79" stroke="black" stroke-linecap="round"/>
<path d="M86 68C88.9339 65.8662 93.9309 66.6169 95.0278 62.7778C95.3765 61.5573 97.1397 60.3603 98 59.5C99.139 58.361 99.6946 55.8443 100.75 55C101.79 54.1679 100.43 52.0559 101.75 51C102.694 50.2445 102.134 47.5731 102.611 46.5C104.005 43.3628 102.469 39.407 101.5 36.5" stroke="black" stroke-linecap="round"/>
<path d="M101.5 37C100.779 33.7942 98.3613 31.3896 97.4722 28.2778C97.1649 27.2022 95.5 26.551 95.5 25.25C95.5 24.4471 93.9423 23.226 93.3889 22.6111C92.1731 21.2602 90.0133 19.1714 89.4722 17.2778C89.0038 15.6382 85.8102 14.0879 84.6111 12.8889C84.0009 12.2787 82.8916 12.4315 81.8889 11.6111C81.1295 10.9898 80.2078 10.6347 79.5 9.75C78.3705 8.33815 73.6845 7 72 7C69.6098 7 68.0451 5 65.25 5C62.6899 5 60.2308 4.5 57.5 4.5" stroke="black" stroke-linecap="round"/>
<path d="M57 4.5C52.7117 4.5 48.5781 5 44.5 5" stroke="black" stroke-linecap="round"/>
<path d="M178 74C177.078 73.9775 175.374 74.1515 174.611 73.3889C174.261 73.0386 174.241 72.3684 173.778 72.1111C172.616 71.4658 171.837 71.4648 170.889 70.6111C170.482 70.2452 168.114 69.5341 167.5 69.5C166.453 69.4419 166.18 68.7443 165.389 68.1111C163.801 66.8408 161.185 68.1375 159.611 66.3889C158.153 64.7689 156.114 64.2858 154.25 63.25C153.48 62.8221 152.027 62.7576 151.222 62.5278C150.239 62.2469 149.241 61.7481 148.25 61.5278C146.139 61.0587 144.031 61.1631 142.25 59.7778C140.731 58.5967 137.876 59.6533 136.25 58.75C134.724 57.9022 131.761 58 130 58" stroke="black" stroke-linecap="round"/>
<path d="M130 58C126.574 58 123.148 58 119.722 58C117.239 58 113.189 57.6386 111.5 59.75C111.32 59.9747 108.955 59.8342 108.278 60.0278C107.442 60.2666 106.652 61.599 105.75 62C103.392 63.048 101.728 63.9174 99.75 65.5C96.9944 67.7045 94 72.8065 94 77C94 82.6428 96.1371 85.2742 98.5 90" stroke="black" stroke-linecap="round"/>
<path d="M178 75C176.691 75.2554 175.261 75.1909 174.25 76C173.833 76.3338 173.886 76.9914 173.389 77.3889C172.526 78.0794 170.893 77.9857 170.111 78.6111C169.118 79.4059 168.615 79.6068 167.611 80.6111C166.854 81.3687 165.472 82.5391 164.5 83.1111C162.256 84.4313 159.71 86.568 157.889 88.3889C157.058 89.22 156.2 89.5777 155.389 90.3889C154.992 90.7858 153.5 92.3828 153.5 92" stroke="black" stroke-linecap="round"/>
<path d="M153.5 92C150.509 92.6729 148.621 94.8898 145.75 95.5278C142.819 96.179 140.562 99.3474 137.75 99.9722C136.434 100.265 135.065 101.375 134 101.5C133.191 101.595 131.008 102.329 130.25 102.75C128.048 103.974 125.226 105.422 122.75 105.972C120.012 106.581 116.149 107.647 113.5 107.5C113.067 107.476 109.698 107.033 109.528 106.778C109.324 106.472 109.062 107.5 108.694 107.5C107.823 107.5 105.838 107.471 105.111 106.889C103.136 105.309 100.051 106.189 98.3889 104.111C97.0601 102.45 96 100.283 96 98" stroke="black" stroke-linecap="round"/>
<path d="M89 68C89.9104 72.6659 91.5 77.2837 91.5 82" stroke="black" stroke-linecap="round"/>
<path d="M92 87C92 94.9853 92.5 103.289 92.5 111" stroke="black" stroke-linecap="round"/>
<path d="M91.5 67C91.5661 69.6456 93.5 71.4935 93.5 74" stroke="black" stroke-linecap="round"/>
<path d="M94.5 86.5C94.8365 88.2247 94.0342 97.5274 95.25 98.5C96.7534 99.7027 95.3045 108 96.5 108" stroke="black" stroke-linecap="round"/>
<path d="M96.5 102C93.5039 97.8803 96.6162 95.1515 98 91" stroke="black" stroke-linecap="round"/>
<path d="M182 54C179.263 54.534 176.691 56.3505 174 56.5C171.775 56.6236 170.746 58.2541 169.25 59.75C168.308 60.6922 165.465 61.6171 164.222 61.9722C162.419 62.4876 161.509 63.7456 160 64.5" stroke="black" stroke-linecap="round"/>
<path d="M181.5 54C179.525 53.9529 175.398 53.7323 173.5 52.8889C171.425 51.9667 168.78 52.5011 166.778 51.6111C163.392 50.1064 157.714 52 154.25 52C149.976 52 145.808 51.5 141.75 51.5C139.593 51.5 137.435 51.5 135.278 51.5C134.171 51.5 131.24 52.9807 130.5 51.5" stroke="black" stroke-linecap="round"/>
<path d="M131 56.5C131 50.0098 127.911 44.1742 125.389 38.5C124.263 35.9676 122.181 34.8258 120.889 32.5C119.718 30.3924 116.374 28 114 28" stroke="black" stroke-linecap="round"/>
<path d="M103 40C104.973 40 111.368 39.9142 112.028 42.2222C112.124 42.5588 114.71 44.0679 115.25 44.5C115.627 44.8012 116.199 45.3734 116.5 45.75C116.975 46.3435 117.931 45.7167 118.5 46.2222C119.448 47.0648 120.937 48.3259 122 48.8889C122.99 49.4127 125.174 49.9059 125.472 51.25C125.808 52.7593 128.158 54.8159 129 56.5" stroke="black" stroke-linecap="round"/>
<path d="M127 54C124.115 54 120.462 54.0755 119 57" stroke="black" stroke-linecap="round"/>
<path d="M41.5 72C39.7685 70.9865 37.8612 70.4366 36.2222 69.5C35.2471 68.9428 32.7296 67.6621 32 66.75C31.2966 65.8708 29.3981 66.0777 28.3889 66C27.3448 65.9197 26.9894 65 25.8889 65C24.9347 65 23.8114 65.1623 22.8889 64.8889C21.481 64.4718 20.2153 64.5 18.75 64.5C18.1457 64.5 14.7763 65.2943 14.5 65.7778C13.5395 67.4587 9.27831 68.0336 7.75001 69.2223C6.08378 70.5182 4.93788 71.4527 3.61112 73.1111C3.08528 73.7684 3.43207 75.4544 2.75001 76C2.60502 76.116 1.61279 78.8675 1.52779 79.25C0.848215 82.3081 0.429543 92.9648 3.50001 94.5" stroke="black" stroke-linecap="round"/>
<path d="M12 101C13.5811 99.5125 15.8673 94.5714 17.6111 94.5714C19.0675 94.5714 20.383 93.02 21.75 92.369C22.2631 92.1247 24.6023 88.6724 25 87.6071C25.7964 85.474 28.1924 82.8399 29.3889 81.9524C30.2554 81.3096 30.7845 80.9195 31.0278 79.0952C31.1468 78.2029 32.2409 78.46 32.6111 77.6667C33.8907 74.9246 34.3463 75.3033 36.2222 74.1548C37.5349 73.3511 39.2653 71 40.75 71C42.279 71 43.6745 72.0714 45 72.0714" stroke="black" stroke-linecap="round"/>
<path d="M48 6C49.5282 6.29819 50.6584 6.1202 51.3889 7.5C51.7297 8.14369 52.3961 8.72038 53 9.11111C54.1636 9.86402 55.4869 11.5294 56.1111 12.7778C56.7324 14.0204 57.776 16.461 58.6111 17.3889C59.5148 18.393 61.6191 19.7225 62 21.0556C63.8968 27.6943 69.9239 31.161 73.2778 36.6111C73.9348 37.6788 73.8338 39.5872 75 40.3889C75.6402 40.829 75.8961 41.5138 76.6111 42C77.7947 42.8048 76.9556 43.4875 77.6111 44.3889C78.97 46.2573 80.8109 49.963 81.4722 52.2778C81.8643 53.65 83.2179 54.8555 83.5278 56.25C83.7492 57.2464 83.8983 59.3186 84.75 60C86.1539 61.1232 86.5 66.2887 86.5 68" stroke="black" stroke-linecap="round"/>
<path d="M98 91C101.55 90.9112 103.412 88.9835 106.5 87.6111C109.239 86.3936 111.981 85.1485 114.5 83.8889C119.221 81.5285 124.124 80.6253 129 79" stroke="black" stroke-linecap="round"/>
<path d="M59 65.5C56.0802 66.7106 49.4818 69.0363 48 72" stroke="black" stroke-linecap="round"/>
<path d="M33.5 105C35.3297 100.587 37.0476 96.638 38.3889 92.1111C38.8492 90.5574 38.9649 88.8241 39.3889 87.2222C39.8358 85.534 40 84.0092 40 82.25C40 78.7647 41.0767 76.2931 42.7222 73.4722C43.9427 71.3799 43.5818 67.7091 46 66.5" stroke="black" stroke-linecap="round"/>
<path d="M33.5 106.5C36.0942 103.307 40.7013 102.242 42.5 98.1945C44.2096 94.3478 45.5198 90.7745 47 86.8889C48.0306 84.1836 48 78.9669 48 76.25C48 74.4167 48 72.5834 48 70.75C48 69.6166 46 66.8666 46 68" stroke="black" stroke-linecap="round"/>
<path d="M79 75.5C82.6194 76.2945 88.26 80.02 90 83.5" stroke="black" stroke-linecap="round"/>
<path d="M39.5 103.5C43.5787 104.695 45.6111 105.5 49.75 105.5C52.9398 105.5 55.1792 103.596 58 102.111C59.0685 101.549 60.2621 101.299 61.25 100.75C61.9457 100.363 63.1108 99.2184 63.7778 99.0278C66.3512 98.2925 68.7611 97.5 71.5 97.5C72.9167 97.5 74.3333 97.5 75.75 97.5C77.2904 97.5 77.3753 95.4499 78.5 95C79.8057 94.4777 80.6329 93.5501 82.1111 93C83.5994 92.4463 84.8684 92.6053 86.1111 91.6111C87.8241 90.2407 89.0424 90.892 89.5278 88.2222C89.7686 86.8978 90 85.8676 90 84.5C90 81.714 90.4001 78.6004 89.7222 75.8889C89.4008 74.6032 89 76.6833 89 77" stroke="black" stroke-linecap="round"/>
<path d="M69 5.49999C69 5.48295 69.2283 1.05554 68.7778 1.05554C67.9387 1.05554 70.272 1.99999 71.1111 1.99999C72.1574 1.99999 73.2037 1.99999 74.25 1.99999C75.6619 1.99999 76.5061 2.99999 77.75 2.99999C78.5758 2.99999 80.2349 3.27108 81 3.6111C82.6739 4.35503 82.665 6.5169 84.2778 7.24999C85.3213 7.72432 86.4382 7.41696 87.5 7.88888C88.6246 8.38868 89.3732 8.76289 90.5 9.38888C92.1646 10.3137 93.355 11.9169 95.25 12.5C96.2266 12.8005 97.174 12.8962 97.8889 13.6111C99.0499 14.7721 100.922 15.8661 102.278 17.0278C104.118 18.6054 105.125 21.5655 107.333 22.7222C110.864 24.5715 109.644 26.2162 111.5 29" stroke="black" stroke-linecap="round"/>
<path d="M115 29.5C112.052 30.0752 109.796 32 106.75 32C105.019 32 102.41 33.6349 101.5 35" stroke="black" stroke-linecap="round"/>
<path d="M103.5 17C105.326 16.243 107.607 14.6541 109.611 14.5C110.103 14.4621 112.004 14.1968 112.389 13.8889C113.814 12.749 115.442 12.5 117.25 12.5C121.167 12.5 125.083 12.5 129 12.5C130.667 12.5 132.333 12.5 134 12.5C136.074 12.5 137.417 14.1205 139.25 14.5278C141.396 15.0047 142.985 15.5 145.25 15.5C147.912 15.5 148.536 17.4882 151.5 16.5" stroke="black" stroke-linecap="round"/>
<path d="M111.5 30C113.337 28.9244 115.876 27.9019 117.389 26.3889C118.211 25.5665 119.722 24.142 121 24C122.623 23.8196 123.593 22.5 125.5 22.5C126.387 22.5 126.957 22 127.75 22C128.957 22 128.79 21.2411 129.75 21.0278C131.238 20.6971 132.705 19.5 134.25 19.5C136.495 19.5 137.794 19.3692 139.75 18.5C140.95 17.9668 147.778 16.0557 148.5 17.5" stroke="black" stroke-linecap="round"/>
<path d="M71 102C71 105.21 69.5 107.727 69.5 111" stroke="black" stroke-linecap="round"/>
<path d="M68 99C67.1594 103.518 66.5 108.431 66.5 113" stroke="black" stroke-linecap="round"/>
<path d="M71.5 97.5C70.8778 99.0943 70 100.767 70 102.5" stroke="black" stroke-linecap="round"/>
<path d="M87.5 110.5C87.5 105.741 87.8018 101.047 90.5 97" stroke="black" stroke-linecap="round"/>
<path d="M91.5 101C90.8849 104.153 90 107.406 90 110.5" stroke="black" stroke-linecap="round"/>
<path d="M76.5 97C79.1584 100.766 79.5 115.11 79.5 110.5" stroke="black" stroke-linecap="round"/>
<path d="M80 97.5C80 100.672 81 103.144 81 106.25C81 108.29 80.6231 110.746 81.5 112.5" stroke="black" stroke-linecap="round"/>
<path d="M79.5 94.5V98" stroke="black" stroke-linecap="round"/>
<path d="M81 96C81 99.2507 82 101.932 82 105C82 106.336 81.3781 110.939 82.5 111.5" stroke="black" stroke-linecap="round"/>
<path d="M83.5 94.5C83.5 97.2848 83.3675 101.262 84.75 103.75C85.769 105.584 85 109.871 85 112" stroke="black" stroke-linecap="round"/>
<path d="M41 54.5C41.6797 56.1393 42.2736 58.2315 43.2222 59.7222C43.7347 60.5276 43.3016 61.377 43.8889 62.1111C44.3419 62.6774 44.5 65.0333 44.5 65.75C44.5 66.4852 45.197 66.8941 45.5 67.5" stroke="black" stroke-linecap="round"/>
<path d="M44.5 53C44.5 54.1999 43.8564 58.2208 45 59.25C46.0841 60.2257 45.6213 61.1517 46.3889 62.1111C46.6682 62.4603 46.5 63.3276 46.5 63.75C46.5 64.6209 47.3008 64.4785 47.4722 65.25C47.7654 66.5693 48 67.5347 48 69" stroke="black" stroke-linecap="round"/>
<path d="M41 56C39.3705 56.6596 34.9953 59.1191 33.5 57.25C32.6691 56.2114 30.3062 57.1401 29.4722 55.4722C28.0793 52.6864 23.0677 49.768 25.8889 45.8889C26.6285 44.8719 26.9452 43.054 27.5 41.8056C28.1693 40.2996 30 39.106 30 37.25C30 35.7263 31.5 34.5764 31.5 33C31.5 32.0761 29.3994 25.7012 28.5 27.5" stroke="black" stroke-linecap="round"/>
<path d="M29 28.5C35.9561 31.3842 42.3329 34.9435 45.6111 41.5C48.1959 46.6697 48.2947 52.7053 44 57" stroke="black" stroke-linecap="round"/>
<path d="M32 33.5C33.2925 35.5382 35.413 38.032 37 39.7778C38.172 41.067 38.0841 43.1564 39 44.6111C39.5313 45.4549 40.286 45.9148 40.75 46.75C41.4747 48.0544 41.5 49.5321 41.5 51C41.5 51.6893 42.2969 54 42 54" stroke="black" stroke-linecap="round"/>
<path d="M78 76.5C74.8541 77.4438 69.9235 78.2987 67.5 80.7222C66.1452 82.077 64.1789 83.9561 62.5 84.8889C59.8622 86.3543 56.6354 86.6423 54.3889 88.8889C51.9139 91.3639 48.4491 93.1581 46.6111 96.5C45.3087 98.868 41.5 101.673 41.5 104.5" stroke="black" stroke-linecap="round"/>
<path d="M175 75C165.604 75 156.497 76.5 147.25 76.5C144.219 76.5 140.797 77.5 137.611 77.5C134.255 77.5 131.213 79.5 128 79.5" stroke="black" stroke-linecap="round"/>
<path d="M11 101C7.68208 98.4864 3.57148 97.2859 2.5 93" stroke="black" stroke-linecap="round"/>
<path d="M39 71C34.719 69.6021 27.0716 70.3525 23.8889 73.8889C23.5356 74.2814 20.6548 76.4807 20.5 76.5C19.1223 76.6722 17.4955 79.3042 16.2778 80C13.9123 81.3517 12.6257 86.4349 11.9722 88.7222C10.9472 92.3098 10 96.1836 10 100" stroke="black" stroke-linecap="round"/>
<path d="M91.5 88C91.5 85.827 91 79.327 91 81.5" stroke="black" stroke-linecap="round"/>
<path d="M94.5 83.5V87.5" stroke="black" stroke-linecap="round"/>
<path d="M84 93L83.5 95.5" stroke="black" stroke-linecap="round"/>
<path d="M81 94C80.8047 95.0011 80.6438 95.9933 80.5 97" stroke="black" stroke-linecap="round"/>
<path d="M54 110H113L100 162H64L54 110Z" fill="#988C69"/>
<path d="M177 54C172.216 54.1167 162.453 53.7989 158 55.7778C153.654 57.7093 147.909 57.3942 144 60" stroke="black" stroke-linecap="round"/>
</svg>
