<svg width="251" height="418" viewBox="0 0 251 418" fill="none" xmlns="http://www.w3.org/2000/svg">
<path d="M52.51 283.47L81.4059 270.746L111.558 283.47L104.02 338H62.5608L52.51 283.47Z" fill="#988C69"/>
<ellipse cx="82.6623" cy="281.652" rx="28.8959" ry="14.5414" fill="#54392D"/>
<path d="M83.9291 223.867C83.9291 222.317 83.972 221.571 83.0566 220.467C82.4376 219.721 82.6727 218.371 82.6727 217.438C82.6727 215.739 82.6785 214.988 83.5452 213.567C83.995 212.829 84.7505 212.588 85.1854 211.749" stroke="black" stroke-linecap="round"/>
<path d="M87.384 209.023C88.6476 207.024 90.1717 205.318 91.4846 203.418C92.6105 201.789 94.856 199.158 96.9637 198.706C98.4579 198.386 100.454 197.814 101.989 197.814C102.922 197.814 103.475 197.633 104.205 197.056C105.006 196.424 106.047 196.602 107.014 196.602C108.358 196.602 109.779 196.612 110.766 197.511C112.397 198.996 115.008 199.095 116.594 200.54C118.788 202.539 120.303 205.065 123.19 205.993" stroke="black" stroke-linecap="round"/>
<path d="M85.8135 225.685C87.1516 225.685 88.1098 225.424 88.9543 226.442C89.4005 226.98 90.1202 227.503 90.8389 227.503" stroke="black" stroke-linecap="round"/>
<path d="M83.615 243.862C83.615 239.52 83.615 235.177 83.615 230.835C83.615 227.419 82.6625 222.189 84.4002 219.172C84.9115 218.284 84.4172 216.913 84.6271 215.923C85.1014 213.687 85.8136 211.751 85.8136 209.461C85.8136 207.777 85.4532 205.665 85.8311 204.024C86.5635 200.845 86.1277 197.152 86.1277 193.808C86.1277 192.619 86.1277 191.43 86.1277 190.24C86.1277 187.038 87.6981 184.027 87.6981 180.849C87.6981 176.416 88.6404 172.098 88.6404 167.671C88.6404 163.279 88.183 158.576 88.7102 154.19C88.8306 153.188 89.2448 152.235 89.2686 151.227C89.2856 150.505 89.1227 149.631 89.286 148.922C89.9846 145.89 90.839 143.199 90.839 139.968C90.839 137.589 90.839 135.211 90.839 132.832C90.839 128.032 91.1531 123.186 91.1531 118.425C91.1531 115.763 91.4319 112.938 92.4094 110.498C93.4211 107.972 93.6658 106.317 93.6658 103.598" stroke="black" stroke-linecap="round"/>
<path d="M94.2939 106.324C93.8296 107.43 93.0376 108.459 93.0376 109.656C93.0376 110.169 93.1904 110.991 92.9678 111.474C92.5702 112.337 91.9556 113.915 91.7987 114.823C91.3637 117.341 91.1531 119.676 91.1531 122.313C91.1531 124.913 91.2224 127.604 91.7987 130.105C91.9107 130.591 92.4094 130.831 92.4094 131.317C92.4094 131.923 92.4094 132.529 92.4094 133.135C92.4094 134.748 92.7235 136.234 92.7235 137.965C92.7235 143.677 92.4094 149.596 92.4094 155.166C92.4094 158.694 91.7812 161.968 91.7812 165.5C91.7812 168.026 92.3299 171.239 91.7638 173.696C90.4707 179.309 90.5249 185.507 90.5249 191.3C90.5249 193.562 90.2108 195.524 90.2108 197.814C90.2108 199.137 90.4143 200.572 89.9665 201.819C89.6641 202.662 89.4771 204.863 88.7974 205.388C87.7099 206.227 88.3263 209.458 88.3263 210.487C88.3263 212.161 88.3175 213.925 87.9424 215.553C87.5632 217.199 87.0699 218.554 87.0699 220.232C87.0699 222.1 87.0699 223.968 87.0699 225.836C87.0699 231.948 86.7559 238.257 86.7559 244.468" stroke="black" stroke-linecap="round"/>
<path d="M73.2502 233.259C73.2502 230.05 73.2502 226.841 73.2502 223.632C73.2502 222.371 73.447 221.286 73.7039 220.047C74.0078 218.581 73.6615 217.072 73.9482 215.62C74.5163 212.744 77.9615 210.529 77.9615 207.508C77.9615 205.597 78.2756 203.818 78.2756 201.887C78.2756 197.926 78.5897 193.924 78.5897 189.937C78.5897 186.948 80.1601 184.214 80.1601 181.152C80.1601 177.546 80.646 174.11 80.9279 170.498C81.4266 164.107 81.7306 157.659 81.7306 151.244C81.7306 149.051 82.3587 146.939 82.3587 144.731C82.3587 143.435 82.3587 142.139 82.3587 140.843C82.3587 140.142 82.3587 139.441 82.3587 138.739C82.3587 136.368 83.2495 134.175 83.301 131.839C83.3596 129.182 83.9273 126.642 84.3131 123.996C84.7279 121.151 86.4419 118.102 86.4419 115.261C86.4419 110.504 88.3264 105.967 88.3264 101.174" stroke="black" stroke-linecap="round"/>
<path d="M88.3261 101.174C89.7391 102.239 91.1529 103.234 91.1529 104.978C91.1529 106.941 91.1529 108.905 91.1529 110.868C91.1529 114.65 90.1164 118.018 89.2858 121.623C88.7829 123.806 88.9543 126.501 88.9543 128.742C88.9543 131.775 88.0121 134.542 88.0121 137.511C88.0121 140.014 86.1275 142.166 86.1275 144.495C86.1275 149.247 85.4994 153.989 85.4994 158.734C85.4994 161.956 85.3689 165.774 85.1678 169.169C85.09 170.482 84.5571 171.655 84.5571 172.972C84.5571 174.106 84.5571 175.239 84.5571 176.372C84.5571 176.915 84.3784 177.008 84.243 177.432C83.6692 179.231 83.7201 181.161 83.2833 182.986C82.9862 184.228 83.0538 185.934 82.5155 187.076C82.3479 187.432 82.0444 187.886 82.0444 188.271C82.0444 192.668 81.7303 197.363 81.7303 201.853C81.7303 205.069 79.8458 208.308 79.8458 211.514C79.8458 215.504 79.0299 219.798 77.8043 223.581C77.564 224.323 77.0316 224.815 76.862 225.567C76.6075 226.696 76.8681 227.872 76.5479 228.984C74.7167 235.342 75.1345 242.15 75.1345 248.709" stroke="black" stroke-linecap="round"/>
<path d="M72.936 246.891C72.936 242.438 72.3079 238.006 72.3079 233.562" stroke="black" stroke-linecap="round"/>
<path d="M75.1348 247.194C75.1348 251.177 75.1348 255.16 75.1348 259.144C75.1348 261.631 76.077 263.681 76.077 266.28" stroke="black" stroke-linecap="round"/>
<path d="M73.2502 268.4C73.2502 267.086 73.0346 266.262 72.6221 265.068" stroke="black" stroke-linecap="round"/>
<path d="M23.6245 290.819C23.6245 288.072 22.7293 282.853 24.1829 280.283C24.9968 278.843 25.4436 277.21 25.7533 275.604C25.9222 274.728 25.7335 273.849 25.9627 272.978C26.0992 272.459 26.4725 270.262 26.9224 269.915C27.9137 269.15 27.9733 267.141 28.7895 266.128C29.6077 265.114 29.7551 263.713 30.6042 262.712C32.1119 260.934 32.2502 258.263 33.9893 256.586C35.6176 255.015 36.7387 253.025 38.3691 251.452C39.6412 250.225 41.2286 249.409 42.6093 248.255C44.9068 246.334 47.5045 244.931 50.4614 244.232C52.6754 243.709 55.204 243.337 57.476 243.256C58.8787 243.206 60.2425 242.538 61.6289 242.347C64.0394 242.015 66.4138 242.044 68.8529 242.044" stroke="black" stroke-linecap="round"/>
<path d="M75.4487 245.376C76.6886 245.604 80.4809 246.298 81.1023 247.497" stroke="black" stroke-linecap="round"/>
<path d="M81.1023 247.497C80.3807 249.716 80.4742 251.875 80.4742 254.162C80.4742 256.67 81.6791 257.967 83.5452 259.851C84.8765 261.194 85.3565 262.379 85.8136 264.142C86.1808 265.559 87.346 266.232 88.0122 267.357C89.2872 269.509 91.621 271.259 93.3517 273.18C94.6334 274.603 96.4301 276.857 98.5341 277.169C101.031 277.54 105.794 279.283 108.114 277.792" stroke="black" stroke-linecap="round"/>
<path d="M107.799 277.489C107.799 276.189 108.028 275.295 108.428 274.14C108.685 273.394 109.472 272.996 109.667 272.154C110.076 270.376 109.998 268.493 109.998 266.6C109.998 264.8 109.671 263.095 109.387 261.315C109.139 259.757 108.5 258.446 108.148 256.922C107.619 254.625 105.109 250.741 102.617 250.207C101.65 250 100.547 248.893 99.6332 248.473C97.8682 247.663 95.7176 247.664 93.9797 246.959C92.7083 246.442 90.419 246.143 89.3382 245.309C88.4044 244.589 85.5024 245.074 84.243 245.074C82.7677 245.074 80.804 244.763 79.5317 245.377" stroke="black" stroke-linecap="round"/>
<path d="M91.7812 245.679C94.9262 245.128 98.3604 244.165 101.535 244.165C101.881 244.165 103.675 243.712 103.961 243.491C104.552 243.035 105.658 243.275 106.247 242.801C107.467 241.82 110.497 241.438 112.04 241.438C112.96 241.438 114.497 241.145 115.338 241.505C116.942 242.193 115.766 244.01 116.751 244.771C117.166 245.091 116.87 246.443 116.926 246.925C117.042 247.935 117.75 249.176 118.479 249.921C119.334 250.794 119.735 250.931 119.735 252.176C119.735 253.034 119.774 253.69 119.351 254.465C118.703 255.652 117.528 255.758 116.454 256.417C115.435 257.043 113.898 256.193 112.825 256.653C111.04 257.418 107.697 257.112 106.229 255.98" stroke="black" stroke-linecap="round"/>
<path d="M93.6658 225.988C94.6217 227.344 96.2883 229.574 98.2026 229.909C98.9977 230.049 99.8347 230.793 100.576 230.835C102.644 230.952 104.678 231.441 106.718 231.441C112.007 231.441 117.346 231.953 122.091 229.489C124.367 228.306 126.899 226.524 129.315 225.702C132.374 224.66 136.502 225.131 138.894 222.824C140.024 221.734 140.887 220.528 142.157 219.491C142.951 218.843 143.788 217.963 144.408 217.202C145.438 215.939 146.434 214.403 147.549 213.264C148.437 212.358 148.807 211.22 149.573 210.235" stroke="black" stroke-linecap="round"/>
<path d="M122.248 206.296C126.393 206.296 130.541 205.993 134.637 205.993C136.509 205.993 138.382 205.993 140.255 205.993C141.305 205.993 142.92 205.693 143.919 206.061C145.594 206.676 149.258 207.807 149.887 209.629" stroke="black" stroke-linecap="round"/>
<path d="M124.76 206.599C121.074 206.599 117.866 208.039 114.709 209.561C113.146 210.315 111.473 211.491 110.242 212.725C108.386 214.587 105.931 215.669 104.17 217.522C103.552 218.173 102.636 218.413 102.076 218.953C101.647 219.367 101.293 219.992 100.733 220.232C99.5059 220.758 98.1042 222.455 97.2776 223.43C95.9892 224.949 94.8359 225.944 92.9851 226.762C90.027 228.07 86.3752 227.87 83.929 230.229" stroke="black" stroke-linecap="round"/>
<path d="M93.6656 225.988C91.4492 225.988 89.421 226.594 87.2443 226.594C86.2316 226.594 85.4278 225.371 86.4417 226.594" stroke="black" stroke-linecap="round"/>
<path d="M49.3795 176.608C47.8667 179.47 47.1809 181.532 47.1809 184.636C47.1809 187.188 49.0267 189.704 50.3218 191.89C51.4852 193.853 54.4799 196.151 56.586 197.04C58.9069 198.019 62.6538 198.117 65.206 198.117C66.0557 198.117 66.6473 198.233 67.4395 198.403C69.1367 198.767 70.7374 198.239 70.7374 200.305C70.7374 201.52 71.0846 202.578 71.3481 203.721C71.5228 204.48 72.259 204.588 72.3078 205.387C72.3866 206.679 73.7247 207.764 73.8782 209.023C73.9387 209.518 74.531 212.822 74.8205 212.961" stroke="black" stroke-linecap="round"/>
<path d="M71.9939 197.511C71.9939 199.268 71.7592 201.999 73.0059 203.502C73.5486 204.157 74.2572 205.076 74.4891 205.859C74.9514 207.419 75.4488 209.182 75.4488 210.841" stroke="black" stroke-linecap="round"/>
<path d="M71.3657 197.208C73.7711 194.888 75.8983 192.403 77.3334 189.634" stroke="black" stroke-linecap="round"/>
<path d="M69.167 173.578C70.6925 175.446 72.6136 175.777 74.3494 177.079C75.8619 178.214 77.0573 179.952 78.9037 180.546" stroke="black" stroke-linecap="round"/>
<path d="M66.6543 175.396C68.7347 177.875 71.5144 179.438 73.5642 181.909C74.9632 183.596 77.3818 184.554 78.5896 186.302" stroke="black" stroke-linecap="round"/>
<path d="M64.7698 162.369C68.0957 163.056 71.7893 163.794 74.0353 166.442C74.4379 166.917 75.0582 167.311 75.5185 167.755C75.8955 168.118 76.5014 169.128 76.8795 169.337C77.3321 169.586 78.7596 171.343 78.9036 171.76" stroke="black" stroke-linecap="round"/>
<path d="M72.9361 217.808C72.2928 214.981 69.387 211.157 67.1255 209.46C64.389 207.407 59.6755 207.205 56.2896 207.205" stroke="black" stroke-linecap="round"/>
<path d="M61.943 226.291C61.943 223.469 61.943 220.647 61.943 217.825C61.943 216.121 60.6146 214.541 59.4303 213.264C58.1676 211.903 56.9176 210.263 56.9176 208.266C56.9176 206.768 54.0954 204.737 52.7647 204.243C52.1812 204.027 51.8133 203.7 51.2641 203.435C50.7039 203.165 50.0755 203.404 49.5366 203.115C48.0983 202.345 46.3987 202.618 45.122 201.584C43.2272 200.049 41.1102 199.741 38.8403 199.026C37.8373 198.709 36.6094 198.117 35.5598 198.117C33.937 198.117 32.3142 198.117 30.6915 198.117C29.9063 198.117 29.121 198.117 28.3358 198.117C27.1306 198.117 26.7566 199.064 25.8231 199.564C24.1993 200.434 23.2563 201.934 22.0716 203.267C21.4579 203.957 21.74 205.286 21.74 206.145C21.74 207.519 21.4124 209.234 22.2984 210.302C23.2733 211.477 23.8648 213.463 24.3923 214.897C24.9737 216.477 26.087 217.699 26.7654 219.172C27.2544 220.233 28.5811 221.011 29.2781 221.982C30.3041 223.412 31.8469 222.983 33.3612 223.632C34.2437 224.01 34.9402 224.362 35.7168 224.944C36.3946 225.453 36.9499 226.739 37.5839 226.914C38.0824 227.051 38.4867 227.815 39.0147 228.041C39.7595 228.36 40.6309 228.457 41.3878 228.782C44.9128 230.293 48.6039 230.532 52.5204 230.532" stroke="black" stroke-linecap="round"/>
<path d="M53.1487 230.532C56.2998 230.532 60.023 230.128 62.8853 231.508C63.9596 232.026 70.1616 232.249 70.7375 231.138" stroke="black" stroke-linecap="round"/>
<path d="M66.9685 232.653C67.9448 234.868 69.7953 235.913 69.7953 238.409" stroke="black" stroke-linecap="round"/>
<path d="M68.853 231.744C69.6936 232.814 71.3657 233.664 71.3657 235.076" stroke="black" stroke-linecap="round"/>
<path d="M69.1671 173.275C69.1671 171.508 69.1671 169.741 69.1671 167.974C69.1671 167.094 68.3186 166.525 67.9107 165.836C67.133 164.523 65.8429 163.625 65.1538 162.369C64.3147 160.84 61.7822 158.807 60.2156 157.993C58.8136 157.265 57.4729 156.453 56.0453 155.452C54.6416 154.467 52.9978 154.695 51.4038 154.324C49.1748 153.805 47.0932 153.945 44.808 153.887C44.1091 153.869 43.6094 153.344 42.8711 153.298C40.909 153.175 38.9214 153.307 36.9558 153.281C35.2109 153.257 33.4347 152.978 31.6338 152.978C28.8102 152.978 26.0682 153.754 23.3105 153.887C21.8323 153.958 19.5782 154.475 18.2852 155.098" stroke="black" stroke-linecap="round"/>
<path d="M18.9132 155.704C15.3978 157.689 13.0793 158.128 9.17655 158.128C8.3669 158.128 5.47838 158.128 5.8263 158.128C7.87517 158.128 10.5449 158.542 12.2825 159.609C14.0267 160.679 16.5912 160.399 18.1454 161.898C19.7665 163.461 22.609 167.529 25.1949 167.822C27.1479 168.044 29.9614 170.033 31.5116 171.154C34.8336 173.558 37.1747 174.476 41.1784 175.396C47.5916 176.869 54.3707 176.91 61.0007 176.91" stroke="black" stroke-linecap="round"/>
<path d="M61.0007 176.91C66.0219 183.303 67.8413 190.039 70.4233 197.511" stroke="black" stroke-linecap="round"/>
<path d="M90.839 181.455C92.7541 181.455 93.5187 181.578 94.9221 180.781C95.6849 180.349 96.476 179.35 97.1207 178.728C97.7779 178.094 98.5365 176.772 99.3193 176.372C100.727 175.653 103.297 174.713 104.205 173.359C106.256 170.302 108.485 166.527 109.841 163.126C110.713 160.941 109.998 157.194 109.998 154.795" stroke="black" stroke-linecap="round"/>
<path d="M90.2108 164.187C91.1824 162.95 93.3517 160.921 93.3517 159.34" stroke="black" stroke-linecap="round"/>
<path d="M94.9221 160.854C96.5992 161.17 99.8967 161.741 101.448 160.854C102.11 160.476 102.713 160.042 103.402 159.71C104.33 159.263 104.824 158.225 105.758 157.825C106.43 157.537 106.506 156.503 107.329 156.327C107.777 156.231 107.658 156.123 107.992 155.873C108.749 155.304 110.891 155.704 111.743 155.704C115.674 155.704 117.034 154.697 120.206 152.658C120.935 152.189 121.339 150.891 122.125 150.554C122.899 150.223 123.558 149.719 124.307 149.326C126.14 148.361 127.626 146.932 129.472 145.943C132.045 144.564 134.978 142.658 136.381 139.951" stroke="black" stroke-linecap="round"/>
<path d="M95.2361 159.037C96.9321 156.812 98.7801 154.373 100.715 152.506C102.013 151.255 103.415 149.559 104.414 148.063C105.179 146.918 106.483 146.127 107.171 144.966C108.046 143.49 111.675 142.256 113.069 141.348C115.018 140.079 116.955 138.828 118.618 137.224C121.597 134.351 125.533 133.093 129.402 131.771C130.961 131.239 133.603 130.839 134.985 129.886C136.614 128.765 138.346 127.53 140.464 127.53C141.43 127.53 142.396 127.53 143.361 127.53C145.174 127.53 146.638 126.621 148.439 126.621C150.706 126.621 153.886 127.449 155.541 129.045C156.722 130.184 157.882 130.863 159.624 130.863" stroke="black" stroke-linecap="round"/>
<path d="M159.624 130.863C156.32 130.863 153.016 130.863 149.713 130.863C148.593 130.863 147.155 130.892 146.118 130.492C145.233 130.151 143.26 129.348 142.349 129.348C140.981 129.348 141.093 129.602 141.093 130.863C141.093 132.089 141.03 133.181 140.761 134.347C140.356 136.103 137.638 137.963 137.638 139.648" stroke="black" stroke-linecap="round"/>
<path d="M92.7234 150.857C94.1324 148.139 94.2938 146.734 94.2938 143.889C94.2938 143.546 94.0954 141.869 94.4858 141.786C95.2074 141.631 97.1216 141.542 97.7488 141.92C98.2885 142.246 99.364 142.392 100.017 142.61C101.028 142.948 101.866 143.42 102.914 143.603C104.492 143.88 105.34 145.733 106.543 146.313" stroke="black" stroke-linecap="round"/>
<path d="M81.4163 134.195C79.3288 133.783 76.9553 133.04 74.8205 132.983C73.4742 132.947 72.1767 132.377 70.8945 132.377C69.0412 132.377 67.1553 130.863 65.3456 130.863C62.4564 130.863 59.7482 130.56 56.9176 130.56C55.5009 130.56 54.5757 130.102 53.2882 129.651C52.551 129.392 50.9665 129.421 50.3916 128.978C49.5717 128.345 46.2191 128.439 45.122 128.439C43.7332 128.439 42.2762 128.299 40.8993 128.439C40.2417 128.506 39.9005 129.818 39.608 130.257C39.0702 131.064 38.2479 131.657 37.4618 132.226C36.8027 132.703 36.2378 132.599 35.6819 133.135C34.5503 134.226 33.4613 135.143 32.4189 136.316C30.4739 138.504 29.9062 142.371 29.9062 145.168C29.9062 146.423 30.2593 147.331 30.7787 148.434C31.5934 150.162 33.6753 155.298 33.6753 153.399C33.6753 151.106 33.9131 149.848 35.4202 147.979C38.0158 144.76 42.8913 144.798 46.7971 144.798C48.8982 144.798 50.914 145.101 52.9916 145.101C55.0624 145.101 56.6833 144.803 58.6451 144.512C60.0019 144.311 61.2441 143.679 62.5537 143.267C64.6408 142.609 66.8688 142.473 68.8529 141.533C69.9382 141.019 70.8178 140.286 71.8193 139.648C74.8166 137.739 77.4366 135.71 81.1023 135.71" stroke="black" stroke-linecap="round"/>
<path d="M93.0376 112.686C96.1324 112.553 99.0619 111.474 102.146 111.474C102.925 111.474 105.254 111.538 105.601 110.868" stroke="black" stroke-linecap="round"/>
<path d="M105.915 110.565C108.119 108.227 109.958 107.258 112.982 106.61C115.627 106.043 118.319 105.466 120.991 104.877C124.108 104.189 127.384 104.654 130.536 104.187C137.587 103.14 145.175 103.294 152.4 103.294C153.423 103.294 154.599 103.282 155.541 103.665C156.33 103.985 157.104 103.875 157.949 103.9C160.333 103.971 162.586 104.753 164.893 105.23C168.455 105.966 172.149 106.324 175.817 106.324C179.434 106.324 184.469 107.753 185.361 111.626C185.693 113.065 178.774 112.08 177.841 112.08C173.108 112.08 168.956 109.959 164.161 109.959C159.441 109.959 154.688 109.352 150.498 111.626C148.294 112.821 146.342 112.726 144.059 112.097C141.535 111.401 138.895 111.857 136.312 111.339C134.149 110.906 131.782 110.307 129.751 109.505C128.113 108.859 126.108 108.913 124.376 108.579C122.929 108.3 121.364 108.445 119.892 108.445C118.699 108.445 117.507 108.445 116.315 108.445C114.837 108.445 113.838 109.328 112.441 109.589C107.653 110.483 103.363 111.937 99.0051 114.201" stroke="black" stroke-linecap="round"/>
<path d="M82.3586 117.533C82.3586 113.966 81.9127 111.653 83.6847 108.747C84.4849 107.435 86.7558 107.487 86.7558 105.718" stroke="black" stroke-linecap="round"/>
<path d="M90.839 101.78C92.8625 99.3221 95.3665 98.2873 97.6791 96.2595C98.5255 95.5173 99.5075 94.9092 100.419 94.2062C100.885 93.8463 101.573 92.7605 102.146 92.6915C102.597 92.6372 103.635 91.6457 103.891 91.3282C104.475 90.6035 105.335 90.0535 105.985 89.4264C107.537 87.9294 108.114 91.1806 108.114 92.3885" stroke="black" stroke-linecap="round"/>
<path d="M106.229 108.445C106.293 105.752 108.114 103.324 108.114 100.703C108.114 99.446 108.114 98.1893 108.114 96.9326" stroke="black" stroke-linecap="round"/>
<path d="M91.4672 123.895C92.9511 121.147 96.158 119.163 98.3073 116.86C98.7094 116.429 99.7907 114.863 100.262 114.807C100.642 114.761 102.028 114.125 102.146 113.898" stroke="black" stroke-linecap="round"/>
<path d="M69.1671 132.074C67.0535 131.036 64.2684 129.348 61.786 129.348C61.0103 129.348 59.9476 128.952 59.2733 128.591C57.8527 127.829 56.9742 126.508 55.9056 125.477C54.0685 123.705 52.7739 121.693 51.4212 119.519C50.2618 117.655 48.7515 116.501 48.7515 114.201" stroke="black" stroke-linecap="round"/>
<path d="M66.9685 106.021C71.3257 106.021 76.2277 108.096 78.9038 111.323C80.2314 112.923 81.7987 113.726 82.6728 115.412" stroke="black" stroke-linecap="round"/>
<path d="M84.5571 119.956C82.7464 118.9 80.8475 117.142 78.9036 116.473C77.7178 116.064 76.5726 115.644 75.4486 115.042C73.4617 113.977 71.1563 113.127 69.5508 111.407C68.4453 110.222 66.8923 109.094 65.4153 108.293C63.7544 107.392 63.5056 106.406 62.4315 105.045C61.4004 103.738 60.8029 101.698 59.3605 100.804C57.7405 99.7991 55.9287 99.1901 54.1431 98.4809C53.1134 98.072 51.9864 97.7596 50.9325 97.4038C49.8661 97.0438 48.4714 97.2849 47.8091 96.3267" stroke="black" stroke-linecap="round"/>
<path d="M59.1162 100.568C57.7973 98.8379 54.5655 96.4937 54.0734 94.3576C53.8083 93.207 53.2115 92.3905 53.1486 91.1766C53.0288 88.8671 52.8345 86.5571 52.8345 84.2089" stroke="black" stroke-linecap="round"/>
<path d="M47.495 96.9326C45.8979 96.257 44.4051 95.0303 42.7837 94.509" stroke="black" stroke-linecap="round"/>
<path d="M52.2064 83.9058C50.3824 84.5924 48.7686 84.7703 47.4951 83.0643C46.6111 81.8801 44.4393 77.1045 46.2737 76.2648C48.3123 75.3317 50.3783 74.2422 52.2064 72.9324C53.3659 72.1016 54.3907 71.0214 55.6613 70.3406C57.6406 69.2799 59.6321 68.5771 61.629 67.614C63.6432 66.6426 65.4754 65.4056 67.457 64.4499C67.9721 64.2015 69.2601 63.2291 68.6785 64.2143C67.8815 65.5642 66.4231 66.7612 65.7819 68.1526C65.0864 69.6621 64.4672 71.4739 63.1994 72.6968C60.9597 74.857 59.0304 77.0914 57.2318 79.5973C55.885 81.4736 54.0925 82.9947 52.8346 84.8147" stroke="black" stroke-linecap="round"/>
<path d="M93.0376 110.262C94.0893 108.936 95.3805 107.113 96.8241 106.156C98.7592 104.873 99.8281 102.559 101.448 100.938C103.273 99.1132 105.976 98.5942 107.8 96.9327C109.227 95.6326 110.315 94.0355 111.429 92.4558C112.85 90.4406 114.571 88.6294 115.809 86.481C116.728 84.8857 118.132 82.0106 120.049 81.4824C121.422 81.104 123.127 78.8921 123.486 77.6787C123.981 76.0086 125.208 75.4089 126.017 74.0434C126.608 73.0445 127.996 72.0237 128.843 71.1822C129.752 70.2802 130.483 69.298 131.356 68.4557" stroke="black" stroke-linecap="round"/>
<path d="M118.164 82.0882C118.499 80.6188 119.893 78.8989 120.049 77.544C120.167 76.5152 120.933 74.962 121.55 74.1443C121.905 73.6732 122.21 72.4002 122.492 71.788C122.763 71.1985 123.504 69.4783 123.504 68.91C123.504 67.1539 125.074 65.9062 125.074 64.0629C125.074 60.9246 126.645 58.0108 126.645 54.823" stroke="black" stroke-linecap="round"/>
<path d="M131.984 50.8848C130.894 55.488 129.435 59.9702 127.532 64.1958C125.879 67.8667 125.47 72.2901 124.446 76.3323" stroke="black" stroke-linecap="round"/>
<path d="M110.312 92.3884C111.726 90.5344 112.566 87.046 111.865 84.6801C111.677 84.0457 105.602 85.9254 104.659 86.0265C102.967 86.2078 101.199 86.9229 100.419 84.8147C99.5447 82.4545 102.888 81.2776 103.717 79.4795C104.074 78.7044 104.886 78.6586 105.287 77.9816C105.448 77.7092 106.499 76.5101 106.683 76.3996C108.219 75.4737 109.97 74.9151 111.394 73.7908C114.213 71.5664 119.285 71.8282 120.991 75.1204" stroke="black" stroke-linecap="round"/>
<path d="M130.414 69.6674C132.072 68.6772 133.113 67.6053 134.305 66.2003C135.299 65.0289 133.652 62.6061 134.811 61.4878C135.53 60.7945 137.282 60.2463 138.249 59.8385C139.715 59.2198 141.131 58.6021 142.733 58.3237C146.334 57.6978 149.925 56.5484 153.499 56.018C154.57 55.8591 155.427 55.1694 156.553 55.126C157.384 55.0939 158.299 54.3833 159.153 54.2003C160.279 53.9589 161.424 53.4323 162.59 53.3251C170.761 52.5746 178.496 49.067 186.792 49.067C189.668 49.067 194.518 47.5743 197 49.37" stroke="black" stroke-linecap="round"/>
<path d="M133.869 69.0616C137.008 70.329 139.777 71.5673 142.663 69.0616C144.271 67.6655 146.488 67.0214 148.003 65.5609C149.637 63.9844 152.409 63.6317 154.145 61.9255C155.628 60.4678 156.723 58.427 158.681 57.4823C161.356 56.1923 163.804 54.1468 166.22 52.3995" stroke="black" stroke-linecap="round"/>
<path d="M129.157 52.3994C127.642 51.4856 127.061 50.9178 126.488 49.37C126.215 48.6335 126.299 48.1198 125.772 47.485C125.558 47.227 125.249 46.2647 125.074 45.8861C124.785 45.2588 124.132 45.3113 124.132 44.5228" stroke="black" stroke-linecap="round"/>
<path d="M125.388 55.1259C124.885 52.8602 123.843 50.8678 122.719 48.9155C122.094 47.8305 120.991 46.2378 120.991 44.9772C120.991 44.4757 112.756 44.2198 111.115 44.2198C110.187 44.2198 109.812 43.8747 108.934 43.6139C108.113 43.3705 107.487 42.6439 106.84 42.4358C104.987 41.8403 103.333 40.9737 101.448 40.4498C98.5853 39.6542 96.7641 37.1146 94.0495 36.1076C92.3949 35.4938 90.8749 34.721 89.2684 33.987C88.2616 33.527 87.6156 32.6981 86.7557 32.0346C86.1319 31.5533 85.82 30.8198 85.1853 30.3516C84.6348 29.9456 84.0875 30.0654 83.4753 29.8467C79.447 28.4077 76.7395 24.7108 73.1104 22.7106C70.8578 21.4691 75.2453 17.1997 76.0768 16.1973C78.1209 13.7328 80.3486 13.9116 82.9867 12.7807C84.2408 12.2431 85.7686 12.9904 87 12.0402C88.4304 10.9365 95.0076 7.94887 96.4924 9.38097" stroke="black" stroke-linecap="round"/>
<path d="M94.2939 9.3811C95.8484 11.4484 97.2429 13.9169 99.6334 15.0698C100.325 15.4032 101.57 16.5181 101.902 17.1231C102.448 18.1174 103.519 19.2352 104.275 20.0516C105.62 21.5045 105.727 24.2015 107.329 25.4373C107.822 25.818 108.492 27.0478 108.899 27.5916C109.857 28.8713 110.229 30.3546 111.237 31.6308C112.898 33.7337 114.71 35.6876 116.437 37.7234C118.645 40.3265 120.673 43.0811 123.504 45.1288" stroke="black" stroke-linecap="round"/>
<path d="M131.67 54.2171C131.691 52.528 132.298 50.8017 132.298 49.2185C132.298 48.656 132.612 48.2385 132.612 47.7037C132.612 46.847 132.618 46.0302 132.857 45.196C133.139 44.2094 132.846 45.1325 132.612 45.499C131.754 46.8448 130.885 48.0899 129.96 49.3868C129.487 50.05 129.105 50.5998 128.529 51.1876C128.111 51.6144 128.397 52.1604 127.901 52.3994" stroke="black" stroke-linecap="round"/>
<path d="M61.0008 105.415C58.3243 104.681 54.7687 104.326 52.2064 103.227C51.1093 102.757 49.8731 103.244 48.7514 102.823C47.5632 102.378 46.1152 102.501 44.9824 102.015C43.7183 101.473 42.5602 100.691 41.2308 100.13C38.082 98.8016 34.7488 98.9029 31.3371 98.4641C27.8161 98.0113 24.3679 98.2381 20.9897 97.2355C16.9346 96.032 12.223 96.0961 7.92025 96.3267C6.71488 96.3913 4.2726 97.4552 3.5405 98.279C2.96836 98.9228 2.31307 100.93 2.2667 101.78C2.19434 103.106 1.63853 104.175 1.63853 105.55C1.63853 106.414 1.63853 107.278 1.63853 108.142C1.63853 108.963 1.81112 110.012 1.56874 110.801C1.40201 111.344 0.873813 113.209 1.02781 113.729C1.267 114.537 13.3221 112.897 13.6959 112.854C16.4556 112.538 19.2772 112.686 22.0541 112.686C23.4505 112.686 24.7537 112.245 26.1372 112.097C29.1882 111.77 32.4678 112.08 35.5424 112.08C42.2254 112.08 48.9085 112.08 55.5915 112.08C59.4245 112.08 63.1616 111.777 66.9684 111.777C68.8831 111.777 69.9481 113.115 71.6099 114.1C74.9436 116.074 78.6585 117.112 82.0445 118.745" stroke="black" stroke-linecap="round"/>
<path d="M42.4698 94.509C39.361 94.609 36.3178 95.4179 33.2217 95.4179C32.3623 95.4179 31.2817 95.6938 30.4647 95.9564C28.1621 96.6967 26.3927 97.8932 24.2528 98.9859C22.398 99.933 21.1428 101.429 18.9831 102.15C17.2994 102.712 15.3293 102.974 13.8879 103.9" stroke="black" stroke-linecap="round"/>
<path d="M57.5457 100.568C55.1012 99.6922 52.417 98.8969 50.1647 97.69C48.6939 96.9019 47.2692 96.9965 45.9246 96.0238" stroke="black" stroke-linecap="round"/>
<path d="M45.2965 96.0238C41.6777 97.42 37.487 98.41 34.129 100.029C33.7902 100.193 33.8302 100.722 33.4834 100.871C32.9695 101.091 32.4462 101.297 31.9479 101.511C30.9617 101.933 29.9185 102.81 28.7896 103.008C24.8903 103.692 21.6735 105.539 17.8664 106.694C15.4454 107.429 12.8392 107.748 10.59 108.916C8.81183 109.839 7.39173 111.455 5.73916 112.551C4.89826 113.109 4.63326 114.074 4.08149 114.739C2.9684 116.081 3.72225 113.676 4.15128 113.174C5.89854 111.128 7.03051 109.167 9.49075 107.771C10.272 107.328 11.3451 106.513 11.8638 105.87C12.2886 105.343 13.1017 105.327 13.7135 105.112C14.2333 104.93 14.3588 104.361 14.8477 104.203C16.8524 103.559 18.787 102.426 20.7978 101.78" stroke="black" stroke-linecap="round"/>
<path d="M71.6797 245.982C70.5209 244.399 69.7952 243.191 69.7952 241.287C69.7952 240.251 70.0178 238.712 71.3656 238.712" stroke="black" stroke-linecap="round"/>
<path d="M28.6499 300.816C29.1484 296.728 32.7998 293.248 34.6873 289.607C35.7709 287.516 37.5309 285.697 38.5611 283.615C39.4147 281.89 40.8209 280.464 41.7019 278.684C42.6363 276.795 43.6864 274.762 44.9824 273.079C47.0753 270.362 49.5741 267.898 51.7527 265.236C56.2851 259.699 59.7186 253.278 64.9268 248.254C66.5526 246.686 69.0597 245.886 70.1093 243.862" stroke="black" stroke-linecap="round"/>
<path d="M80.4741 245.982C83.0167 248.309 86.0735 249.876 89.0591 251.604C90.5363 252.459 91.5941 253.954 92.7235 255.172C94.2339 256.8 95.7876 258.413 97.4348 259.918C98.7123 261.085 100.577 262.313 101.588 263.856C102.34 265.005 103.663 265.973 103.716 267.424C103.763 268.681 104.099 269.701 104.589 270.824C105.45 272.796 106.528 276.421 108.742 277.489" stroke="black" stroke-linecap="round"/>
<path d="M95.5503 226.897C98.6594 226.567 101.729 226.153 104.694 225.146C106.078 224.676 107.184 223.854 108.498 223.261C110.868 222.193 113.009 220.913 115.442 219.996C119.003 218.655 123.035 218.369 126.715 217.371C129.563 216.598 133.871 215.561 136.067 213.567C137.041 212.683 138.46 211.446 139.836 211.446" stroke="black" stroke-linecap="round"/>
<path d="M139.836 211.446C141.208 210.695 143.649 209.629 145.333 209.629C146.39 209.629 147.211 209.023 148.317 209.023" stroke="black" stroke-linecap="round"/>
<path d="M61.3149 224.776C61.3149 226.892 61.629 229.114 61.629 231.138" stroke="black" stroke-linecap="round"/>
<path d="M61.0009 230.229C58.5959 226.595 55.1554 223.796 51.8924 220.905C50.0812 219.3 48.6566 217.182 46.6227 215.991C43.3666 214.084 39.3587 212.24 37.2001 209.023C36.8604 208.516 35.9999 208.61 35.4901 208.282C34.8684 207.883 34.2911 207.389 33.6754 206.97C32.0222 205.844 29.9256 205.574 28.4057 204.108C27.2116 202.957 25.7407 202.055 23.9387 202.055" stroke="black" stroke-linecap="round"/>
<path d="M119.107 253.556C117.637 251.702 116.755 251.763 114.64 251.2C113.945 251.015 112.388 251.288 111.883 250.678C111.037 249.658 108.391 249.641 107.329 248.844C104.828 246.968 100.743 248.312 98.063 246.588" stroke="black" stroke-linecap="round"/>
<path d="M99.3193 247.497C97.2993 247.497 95.4259 247.194 93.3517 247.194" stroke="black" stroke-linecap="round"/>
<path d="M11.6892 158.431C17.2065 158.556 22.5428 159.378 27.9519 160.349C29.6197 160.649 31.1666 161.243 32.8028 161.528C35.2019 161.945 37.3423 163.151 39.7825 163.514C42.1479 163.865 44.3863 164.357 46.797 164.557C48.9153 164.733 51.8847 164.721 53.7069 165.87C54.8263 166.576 56.5512 166.998 57.476 167.889C58.3055 168.69 58.6823 170.047 59.7444 170.616C60.74 171.149 61.3969 171.971 62.6409 172.063C63.5258 172.129 64.3568 172.622 65.0838 172.972" stroke="black" stroke-linecap="round"/>
<path d="M60.3726 176.305C61.7389 175.316 64.8217 173.578 66.6543 173.578C68.7218 173.578 68.2247 172.275 68.2247 170.549" stroke="black" stroke-linecap="round"/>
<path d="M94.2939 159.946C93.5838 160.212 93.0395 160.55 93.9798 159.946" stroke="black" stroke-linecap="round"/>
<path d="M33.6754 152.069C32.8463 149.34 32.7332 146.419 32.7332 143.586C32.7332 142.419 33.2838 141.792 34.164 141.011C37.9485 137.653 42.5988 135.853 47.7395 135.474C52.7519 135.105 58.3011 136.121 63.182 134.649C64.5708 134.231 66.3281 134.536 67.7712 134.498C69.2311 134.46 70.6723 134.195 72.1684 134.195C75.3625 134.195 78.5637 134.498 81.7306 134.498" stroke="black" stroke-linecap="round"/>
<path d="M94.2939 160.551C96.6204 158.765 99.2525 156.811 102.007 155.704C103.546 155.086 105.108 154.49 106.561 153.702C108.181 152.822 108.934 151.413 110.138 150.251C111.484 148.953 112.896 147.726 114.221 146.448C116.018 144.714 118.751 143.797 120.433 141.769C121.516 140.463 123.47 138.668 125.057 137.999C125.746 137.708 126.459 137.425 127.116 137.073C127.762 136.727 128.207 136.301 128.843 135.946C130.838 134.832 132.904 133.315 134.968 132.377C136.618 131.629 137.92 130.257 139.836 130.257" stroke="black" stroke-linecap="round"/>
<path d="M78.2754 171.458C79.2057 173.041 80.474 174.756 80.474 176.608" stroke="black" stroke-linecap="round"/>
<path d="M68.8529 106.324C67.4632 106.579 66.1685 106.627 64.7698 106.627" stroke="black" stroke-linecap="round"/>
<path d="M43.4119 284.76C43.4977 288.073 44.6682 290.966 44.6682 294.454C44.6682 297.167 45.2964 299.571 45.2964 302.33" stroke="black" stroke-linecap="round"/>
<path d="M40.8992 279.912C41.702 282.332 42.7837 285.227 42.7837 287.789" stroke="black" stroke-linecap="round"/>
<path d="M52.2063 264.159C53.3827 271.251 54.0908 277.464 54.0908 284.625C54.0908 288.911 54.0908 293.197 54.0908 297.483" stroke="black" stroke-linecap="round"/>
<path d="M57.8599 256.888C62.7027 263.054 61.0007 271.72 61.0007 279.306" stroke="black" stroke-linecap="round"/>
<path d="M68.5388 248.406V272.036" stroke="black" stroke-linecap="round"/>
<path d="M64.1418 245.982C60.6337 246.744 58.2777 248.265 55.3473 249.752C53.7901 250.543 52.0702 251.476 50.6012 252.378C48.9216 253.409 47.186 252.712 45.6107 253.556C43.4148 254.733 41.0623 254.598 38.7008 255.104C37.244 255.417 32.664 256.416 32.105 257.494" stroke="black" stroke-linecap="round"/>
<path d="M57.86 254.465C53.5911 254.542 50.0645 255.481 46.29 256.994C43.896 257.953 43.0187 260.225 41.0309 261.279C38.6944 262.518 36.8502 264.851 34.3693 265.845C31.9366 266.82 30.0082 267.624 27.7078 269.006" stroke="black" stroke-linecap="round"/>
<path d="M22.6824 285.971C24.8696 282.512 28.5678 278.336 31.8917 275.368C33.9532 273.527 36.3862 270.045 39.2591 268.872C44.7207 266.641 46.8231 261.736 54.091 261.736" stroke="black" stroke-linecap="round"/>
<path d="M102.46 198.117C99.9824 203.74 98.063 210.057 98.063 216.294" stroke="black" stroke-linecap="round"/>
<path d="M93.0376 202.964V219.323" stroke="black" stroke-linecap="round"/>
<path d="M88.0122 224.776C90.4463 222.357 93.2639 216.466 96.4925 215.082C97.7543 214.541 98.9999 213.02 99.9475 212.052C100.544 211.443 102.806 208.625 103.437 208.451C108.15 207.152 112.508 202.358 117.536 202.358" stroke="black" stroke-linecap="round"/>
<path d="M108.742 198.723C107.566 201.63 107.913 206.587 106.229 209.023" stroke="black" stroke-linecap="round"/>
<path d="M106.229 209.629L109.37 210.841" stroke="black" stroke-linecap="round"/>
<path d="M109.37 221.747C110.475 216.779 112.311 216.712 115.742 214.005C117.369 212.721 119.155 213.127 120.426 211.177C120.945 210.38 122.4 208.763 123.19 208.417" stroke="black" stroke-linecap="round"/>
<path d="M116.28 219.323C122.613 216.79 123.943 210.477 129.472 207.811" stroke="black" stroke-linecap="round"/>
<path d="M119.421 218.717C121.85 221.716 123.683 222.155 127.273 222.925C129.184 223.334 132.234 222.229 133.241 224.17" stroke="black" stroke-linecap="round"/>
<path d="M130.728 215.688C135.251 216.539 138.581 217.505 143.291 217.505" stroke="black" stroke-linecap="round"/>
<path d="M108.742 224.17C113.233 225.966 117.717 228.411 122.562 228.411" stroke="black" stroke-linecap="round"/>
<path d="M35.2456 155.704C37.18 158.092 38.9585 159.837 40.271 162.369" stroke="black" stroke-linecap="round"/>
<path d="M32.7332 152.675C34.276 154.58 35.4391 156.077 36.5022 158.128" stroke="black" stroke-linecap="round"/>
<path d="M42.1555 153.281C45.135 154.963 47.3646 156.132 49.0654 159.003C50.0948 160.741 52.8344 162.783 52.8344 164.793" stroke="black" stroke-linecap="round"/>
<path d="M52.2063 157.522C54.033 159.848 58.819 162.729 59.7095 165.735C60.0796 166.985 61.3172 167.527 61.6638 168.697C61.9766 169.753 62.3601 171.05 62.8852 172.063" stroke="black" stroke-linecap="round"/>
<path d="M22.6824 166.61C29.9141 166.505 36.968 165.399 44.0402 165.399" stroke="black" stroke-linecap="round"/>
<path d="M33.9893 173.881C42.1655 171.306 49.9847 171.458 58.488 171.458" stroke="black" stroke-linecap="round"/>
<path d="M46.5527 136.922C42.2819 139.333 40.271 139.246 40.271 144.192" stroke="black" stroke-linecap="round"/>
<path d="M57.8598 135.104C53.8806 138.102 52.3436 140.898 50.3218 144.798" stroke="black" stroke-linecap="round"/>
<path d="M60.3726 144.798C62.4102 141.441 63.2873 137.269 66.6543 135.104" stroke="black" stroke-linecap="round"/>
<path d="M64.1416 133.892C62.0206 133.493 58.6604 133.116 57.0921 131.603C56.4792 131.012 56.1768 130.785 55.9404 129.987C55.7501 129.345 54.4869 129.809 54.0908 129.045" stroke="black" stroke-linecap="round"/>
<path d="M54.0908 135.104C52.2868 132.877 51.4134 132.466 49.0654 131.334C47.9021 130.773 45.8292 131.285 45.2964 130.257" stroke="black" stroke-linecap="round"/>
<path d="M44.6682 135.104C42.0954 133.224 40.2452 132.074 37.1301 132.074" stroke="black" stroke-linecap="round"/>
<path d="M51.5781 119.351C59.0737 122.277 66.6545 125.107 73.5641 128.439" stroke="black" stroke-linecap="round"/>
<path d="M77.3332 133.892C76.7651 131.084 76.0269 128.738 73.285 127.227C72.0642 126.554 69.6227 124.625 69.0274 123.592C67.7493 121.373 65.8817 119.643 64.7698 117.23C64.1488 115.882 62.8704 113.085 61.6289 112.686" stroke="black" stroke-linecap="round"/>
<path d="M77.9614 135.71C79.1616 139.269 82.9868 143.246 82.9868 146.616" stroke="black" stroke-linecap="round"/>
<path d="M76.7051 138.133C77.9053 141.693 81.7305 145.669 81.7305 149.039" stroke="black" stroke-linecap="round"/>
<path d="M66.6542 118.745C63.5679 118.164 59.6869 117.169 56.9525 115.85C54.6351 114.732 52.0753 112.846 49.6936 112.08" stroke="black" stroke-linecap="round"/>
<path d="M1.32446 105.415C5.00346 105.415 8.47351 104.809 12.0034 104.809" stroke="black" stroke-linecap="round"/>
<path d="M18.2852 112.686C21.5709 110.831 25.5227 107.466 29.2782 106.661C31.9398 106.09 35.4373 105.929 37.7585 104.809" stroke="black" stroke-linecap="round"/>
<path d="M31.4768 102.386C37.0143 102.386 42.4554 101.925 47.1811 104.338C49.0052 105.269 51.39 106.791 53.1138 107.266C54.7566 107.719 56.9441 108.306 58.4882 109.05" stroke="black" stroke-linecap="round"/>
<path d="M54.7192 107.839C49.3797 107.839 44.0402 107.839 38.7008 107.839C34.6402 107.839 31.916 112.686 28.3359 112.686" stroke="black" stroke-linecap="round"/>
<path d="M108.114 162.975C105.737 164.764 103.061 165.885 101.204 168.125C100.1 169.455 99.0114 171.369 97.9234 172.535C96.8109 173.727 95.203 175.361 93.9799 176.305C92.621 177.353 92.3924 179.948 91.1531 180.546" stroke="black" stroke-linecap="round"/>
<path d="M99.9474 144.798C99.9474 148.251 100.644 151.667 98.691 154.493" stroke="black" stroke-linecap="round"/>
<path d="M94.9221 167.822C98.3447 165.243 101.189 161.792 103.088 158.128" stroke="black" stroke-linecap="round"/>
<path d="M96.1785 165.399C94.4485 166.612 92.1272 167.761 91.1531 169.64" stroke="black" stroke-linecap="round"/>
<path d="M47.8091 186.605C54.7315 187.908 61.9529 189.653 65.3979 196.299" stroke="black" stroke-linecap="round"/>
<path d="M47.1809 181.152C49.9129 181.218 53.5597 182.069 55.9753 183.104C58.1083 184.018 61.1883 185.393 63.5134 185.393" stroke="black" stroke-linecap="round"/>
<path d="M66.0261 187.211C67.1168 184.515 67.9578 182.273 69.167 179.94" stroke="black" stroke-linecap="round"/>
<path d="M71.0515 196.299C73.6004 192.099 73.5642 189.45 73.5642 184.787" stroke="black" stroke-linecap="round"/>
<path d="M76.7051 172.063V180.546" stroke="black" stroke-linecap="round"/>
<path d="M72.936 167.216C71.6839 170.311 71.0515 173.073 71.0515 176.305" stroke="black" stroke-linecap="round"/>
<path d="M51.5781 203.57C51.5781 207.142 51.9969 210.988 51.9969 214.173C51.9969 217.021 52.8345 218.921 52.8345 221.747" stroke="black" stroke-linecap="round"/>
<path d="M40.271 199.934C42.1477 205.416 44.04 209.561 44.04 215.688" stroke="black" stroke-linecap="round"/>
<path d="M28.9641 199.329C30.1831 202.341 31.091 206.071 34.6177 207.205" stroke="black" stroke-linecap="round"/>
<path d="M23.3105 210.841C28.0007 211.723 32.1933 210.841 36.5022 210.841" stroke="black" stroke-linecap="round"/>
<path d="M24.5669 215.688C31.6789 218.301 37.5782 216.9 44.6684 216.9" stroke="black" stroke-linecap="round"/>
<path d="M28.3359 222.958C34.965 225.454 45.7471 225.035 52.2065 222.958" stroke="black" stroke-linecap="round"/>
<path d="M82.3586 249.012C83.0692 252.524 83.8215 252.091 85.3599 254.465C85.875 255.26 86.3797 256.962 87.0699 257.494C88.9224 258.924 87.8846 263.79 88.6404 265.977" stroke="black" stroke-linecap="round"/>
<path d="M91.1531 256.888C91.1531 261.542 94.2939 263.832 94.2939 268.4C94.2939 270.951 94.9221 274.022 94.9221 276.883" stroke="black" stroke-linecap="round"/>
<path d="M98.063 262.341C101.93 267.47 98.5861 273.651 101.204 278.701" stroke="black" stroke-linecap="round"/>
<path d="M94.9221 256.888C99.699 257.787 103.319 258.514 107.486 260.524" stroke="black" stroke-linecap="round"/>
<path d="M86.1277 249.012C89.2637 249.084 90.8413 250.094 93.3866 250.796C94.5224 251.109 96.0396 252.041 97.1207 252.041C99.1783 252.041 102.66 253.381 104.345 254.465" stroke="black" stroke-linecap="round"/>
<path d="M103.716 265.977C105.277 267.072 108.742 268.025 108.742 270.218" stroke="black" stroke-linecap="round"/>
<path d="M98.6912 96.3267C97.3739 99.5823 94.9221 102.566 94.9221 106.021" stroke="black" stroke-linecap="round"/>
<path d="M61.0007 69.0615C57.7878 73.1522 53.4626 78.8552 53.4626 84.2089" stroke="black" stroke-linecap="round"/>
<path d="M54.0908 72.0911C54.8259 73.3023 55.413 74.4609 55.9753 75.7264" stroke="black" stroke-linecap="round"/>
<path d="M49.0654 76.3322C49.4058 77.8276 49.9641 82.2186 51.5781 82.997" stroke="black" stroke-linecap="round"/>
<path d="M109.37 76.9381C110.48 79.6809 110.613 82.9717 111.883 85.4206" stroke="black" stroke-linecap="round"/>
<path d="M104.345 79.9675C106.351 80.0159 109.37 80.5726 109.37 82.997" stroke="black" stroke-linecap="round"/>
<path d="M111.255 82.9971C112.291 78.555 114.588 77.4201 118.164 75.1205" stroke="black" stroke-linecap="round"/>
<path d="M88.6404 32.1021H93.0376" stroke="black" stroke-linecap="round"/>
<path d="M74.1924 19.9841C77.7407 20.7005 81.7257 21.672 85.3599 21.8018C88.1067 21.9 89.6891 23.0701 92.0953 23.5858C95.9441 24.4108 98.1081 27.5321 100.89 29.6784C101.311 30.0037 102.149 31.1407 102.181 30.6209C102.239 29.6652 101.357 28.3688 100.89 27.5578C100.005 26.0216 98.449 25.213 97.5743 23.6195C95.2153 19.3216 94.2939 15.906 94.2939 10.8958" stroke="black" stroke-linecap="round"/>
<path d="M101.832 30.2844C105.579 32.4881 108.448 35.2436 112.197 37.2522C114.38 38.4223 116.687 39.9463 117.536 42.4023" stroke="black" stroke-linecap="round"/>
<path d="M101.204 30.2844C96.3375 30.2844 93.2445 30.1513 89.2686 32.708" stroke="black" stroke-linecap="round"/>
<path d="M81.1023 14.5311C83.5117 16.2917 86.3452 20.695 88.6404 21.8018" stroke="black" stroke-linecap="round"/>
<path d="M100.576 39.9786H113.139" stroke="black" stroke-linecap="round"/>
<path d="M67.2825 212.052C67.2825 217.435 66.1018 224.922 68.5389 229.623" stroke="black" stroke-linecap="round"/>
<path d="M134.497 105.415C137.337 105.48 139.899 106.331 142.663 106.627C143.494 106.716 143.713 107.791 144.548 107.839C146.772 107.965 148.641 109.656 150.829 109.656" stroke="black" stroke-linecap="round"/>
<path d="M133.869 67.8498C136.253 66.4475 138.461 64.6627 140.813 63.3393C142.469 62.4077 143.394 61.0628 144.862 60.2761C147.912 58.6417 151.053 56.9437 154.598 56.9437" stroke="black" stroke-linecap="round"/>
<path d="M152.714 104.809C156.297 105.779 160.68 105.329 164.021 106.762C165.231 107.28 165.074 108.172 166.185 108.478C167.019 108.708 168.272 109.158 169.046 109.656" stroke="black" stroke-linecap="round"/>
<path d="M121.933 106.021C124.803 106.021 126.856 105.275 128.215 107.569C128.876 108.685 130.626 110.262 131.984 110.262" stroke="black" stroke-linecap="round"/>
<path d="M76.7051 265.977C76.7051 270.109 77.3333 273.461 77.3333 277.489" stroke="black" stroke-linecap="round"/>
<path d="M72.936 266.583V281.124" stroke="black" stroke-linecap="round"/>
<path d="M82.9868 261.13V279.306" stroke="black" stroke-linecap="round"/>
<path d="M85.4995 262.947V279.912" stroke="black" stroke-linecap="round"/>
<path d="M132.612 65.4261C128.737 66.2672 130.212 66.7988 128.355 68.5903C127.402 69.5088 127.038 70.8792 125.703 70.8792" stroke="black" stroke-linecap="round"/>
<path d="M106.229 102.992C102.478 104.529 102.451 104.825 100.89 107.536C100.019 109.047 99.092 109.985 98.063 111.474" stroke="black" stroke-linecap="round"/>
<path d="M93.0376 119.957C93.7136 116.615 94.8402 115.873 96.1785 113.292" stroke="black" stroke-linecap="round"/>
<path d="M111.255 149.645H125.074" stroke="black" stroke-linecap="round"/>
<path d="M121.305 141.163H136.381" stroke="black" stroke-linecap="round"/>
<path d="M145.804 61.1848H153.342" stroke="black" stroke-linecap="round"/>
<path d="M138.894 65.4261C141.866 65.4961 144.673 66.032 147.688 66.032" stroke="black" stroke-linecap="round"/>
<path d="M138.266 60.5791V64.2145" stroke="black" stroke-linecap="round"/>
<path d="M133.869 64.8202C132.564 65.3552 131.737 65.8593 130.728 66.6379" stroke="black" stroke-linecap="round"/>
<path d="M22.9965 288.698C22.9965 289.892 22.6367 292.087 23.5025 293.107C24.7868 294.621 25.8398 296.277 26.6085 298.089C27.0723 299.183 27.5189 300.912 28.2661 301.489C29.2868 302.276 30.9117 302.226 32.105 302.802C32.963 303.215 33.6855 303.864 34.5479 304.215C34.9813 304.392 35.0129 304.727 35.3156 304.99C35.6457 305.276 36.9948 305.057 37.3397 305.057C39.7245 305.057 42.1092 305.057 44.4939 305.057C45.4448 305.057 46.1777 305.128 47.0066 304.619C49.096 303.337 50.4741 300.501 52.2763 298.762C53.8428 297.251 54.7715 295.514 55.8185 293.696C57.3621 291.016 59.2615 288.543 60.7566 285.803C62.2668 283.035 62.8437 279.277 64.927 276.866C66.0088 275.614 67.034 273.515 67.841 272.036C69.5432 268.916 72.3008 266.002 73.6341 262.947C74.6482 260.624 76.7052 258.481 76.7052 255.828C76.7052 254.804 76.8716 253.796 76.3213 252.883C75.7933 252.007 75.1347 250.968 75.1347 249.921C75.1347 248.836 74.7246 247.493 73.4073 247.211C72.3291 246.98 71.7429 245.679 70.7375 245.679" stroke="black" stroke-linecap="round"/>
<path d="M129.401 276.353L204.286 308.678L192.095 373L139.415 348.838L129.401 276.353Z" fill="#988C69"/>
<path d="M202.281 307.972L243.034 271.794L226.55 352.392L189.918 373L202.281 307.972Z" fill="#988C69"/>
<path d="M128.095 277.265L153.782 287.75V296.868L128.095 290.485V277.265Z" fill="#988C69"/>
<path d="M222.571 290.294L246.082 269.059V281.912L224.748 303.706L222.571 290.294Z" fill="#988C69"/>
<path d="M174.68 240.794L244.775 270.148L203.85 310.088L129.837 278.632L174.68 240.794Z" fill="#54392D"/>
<path d="M155.959 1C155.959 9.54065 157.701 17.6376 157.701 26.0735C157.701 28.2648 158.209 30.4793 159.104 32.4559C159.909 34.2363 159.401 35.8377 159.902 37.6732C160.155 38.6016 161.081 40.4841 161.837 41.1176C163.132 42.2029 163.105 45.5427 164.231 46.1324" stroke="black" stroke-linecap="round"/>
<path d="M164.231 46.1323C166.457 48.055 168.457 50.312 170.326 52.5147C171.155 53.4909 171.632 54.2843 172.503 55.25C173.288 56.1196 173.004 57.5842 174.027 58.4411C175.404 59.5949 175.889 62.5754 177.051 64.1397C178.397 65.9521 178.163 68.9318 178.163 71.2059" stroke="black" stroke-linecap="round"/>
<path d="M178.163 68.9265C178.163 70.2182 178.163 71.5098 178.163 72.8015C178.163 73.5332 178.855 73.8936 179.01 74.625C179.332 76.1417 180.452 77.3173 180.751 78.728C181.391 81.743 181.646 84.4415 181.646 87.6177C181.646 90.8941 182.082 93.6883 182.082 96.9633C182.082 98.8459 182.082 100.729 182.082 102.611C182.082 104.485 182.952 105.976 182.952 107.93C182.952 111.179 183.567 115.199 182.856 118.364C182.199 121.287 180.776 124.556 180.776 127.507C180.776 129.4 181.231 131.965 180.679 133.763C179.924 136.222 179.469 138.331 179.469 140.956C179.469 142.242 179.85 144.327 179.373 145.515C178.955 146.554 179.034 147.592 179.034 148.706C179.034 150.172 178.195 151.416 178.163 152.91C178.006 160.314 178.163 167.741 178.163 175.147C178.163 176.511 178.301 179.227 178.816 180.415C179.691 182.43 178.875 185.278 179.469 187.456C180.305 190.518 179.905 194.052 179.905 197.257C179.905 201.892 179.905 206.527 179.905 211.162C179.905 213.289 179.905 215.417 179.905 217.544C179.905 220.512 180.776 223.294 180.776 226.206C180.776 235.212 181.211 244.151 181.211 253.103" stroke="black" stroke-linecap="round"/>
<path d="M155.275 1C155.275 8.72563 154.155 16.2704 154.155 24.0652C154.155 27.057 152.476 29.7799 152.476 32.9816C152.476 36.9771 152.476 40.9725 152.476 44.968C152.476 50.9965 157.715 54.7523 159.162 60.3448C160.315 64.7975 165.699 67.9101 168.15 72.1176" stroke="black" stroke-linecap="round"/>
<path d="M159.878 52.9706C159.922 54.862 160.605 58.2861 161.837 59.8341C162.435 60.586 163.796 64.593 163.796 65.5073C163.796 67.3915 165.537 69.2778 165.537 70.9779C165.537 72.6638 165.973 74.17 165.973 75.9926C165.973 79.7555 167.039 84.5223 168.803 87.8456C169.512 89.1831 169.215 92.4146 169.432 94C169.74 96.2626 170.55 98.2917 170.786 100.636C171.054 103.3 172.372 105.972 172.503 108.588C172.6 110.503 174.171 112.473 174.245 114.413C174.297 115.786 175.116 116.682 175.116 118.06C175.116 119.006 175.116 119.952 175.116 120.897C175.116 124.265 176.422 127.465 176.422 130.825C176.422 134.506 176.422 138.187 176.422 141.868C176.422 143.833 176.318 145.833 176.422 147.794C176.483 148.944 177.669 149.873 177.728 150.985C177.776 151.891 177.728 152.814 177.728 153.721" stroke="black" stroke-linecap="round"/>
<path d="M182.082 119.985C182.082 120.652 181.741 122.628 182.323 123.151C182.678 123.469 182.896 123.557 182.952 124.088C183.05 125.008 183.823 125.665 183.823 126.621C183.823 127.789 184.734 130.678 185.226 131.838C186.677 135.257 189.158 137.944 189.942 141.64C190.583 144.659 192.531 146.945 192.531 150.302C192.531 153.671 192.966 156.76 192.966 160.103C192.966 163.412 192.966 166.722 192.966 170.031C192.966 177.854 190.464 185.219 189.894 192.977C189.425 199.364 187.557 205.623 186.846 211.947C186.412 215.81 184.983 219.79 184.694 223.572C184.549 225.468 183.388 227.27 183.388 229.144C183.388 230.261 183.43 231.132 182.952 232.132" stroke="black" stroke-linecap="round"/>
<path d="M192.531 155.088C193.766 149.14 196.395 143.85 198.094 138.119C199.015 135.012 198.741 131.902 199.932 128.748C200.816 126.407 200.859 123.33 202.109 121.252C203.44 119.038 205.831 115.005 206.027 112.337C206.165 110.457 207.281 108.406 207.672 106.511C208.151 104.192 208.091 101.957 209.075 99.7239C209.593 98.5494 210.683 96.472 210.816 95.2664C211.304 90.8402 214.745 87.1409 216.694 83.2868C218.501 79.7127 220.49 76.0769 222.112 72.3963C222.818 70.7951 223.943 68.4737 225.16 67.3056C229.136 63.4886 232.184 56.9959 234.52 51.8816C235.584 49.553 237.05 47.3542 238.027 44.9673C239.291 41.8785 240.436 36.4947 242.816 34.2794C244.918 32.3236 245.917 29.0696 247.605 26.7574C249.012 24.831 250 23.4807 250 21.0588" stroke="black" stroke-linecap="round"/>
<path d="M250 21.0588C250 26.506 248.744 30.8062 246.71 35.6724C245.416 38.7698 243.151 42.3472 243.034 45.7778C242.899 49.7209 240.875 53.3243 239.986 57.0482C239.017 61.1086 238.274 65.0694 237.277 69.1291C236.413 72.647 233.891 76.4437 233.891 80.1209C233.891 83.8143 232.765 87.9914 231.376 91.2647C230.689 92.882 230.366 95.2234 229.997 96.9633C229.501 99.298 228.222 101.459 227.82 103.776C227.26 107.003 225.619 110.233 225.619 113.603" stroke="black" stroke-linecap="round"/>
<path d="M248.694 69.8383C247.015 72.9323 246.167 76.5379 244.34 79.5131C243.237 81.3104 242.1 83.3263 241.22 85.2623C239.654 88.705 237.712 93.0435 235.197 95.8236C230.822 100.66 229.527 107.112 226.393 112.691C225.05 115.082 222.998 117.252 222.136 119.96C220.985 123.576 219.958 127.609 218.653 131.281C217.605 134.23 217.988 137.283 217.25 140.297C216.785 142.197 216.041 144.213 216.041 146.199C216.041 148.41 214.866 151.759 214.275 153.923C214.137 154.431 213.498 154.393 213.428 155.088C213.347 155.903 213.11 156.759 212.969 157.57C212.544 160.019 211.219 162.403 210.478 164.763C209.604 167.544 208.746 170.763 208.639 173.678C208.538 176.438 206.752 179.08 205.858 181.681C204.434 185.823 203.558 189.992 202.447 194.294C201.748 197.005 200.819 199.657 200.271 202.399C199.952 203.99 199.616 207.133 198.843 208.426C198.242 209.434 198.96 210.805 198.408 211.846C197.807 212.978 198.19 215.265 198.19 216.531C198.19 221.378 197.083 225.723 196.473 230.511C196.014 234.119 194.707 237.595 194.707 241.25C194.707 243.833 194.707 246.417 194.707 249" stroke="black" stroke-linecap="round"/>
<path d="M249.129 70.75C247.583 76.4639 244.675 82.4204 243.929 88.2761C243.6 90.8638 243.141 93.3528 242.599 95.9248C241.987 98.8282 241.328 103.5 239.745 106.106C238.006 108.967 236.498 113.925 236.044 117.25C235.554 120.84 234.695 124.412 233.988 127.989C233.522 130.346 232.775 133.064 231.956 135.333C231.378 136.936 231.359 138.776 230.747 140.297C228.703 145.381 227.017 150.848 226.079 156.253C225.541 159.351 225.287 162.988 225.184 166.131C225.065 169.745 222.64 173.52 221.725 176.971C220.734 180.706 219.56 184.298 218.435 187.962C217.014 192.593 215.674 197.362 214.396 202.044C213.736 204.462 212.993 206.253 212.993 208.882C212.993 220.484 207.769 231.179 207.769 242.618" stroke="black" stroke-linecap="round"/>
<path d="M122 25.6177C122.938 27.8958 123.718 30.4823 125.483 32.228C126.474 33.2085 127.41 34.3466 127.998 35.6471C128.621 37.0227 130.128 39.6886 130.272 41.1177C130.523 43.6178 133.137 48.2209 134.844 50.0074C140.256 55.6752 141.393 64.9516 146.623 70.75C147.65 71.8884 148.342 73.595 149.429 74.853C150.933 76.5946 152.058 78.6265 153.589 80.3236C155.976 82.9699 155.401 86.5658 157.048 89.6691C159.193 93.7133 163.361 98.4011 163.361 103.346C163.361 107.749 163.796 112.392 163.796 116.895C163.796 121.6 163.532 126.17 163.361 130.825C163.246 133.947 163.65 139.413 162.49 142.146C161.568 144.318 162.627 146.781 161.837 148.934C161.328 150.32 161.619 152.244 161.619 153.721C161.619 159.56 165.141 164.416 165.537 170.234C165.613 171.336 166.332 173.205 166.747 174.235C167.327 175.677 167.305 177.76 167.811 179.351C168.812 182.495 170.479 185.783 171.173 189.051C171.876 192.364 174.209 194.62 175.116 197.941C175.925 200.908 177.728 203.899 177.728 207.059" stroke="black" stroke-linecap="round"/>
<path d="M194.707 247.177V276.353" stroke="black" stroke-linecap="round"/>
<path d="M190.354 195.662C189.863 198.357 189.483 200.713 189.483 203.437C189.483 206.635 188.335 209.837 188.177 212.985C187.773 221.019 185.726 229.36 183.896 237.147C183.146 240.335 182.524 243.558 181.888 246.771C181.362 249.43 180.436 252.576 180.34 255.281C180.102 262.018 179.469 268.589 179.469 275.441" stroke="black" stroke-linecap="round"/>
<path d="M207.769 239.882C207.769 246.063 205.592 251.585 205.592 257.662C205.592 262.98 205.592 268.299 205.592 273.618" stroke="black" stroke-linecap="round"/>
<path d="M176.857 202.956C176.753 207.444 176.422 211.971 176.422 216.531C176.422 224.565 174.68 232.863 174.68 240.794C174.68 245.175 174.926 249.642 174.68 254.015C174.64 254.733 174.003 255.723 173.834 256.522C173.512 258.037 173.81 259.951 173.81 261.486C173.81 264.014 174.245 266.779 174.245 269.059" stroke="black" stroke-linecap="round"/>
<path d="M122.435 26.0735C126.34 28.6974 131.68 32.6944 133.852 37.0147C135.078 39.4548 137.772 41.9399 139.85 43.6503C141.43 44.95 142.417 47.0968 143.986 48.4117C144.75 49.0517 145.979 50.7149 146.478 51.6029C147.148 52.7957 148.61 53.8372 149.38 55.0473C151.604 58.5401 152.564 62.3822 155.427 65.3807C157.207 67.2449 158.299 70.3316 159.539 72.5735C161.001 75.2183 164.418 77.4436 165.078 80.5514C165.409 82.1092 165.409 86.1425 166.626 87.1617C168.219 88.4964 167.445 92.719 169.02 93.5441" stroke="black" stroke-linecap="round"/>
<path d="M193.401 180.162C194.5 173.518 197.259 167.34 198.65 160.787C199.554 156.529 200.367 152.322 200.367 147.693C200.367 143.29 202.916 138.635 203.826 134.346C204.683 130.31 204.751 126.746 206.366 123.177C207.122 121.506 207.543 119.749 208.301 118.162C209.304 116.062 209.281 113.685 210.139 111.374C212.153 105.951 213.918 100.798 215.702 95.2664C217.059 91.0589 218.135 85.768 220.177 81.9191C220.821 80.706 221.122 78.97 221.29 77.5629C221.419 76.4789 221.642 75.4959 221.701 74.3971C221.748 73.5019 222.571 73.1132 222.571 72.1177" stroke="black" stroke-linecap="round"/>
<path d="M216.912 94C221.608 93.3603 225.839 91.7958 229.973 90.3529" stroke="black" stroke-linecap="round"/>
<path d="M214.299 103.118C217.478 102.607 227.07 102.85 229.102 99.4706" stroke="black" stroke-linecap="round"/>
<path d="M209.075 114.766C214.217 114.766 220.249 115.819 224.748 113.147" stroke="black" stroke-linecap="round"/>
<path d="M205.592 122.201C209.262 122.622 218.966 124.586 221.265 121.353" stroke="black" stroke-linecap="round"/>
<path d="M203.85 133.056C208.276 133.056 213.811 133.707 217.782 132.294" stroke="black" stroke-linecap="round"/>
<path d="M201.238 143.535C203.757 144.344 204.457 144.519 206.283 143.016C206.972 142.449 208.288 142.686 209.236 142.686C211.283 142.686 212.931 141.412 215.17 141.412" stroke="black" stroke-linecap="round"/>
<path d="M201.238 152.353C201.362 155.604 204.704 155.697 208.036 153.99C209.72 153.128 213.048 153.516 215.17 153.516" stroke="black" stroke-linecap="round"/>
<path d="M197.755 163.294C199.144 166.032 200.523 167.999 204.939 166.321C207.056 165.517 208.332 165.527 210.816 165.527" stroke="black" stroke-linecap="round"/>
<path d="M196.449 174.691C198.633 175.584 202.049 176.059 204.286 176.059" stroke="black" stroke-linecap="round"/>
<path d="M233.456 99.264C235.416 99.2139 237.07 98.4107 238.874 97.871C240.375 97.4218 240.307 97.5367 240.857 99.264" stroke="black" stroke-linecap="round"/>
<path d="M228.667 108.132C231.092 111.993 230.46 106.035 233.673 107.904C234.355 108.301 235.108 108.158 235.826 108.588C236.432 108.951 236.795 109.653 237.374 109.956" stroke="black" stroke-linecap="round"/>
<path d="M221.265 119.529C221.739 121.068 223.951 124.708 227.629 122.465C229.357 121.412 232.832 121.889 235.197 121.889" stroke="black" stroke-linecap="round"/>
<path d="M217.782 132.381C222.261 132.381 223.012 132.554 225.492 130.159C226.633 129.057 228.151 129.673 229.364 130.411C230.825 131.299 231.753 132.093 232.585 133.206" stroke="black" stroke-linecap="round"/>
<path d="M217.347 142.779C219.3 142.73 219.941 141.412 221.483 141.412C222.822 141.412 223.173 141.625 224.313 142.222C225.311 142.745 228.451 142.779 229.537 142.779" stroke="black" stroke-linecap="round"/>
<path d="M196.014 231.221C198.911 231.147 199.764 230.196 201.141 227.574C201.736 226.44 202.661 226.206 203.85 226.206C206.198 226.206 206.93 227.996 209.075 225.75" stroke="black" stroke-linecap="round"/>
<path d="M199.497 204.324C201.042 204.324 204.712 205.255 205.592 203.184C206.001 202.22 207.376 202.531 208.204 202.145C208.956 201.795 210.219 202.044 211.034 202.044C212.02 202.044 212.213 201.541 212.993 201.132" stroke="black" stroke-linecap="round"/>
<path d="M203.415 190.191C206.463 190.191 209.51 190.191 212.558 190.191C213.618 190.191 213.585 189.074 214.203 188.266C215.537 186.52 216.375 186.597 218.218 185.632" stroke="black" stroke-linecap="round"/>
<path d="M205.156 181.529C207.438 181.529 208.315 181.203 210.187 180.643C211.153 180.354 212.113 178.845 212.993 178.794C214.251 178.721 215.362 178.338 216.694 178.338C218.541 178.338 218.388 176.059 219.959 176.059" stroke="black" stroke-linecap="round"/>
<path d="M209.075 169.339C212.987 169.339 221.717 171.002 223.878 166.941" stroke="black" stroke-linecap="round"/>
<path d="M225.619 156C222.383 156.428 218.716 158.026 215.526 158.026C213.08 158.026 210.816 157.843 210.816 159.647" stroke="black" stroke-linecap="round"/>
<path d="M215.17 150.43C217.462 150.43 221.074 150.689 223.35 150.37C225.366 150.087 226.053 149.618 228.231 149.618" stroke="black" stroke-linecap="round"/>
<path d="M197.32 219.368C199.743 219.368 203.967 220.135 206.124 218.659C207.808 217.506 208.817 217.088 210.816 217.088" stroke="black" stroke-linecap="round"/>
<path d="M210.816 210.25C205.761 211.884 202.467 212.985 197.32 212.985" stroke="black" stroke-linecap="round"/>
<path d="M192.531 241.706C197.886 239.687 202.25 238.971 208.204 238.971" stroke="black" stroke-linecap="round"/>
<path d="M194.272 250.368C195.945 250.368 198.046 250.73 199.714 250.342C200.266 250.214 201.206 249.296 201.843 249C203.025 248.45 204.205 248.544 205.592 248.544" stroke="black" stroke-linecap="round"/>
<path d="M195.578 259.941C198.496 260.43 201.347 260.397 204.286 260.397" stroke="black" stroke-linecap="round"/>
<path d="M189.918 211.618H198.19" stroke="black" stroke-linecap="round"/>
<path d="M190.354 198.853C191.448 199.999 192.405 201.277 193.837 201.943C194.561 202.28 195.473 201.893 196.231 202.069C198.296 202.55 197.42 205.235 199.932 205.235" stroke="black" stroke-linecap="round"/>
<path d="M201.238 192.926C198.317 193.925 195.195 194.135 192.119 193.813C190.627 193.657 190.575 192.59 189.918 191.559" stroke="black" stroke-linecap="round"/>
<path d="M192.531 181.073C195.12 182.132 200.732 180.925 202.109 183.809" stroke="black" stroke-linecap="round"/>
<path d="M206.027 174.691C204.583 174.691 195.578 175.644 195.578 173.323" stroke="black" stroke-linecap="round"/>
<path d="M186.435 218.499C189.476 218.499 194.183 216.742 196.884 219.824" stroke="black" stroke-linecap="round"/>
<path d="M186 228.029H195.578" stroke="black" stroke-linecap="round"/>
<path d="M186 235.323C188.801 235.793 191.033 236.691 193.837 236.691" stroke="black" stroke-linecap="round"/>
<path d="M167.279 71.2059C170.428 71.2059 171.916 71.4535 174.704 72.5483C175.95 73.0376 176.874 73.9412 178.163 73.9412" stroke="black" stroke-linecap="round"/>
<path d="M165.537 78.9559C167.888 81.4943 169.562 83.5148 173.156 83.5148C174.463 83.5148 175.769 83.5148 177.075 83.5148C178.281 83.5148 178.584 84.4265 179.905 84.4265" stroke="black" stroke-linecap="round"/>
<path d="M167.279 92.1765C169.753 92.8911 171.977 93.5442 174.511 93.5442C176.765 93.5442 178.867 93.1239 180.775 94.4559" stroke="black" stroke-linecap="round"/>
<path d="M170.762 103.573C174.298 107.064 177.592 107.221 182.082 107.221" stroke="black" stroke-linecap="round"/>
<path d="M161.184 56.6177C164.85 57.4394 167.587 59.1043 171.4 59.1043C173.869 59.1043 174.145 60.0104 175.116 62.0883" stroke="black" stroke-linecap="round"/>
<path d="M178.163 152.353C179.326 152.353 182.653 152.891 183.823 152.125C184.834 151.463 185.655 150.985 186.871 150.985" stroke="black" stroke-linecap="round"/>
<path d="M186 136.397C186 141.836 188.177 146.858 188.177 152.353C188.177 155.772 188.612 159.277 188.612 162.61C188.612 166.63 189.483 170.493 189.483 174.463C189.483 177.351 189.483 180.238 189.483 183.125C189.483 187.207 188.315 190.208 186.774 193.838C185.278 197.362 185.226 201.635 185.129 205.489C185.053 208.518 182.726 212.029 181.743 214.91C180.988 217.124 180.34 217.685 180.34 220.178C180.34 222.035 180.34 223.893 180.34 225.75" stroke="black" stroke-linecap="round"/>
<path d="M177.728 162.378C179.835 162.752 182.795 164.1 184.602 162.606C185.744 161.661 186.648 160.98 188.177 160.559" stroke="black" stroke-linecap="round"/>
<path d="M189.483 183.353C185.927 183.902 182.618 184.721 179.034 184.721" stroke="black" stroke-linecap="round"/>
<path d="M159.442 56.1618C158.927 53.2261 157.265 50.78 157.265 47.9559C157.265 45.9259 156.782 43.7069 155.427 42.1307C154.319 40.8416 154.653 37.4023 154.653 35.6471C154.653 33.7185 153.512 30.4362 152.476 28.8088" stroke="black" stroke-linecap="round"/>
<path d="M177.728 175.603C178.192 175.603 181.46 176.051 181.985 175.502C182.433 175.032 182.49 174.201 183.194 173.779C184.699 172.879 186.224 172.412 188.177 172.412" stroke="black" stroke-linecap="round"/>
<path d="M239.116 56.1617C237.924 56.6793 236.832 57.1632 235.85 57.9853C235.35 58.4041 234.752 59.178 234.109 59.3276C233.385 59.496 231.114 59.6975 230.844 60.2647" stroke="black" stroke-linecap="round"/>
<path d="M233.02 78.5C230.269 78.5 228.963 78.19 227.143 80.0956C226.071 81.218 224.607 81.6977 223.539 82.7043C222.367 83.8091 218.958 83.5147 217.347 83.5147" stroke="black" stroke-linecap="round"/>
<path d="M224.313 69.8382C227.042 69.3717 229.846 69.2622 231.811 67.2042C233.278 65.668 234.848 64.8235 236.939 64.8235" stroke="black" stroke-linecap="round"/>
<path d="M163.796 121.809C166.73 117.877 169.416 118.162 173.81 118.162" stroke="black" stroke-linecap="round"/>
<path d="M175.116 130.471C173.485 130.471 172.08 130.161 171.004 131.61C170.486 132.307 169.99 133.149 169.021 133.206C167.192 133.312 165.4 132.75 163.796 132.75" stroke="black" stroke-linecap="round"/>
<path d="M162.49 146.882C164.823 146.882 167.439 145.55 169.214 143.691C170.746 142.087 172.191 142.324 174.245 142.324" stroke="black" stroke-linecap="round"/>
<path d="M176.857 156C174.803 155.957 172.818 155.417 170.762 155.544C169.783 155.604 169.106 157.531 168.488 158.178C167.275 159.448 163.257 159.647 161.619 159.647" stroke="black" stroke-linecap="round"/>
<path d="M176.857 170.132C173.985 170.132 171.784 169.559 169.214 168.79C167.111 168.161 166.407 170.132 164.667 170.132" stroke="black" stroke-linecap="round"/>
<path d="M178.163 181.074C174.565 181.074 171.272 179.25 167.714 179.25" stroke="black" stroke-linecap="round"/>
<path d="M179.034 192.015C176.742 190.197 176.224 189.807 175.527 187.253C175.355 186.624 170.931 187 170.327 187" stroke="black" stroke-linecap="round"/>
<path d="M193.401 246.721C191.926 245.597 182.517 239.769 182.517 243.985" stroke="black" stroke-linecap="round"/>
<path d="M194.272 255.838C192.692 255.838 191.064 255.936 189.483 255.838C188.587 255.783 187.691 254.521 186.871 254.471C184.464 254.322 182.425 252.647 179.905 252.647" stroke="black" stroke-linecap="round"/>
<path d="M134.626 50.6911C135.679 50.2225 136.544 49.7971 137.335 48.9689C137.759 48.5243 137.62 47.6896 138.327 47.5253C139.581 47.2333 140.709 47.0441 142.027 47.0441" stroke="black" stroke-linecap="round"/>
<path d="M147.252 52.9706C145.688 53.6097 143.535 53.7132 142.245 54.7941C141.557 55.3701 141.058 57.1765 140.286 57.9853" stroke="black" stroke-linecap="round"/>
<path d="M148.558 70.2941C148.558 67.5371 149.283 65.845 150.952 63.7091C151.607 62.8717 152.956 62.4512 153.347 61.6323" stroke="black" stroke-linecap="round"/>
<path d="M158.136 72.5735C156.05 73.0529 152.476 75.8442 152.476 78.5" stroke="black" stroke-linecap="round"/>
<path d="M156.83 88.9853C159.778 85.8983 162.712 82.7146 166.408 80.7794" stroke="black" stroke-linecap="round"/>
<path d="M163.796 99.0147C165.185 96.53 166.545 94.1702 167.714 91.7206" stroke="black" stroke-linecap="round"/>
<path d="M163.796 113.147C164.195 110.873 164.468 106.765 167.279 106.765C169.614 106.765 171.197 106.455 171.197 103.573" stroke="black" stroke-linecap="round"/>
<path d="M77.1945 378.855C73.585 366.091 83.1748 353.413 96.4398 353.413H126.857C139.72 353.413 149.238 365.379 146.345 377.912L140.669 402.498C138.575 411.572 130.494 418 121.182 418H103.392C94.4426 418 86.5823 412.054 84.147 403.442L77.1945 378.855Z" fill="#988C69"/>
<ellipse cx="111.331" cy="359.564" rx="31.4113" ry="9.99556" fill="#353434"/>
<path d="M94.1871 248.076C90.2779 251.241 88.0881 253.723 85.2944 258.071C84.2912 259.632 83.4574 261.44 82.5155 263.069C81.5803 264.686 81.8081 266.791 80.9716 268.238C80.4322 269.17 80.5747 273.427 80.3232 274.645C79.8633 276.872 80.8572 279.764 80.1688 281.907C78.8253 286.088 79.1807 291.048 79.1807 295.747L79.1808 333.422C79.1808 340.228 80.9355 343.232 82.9479 348.8C84.0725 351.911 84.7388 358.556 84.7388 361.871M93.6314 248.076C99.3307 248.076 107.526 247.404 107.526 258.071M106.415 254.996C107.633 259.314 109.938 264.517 110.305 268.836C110.503 271.164 111.973 272.62 111.973 274.987C111.973 277.154 111.574 280.17 112.003 282.248C113.647 290.208 112.528 301.025 112.528 309.587L112.528 325.349C112.528 328.324 113.457 335.725 111.973 338.036C110.194 340.803 111.196 346.795 110.83 350.338C110.714 351.465 110.673 356.237 110.182 357.087C109.33 358.56 108.638 360.698 108.638 362.64M112.528 316.507C112.528 311.906 112.927 308.833 113.609 304.589C114.142 301.271 114.346 297.377 115.431 294.209C117.088 289.368 120.903 283.418 124.2 281.138M123.644 281.138H131.703C133.647 281.138 134.597 283.218 135.872 284.982C136.84 286.321 137.621 289.533 138.373 290.364C139.346 291.442 139.173 294.186 140.318 294.978C142.146 297.586 144.209 300.129 144.209 303.82V312.662C144.209 315.799 145.221 326.571 143.097 328.04M143.097 326.502C143.005 332.588 141.43 338.645 141.43 344.571C141.43 347.55 141.173 357.436 139.206 358.796M129.202 283.444C130.667 293.828 130.314 304.302 130.314 314.969C130.314 321.318 130.212 326.269 128.646 332.226C127.744 335.657 126.423 338.873 126.423 342.649C125.673 348.095 125.378 352.245 123.768 357.258C123.18 359.089 123.088 364.624 123.088 366.484M96.9662 252.689C96.4031 256.779 95.2988 261.616 95.2988 265.76C95.2988 268.289 95.6088 271.139 94.8666 273.449C93.1659 278.743 93.0757 284.636 93.0757 290.364C93.0032 296.076 91.9641 301.569 91.9641 307.28V319.582C91.9641 327.037 92.5199 334.556 92.5199 341.88C93.3696 349.08 93.1483 356.022 94.743 362.64M99.7451 249.613C106.911 259.836 108.082 271.793 108.082 285.751V311.124C108.082 313.854 106.415 315.915 106.415 318.813L106.415 365.716M98.0778 248.844C97.6408 250.303 96.8715 254.292 95.8547 254.996M92.5198 261.147L94.743 263.453C93.9597 264.84 93.3353 266.529 91.9641 266.529M93.0757 285.751C91.8056 286.437 90.5665 287.289 89.1851 287.289M90.8525 287.289C89.67 286.921 88.988 286.51 88.0735 285.751M93.0756 286.52C90.7951 288.814 89.7408 288.891 89.7408 292.671M89.1851 283.444C90.1114 284.446 90.7188 285.328 91.4083 286.52M88.0735 310.356C93.2131 310.178 89.7409 311.708 89.7409 315.738M89.1851 332.653C91.1846 332.169 93.0292 332.541 91.4083 335.344C90.7493 336.484 91.1601 338.207 90.2967 338.804M94.1872 245.769C94.8097 246.442 96.9662 249.886 96.9662 249.613M96.9662 249.613V245M96.9662 249.613C98.2366 249.028 99.2204 247.67 100.301 246.538M104.192 257.302C104.192 246.318 103.804 258.071 105.859 258.071M109.194 277.293C109.081 277.493 106.039 281.374 107.279 281.864C108.164 282.214 108.745 281.435 109.194 282.676M109.472 291.133C108.836 291.773 107.02 293.376 107.804 293.44C108.422 293.49 108.959 293.854 109.472 294.209M110.027 309.202C109.411 309.822 107.989 310.461 107.588 311.509C107.234 312.435 108.529 312.779 108.916 313.047M125.867 279.6C128.412 279.6 128.924 279.876 128.924 283.444M131.147 276.909C129.825 278.295 128.924 279.619 128.924 281.907M127.535 276.909C128.505 279.11 129.202 279.822 129.202 282.291M140.874 287.673C139.902 288.723 139.206 289.576 139.206 291.326C139.206 292.297 140.622 291.902 141.152 291.902M145.876 299.207C145.568 299.303 142.953 300.662 144.07 301.898C144.592 302.476 145.517 303.436 146.154 303.436M146.71 317.66C145.734 318.187 144.491 318.364 144.78 320.159C144.959 321.276 145.882 321.136 146.154 321.889M143.653 333.807C140.482 335.518 143.121 335.412 143.931 337.651M143.931 348.031C141.958 348.031 141.708 347.674 141.708 350.338C141.708 351.58 142.252 352.255 143.097 352.644M143.931 351.491C143.149 350.646 142.524 349.553 141.708 348.8M127.535 290.364C127.587 290.364 130.57 290.016 129.974 291.048C129.595 291.703 128.925 291.515 128.646 292.287M128.091 308.818C129.26 308.818 131.059 308.442 130.252 310.954C129.966 311.843 129.143 312.138 128.924 313.047M126.979 325.349C127.743 326.439 129.825 328.755 128.77 329.172C127.941 329.5 126.732 329.193 125.867 329.193M128.646 329.962C128.01 330.603 127.349 331.052 126.701 331.5M122.811 342.264C123.536 343.048 124.044 343.878 124.879 344.208C125.22 344.343 125.837 344.614 126.084 345.041C126.651 346.023 123.741 346.109 123.366 346.109M119.198 281.138C119.198 281.381 119.56 285.635 119.321 285.73C118.777 285.945 117.76 284.18 117.253 283.829M114.196 294.209C113.924 293.323 113.549 291.766 113.146 291.048C112.937 290.675 114.315 290.749 114.474 290.749M114.474 280.369C114.295 280.052 113.383 278.114 113.084 278.062C112.819 278.016 112.386 277.407 112.251 277.08C111.501 275.265 113.015 275.756 113.918 275.756M112.25 266.913C111.555 266.697 109.754 266.073 109.487 264.778C109.195 263.364 110.527 263.609 110.861 262.684M107.804 251.536C107.589 253.059 107.526 254.425 107.526 255.957C107.526 256.9 108.688 256.533 109.194 256.533M86.1283 250.767C86.2245 251.448 86.9914 254.186 86.6841 254.611C86.2873 255.16 85.028 255.503 84.4609 255.764M78.9029 263.838C79.3302 265.229 80.8893 266.618 80.5549 268.238C80.3771 269.098 78.2972 268.836 77.7913 268.836M76.1239 281.907C76.6406 282.186 79.1808 283.05 79.1808 284.213C79.1808 285.606 77.5134 285.476 77.5134 286.904M76.6798 294.978C78.0393 295.803 79.8773 296.822 78.9647 299.207C78.6015 300.156 78.0693 301.177 78.0693 302.282M75.8461 299.976C76.616 299.56 77.2537 299.207 78.0693 299.207M78.625 319.582C78.0226 318.515 76.5021 317.553 76.1239 316.507M76.6798 321.12H78.903M75.2903 331.5C76.4626 331.5 77.4558 331.285 78.4861 332.077C78.9781 332.455 79.8507 333.671 78.9029 334.49C77.88 335.375 76.9208 337.369 76.4019 338.804M79.7366 345.724H81.9597C83.0872 345.724 82.3161 347.747 81.9597 348.501C81.3339 349.825 80.8481 349.82 80.8481 351.491M107.526 328.424C106.903 329.098 105.156 330.591 106.538 331.137C106.941 331.296 107.933 332.24 108.082 332.653M108.36 339.958C107.888 340.34 105.672 341.023 106.353 341.965C106.681 342.419 107.051 342.871 107.248 343.418M90.8525 351.107C91.4519 351.268 93.6513 351.299 93.3382 352.815C93.1269 353.838 92.5199 354.133 92.5199 355.336M121.421 352.644C121.786 352.743 123.025 352.711 123.089 353.413C123.111 353.662 123.332 354.086 123.521 354.161C124.568 354.575 123.897 354.133 123.428 354.652C122.746 355.407 121.78 356.104 120.865 356.104" stroke="black" stroke-linecap="round"/>
</svg>
