<svg width="102" height="101" viewBox="0 0 102 101" fill="none" xmlns="http://www.w3.org/2000/svg">
<path d="M1 44.5979C1.83486 43.6086 2.99557 42.3121 4.05411 41.6659C5.00456 41.0857 6.50406 40.9925 7.3301 40.152C8.33007 39.1347 9.22365 38.122 10.3973 37.3634C11.2373 36.8205 12.0424 36.5493 12.9293 36.2161C13.3157 36.071 14.9224 35.6306 15.0959 35.26C15.8088 33.7369 17.4952 33.0803 18.0978 31.6906C18.4269 30.9317 18.3849 30.2993 18.3849 29.3959C18.3849 28.4641 17.2154 28.8223 16.6229 28.8223C15.0908 28.8223 14.2362 29.4576 13.1642 30.7664C11.5661 32.7176 8.98767 35.3493 8.98767 38.2877" stroke="black" stroke-linecap="round" stroke-linejoin="round"/>
<path d="M4.75893 41.1561C4.40627 38.8957 4.524 36.5673 4.524 34.2722" stroke="black" stroke-linecap="round" stroke-linejoin="round"/>
<path d="M4.52393 34.2723C5.6571 32.5014 7.34816 32.5593 8.64828 31.2606C9.53964 30.3702 10.4334 29.53 11.3369 28.6632C11.8506 28.1705 12.3828 27.0637 12.9945 26.8147C13.6457 26.5497 14.0216 26.0591 14.626 25.7312C15.3973 25.3126 16.3505 25.1993 17.158 24.8707C18.7272 24.2321 20.7149 22.8227 21.9089 21.365" stroke="black" stroke-linecap="round" stroke-linejoin="round"/>
<path d="M21.9089 21.3648C21.9089 19.9132 22.4215 17.636 20.8517 17.636C19.7553 17.636 18.659 17.636 17.5626 17.636C16.3789 17.636 15.475 18.1361 14.3911 18.2096C13.7491 18.2532 12.1974 18.4657 11.7546 19.0064C11.2554 19.6159 10.401 20.2137 9.80989 20.7911C9.10589 21.4787 8.50691 22.3038 7.91739 23.2292C6.71905 25.1102 6.16846 27.494 6.16846 29.9696" stroke="black" stroke-linecap="round" stroke-linejoin="round"/>
<path d="M6.16855 29.9699C6.16855 28.0138 5.76333 27.2792 5.17662 25.6675C4.7404 24.4691 4.9939 22.6804 4.9939 21.365C4.9939 19.7771 5.22788 19.2309 6.11635 18.1462C6.84165 17.2606 6.99725 15.9938 7.86528 15.3416C10.0556 13.696 12.2975 13.5179 14.861 13.3338C16.1898 13.2384 17.4872 12.7601 18.8549 12.7601C19.4434 12.7601 21.4433 12.463 21.674 11.8997" stroke="black" stroke-linecap="round" stroke-linejoin="round"/>
<path d="M21.6738 11.8997C22.8455 9.90935 21.0886 10.4655 19.9118 10.4655C18.9329 10.4655 17.9541 10.4655 16.9752 10.4655C14.9931 10.4655 13.3951 11.463 12.5115 13.6207" stroke="black" stroke-linecap="round" stroke-linejoin="round"/>
<path d="M10.1624 13.9073C10.8522 11.7491 10.4007 9.52796 11.5719 7.74049C11.9126 7.22064 12.4707 6.87983 12.7466 6.29041C13.2222 5.27425 13.7591 5.41465 14.3911 4.72878C15.4579 3.5711 16.7459 2.87661 18.0326 2.0039C18.8066 1.47889 19.5117 1.57366 20.3819 1.57366C21.1496 1.57366 21.4044 1 22.1439 1" stroke="black" stroke-linecap="round" stroke-linejoin="round"/>
<path d="M22.1438 1C23.6995 1 25.8025 1.0052 26.7902 2.21106C27.3549 2.90053 28.2893 4.52941 28.5 5.42992C28.5454 5.62397 29.2262 6.94233 29.3092 7.02342C29.8245 7.52669 29.6616 8.4491 29.6616 9.17463C29.6616 9.96753 29.566 10.7471 29.8965 11.4533C30.2139 12.1314 30.8363 12.0595 30.8363 13.0468" stroke="black" stroke-linecap="round" stroke-linejoin="round"/>
<path d="M12.5115 65.8233C12.5115 64.7285 12.9241 62.0065 11.9372 61.2978C11.2719 60.82 10.8643 60.2109 10.3449 59.5768C9.2662 58.2598 7.97962 56.5291 7.34301 54.7804C6.68955 52.9853 4.9578 52.1172 4.51078 50.207C4.30511 49.3282 3.67813 48.2264 3.34918 47.3228C2.94607 46.2155 2.04254 45.8172 1.46973 44.8848" stroke="black" stroke-linecap="round" stroke-linejoin="round"/>
<path d="M12.7466 65.5367C12.9084 65.0718 13.4467 62.8016 13.7385 62.4453C13.8915 62.2586 15.0847 62.1124 15.3308 62.0947C15.7821 62.0623 16.3236 61.425 16.7404 61.1705C17.3532 60.7964 18.0523 60.6606 18.7373 60.6606C21.3305 60.6606 23.035 59.6864 25.198 58.366" stroke="black" stroke-linecap="round" stroke-linejoin="round"/>
<path d="M25.198 58.366C26.7878 58.0048 28.2073 57.6573 29.6617 56.8681C30.2807 56.5322 32.011 55.0597 32.011 54.3503" stroke="black" stroke-linecap="round" stroke-linejoin="round"/>
<path d="M32.011 54.6371C31.9862 53.3937 31.621 52.364 31.3062 51.211C31.0943 50.4348 30.4043 49.7778 30.3665 48.9005C30.3127 47.6515 30.2641 45.751 29.8444 44.598C29.4566 43.5325 28.722 42.0276 28.722 40.8692C28.722 39.7792 28.3756 38.2792 27.73 37.491C27.3172 36.9871 27.349 34.7447 27.3124 33.9853C27.2447 32.5806 26.6469 31.9775 28.2521 31.9775C30.6054 31.9775 31.3062 35.2536 31.3062 37.7141C31.3062 38.9393 31.6658 40.3512 32.0632 41.4429C32.6606 43.0841 32.7158 44.4584 32.7158 46.2553C32.7158 47.6285 32.888 48.9552 32.9507 50.3346C33.0071 51.5733 33.6555 52.7834 33.6555 53.9997C33.6555 54.224 33.6714 55.7331 33.773 55.6091C34.111 55.1964 34.4135 54.2908 34.6475 53.7766C35.2466 52.4599 36.5453 51.2682 37.4144 50.2071C38.3288 49.0908 39.174 47.6728 39.816 46.319C40.4161 45.0535 41.4458 44.0991 42.1131 42.8771" stroke="black" stroke-linecap="round" stroke-linejoin="round"/>
<path d="M39.5288 36.5669C37.6869 33.6956 35.9537 30.5451 34.0732 27.739C33.9664 27.5797 33.7163 27.4331 33.6686 27.229C33.5371 26.6673 33.2119 25.9571 33.1856 25.3806C33.1351 24.2702 32.011 23.528 32.011 22.3689C32.011 21.2644 34.1102 21.6518 34.7127 21.6518C35.7071 21.6518 36.0064 23.1766 36.5269 23.8827C37.1113 24.6755 36.9711 26.1817 37.8843 26.8785C38.7605 27.5471 39.0589 29.2603 39.0589 30.4001C39.0589 30.9371 38.9308 31.7691 39.1111 32.2645C39.3379 32.8874 39.8708 32.937 40.0117 33.5393C40.1519 34.1385 40.4685 34.391 40.4685 35.1328C40.4685 35.802 40.4685 36.4713 40.4685 37.1406" stroke="black" stroke-linecap="round" stroke-linejoin="round"/>
<path d="M30.8364 12.4733C32.5135 13.9625 32.9724 14.2216 34.3082 12.4096C35.0022 11.4681 35.4504 10.1787 36.7097 10.1787" stroke="black" stroke-linecap="round" stroke-linejoin="round"/>
<path d="M36.7095 10.1784C38.3408 10.1784 39.9633 10.0573 41.5256 10.4811C43.0146 10.8851 42.8341 12.7411 43.3398 13.9071C43.594 14.4935 44.3041 15.5662 44.6971 16.0743C45.0224 16.4948 45.2341 17.7146 45.5325 17.9228C46.3598 18.5 46.1845 20.981 46.5766 21.9384" stroke="black" stroke-linecap="round" stroke-linejoin="round"/>
<path d="M46.5768 21.9385C46.867 23.7548 46.8117 25.5454 46.8117 27.3882C46.8117 28.5662 47.0805 31.4281 46.2244 32.2643C45.6237 32.851 45.4916 34.9584 45.1672 35.8497C44.7609 36.9658 44.4814 37.8479 44.2144 38.9889C44.1812 39.1307 43.9702 39.3421 43.875 39.4351C43.624 39.6802 43.8176 40.2399 43.7054 40.5824C43.5853 40.9488 43.5226 42.7583 43.5226 41.7297C43.5226 40.2589 43.0094 39.4405 42.2958 38.3515C41.067 36.4762 41.4835 33.4576 39.5288 32.2643" stroke="black" stroke-linecap="round" stroke-linejoin="round"/>
<path d="M44.6973 39.1482C45.1072 40.4306 45.2439 42.1853 45.7545 43.3072C46.1358 44.1453 46.5767 45.6796 46.5767 46.6058" stroke="black" stroke-linecap="round" stroke-linejoin="round"/>
<path d="M42.7891 41.6475C43.3004 42.9522 44.4121 44.8382 44.4121 46.2132C44.4121 47.9178 44.5532 49.5819 44.644 51.2151C44.7092 52.3878 45.5715 53.4759 45.5715 54.7723C45.5715 55.9001 45.9327 57.268 46.2671 58.3294" stroke="black" stroke-linecap="round" stroke-linejoin="round"/>
<path d="M49.396 43.164C48.3083 44.4919 46.9478 45.9184 46.0547 43.7376C45.3741 42.0756 47.2158 41.4681 48.0386 40.6462C48.863 39.8227 49.441 38.7438 50.153 37.7779C50.9104 36.7504 51.5809 36.0217 51.9802 34.5591" stroke="black" stroke-linecap="round" stroke-linejoin="round"/>
<path d="M43.7576 40.2957C45.3612 37.9557 46.903 35.9085 48.8739 34.2722C49.6217 33.6513 50.0509 33.6986 51.0404 33.6986C52.2648 33.6986 52.2081 33.7158 51.7452 34.8459" stroke="black" stroke-linecap="round" stroke-linejoin="round"/>
<path d="M47.0467 29.3962C48.8867 28.903 51.401 27.9862 51.2755 25.3806C51.2298 24.4337 47.2755 27.2977 46.8118 27.6752" stroke="black" stroke-linecap="round" stroke-linejoin="round"/>
<path d="M44.6973 15.0546C45.1291 14.6712 46.2157 14.0875 46.3548 13.493C46.4789 12.963 47.4209 12.9681 47.6992 12.6963C48.1069 12.298 50.2323 12.1998 50.688 12.6325C51.6773 13.5719 51.4389 14.678 51.7583 16.0426C51.9735 16.9625 53.0225 17.8868 53.3897 18.7834" stroke="black" stroke-linecap="round" stroke-linejoin="round"/>
<path d="M49.396 25.9541C49.396 26.719 49.396 27.4839 49.396 28.2487" stroke="black" stroke-linecap="round" stroke-linejoin="round"/>
<path d="M47.9863 34.8459C47.9863 36.9494 47.9863 39.0528 47.9863 41.1562" stroke="black" stroke-linecap="round" stroke-linejoin="round"/>
<path d="M47.2815 45.1716C47.2815 46.0321 47.2815 46.8926 47.2815 47.7531" stroke="black" stroke-linecap="round" stroke-linejoin="round"/>
<ellipse rx="14.6494" ry="7.07775" transform="matrix(0.968487 0.249066 -0.170015 0.985442 51.9559 90.3765)" fill="#F2EDDC"/>
<path d="M49.1609 46.319C49.1609 45.5542 49.1609 44.7893 49.1609 44.0244" stroke="black" stroke-linecap="round" stroke-linejoin="round"/>
<path d="M49.1609 38.5747C49.1609 37.2362 49.1609 35.8976 49.1609 34.5591" stroke="black" stroke-linecap="round" stroke-linejoin="round"/>
<path d="M50.3357 27.675C50.3357 27.0058 50.3357 26.3365 50.3357 25.6672" stroke="black" stroke-linecap="round" stroke-linejoin="round"/>
<path d="M53.3896 17.923C53.4178 16.5141 53.8595 15.0631 53.8595 13.764C53.8595 12.4547 54.6286 11.87 55.0864 10.7522C55.8235 8.95244 58.0356 9.03127 59.4979 9.03127" stroke="black" stroke-linecap="round" stroke-linejoin="round"/>
<path d="M59.4978 9.03117C61.2243 9.03117 62.2594 8.67508 63.1392 10.6087C63.5903 11.6 64.2724 12.3718 64.6663 13.3336" stroke="black" stroke-linecap="round" stroke-linejoin="round"/>
<path d="M64.6664 13.3335C67.4422 14.0774 67.3454 18.0921 68.7907 20.3608C69.4507 21.3968 70.4371 22.4324 70.7615 23.8187C71.038 25 70.5882 23.4553 70.3569 23.1494C70.2253 22.9754 70.0792 22.2899 69.9393 22.2411C69.6764 22.1494 69.3894 22.3022 69.1301 22.1615C67.5078 21.2812 66.2304 19.6362 64.5619 19.0541C63.8565 18.8081 59.2629 16.6531 59.2629 18.4964" stroke="black" stroke-linecap="round" stroke-linejoin="round"/>
<path d="M59.2629 18.4966C60.2656 20.0635 60.3457 19.858 61.7297 20.2335C62.5724 20.4621 63.3694 20.6141 64.2096 20.9346C66.3826 21.7637 68.132 21.8553 69.8349 23.8189C70.8031 24.9354 71.7143 26.0036 71.7143 27.8185C71.7143 29.4917 71.7143 31.1649 71.7143 32.838" stroke="black" stroke-linecap="round" stroke-linejoin="round"/>
<path d="M71.7144 32.8381C71.6952 31.6443 71.8922 29.3961 70.5528 29.3961C69.7029 29.3961 68.8323 28.6608 68.073 28.2488C67.0463 27.6917 66.0211 27.1847 65.0058 26.8306C64.0536 26.4984 62.7403 26.6618 61.8473 26.1772C60.9723 25.7025 59.8884 25.2061 59.3152 26.5278C59.0146 27.2212 59.1971 27.1015 59.8504 27.1015C60.4396 27.1015 60.4598 27.7224 60.8031 27.962C61.1328 28.1919 61.6116 28.8929 61.8473 29.2527C62.1301 29.6843 62.7768 29.9024 63.1394 30.2566C63.7004 30.8045 64.7869 31.8255 65.0841 32.5512C65.3281 33.1469 65.8411 33.2641 65.8411 33.9854C65.8411 34.5277 65.6735 35.4606 66.076 35.7063" stroke="black" stroke-linecap="round" stroke-linejoin="round"/>
<path d="M66.0761 35.7063C66.5447 38.3129 67.5071 41.1102 67.0028 43.8809C66.7681 45.17 65.9353 45.4807 65.0189 45.7294C64.2933 45.9263 63.7096 46.8926 63.022 46.8926" stroke="black" stroke-linecap="round" stroke-linejoin="round"/>
<path d="M63.0219 46.8926C63.657 45.568 65.0534 43.8765 65.3843 42.4627C65.8202 40.6 65.0088 40.9439 63.9486 39.8653C62.32 38.2082 60.223 37.1404 58.0884 37.1404" stroke="black" stroke-linecap="round" stroke-linejoin="round"/>
<path d="M58.0884 37.1404C58.0884 38.0871 58.0428 39.0611 58.0884 40.0087C58.1089 40.4335 58.6299 40.6796 58.7932 41.0285C59.3173 42.1483 60.1925 42.8121 60.8554 43.8012C61.0748 44.1287 61.0654 44.6313 61.3252 44.9485C61.5109 45.1752 61.9988 45.6038 62.0692 45.9046C62.1189 46.1169 63.4537 47.5864 63.7268 47.7531" stroke="black" stroke-linecap="round" stroke-linejoin="round"/>
<path d="M46.3418 49.1873C48.1957 50.1034 50.2957 51.2447 51.7452 52.916C52.107 53.3332 52.3822 54.0479 52.8155 54.3502C53.4739 54.8096 54.3048 54.6521 54.9168 55.0673C56.0207 55.816 55.3572 53.9561 56.6266 55.2107C57.2805 55.857 57.9784 56.5461 58.8976 56.3421C59.2602 56.2616 60.3104 55.2007 60.6204 54.8601C61.1206 54.3105 61.3886 54.3502 62.0822 54.3502" stroke="black" stroke-linecap="round" stroke-linejoin="round"/>
<path d="M74.2986 42.8771C75.2867 42.9065 75.5308 43.2132 76.2824 43.7376C76.7118 44.0371 76.4657 44.4633 76.7001 44.8211C77.0012 45.2806 78.0575 46.2238 78.0575 45.1717C78.0575 44.4301 77.8101 42.7649 78.2402 42.2397C78.8395 41.508 79.4671 41.3444 79.4671 40.0088C79.4671 38.7483 80.1664 38.3963 80.8767 37.9372C81.3624 37.6233 81.2738 37.4273 81.9339 37.4273C82.2212 37.4273 82.9438 37.5882 83.1738 37.3636C83.8744 36.6792 84.4207 35.9932 85.3404 35.9932C85.9635 35.9932 87.4547 35.6022 87.4547 36.5668" stroke="black" stroke-linecap="round" stroke-linejoin="round"/>
<path d="M87.2197 35.7063C88.157 37.2168 88.5043 38.7587 89.6865 39.8813C90.6821 40.8267 91.6756 42.2862 92.2708 43.5941C92.6575 44.444 93.92 45.2177 94.0327 46.319C94.099 46.966 94.8423 47.5401 94.9594 48.1834C95.0486 48.6736 95.3829 49.8681 95.6773 50.0478" stroke="black" stroke-linecap="round" stroke-linejoin="round"/>
<path d="M94.0328 46.6057C95.2307 47.1765 96.0104 47.6769 96.9694 48.6135C97.4405 49.0737 97.6104 50.3951 97.9091 51.0516C98.0933 51.4563 98.0678 52.2317 98.3137 52.5654C98.6076 52.9641 98.9994 53.2432 99.3187 53.633C100.337 54.8767 100.611 55.3102 100.611 57.075C100.611 59.3227 100.846 61.4485 100.846 63.688C100.846 64.3066 100.68 66.9742 99.8016 66.6678C99.4695 66.552 99.6711 63.8803 99.6711 63.3852C99.6711 62.4738 99.25 61.0858 98.7314 60.3735C98.0649 59.458 97.6834 58.1533 97.0347 57.2821C96.5036 56.5689 96.027 55.7581 95.6251 54.9238C95.0256 53.6796 94.0438 53.9492 93.3802 53.139C92.8218 52.4573 92.1571 51.8026 91.4485 51.4181C90.5862 50.9502 89.79 49.7608 88.8643 49.7608C88.1926 49.7608 86.6988 49.409 86.2278 49.9839C85.5994 50.7512 85.7184 51.195 84.6355 51.195" stroke="black" stroke-linecap="round" stroke-linejoin="round"/>
<path d="M84.6355 51.1951C85.1739 51.5959 85.9039 51.9844 86.3322 52.5655C86.5902 52.9154 86.3616 53.3991 86.5672 53.7128C87.0406 54.4353 87.3091 54.813 88.042 55.2107C89.4484 55.9738 91.357 56.0604 92.6362 57.3619C93.1471 57.8817 95.8832 59.198 95.9122 59.7999C95.9927 61.4699 96.6259 62.2434 97.7917 62.9551" stroke="black" stroke-linecap="round" stroke-linejoin="round"/>
<path d="M97.7919 62.9551C99.6222 65.7315 102.057 68.9221 100.507 72.7073C99.9513 74.0632 98.8431 74.7795 98.2617 76.0217C97.8162 76.9737 96.4608 78.5393 95.6775 79.0175" stroke="black" stroke-linecap="round" stroke-linejoin="round"/>
<path d="M95.6775 79.0174C96.0753 76.5288 96.1474 74.098 96.1474 71.5598C96.1474 69.3169 95.3182 67.966 94.033 66.3969C92.7422 64.821 92.0651 63.3657 90.2741 62.4451C89.4493 62.0211 86.6725 63.0523 86.2803 62.0945" stroke="black" stroke-linecap="round" stroke-linejoin="round"/>
<path d="M86.2801 62.0945C86.2801 62.468 86.0154 65.8343 86.4107 66.1101C87.3248 66.7478 88.051 67.7644 88.9688 68.4047C89.5249 68.7927 89.877 70.2221 90.026 70.8587C90.3635 72.3011 90.6954 72.3612 91.5661 73.4242C91.8786 73.8058 92.4726 73.9161 92.7277 74.3166C93.0234 74.7807 93.0111 75.4269 93.3281 75.8623C93.8548 76.5858 94.145 77.3846 94.7899 78.0932C95.5172 78.8924 95.6774 79.2214 95.6774 80.4516C95.6774 81.6621 95.5764 82.3227 96.6171 82.7462" stroke="black" stroke-linecap="round" stroke-linejoin="round"/>
<path d="M96.6171 82.7463C96.2432 85.2315 94.8394 85.7523 94.085 87.8455C93.9443 88.236 93.263 89.1041 92.9626 89.4709C92.5683 89.9523 92.4111 90.567 92.049 91.0644C91.3183 92.0679 90.5236 92.9444 89.8041 93.9327C88.8426 95.2532 88.6294 96.2036 88.6294 97.9483" stroke="black" stroke-linecap="round" stroke-linejoin="round"/>
<path d="M88.6295 97.0878C88.6295 95.7699 88.9335 93.4391 88.6164 92.0842C88.474 91.4758 87.0746 91.4075 86.6456 91.1918C85.0275 90.3784 84.0987 88.2348 82.5213 87.2718C79.7785 85.5975 76.8188 84.1413 74.0637 82.4595" stroke="black" stroke-linecap="round" stroke-linejoin="round"/>
<path d="M74.0637 82.4596C74.9695 79.0727 77.1178 75.9125 77.1178 72.2771C77.1178 69.1031 79.2322 66.8243 79.2322 63.8157" stroke="black" stroke-linecap="round" stroke-linejoin="round"/>
<path d="M72.1842 85.041C72.1842 82.6508 72.1842 80.2605 72.1842 77.8703C72.1842 76.7862 71.8728 74.9406 72.3016 73.9981C73.3106 71.7808 73.9608 69.453 75.2513 67.3851C76.0865 66.0467 77.0589 64.7479 78.0575 63.5288" stroke="black" stroke-linecap="round" stroke-linejoin="round"/>
<path d="M76.1781 52.916C76.1781 54.7052 76.1408 55.9574 75.0557 57.2822C74.3724 58.1164 73.7335 58.5752 73.2415 59.6565C72.2736 61.7835 70.8822 64.1897 69.6 65.9508C68.4233 67.5672 66.948 69.8528 66.559 71.9902C66.2571 73.6485 66.069 75.6016 65.6062 77.2965" stroke="black" stroke-linecap="round" stroke-linejoin="round"/>
<path d="M66.0759 73.2811C66.0759 70.0779 65.8957 67.2863 66.9635 64.3894C67.2872 63.511 67.1078 62.2073 67.616 61.4095C68.1535 60.5658 68.6627 59.6815 69.0256 58.6687C69.6814 56.8386 70.9043 55.7283 72.3016 54.7806C73.4638 53.9923 74.767 52.3425 76.178 52.3425" stroke="black" stroke-linecap="round" stroke-linejoin="round"/>
<path d="M65.6062 77.2966C67.1295 78.6492 67.7018 79.7549 68.4254 81.7425C69.0541 83.4697 71.9494 83.0827 71.9494 85.6147" stroke="black" stroke-linecap="round" stroke-linejoin="round"/>
<path d="M65.8412 71.8469C65.2255 70.6442 63.9617 69.3414 63.9617 67.8313C63.9617 66.9803 63.6445 65.4112 63.2047 64.74C62.1171 63.0801 62.0823 60.4605 62.0823 58.366" stroke="black" stroke-linecap="round" stroke-linejoin="round"/>
<path d="M47.2607 50.1401C47.3484 50.9629 47.395 50.8267 47.592 51.2775C47.6504 51.4112 47.8104 51.7299 47.8358 51.8926C47.932 52.5095 48.006 53.0926 48.006 53.7798" stroke="black" stroke-linecap="round" stroke-linejoin="round"/>
<path d="M61.9849 59.8458C61.9849 56.8235 61.6294 53.4083 62.5569 50.6261C62.9606 49.415 63.9121 47.1988 64.7304 46.5015C65.0712 46.211 65.3002 45.4786 65.5184 45.0111C65.9352 44.1181 66.3582 43.3282 66.7895 42.4462C67.5289 40.9338 67.9075 40.5052 69.1917 40.5052C70.0306 40.5052 70.8695 40.5052 71.7084 40.5052C72.4165 40.5052 73.5032 40.1234 73.831 41.1291C74.1346 42.0605 73.5359 44.6366 74.3394 45.1844" stroke="black" stroke-linecap="round" stroke-linejoin="round"/>
<path d="M47.0466 49.4741C47.4724 48.5861 48.132 47.6718 48.4562 46.7811C48.6171 46.3391 49.2139 46.1899 49.3959 45.7454" stroke="black" stroke-linecap="round" stroke-linejoin="round"/>
<path d="M12.9814 62.0948C12.9814 58.7325 14.1844 56.0713 14.626 52.8366C15.3708 47.3807 17.28 41.2774 19.5726 36.5192C21.7617 31.9755 23.7133 27.1824 26.1898 22.8629C27.464 20.6405 28.5668 18.1485 30.1314 16.2021C30.6192 15.5954 31.4735 14.2355 32.0109 13.9075" stroke="black" stroke-linecap="round" stroke-linejoin="round"/>
<path d="M52.9199 18.7834C52.9199 21.6339 53.5875 24.0425 53.9119 26.8147C54.1372 28.7409 54.3821 30.8007 54.695 32.7106C55.2776 36.2675 55.2692 39.5081 55.2692 43.1639C55.2692 45.0344 55.4254 47.041 55.2562 48.9005C55.1013 50.6025 54.3295 52.162 54.3295 53.7766" stroke="black" stroke-linecap="round" stroke-linejoin="round"/>
<path d="M88.8645 93.0721C88.2223 89.0049 87.5085 85.1143 85.9931 81.5989C85.5507 80.5728 85.5258 79.6773 85.3274 78.5872C85.1366 77.5387 84.6623 76.6817 84.6357 75.5755C84.5598 72.427 83.3267 69.3666 83.2261 66.1739C83.1466 63.651 83.2149 60.9199 82.2864 58.6526" stroke="black" stroke-linecap="round" stroke-linejoin="round"/>
<path d="M82.2864 58.6527C81.6919 55.4508 81.2789 51.7346 79.9893 48.9005C79.6251 48.1001 78.6591 46.1125 78.0576 45.7454" stroke="black" stroke-linecap="round" stroke-linejoin="round"/>
<path d="M49.396 58.6526C49.0058 56.5356 48.2797 54.8508 47.7515 52.916" stroke="black" stroke-linecap="round" stroke-linejoin="round"/>
<path d="M49.6309 51.4819C49.6309 54.2431 49.8658 57.1946 49.8658 59.8" stroke="black" stroke-linecap="round" stroke-linejoin="round"/>
<path d="M48.2212 54.3503C48.2212 53.0118 48.2212 51.6733 48.2212 50.3347" stroke="black" stroke-linecap="round" stroke-linejoin="round"/>
<path d="M42.3479 42.0167C41.909 40.4406 41.2173 38.3427 40.1814 37.2044C39.9422 36.9415 39.5909 36.877 39.346 36.5032C39.0932 36.1173 39.1636 35.5475 38.824 35.1328" stroke="black" stroke-linecap="round" stroke-linejoin="round"/>
<path d="M15.5659 46.3191C13.2255 46.7953 10.6138 47.3296 8.57015 48.9006C7.89303 49.4211 7.04404 50.2306 6.40356 50.6215" stroke="black" stroke-linecap="round" stroke-linejoin="round"/>
<path d="M18.1499 40.2957C20.2323 42.7775 22.1804 45.4447 22.8355 49.0439C23.0331 50.1296 22.8485 51.5153 22.8485 52.6293" stroke="black" stroke-linecap="round" stroke-linejoin="round"/>
<path d="M28.7247 67.4472C28.6715 62.7572 32.43 58.891 37.1196 58.8118L57.1497 58.4731C61.8392 58.3938 65.6839 62.1315 65.7371 66.8214L65.8162 73.7892C65.9321 84.0107 57.7406 92.4369 47.5199 92.6098V92.6098C37.2992 92.7826 28.9197 84.6365 28.8038 74.415L28.7247 67.4472Z" fill="#988C69"/>
<path d="M32.9507 57.5054C31.6047 57.7076 30.8669 57.4681 30.0141 58.5093C29.6598 58.9418 29.4114 59.5 29.0613 59.9275C28.2676 60.8966 28.6493 62.1338 28.0694 63.0189C27.172 64.3884 27.7823 68.641 27.7823 70.4127" stroke="black" stroke-linecap="round" stroke-linejoin="round"/>
<path d="M27.7822 70.126C27.7822 72.6118 27.7822 75.0977 27.7822 77.5835" stroke="black" stroke-linecap="round" stroke-linejoin="round"/>
<path d="M27.7822 77.5835C27.7822 79.3249 28.722 80.1212 28.722 81.7425C28.722 82.3503 28.9217 82.6546 29.3093 83.0333C29.8131 83.5253 29.632 84.4938 29.9488 84.9773C30.2303 85.407 30.7425 85.3408 31.0191 85.6785C31.3125 86.0368 31.4448 86.7088 31.5542 87.1763C31.7227 87.8963 33.2241 89.0802 33.6555 89.3435" stroke="black" stroke-linecap="round" stroke-linejoin="round"/>
<path d="M43.9924 42.0166C44.2992 43.9362 44.9322 45.2292 44.9322 47.1795C44.9322 48.6329 45.402 50.0679 45.402 51.6254C45.402 52.9355 46.3417 53.8164 46.3417 55.0673C46.3417 56.4987 47.0465 57.6371 47.0465 58.9395" stroke="black" stroke-linecap="round" stroke-linejoin="round"/>
<path d="M47.7515 48.9005C49.1264 48.9005 49.4417 48.7731 50.3879 49.6972C50.9082 50.2054 51.0164 50.6595 51.4582 51.2589C52.4551 52.6113 53.1726 53.4898 54.7994 53.4898" stroke="black" stroke-linecap="round" stroke-linejoin="round"/>
<path d="M61.8472 53.2029C61.2122 53.3541 59.7 53.5397 59.2629 54.2068C58.7177 55.0388 58.7319 55.2107 57.7359 55.2107C57.6489 55.2107 56.5541 54.2859 56.3915 54.1271C55.8117 53.5608 55.0737 53.4897 54.3293 53.4897" stroke="black" stroke-linecap="round" stroke-linejoin="round"/>
<path d="M1.9397 45.1716C3.19539 44.0566 4.83369 41.7296 6.4034 41.7296C7.08851 41.7296 7.99008 40.8123 8.46557 40.2317C8.88422 39.7206 9.83968 39.2017 10.3972 38.8613" stroke="black" stroke-linecap="round" stroke-linejoin="round"/>
<path d="M10.8672 38.8615C11.4077 38.581 12.8641 37.6983 13.2687 37.2043C13.8146 36.5378 14.5914 37.1935 15.096 36.4235C15.4794 35.8383 16.2441 35.8221 16.623 34.9893C17.0372 34.0792 17.2103 33.6565 17.2103 32.5513" stroke="black" stroke-linecap="round" stroke-linejoin="round"/>
<path d="M10.8671 39.1482C10.3967 39.2603 9.93053 39.3525 9.45752 39.435" stroke="black" stroke-linecap="round" stroke-linejoin="round"/>
<path d="M79.2323 63.8157C78.5909 63.9685 77.4271 64.2081 77.1179 64.963" stroke="black" stroke-linecap="round" stroke-linejoin="round"/>
<path d="M73.5939 53.4897C72.4021 53.8172 70.2358 54.8405 69.6001 56.1987C69.4244 56.5741 68.8197 57.1514 68.4776 57.5691C68.1684 57.9466 67.0873 58.7617 67.0289 59.0829C66.8777 59.9134 66.4989 60.6465 66.3241 61.3935C66.167 62.0649 66.6176 63.4911 66.2588 64.0387C65.6437 64.9774 66.0761 68.0222 66.0761 69.2654" stroke="black" stroke-linecap="round" stroke-linejoin="round"/>
</svg>
