<svg width="102" height="102" viewBox="0 0 102 102" fill="none" xmlns="http://www.w3.org/2000/svg">
<path d="M36.6807 3.12427C36.5015 4.08319 36.6792 5.05274 36.5155 5.99282C36.3828 6.75469 36.0945 7.44184 36.0547 8.18963C36.0116 8.99963 35.4287 9.70275 35.4287 10.5589C35.4287 11.3214 35.4287 12.084 35.4287 12.8465C35.4287 15.9666 35.2722 19.2302 35.2722 22.4053" stroke="black" stroke-linecap="round"/>
<path d="M35.2722 22.4053V23.2223" stroke="black" stroke-linecap="round"/>
<path d="M36.8374 2.63403C39.1591 2.68351 41.0066 4.98846 41.9669 6.8824C42.4274 7.79046 43.4572 8.09572 43.8797 9.08828C44.0557 9.5018 44.4767 10.1209 44.8273 10.3955C45.2777 10.7482 45.1845 11.4852 45.7576 11.7844" stroke="black" stroke-linecap="round"/>
<path d="M43.2534 8.18945C43.4929 9.21478 44.1842 9.84031 44.6619 10.7131C44.956 11.2505 45.7371 11.5813 46.0355 12.111C46.6073 13.1258 47.0672 14.1671 47.5135 15.2156C47.9201 16.1706 48.5742 17.1425 48.5742 18.1568C48.5742 19.2741 48.7307 20.4287 48.7307 21.5881" stroke="black" stroke-linecap="round"/>
<path d="M47.9924 16.0327C47.9924 15.7346 47.8462 14.9399 48.0857 14.6811C48.2082 14.5487 48.3743 14.5011 48.459 14.318C48.6798 13.8409 49.0774 13.5021 49.299 13.0471C49.8277 11.9615 51.2313 11.5322 51.7255 10.4045C52.053 9.65733 52.8273 8.60849 53.3307 8.00396C53.7406 7.51181 53.9509 6.78448 54.208 6.22876" stroke="black" stroke-linecap="round"/>
<path d="M54.208 6.39233C55.2277 7.04155 56.0585 7.62772 56.7815 8.59822C57.0566 8.96751 57.1492 9.37198 57.4248 9.74201C57.5469 9.90581 57.9528 10.6068 57.9639 10.8041C57.9855 11.1875 57.856 11.6845 58.0856 11.9842C58.2589 12.2103 58.5178 13.0391 58.5812 13.3368C58.7694 14.2213 58.7463 15.1077 58.7463 16.0329" stroke="black" stroke-linecap="round"/>
<path d="M55.4602 22.4052C55.4924 21.0281 56.3781 20.4093 57.0338 19.3824C57.6667 18.3912 58.2753 17.2372 58.99 16.2778C59.6351 15.4118 60.4343 14.7154 60.9723 13.7451C61.246 13.2515 61.9033 12.8962 62.0678 12.3653C62.2709 11.7095 62.6614 11.1056 63.0937 10.6042C65.0355 8.35145 66.8415 6.05471 69.1535 4.1772C70.0364 3.46016 70.9844 3.0008 71.7704 2.1801C72.2994 1.62775 73.0588 1.24753 73.7701 1" stroke="black" stroke-linecap="round"/>
<path d="M73.6135 1C73.6135 4.0464 73.6135 7.09279 73.6135 10.1392C73.6135 11.581 73.4209 12.9885 73.4209 14.4193C73.4209 14.7198 73.2025 15.7624 72.9929 15.9947C72.4981 16.5433 72.9209 17.8884 72.8324 18.5951C72.5256 21.0438 71.256 23.3037 71.1096 25.7698C71.0453 26.8539 70.232 27.8198 69.4189 28.5409C68.8172 29.0747 68.6057 30.3424 68.6057 31.0654" stroke="black" stroke-linecap="round"/>
<path d="M57.4928 37.9091C57.4107 35.6126 58.4068 32.5831 60.8597 32.4417C61.7431 32.3908 62.5228 31.7808 63.4149 31.7294C64.3121 31.6776 65.1807 31.4392 66.0457 31.3893C67.616 31.2988 69.2364 30.9098 70.6531 30.3285C71.9647 29.7903 73.5716 30.1441 74.914 30.1246C75.2678 30.1195 75.6226 30.1955 75.9752 30.2622C76.345 30.3322 76.9023 30.2714 77.2421 30.4089C77.6882 30.5894 78.49 30.8601 78.9434 30.8339C79.6254 30.7946 80.2624 31.6566 80.8835 31.8939C81.7374 32.2201 82.5874 32.6236 83.422 32.9821C83.7453 33.121 84.1167 32.8633 84.4334 33.0598C84.7175 33.2361 85.2606 33.2946 85.5828 33.276C85.9739 33.2535 87.1242 33.509 87.4559 33.7749C88.3525 34.4937 89.465 34.7873 90.4256 35.2568" stroke="black" stroke-linecap="round"/>
<path d="M90.6715 36.1867C90.068 36.1713 88.9981 35.7594 88.4023 36.105C87.8644 36.417 87.4919 37.0267 86.9156 37.2942C85.9051 37.7631 84.8551 38.4153 83.8726 38.9282C83.1949 39.282 82.6488 39.3896 82.1425 40.0356C81.8379 40.4243 81.3988 41.0507 80.9688 41.2884C80.4809 41.5581 79.5708 41.7495 79.1865 42.1507C78.7067 42.6517 78.31 43.1827 77.7607 43.6213C76.6733 44.4895 75.6518 45.3893 74.4743 46.0723C73.3538 46.7223 72.4981 47.9833 71.1879 48.2873C70.5751 48.4295 70.0403 48.7684 69.3882 48.7684C68.988 48.7684 68.0869 48.9785 67.745 49.1769C66.8595 49.6905 65.5204 49.5283 64.5369 49.5854C63.8939 49.6227 63.3388 49.9122 62.6589 49.9122" stroke="black" stroke-linecap="round"/>
<path d="M58.9689 47.0784C60.4274 47.7269 61.2354 48.2258 62.3538 49.5001C63.3193 50.6002 64.1152 52.0205 65.1877 52.9982C65.5095 53.2915 65.4991 53.8598 65.6163 54.2938C65.7792 54.8973 66.1033 55.5073 66.2023 56.1275C66.3973 57.3497 66.4647 58.6189 66.7708 59.8149C67.3199 61.9598 67.1557 64.199 67.1557 66.4523C67.1557 67.0744 67.3131 67.6657 67.3131 68.2462C67.3131 68.8451 67.628 69.2621 67.628 69.8607C67.628 70.3751 67.7348 72.3941 67.593 72.2326C66.9696 71.5223 66.1178 71.0727 65.3364 70.6679C64.5149 70.2424 63.537 69.5324 62.6687 69.3126C62.485 69.266 61.4412 68.5636 61.3655 68.4256C61.149 68.031 60.4737 67.7492 60.1409 67.4389C59.3635 66.7141 57.7945 66.6831 56.8435 66.4423C56.0291 66.2361 54.8555 65.1352 54.2458 64.479C53.3798 63.5471 51.6024 63.8634 50.6597 63.0041C50.4863 62.8461 49.9767 62.4368 49.7588 62.3264C49.3529 62.1208 49.4135 61.5947 49.1728 61.2899C48.6729 60.6571 47.9482 59.6499 47.9482 58.7386" stroke="black" stroke-linecap="round"/>
<path d="M53.5821 51.3269C52.95 52.9481 52.1017 53.7369 51.0357 55.0708C50.6307 55.5776 50.1908 56.1775 49.683 56.5843C49.2388 56.9399 48.5638 57.1469 48.1711 57.5401C47.4054 58.3066 47.3009 59.5989 46.3409 60.2396C45.4935 60.8051 44.1924 63.0574 44.1924 64.072" stroke="black" stroke-linecap="round"/>
<path d="M41.845 47.7319C41.2173 48.597 40.7495 49.1869 40.7495 50.2646C40.7495 51.0544 40.7495 51.8441 40.7495 52.6339C40.7495 54.2045 42.0417 55.4309 42.158 57.0093C42.2011 57.5953 42.3997 58.3897 42.6274 58.9247C42.8287 59.3976 43.3834 60.3326 43.4099 60.8038C43.448 61.4795 43.4079 62.0628 43.5751 62.6738C43.7533 63.3252 44.3489 63.6611 44.3489 64.3986" stroke="black" stroke-linecap="round"/>
<path d="M37.6197 42.6667C36.472 42.6667 35.3244 42.6667 34.1768 42.6667C33.2422 42.6667 32.8602 42.9509 32.0641 43.3203C31.6379 43.5181 30.9794 44.4331 30.7339 44.8817C30.3193 45.6393 29.6273 46.3986 29.1342 47.0422C28.6214 47.7114 28.2022 48.451 27.8822 49.2027C27.4598 50.1951 26.4846 50.4594 25.8826 51.2452C25.5697 51.6535 24.7671 53.0252 24.4046 53.1333C24.3156 53.1599 23.8123 53.8223 23.6917 53.9413C23.3764 54.2521 23.2222 54.6466 23.2222 55.085" stroke="black" stroke-linecap="round"/>
<path d="M42.158 56.8823C38.7936 56.8823 35.3888 57.1528 32.0206 56.8823C30.6161 56.7695 29.4909 55.4896 28.0735 55.4117C27.2202 55.3648 26.4269 54.8029 25.5696 54.7581C24.8379 54.7199 24.1385 54.5947 23.3787 54.5947" stroke="black" stroke-linecap="round"/>
<path d="M29.9515 44.7907C29.1272 43.9562 28.196 42.9212 27.2215 42.3398C26.7468 42.0565 26.3924 41.5892 25.8826 41.3231C25.6565 41.205 25.0247 40.8795 24.9523 40.615C24.7445 39.8555 23.6765 39.0165 23.1352 38.4182C22.4387 37.6482 22.2163 36.4315 21.5007 35.6404C20.8307 34.8996 20.7315 33.4619 20.0141 32.8626C19.7322 32.6272 19.5507 31.7768 19.4315 31.4284C19.2388 30.8648 18.8901 29.8091 18.4578 29.4222C17.1345 28.2379 16.5009 26.4942 14.928 25.6731" stroke="black" stroke-linecap="round"/>
<path d="M14.928 25.6731C16.7248 25.6731 18.5216 25.6731 20.3183 25.6731C21.9697 25.6731 23.4689 26.1633 25.1001 26.1633C26.7171 26.1633 28.6681 25.8679 30.1949 26.3993C30.8913 26.6417 31.7878 27.3071 32.5336 27.3071C32.907 27.3071 33.8372 27.62 34.1768 27.7973" stroke="black" stroke-linecap="round"/>
<path d="M34.8027 24.0391C34.8027 27.9324 34.6462 31.7375 34.6462 35.6404" stroke="black" stroke-linecap="round"/>
<path d="M34.8027 23.3856C36.0676 23.3856 37.3571 23.2079 38.4717 23.9485C38.8715 24.2142 39.7302 24.5638 40.1931 24.7019C41.4638 25.081 43.0395 25.9382 43.8794 27.1075C44.6031 28.115 46.2083 28.1811 46.8528 29.3588C47.1792 29.9552 47.8267 30.3396 48.1395 30.9928C48.417 31.5722 49.0437 31.9989 49.0437 32.6994" stroke="black" stroke-linecap="round"/>
<path d="M49.0438 34.8236C49.0438 33.5607 48.8528 32.2415 49.8349 31.3015C50.6754 30.4971 51.2419 29.6323 52.0172 28.7779C52.649 28.0815 53.3973 27.1027 54.2863 26.8171C54.9675 26.5983 55.8018 26.6387 56.399 26.3269" stroke="black" stroke-linecap="round"/>
<path d="M57.7502 35.9674C58.8868 32.76 59.1995 28.1737 56.5533 25.6966C55.8918 25.0774 55.9445 23.9192 55.5869 23.0822C55.2605 22.3184 54.5752 21.5172 54.3899 20.7584C54.1031 19.5836 52.6433 18.9903 52.6433 17.6667" stroke="black" stroke-linecap="round"/>
<path d="M52.7996 17.6667C52.1089 18.1065 51.6181 18.9008 50.9217 19.2644C50.4292 19.5215 49.9967 19.8901 49.6001 20.2811C48.6562 21.2119 47.9785 22.4226 47.3223 23.6217C47.2551 23.7445 46.5789 24.4543 46.4529 24.5295C45.908 24.8546 45.6576 25.534 45.3661 26.0818C44.808 27.1306 44.8184 28.0155 44.8184 29.2681" stroke="black" stroke-linecap="round"/>
<path d="M56.3992 38.2549C57.6143 37.2962 59.2461 36.5501 60.721 36.0564C61.1985 35.8966 61.7195 35.6741 62.225 35.6741C62.8666 35.6741 63.4165 35.6472 64.0242 35.5116C64.2957 35.451 65.3361 35.1042 65.138 35.502" stroke="black" stroke-linecap="round"/>
<path d="M65.1626 35.6404C64.605 37.2297 63.6644 38.613 63.0997 40.1996C62.9599 40.5926 62.3404 41.3573 62.0072 41.6126C61.5834 41.9373 60.9098 42.6994 60.7618 43.2286C60.6503 43.6273 60.1277 44.5124 59.8679 44.8368C59.3745 45.453 59.043 46.2695 58.5308 46.851C58.2601 47.1584 57.8834 47.4348 57.7057 47.7253C57.2357 48.4937 56.495 48.8567 56.0859 49.6927" stroke="black" stroke-linecap="round"/>
<path d="M43.2534 29.4314C43.2534 32.3847 43.2534 35.338 43.2534 38.2912C43.2534 40.2417 42.4001 43.083 43.8794 44.6275" stroke="black" stroke-linecap="round"/>
<path d="M43.0972 29.2678C45.0335 28.979 45.1695 30.6333 46.54 31.4283C47.3312 31.8873 48.1842 32.678 48.6093 33.5162C49.2151 34.7111 50.3019 35.4349 50.9914 36.4937C51.4408 37.1836 52.1738 38.2514 52.1738 39.0717" stroke="black" stroke-linecap="round"/>
<path d="M49.3567 39.7255C50.7379 39.1627 52.4178 39.3987 53.895 39.3987" stroke="black" stroke-linecap="round"/>
<path d="M53.8953 39.562C53.7348 40.3251 52.8834 40.9884 52.7998 41.6862C52.7806 41.8469 52.6163 42.0891 52.5216 42.2127C52.3682 42.4129 52.5393 42.8295 52.4086 43.0751C52.0524 43.7444 52.0196 45.9334 51.3914 46.2614" stroke="black" stroke-linecap="round"/>
<path d="M48.1047 40.0522C47.5057 39.9302 46.9353 39.6475 46.392 39.5529C46.1553 39.5117 45.3323 39.3377 45.1661 39.1989C44.8556 38.9395 44.8175 38.8498 44.4358 38.7359C44.1382 38.6471 43.6853 38.6099 43.4099 38.4182" stroke="black" stroke-linecap="round"/>
<path d="M43.4099 38.4182C43.6648 39.0601 44.3489 39.9348 44.3489 40.6241C44.3489 41.2439 44.5414 41.978 44.6706 42.5849C44.7644 43.0256 44.8273 44.0244 45.0966 44.3369C45.3351 44.6136 45.2962 44.9003 45.5661 45.1539C45.7315 45.3093 45.9918 45.4438 46.0703 45.6078" stroke="black" stroke-linecap="round"/>
<path d="M42.784 36.6208C40.9396 36.2178 39.1065 36.294 37.2284 36.294C35.9299 36.294 34.5698 36.1306 33.2378 36.1306" stroke="black" stroke-linecap="round"/>
<path d="M33.2378 36.1306C33.713 36.7657 34.2966 37.7666 34.881 38.2548C35.3352 38.6342 35.5465 39.3035 36.0547 39.5983C36.5851 39.906 36.93 40.8746 37.2284 41.3594C37.5844 41.9376 38.0494 42.4509 38.0891 43.1568C38.1387 44.0371 39.3707 45.3193 39.9323 45.9708C40.7653 46.9372 42.1686 47.7319 43.4099 47.7319" stroke="black" stroke-linecap="round"/>
<path d="M43.5667 43.6472C43.5667 44.6802 43.6115 45.683 43.4015 46.6701C43.3089 47.1048 43.0972 47.338 43.0972 47.8139C43.0972 48.2224 43.0972 48.6309 43.0972 49.0394" stroke="black" stroke-linecap="round"/>
<path d="M43.1357 49.0151C44.5505 48.1252 45.8945 47.9015 47.5384 47.5365C47.8337 47.4709 48.7515 47.4002 48.8998 47.1507C49.0666 46.8701 49.9597 46.4977 50.2879 46.4249" stroke="black" stroke-linecap="round"/>
<path d="M47.6355 41.8496C47.7775 41.0897 47.9867 40.8987 48.2963 40.2882C48.4498 39.9854 48.731 39.8897 48.731 39.562" stroke="black" stroke-linecap="round"/>
<path d="M51.3911 43.4838C50.9579 42.4196 50.39 41.638 49.7566 40.7877C49.5637 40.5287 49.2752 40.2855 49.1915 39.9798C49.1011 39.6494 49.0541 39.2408 48.7307 39.072" stroke="black" stroke-linecap="round"/>
<path d="M48.731 39.072C48.0576 39.972 47.166 40.4897 47.166 41.6864" stroke="black" stroke-linecap="round"/>
<path d="M52.6433 41.8499C53.3122 42.4643 54.6023 43.3219 54.9051 44.0592C55.2189 44.8236 55.6417 45.5855 56.057 46.337C56.7445 47.5808 56.1835 49.6639 56.1835 51.0002" stroke="black" stroke-linecap="round"/>
<path d="M47.373 49.6929C48.2573 49.8443 48.9188 50.2887 49.7933 50.4384C50.5426 50.5667 51.2919 50.695 52.0412 50.8233C52.8362 50.9594 53.6312 51.0955 54.4263 51.2316C55.0359 51.336 55.5647 51.0954 56.1757 51.2" stroke="black" stroke-linecap="round"/>
<path d="M34.4898 23.2223C32.5716 22.0499 30.1591 20.5677 27.917 20.4445C27.3733 20.4146 26.9094 20.0132 26.4303 19.7909C25.894 19.542 25.3348 19.6485 24.7524 19.6275C23.6117 19.5864 22.2233 19.0005 21.1878 18.52C20.135 18.0315 18.7609 17.6667 17.6232 17.6667C16.3268 17.6667 15.1549 17.3879 13.8673 17.3399C12.0953 17.2738 10.3067 17.1765 8.51172 17.1765" stroke="black" stroke-linecap="round"/>
<path d="M8.51172 17.1765C9.42022 17.94 10.0133 18.5875 10.5114 19.6275C10.832 20.2971 11.0538 21.0065 11.4069 21.67C12.1109 22.9931 12.224 24.8588 13.5891 25.6732C14.0185 25.9295 14.8352 26.7791 15.0845 27.2346C15.3145 27.6548 16.4465 28.2262 16.4929 28.6144C16.5007 28.6794 17.0121 29.3059 17.1189 29.4314C17.3501 29.703 17.5475 30.0181 17.8231 30.2484C18.3181 30.6619 18.7423 31.0959 19.3098 31.3922" stroke="black" stroke-linecap="round"/>
<path d="M19.4663 32.8628C17.4165 32.8628 15.3014 33.0262 13.2065 33.0262" stroke="black" stroke-linecap="round"/>
<path d="M13.2065 33.0261C14.0996 33.7326 15.0279 34.3412 15.7105 35.232C16.1947 35.864 16.8889 36.2439 17.3102 36.9477C17.5659 37.3749 18.2196 38.0959 18.6056 38.4183C19.1416 38.866 19.1662 39.7322 19.7793 40.0523" stroke="black" stroke-linecap="round"/>
<path d="M25.1002 40.2158C23.77 40.2158 22.4398 40.2158 21.1095 40.2158C19.8015 40.2158 18.9834 40.3842 17.7797 40.8331C16.5183 41.3035 15.3997 42.1053 14.2151 42.7485C13.6587 43.0506 12.604 43.4164 12.1459 43.8469C11.8338 44.1402 11.0494 44.2073 10.8592 44.555C10.6503 44.9366 10.0947 45.0119 9.83325 45.3629C9.48889 45.8252 8.65503 46.0923 8.19875 46.5157C7.75171 46.9306 6.02325 47.3899 5.86002 47.9863C5.54509 49.1372 4.25074 49.6369 3.34742 50.0561C2.66656 50.372 1.4226 50.5017 1 51.1635" stroke="black" stroke-linecap="round"/>
<path d="M1 51.1635C2.75204 51.1635 4.40418 51.091 6.08607 51.4812C7.13532 51.7247 8.27623 52.4707 9.32899 52.4707C10.028 52.4707 11.0064 52.7296 11.6069 53.1243C12.2235 53.5297 13.0994 53.5109 13.8239 53.6054C14.9929 53.758 16.4756 53.4694 17.2754 54.5132C18.0166 55.4806 19.3555 54.7068 20.2488 55.1214C21.3983 55.6548 22.6134 55.727 23.8482 55.9112C24.4349 55.9987 24.8503 56.2289 25.5001 56.2289C26.0971 56.2289 26.6941 56.2289 27.2911 56.2289C27.8281 56.2289 30.2088 56.5086 30.421 56.0655" stroke="black" stroke-linecap="round"/>
<path d="M17.5884 54.7583C16.0547 56.0094 14.7964 57.3387 13.6413 58.9159C12.8415 60.0079 11.8725 61.1871 11.2504 62.3563C10.981 62.8626 10.5435 63.8037 10.0767 64.1083C9.66131 64.3794 9.1377 65.9757 9.1377 66.4413C9.1377 66.7598 8.63759 67.773 8.35523 67.9573C7.12708 68.7587 7.33256 71.0602 6.00781 71.7518" stroke="black" stroke-linecap="round"/>
<path d="M6.00781 71.7516C7.56289 71.7516 8.87902 71.1811 10.3897 71.098C11.1953 71.0538 12.2613 70.8941 13.0153 70.6078C13.7211 70.3399 14.6923 69.6572 15.4323 69.6275C16.9092 69.5681 18.3965 69.3007 19.8576 69.3007C21.7981 69.3007 23.4411 67.6667 25.3349 67.6667C26.823 67.6667 28.1246 67.1587 29.482 66.6863" stroke="black" stroke-linecap="round"/>
<path d="M32.1423 57.0457C31.5778 58.5018 30.6435 59.758 29.9862 61.1306C29.6894 61.7503 30.0358 62.9014 29.9427 63.5816C29.649 65.7283 29.441 67.9457 29.3254 70.1176C29.3074 70.4557 29.0717 70.7905 29.0211 71.107C28.9408 71.6104 29.0125 72.1868 29.0125 72.6956C29.0125 73.6156 28.856 74.4341 28.856 75.3463C28.856 76.8543 28.23 78.2983 28.23 79.749C28.23 80.5604 27.917 81.209 27.917 82.0457" stroke="black" stroke-linecap="round"/>
<path d="M27.917 82.0458C28.6653 80.8303 30.2361 80.0589 31.3946 79.268C32.4561 78.5433 33.4156 77.6984 34.4115 76.8896C34.8475 76.5356 35.1533 75.9713 35.6548 75.7095C36.8251 75.0986 38.1682 74.4317 39.1498 73.5127C39.9943 72.7222 40.9432 72.0397 41.7668 71.1798C42.2168 70.7099 42.4595 70.396 43.1317 70.154C43.7562 69.9291 43.9541 69.6122 44.4272 69.228C45.2407 68.5674 45.7054 67.6408 46.3833 66.8497C46.8986 66.2483 47.7995 65.0487 48.496 64.7255C49.3348 64.3363 49.3482 63.2727 49.6697 62.6013" stroke="black" stroke-linecap="round"/>
<path d="M69.2317 28.451C70.7688 27.5415 72.0564 26.0001 73.703 26.0001C74.9934 26.0001 76.0353 25.4554 77.3048 25.4554C77.7132 25.4554 78.0302 25.0712 78.4138 24.9259C78.8062 24.7771 79.2901 24.9107 79.6913 24.9107C80.3047 24.9107 80.8275 24.6384 81.4478 24.6384C82.1216 24.6384 82.8246 24.3661 83.5238 24.3661C83.9733 24.3661 84.4173 23.5491 84.8811 23.5491" stroke="black" stroke-linecap="round"/>
<path d="M84.8811 23.5491C84.6499 24.7864 84.1789 25.5098 83.5422 26.5266C83.2116 27.0546 83.0871 28.0271 82.6032 28.4601C81.7754 29.201 81.1468 30.9977 80.8123 32.0458" stroke="black" stroke-linecap="round"/>
<path d="M80.1863 41.196C81.1134 41.196 82.2897 41.3407 82.9684 42.0493C83.3187 42.4151 84.2348 42.1011 84.7159 42.2581C85.3644 42.4697 85.9709 42.805 86.6026 42.9934C87.5062 43.263 88.4139 44.1479 89.263 44.5911C89.6401 44.788 90.0693 44.7951 90.4454 45.045C91.1544 45.5161 91.9015 45.5124 92.6189 45.8529C94.2665 46.6348 95.8607 47.1292 97.4007 48.0225C98.1769 48.4727 99.3334 48.2998 99.6003 49.2752C99.7366 49.7732 100.462 50.8366 101 50.8366" stroke="black" stroke-linecap="round"/>
<path d="M67.3538 49.366C68.4846 50.2604 69.8875 50.935 70.7271 52.062C71.4683 53.0571 72.414 54.0005 73.457 54.631C74.0963 55.0174 74.5589 55.9082 75.0307 56.4829C75.4228 56.9605 75.9644 57.3761 76.3957 57.8264C76.6577 58.1 77.0289 58.8448 77.2999 59.0065C77.6355 59.2067 78.0457 60.0488 78.2301 60.3954C78.6318 61.1503 79.1561 61.7718 79.5603 62.5105C80.1557 63.5983 80.8789 64.683 81.4035 65.7785C82.1114 67.2568 82.4867 68.7873 83.238 70.1993C83.9743 71.5833 85.1367 73.5269 85.1941 75.1466C85.2166 75.7806 85.1348 76.3915 85.3854 76.9803C85.5962 77.4755 85.9766 77.8998 85.9766 78.4509" stroke="black" stroke-linecap="round"/>
<path d="M76.2739 57.8627C77.3557 57.8627 78.1383 58.1895 79.1691 58.1895C80.396 58.1895 81.8625 58.3405 83.038 57.9898C83.4428 57.869 84.054 58.0033 84.4116 57.8264C84.9261 57.572 85.4816 57.2417 85.9853 56.9459C86.4976 56.645 86.8778 56.2102 87.4633 56.0744C88.0225 55.9446 88.5716 55.7288 89.0717 55.4117C89.8769 54.9013 90.7279 54.8161 91.5321 54.3496C92.2297 53.945 93.5423 53.0198 94.3056 52.9607C94.904 52.9145 95.3799 52.2963 95.9053 52.0167C96.4851 51.7081 97.0545 51.3615 97.6441 51.0817C98.304 50.7685 99.3184 50.9178 99.9046 50.5098" stroke="black" stroke-linecap="round"/>
<path d="M79.5603 58.1895C81.1712 58.2315 82.0642 60.8399 82.0642 62.2744" stroke="black" stroke-linecap="round"/>
<path d="M82.0642 62.2745C81.115 61.8877 80.2477 61.9477 79.2473 61.9477" stroke="black" stroke-linecap="round"/>
<path d="M85.5069 77.9609C84.8657 77.4378 84.3156 76.8124 83.6289 76.454C83.2415 76.2517 82.8959 75.7846 82.4552 75.6823C82.0339 75.5846 81.6964 75.5753 81.2815 75.3828C81.0168 75.26 80.556 75.2417 80.2643 75.174C79.9177 75.0936 79.5716 74.7117 79.2471 74.6929C78.373 74.6422 77.4617 73.8192 76.7432 73.422C76.1637 73.1017 75.2182 72.9671 74.5523 72.7684C73.6519 72.4998 72.7322 72.2267 71.8919 71.788C71.2867 71.4721 70.3604 71.1706 69.7009 71.0981C69.3209 71.0563 67.6269 70.8521 67.51 70.6079" stroke="black" stroke-linecap="round"/>
<path d="M56.399 66.6863C56.399 67.8464 56.2934 68.7939 55.9586 69.8882C55.7669 70.5147 55.4478 71.4413 55.4478 72.0999C55.4478 73.386 55.1081 74.8007 54.9722 76.0143C54.9039 76.6241 54.5323 77.1536 54.4966 77.8466C54.4484 78.7838 54.0709 79.8942 53.704 80.7616C53.345 81.6103 53.0323 82.571 52.5239 83.3342C52.1711 83.8637 52.0985 84.7492 51.7664 85.3423C50.3041 87.9544 49.4297 90.9228 48.1908 93.6709C47.9001 94.3156 47.9891 95.2709 47.4862 95.7993C47.0296 96.2791 46.3273 96.7621 46.0154 97.3447C45.4352 98.4285 44.1924 99.7236 44.1924 101" stroke="black" stroke-linecap="round"/>
<path d="M37.6196 74.8562C38.3773 75.9769 38.5069 77.2428 39.1063 78.3693C39.3853 78.8936 39.4947 79.625 39.6454 80.1757C39.7073 80.4023 39.5795 80.6864 39.6888 80.902C39.8342 81.1887 40.1571 81.3896 40.3148 81.7189C40.5526 82.2155 40.8851 82.7475 40.906 83.3166C40.9293 83.9488 41.3755 84.4253 41.3755 85.0686C41.3755 86.2519 41.9771 87.0518 42.1927 88.1278C42.4409 89.3658 42.6056 90.6099 42.7753 91.8497C42.8505 92.3994 42.7839 93.0084 42.7839 93.5654C42.7839 94.197 43.0969 94.672 43.0969 95.281C43.0969 96.1916 43.641 97.1467 43.8707 97.9862C43.9853 98.405 43.8794 99.0112 43.8794 99.4477C43.8794 100.028 44.0359 100.44 44.0359 101" stroke="black" stroke-linecap="round"/>
<path d="M54.834 76.1633C55.7428 77.4159 56.8498 78.8629 57.9726 79.8398C58.3106 80.1339 59.5385 80.0033 59.9288 80.0486C60.6606 80.1335 61.3624 80.1533 62.0327 80.448C62.5585 80.6791 63.5526 80.9817 63.8759 81.5555C64.2523 82.2237 65.1731 82.5292 65.8668 82.6902C66.2963 82.7898 67.3779 82.8944 67.6665 83.2712C67.914 83.5942 69.1811 83.7489 69.2315 84.1699C69.296 84.709 70.4091 85.1115 70.7964 85.3137" stroke="black" stroke-linecap="round"/>
<path d="M70.9531 71.915C70.9531 73.6176 71.6707 75.2756 72.3268 76.817C72.5982 77.4546 72.3616 78.6402 72.3616 79.3406C72.3616 80.1585 72.9313 81.3556 73.2223 82.1456C73.3042 82.3679 73.8042 86.4823 73.3701 86.6118C72.9007 86.7519 72.4556 85.8366 71.8921 85.8039C71.3695 85.7736 70.9886 85.3137 70.4836 85.3137" stroke="black" stroke-linecap="round"/>
<path d="M45.4446 47.7319C45.6317 47.831 46.6087 48.0583 46.6243 48.4182C46.6387 48.7497 46.6814 48.8919 46.8771 49.1045C47.1469 49.3975 47.3335 49.8146 47.6355 50.0195" stroke="black" stroke-linecap="round"/>
<path d="M47.3223 41.0327C47.1055 42.0641 46.7493 42.5672 46.3051 43.402C46.0108 43.9552 46.2269 45.1395 46.2269 45.7713" stroke="black" stroke-linecap="round"/>
<path d="M47.0093 45.7713C48.5228 45.4244 49.1795 43.9739 50.7651 43.9739" stroke="black" stroke-linecap="round"/>
<path d="M50.7654 47.0782C50.4097 46.9333 49.7294 46.6109 49.3569 46.588C49.0555 46.5695 48.7754 46.6579 48.5397 46.4609C48.1521 46.1372 47.0963 46.7692 46.853 46.2612" stroke="black" stroke-linecap="round"/>
<path d="M51.0781 43.9739C50.9295 44.6638 50.7651 45.0681 50.7651 45.7713C50.7651 46.2538 50.7526 46.6275 50.6086 47.0785" stroke="black" stroke-linecap="round"/>
<path d="M47.3225 42.8301C48.1946 43.4923 48.418 43.8409 48.418 44.9543" stroke="black" stroke-linecap="round"/>
<path d="M57.3381 37.6013C55.8481 39.1571 54.9488 40.7934 54.0518 42.6667" stroke="black" stroke-linecap="round"/>
</svg>
