<svg width="145" height="200" viewBox="0 0 145 200" fill="none" xmlns="http://www.w3.org/2000/svg">
<path d="M42.4805 125H102.48V158.333C102.48 162.754 101.216 166.993 98.9657 170.118C96.7153 173.244 93.6631 175 90.4805 175H54.4805C51.2979 175 48.2456 173.244 45.9952 170.118C43.7448 166.993 42.4805 162.754 42.4805 158.333V125Z" stroke="black" stroke-width="2" stroke-linecap="round" stroke-linejoin="round"/>
<path d="M72.4805 75C72.4805 61.7392 68.6876 49.0215 61.9363 39.6447C55.185 30.2678 46.0283 25 36.4805 25H18.4805V41.6667C18.4805 54.9275 22.2733 67.6452 29.0246 77.022C35.7759 86.3988 44.9327 91.6667 54.4805 91.6667H72.4805" stroke="black" stroke-width="2" stroke-linecap="round" stroke-linejoin="round"/>
<path d="M72.4805 91.6667C72.4805 78.4059 76.2733 65.6882 83.0246 56.3114C89.7759 46.9345 98.9327 41.6667 108.48 41.6667H126.48V50C126.48 63.2608 122.688 75.9785 115.936 85.3554C109.185 94.7322 100.028 100 90.4805 100H72.4805" stroke="black" stroke-width="2" stroke-linecap="round" stroke-linejoin="round"/>
<path d="M72.4805 125V75" stroke="black" stroke-width="2" stroke-linecap="round" stroke-linejoin="round"/>
</svg>
