<svg width="311" height="547" viewBox="0 0 311 547" fill="none" xmlns="http://www.w3.org/2000/svg">
<path d="M192 531C189.325 543.7 179.651 544.664 148.11 538.02C116.569 531.377 93.1689 515.695 95.844 502.995C98.5192 490.295 116.569 496.352 148.11 502.995C179.651 509.639 194.675 518.3 192 531Z" fill="#858071"/>
<path d="M82.207 429.806L127.762 409.928L175.298 429.806L163.414 515H98.0524L82.207 429.806Z" fill="#988C69"/>
<ellipse cx="129.743" cy="426.967" rx="45.5553" ry="22.7182" fill="#54392D"/>
<path d="M131.74 336.689C131.74 334.268 131.808 333.102 130.365 331.378C129.389 330.212 129.76 328.103 129.76 326.645C129.76 323.991 129.769 322.817 131.135 320.597C131.844 319.445 133.035 319.068 133.721 317.757" stroke="black" stroke-linecap="round"/>
<path d="M137.186 313.498C139.178 310.375 141.58 307.709 143.65 304.742C145.425 302.197 148.965 298.085 152.288 297.379C154.644 296.879 157.791 295.986 160.211 295.986C161.682 295.986 162.553 295.703 163.704 294.802C164.968 293.815 166.608 294.093 168.133 294.093C170.252 294.093 172.492 294.108 174.048 295.512C176.619 297.833 180.735 297.988 183.236 300.245C186.695 303.367 189.083 307.314 193.635 308.765" stroke="black" stroke-linecap="round"/>
<path d="M134.71 339.529C136.819 339.529 138.33 339.122 139.662 340.712C140.365 341.553 141.5 342.369 142.633 342.369" stroke="black" stroke-linecap="round"/>
<path d="M131.245 367.927C131.245 361.143 131.245 354.359 131.245 347.575C131.245 342.238 129.743 334.067 132.483 329.353C133.289 327.966 132.509 325.824 132.84 324.278C133.588 320.784 134.711 317.76 134.711 314.181C134.711 311.551 134.143 308.251 134.738 305.688C135.893 300.721 135.206 294.951 135.206 289.728C135.206 287.87 135.206 286.011 135.206 284.153C135.206 279.15 137.682 274.446 137.682 269.481C137.682 262.556 139.167 255.81 139.167 248.893C139.167 242.032 138.446 234.683 139.277 227.831C139.467 226.266 140.12 224.777 140.158 223.203C140.185 222.075 139.928 220.709 140.185 219.601C141.287 214.864 142.634 210.661 142.634 205.612C142.634 201.896 142.634 198.18 142.634 194.464C142.634 186.965 143.129 179.394 143.129 171.956C143.129 167.796 143.568 163.384 145.109 159.571C146.704 155.625 147.09 153.039 147.09 148.791" stroke="black" stroke-linecap="round"/>
<path d="M148.079 153.05C147.347 154.779 146.099 156.385 146.099 158.257C146.099 159.057 146.34 160.342 145.989 161.096C145.362 162.444 144.393 164.91 144.145 166.329C143.46 170.262 143.128 173.911 143.128 178.03C143.128 182.091 143.237 186.296 144.145 190.204C144.322 190.963 145.108 191.338 145.108 192.097C145.108 193.044 145.108 193.99 145.108 194.937C145.108 197.458 145.603 199.78 145.603 202.483C145.603 211.407 145.108 220.654 145.108 229.356C145.108 234.869 144.118 239.983 144.118 245.501C144.118 249.448 144.983 254.468 144.09 258.306C142.052 267.075 142.137 276.758 142.137 285.81C142.137 289.343 141.642 292.408 141.642 295.986C141.642 298.053 141.963 300.294 141.257 302.244C140.78 303.56 140.485 306.999 139.414 307.818C137.699 309.129 138.671 314.178 138.671 315.785C138.671 318.4 138.657 321.157 138.066 323.7C137.468 326.271 136.69 328.388 136.69 331.01C136.69 333.928 136.69 336.847 136.69 339.766C136.69 349.314 136.195 359.171 136.195 368.874" stroke="black" stroke-linecap="round"/>
<path d="M114.903 351.361C114.903 346.348 114.903 341.335 114.903 336.321C114.903 334.352 115.213 332.657 115.619 330.72C116.098 328.431 115.552 326.073 116.004 323.805C116.899 319.311 122.331 315.85 122.331 311.131C122.331 308.146 122.826 305.366 122.826 302.349C122.826 296.161 123.321 289.909 123.321 283.68C123.321 279.01 125.797 274.739 125.797 269.954C125.797 264.321 126.563 258.953 127.007 253.31C127.794 243.326 128.273 233.252 128.273 223.23C128.273 219.803 129.263 216.504 129.263 213.054C129.263 211.029 129.263 209.004 129.263 206.98C129.263 205.884 129.263 204.789 129.263 203.693C129.263 199.988 130.667 196.563 130.749 192.912C130.841 188.761 131.736 184.793 132.344 180.659C132.998 176.214 135.7 171.45 135.7 167.012C135.7 159.58 138.671 152.493 138.671 145.004" stroke="black" stroke-linecap="round"/>
<path d="M138.672 145.004C140.9 146.668 143.129 148.222 143.129 150.947C143.129 154.014 143.129 157.082 143.129 160.15C143.129 166.057 141.495 171.32 140.185 176.952C139.392 180.362 139.663 184.573 139.663 188.074C139.663 192.813 138.177 197.136 138.177 201.773C138.177 205.685 135.206 209.047 135.206 212.686C135.206 220.109 134.216 227.518 134.216 234.93C134.216 239.964 134.01 245.929 133.693 251.233C133.57 253.285 132.73 255.118 132.73 257.175C132.73 258.946 132.73 260.716 132.73 262.487C132.73 263.335 132.448 263.48 132.235 264.143C131.33 266.954 131.411 269.968 130.722 272.82C130.254 274.761 130.36 277.426 129.512 279.21C129.247 279.766 128.769 280.474 128.769 281.077C128.769 287.947 128.274 295.282 128.274 302.296C128.274 307.32 125.303 312.381 125.303 317.389C125.303 323.624 124.016 330.332 122.084 336.242C121.705 337.401 120.866 338.169 120.599 339.345C120.197 341.109 120.608 342.946 120.103 344.683C117.217 354.617 117.875 365.252 117.875 375.5" stroke="black" stroke-linecap="round"/>
<path d="M114.409 372.66C114.409 365.702 113.419 358.778 113.419 351.835" stroke="black" stroke-linecap="round"/>
<path d="M117.874 373.133C117.874 379.356 117.874 385.579 117.874 391.802C117.874 395.687 119.36 398.891 119.36 402.951" stroke="black" stroke-linecap="round"/>
<path d="M114.903 406.264C114.903 404.21 114.563 402.922 113.913 401.057" stroke="black" stroke-linecap="round"/>
<path d="M36.6682 441.288C36.6682 436.997 35.2568 428.843 37.5485 424.828C38.8317 422.579 39.536 420.027 40.0243 417.518C40.2905 416.15 39.9932 414.777 40.3544 413.416C40.5696 412.605 41.1582 409.173 41.8675 408.63C43.4303 407.435 43.5242 404.295 44.8109 402.714C46.101 401.129 46.3333 398.94 47.6719 397.376C50.0488 394.6 50.267 390.426 53.0087 387.805C55.5757 385.352 57.3431 382.242 59.9135 379.786C61.919 377.869 64.4216 376.593 66.5983 374.79C70.2205 371.789 74.3158 369.597 78.9774 368.505C82.4678 367.688 86.4543 367.107 90.0361 366.98C92.2475 366.902 94.3975 365.859 96.5833 365.56C100.384 365.041 104.127 365.087 107.972 365.087" stroke="black" stroke-linecap="round"/>
<path d="M118.37 370.293C120.325 370.649 126.303 371.734 127.283 373.606" stroke="black" stroke-linecap="round"/>
<path d="M127.283 373.606C126.145 377.072 126.292 380.445 126.292 384.019C126.292 387.937 128.192 389.963 131.134 392.906C133.233 395.006 133.99 396.856 134.71 399.611C135.289 401.824 137.126 402.877 138.176 404.634C140.186 407.996 143.866 410.73 146.594 413.731C148.615 415.954 151.447 419.475 154.764 419.963C158.701 420.542 166.21 423.266 169.867 420.936" stroke="black" stroke-linecap="round"/>
<path d="M169.372 420.463C169.372 418.432 169.733 417.035 170.362 415.23C170.768 414.066 172.009 413.444 172.315 412.127C172.961 409.35 172.838 406.408 172.838 403.45C172.838 400.639 172.323 397.976 171.875 395.194C171.483 392.76 170.475 390.712 169.922 388.331C169.088 384.743 165.13 378.674 161.201 377.84C159.677 377.516 157.939 375.787 156.497 375.131C153.715 373.865 150.324 373.868 147.584 372.765C145.58 371.958 141.971 371.491 140.267 370.188C138.795 369.062 134.22 369.82 132.234 369.82C129.908 369.82 126.812 369.335 124.807 370.293" stroke="black" stroke-linecap="round"/>
<path d="M144.118 370.767C149.076 369.905 154.49 368.4 159.496 368.4C160.041 368.4 162.87 367.692 163.32 367.348C164.251 366.636 165.995 367.01 166.923 366.27C168.847 364.738 173.625 364.14 176.056 364.14C177.508 364.14 179.93 363.682 181.256 364.246C183.785 365.32 181.931 368.159 183.484 369.347C184.138 369.847 183.672 371.96 183.759 372.712C183.943 374.291 185.058 376.23 186.207 377.393C187.556 378.758 188.188 378.972 188.188 380.916C188.188 382.257 188.249 383.282 187.583 384.492C186.562 386.346 184.708 386.513 183.016 387.542C181.409 388.52 178.985 387.192 177.294 387.91C174.481 389.106 169.21 388.628 166.896 386.859" stroke="black" stroke-linecap="round"/>
<path d="M147.089 340.002C148.596 342.121 151.223 345.604 154.241 346.129C155.495 346.347 156.814 347.509 157.983 347.575C161.243 347.758 164.45 348.522 167.666 348.522C176.004 348.522 184.422 349.321 191.901 345.471C195.49 343.625 199.482 340.84 203.29 339.555C208.114 337.928 214.621 338.664 218.393 335.059C220.175 333.356 221.534 331.473 223.537 329.853C224.789 328.841 226.109 327.465 227.086 326.277C228.709 324.302 230.279 321.903 232.037 320.124C233.437 318.708 234.021 316.93 235.228 315.391" stroke="black" stroke-linecap="round"/>
<path d="M192.149 309.238C198.685 309.238 205.224 308.765 211.681 308.765C214.634 308.765 217.586 308.765 220.539 308.765C222.194 308.765 224.74 308.296 226.316 308.87C228.955 309.831 234.731 311.598 235.724 314.444" stroke="black" stroke-linecap="round"/>
<path d="M196.111 309.711C190.3 309.711 185.243 311.961 180.266 314.339C177.801 315.517 175.164 317.353 173.223 319.283C170.297 322.191 166.427 323.881 163.65 326.776C162.675 327.793 161.232 328.168 160.349 329.011C159.672 329.658 159.115 330.634 158.231 331.01C156.297 331.831 154.087 334.483 152.784 336.006C150.753 338.379 148.934 339.934 146.017 341.212C141.353 343.255 135.596 342.942 131.739 346.629" stroke="black" stroke-linecap="round"/>
<path d="M147.09 340.002C143.596 340.002 140.398 340.949 136.967 340.949C135.37 340.949 134.103 339.039 135.701 340.949" stroke="black" stroke-linecap="round"/>
<path d="M77.2709 262.855C74.8859 267.326 73.8047 270.548 73.8047 275.397C73.8047 279.385 76.7147 283.315 78.7564 286.73C80.5905 289.798 85.3118 293.388 88.6322 294.776C92.2911 296.306 98.1981 296.459 102.222 296.459C103.561 296.459 104.494 296.641 105.743 296.906C108.419 297.474 110.942 296.649 110.942 299.877C110.942 301.777 111.49 303.429 111.905 305.215C112.18 306.4 113.341 306.568 113.418 307.818C113.542 309.837 115.652 311.531 115.894 313.498C115.989 314.272 116.923 319.432 117.379 319.651" stroke="black" stroke-linecap="round"/>
<path d="M112.924 295.512C112.924 298.258 112.554 302.525 114.52 304.873C115.375 305.895 116.492 307.331 116.858 308.554C117.587 310.993 118.371 313.746 118.371 316.337" stroke="black" stroke-linecap="round"/>
<path d="M111.934 295.039C115.726 291.414 119.079 287.532 121.342 283.207" stroke="black" stroke-linecap="round"/>
<path d="M108.467 258.122C110.872 261.04 113.9 261.557 116.637 263.591C119.022 265.364 120.906 268.08 123.817 269.008" stroke="black" stroke-linecap="round"/>
<path d="M104.505 260.962C107.785 264.835 112.167 267.277 115.399 271.138C117.604 273.773 121.417 275.271 123.321 278.001" stroke="black" stroke-linecap="round"/>
<path d="M101.534 240.61C106.778 241.684 112.601 242.837 116.142 246.973C116.776 247.715 117.754 248.33 118.48 249.024C119.074 249.592 120.029 251.17 120.626 251.496C121.339 251.886 123.59 254.631 123.817 255.282" stroke="black" stroke-linecap="round"/>
<path d="M114.409 327.223C113.395 322.807 108.814 316.832 105.248 314.181C100.934 310.974 93.5031 310.658 88.165 310.658" stroke="black" stroke-linecap="round"/>
<path d="M97.079 340.476C97.079 336.067 97.079 331.658 97.079 327.25C97.079 324.587 94.9847 322.118 93.1177 320.124C91.127 317.997 89.1564 315.435 89.1564 312.314C89.1564 309.975 84.7071 306.801 82.6092 306.03C81.6892 305.692 81.1092 305.182 80.2434 304.768C79.3602 304.346 78.3696 304.72 77.52 304.268C75.2524 303.064 72.573 303.492 70.5601 301.876C67.5729 299.477 64.2355 298.997 60.6568 297.879C59.0757 297.385 57.1398 296.459 55.4851 296.459C52.9267 296.459 50.3683 296.459 47.81 296.459C46.5721 296.459 45.3342 296.459 44.0962 296.459C42.1961 296.459 41.6065 297.939 40.1349 298.72C37.5748 300.08 36.0882 302.422 34.2204 304.505C33.253 305.584 33.6977 307.66 33.6977 309.001C33.6977 311.148 33.1813 313.827 34.578 315.496C36.115 317.332 37.0475 320.434 37.8791 322.674C38.7958 325.143 40.5508 327.053 41.6204 329.353C42.3914 331.011 44.4829 332.227 45.5817 333.744C47.1994 335.978 49.6316 335.307 52.0189 336.321C53.4101 336.912 54.5083 337.462 55.7326 338.372C56.8012 339.166 57.6766 341.175 58.6761 341.448C59.462 341.663 60.0994 342.857 60.9319 343.21C62.106 343.709 63.4799 343.86 64.6732 344.367C70.2304 346.728 76.0495 347.102 82.224 347.102" stroke="black" stroke-linecap="round"/>
<path d="M83.2129 347.102C88.1807 347.102 94.0505 346.47 98.563 348.627C100.257 349.436 110.034 349.784 110.942 348.048" stroke="black" stroke-linecap="round"/>
<path d="M105.001 350.415C106.54 353.877 109.457 355.508 109.457 359.408" stroke="black" stroke-linecap="round"/>
<path d="M107.971 348.995C109.296 350.667 111.932 351.995 111.932 354.201" stroke="black" stroke-linecap="round"/>
<path d="M108.467 257.649C108.467 254.888 108.467 252.127 108.467 249.366C108.467 247.991 107.129 247.102 106.486 246.027C105.26 243.976 103.226 242.572 102.14 240.61C100.817 238.222 96.8244 235.045 94.3547 233.774C92.1444 232.636 90.0308 231.368 87.78 229.803C85.5671 228.265 82.9755 228.621 80.4625 228.042C76.9486 227.231 73.6668 227.448 70.064 227.358C68.9623 227.33 68.1744 226.509 67.0105 226.438C63.9172 226.247 60.7837 226.452 57.6849 226.411C54.934 226.375 52.1337 225.938 49.2946 225.938C44.8431 225.938 40.5201 227.15 36.1727 227.358C33.8422 227.469 30.2886 228.277 28.25 229.251" stroke="black" stroke-linecap="round"/>
<path d="M29.2401 230.198C23.6979 233.298 20.0427 233.984 13.8899 233.984C12.6135 233.984 8.05961 233.984 8.60812 233.984C11.8382 233.984 16.0472 234.632 18.7865 236.298C21.5362 237.97 25.5793 237.532 28.0296 239.874C30.5852 242.317 35.0666 248.671 39.1434 249.129C42.2223 249.476 46.6579 252.584 49.1017 254.336C54.339 258.09 58.0299 259.525 64.3418 260.962C74.4525 263.263 85.1399 263.328 95.5923 263.328" stroke="black" stroke-linecap="round"/>
<path d="M95.5918 263.328C103.508 273.316 106.376 283.84 110.447 295.513" stroke="black" stroke-linecap="round"/>
<path d="M142.634 270.428C145.653 270.428 146.858 270.62 149.071 269.376C150.273 268.7 151.521 267.14 152.537 266.168C153.573 265.178 154.769 263.111 156.003 262.487C158.222 261.364 162.274 259.895 163.706 257.78C166.94 253.004 170.454 247.106 172.591 241.793C173.965 238.379 172.839 232.526 172.839 228.778" stroke="black" stroke-linecap="round"/>
<path d="M141.643 243.45C143.174 241.517 146.594 238.347 146.594 235.877" stroke="black" stroke-linecap="round"/>
<path d="M149.07 238.244C151.714 238.737 156.913 239.629 159.359 238.244C160.403 237.652 161.353 236.975 162.44 236.456C163.902 235.757 164.681 234.136 166.154 233.511C167.213 233.06 167.332 231.446 168.629 231.17C169.336 231.02 169.149 230.851 169.675 230.461C170.869 229.572 174.245 230.198 175.589 230.198C181.787 230.198 183.931 228.625 188.931 225.438C190.081 224.706 190.718 222.678 191.957 222.152C193.177 221.634 194.216 220.847 195.396 220.232C198.287 218.725 200.629 216.492 203.539 214.947C207.596 212.792 212.22 209.815 214.432 205.586" stroke="black" stroke-linecap="round"/>
<path d="M149.565 235.404C152.239 231.928 155.153 228.118 158.203 225.202C160.249 223.246 162.46 220.596 164.035 218.26C165.241 216.472 167.297 215.236 168.382 213.422C169.761 211.115 175.482 209.187 177.68 207.769C180.752 205.787 183.806 203.832 186.428 201.326C191.125 196.837 197.33 194.872 203.429 192.807C205.887 191.975 210.052 191.35 212.231 189.862C214.799 188.109 217.529 186.181 220.869 186.181C222.392 186.181 223.914 186.181 225.436 186.181C228.295 186.181 230.602 184.761 233.441 184.761C237.015 184.761 242.029 186.055 244.637 188.547C246.5 190.327 248.329 191.387 251.075 191.387" stroke="black" stroke-linecap="round"/>
<path d="M251.075 191.387C245.866 191.387 240.658 191.387 235.449 191.387C233.684 191.387 231.417 191.433 229.783 190.809C228.387 190.275 225.277 189.021 223.841 189.021C221.683 189.021 221.86 189.418 221.86 191.387C221.86 193.303 221.761 195.009 221.337 196.83C220.699 199.575 216.413 202.48 216.413 205.113" stroke="black" stroke-linecap="round"/>
<path d="M145.604 222.625C147.825 218.378 148.079 216.184 148.079 211.739C148.079 211.203 147.767 208.583 148.382 208.452C149.52 208.211 152.538 208.072 153.526 208.663C154.377 209.171 156.073 209.4 157.102 209.741C158.696 210.268 160.018 211.005 161.669 211.292C164.158 211.725 165.494 214.619 167.391 215.525" stroke="black" stroke-linecap="round"/>
<path d="M127.779 196.594C124.488 195.95 120.746 194.79 117.38 194.7C115.258 194.644 113.212 193.754 111.191 193.754C108.269 193.754 105.296 191.387 102.443 191.387C97.8877 191.387 93.618 190.914 89.1556 190.914C86.922 190.914 85.4635 190.2 83.4337 189.494C82.2714 189.09 79.7734 189.135 78.8671 188.442C77.5745 187.454 72.2889 187.601 70.5594 187.601C68.37 187.601 66.0729 187.383 63.9021 187.601C62.8654 187.705 62.3275 189.755 61.8664 190.441C61.0186 191.701 59.7222 192.629 58.4828 193.517C57.4437 194.262 56.5532 194.099 55.6768 194.937C53.8927 196.642 52.176 198.074 50.5326 199.907C47.4663 203.326 46.5713 209.367 46.5713 213.737C46.5713 215.698 47.1279 217.117 47.9468 218.839C49.2312 221.539 52.5133 229.562 52.5133 226.595C52.5133 223.014 52.8882 221.049 55.2642 218.129C59.3562 213.1 67.0426 213.159 73.2002 213.159C76.5127 213.159 79.6907 213.632 82.966 213.632C86.2308 213.632 88.7861 213.167 91.879 212.712C94.0181 212.397 95.9764 211.411 98.0411 210.766C101.331 209.739 104.844 209.526 107.972 208.058C109.683 207.255 111.07 206.11 112.648 205.113C117.374 202.13 121.504 198.96 127.283 198.96" stroke="black" stroke-linecap="round"/>
<path d="M146.1 162.989C150.979 162.782 155.597 161.096 160.459 161.096C161.687 161.096 165.359 161.196 165.906 160.15" stroke="black" stroke-linecap="round"/>
<path d="M166.4 159.676C169.875 156.023 172.775 154.51 177.542 153.497C181.712 152.611 185.955 151.709 190.168 150.789C195.082 149.715 200.246 150.442 205.216 149.711C216.332 148.076 228.295 148.317 239.685 148.317C241.298 148.317 243.152 148.298 244.637 148.896C245.881 149.396 247.101 149.225 248.433 149.264C252.192 149.374 255.744 150.596 259.382 151.341C264.997 152.491 270.82 153.05 276.603 153.05C282.305 153.05 290.243 155.282 291.65 161.333C292.173 163.582 281.265 162.043 279.794 162.043C272.332 162.043 265.787 158.73 258.226 158.73C250.787 158.73 243.293 157.781 236.687 161.333C233.213 163.201 230.134 163.052 226.536 162.069C222.556 160.982 218.395 161.695 214.322 160.886C210.913 160.209 207.181 159.272 203.978 158.02C201.396 157.01 198.235 157.096 195.505 156.574C193.223 156.137 190.756 156.363 188.435 156.363C186.556 156.363 184.676 156.363 182.796 156.363C180.466 156.363 178.891 157.744 176.689 158.151C169.141 159.548 162.378 161.82 155.507 165.356" stroke="black" stroke-linecap="round"/>
<path d="M129.265 170.562C129.265 164.99 128.562 161.376 131.356 156.837C132.617 154.787 136.198 154.868 136.198 152.104" stroke="black" stroke-linecap="round"/>
<path d="M142.634 145.951C145.824 142.111 149.771 140.494 153.417 137.326C154.752 136.167 156.3 135.217 157.736 134.118C158.472 133.556 159.557 131.86 160.46 131.752C161.17 131.667 162.807 130.118 163.211 129.622C164.132 128.49 165.487 127.631 166.512 126.651C168.959 124.312 169.868 129.391 169.868 131.279" stroke="black" stroke-linecap="round"/>
<path d="M166.896 156.363C166.997 152.156 169.867 148.363 169.867 144.268C169.867 142.305 169.867 140.341 169.867 138.378" stroke="black" stroke-linecap="round"/>
<path d="M143.624 180.501C145.964 176.208 151.019 173.109 154.408 169.51C155.042 168.837 156.746 166.391 157.489 166.302C158.089 166.231 160.274 165.238 160.46 164.883" stroke="black" stroke-linecap="round"/>
<path d="M108.466 193.28C105.134 191.658 100.743 189.021 96.8297 189.021C95.6068 189.021 93.9313 188.402 92.8683 187.838C90.6286 186.648 89.2437 184.583 87.5591 182.973C84.6628 180.205 82.6217 177.062 80.4892 173.665C78.6613 170.753 76.2803 168.951 76.2803 165.356" stroke="black" stroke-linecap="round"/>
<path d="M105.001 152.577C111.87 152.577 119.598 155.819 123.817 160.86C125.91 163.36 128.381 164.615 129.759 167.249" stroke="black" stroke-linecap="round"/>
<path d="M132.729 174.349C129.875 172.699 126.881 169.952 123.816 168.906C121.947 168.267 120.141 167.612 118.37 166.671C115.237 165.007 111.602 163.679 109.071 160.991C107.329 159.14 104.88 157.379 102.552 156.127C99.9332 154.719 99.5409 153.179 97.8477 151.052C96.2221 149.01 95.2801 145.823 93.006 144.426C90.4521 142.856 87.5957 141.905 84.7808 140.797C83.1573 140.158 81.3806 139.67 79.7191 139.114C78.0379 138.552 75.8391 138.929 74.7949 137.431" stroke="black" stroke-linecap="round"/>
<path d="M92.6221 144.058C90.5428 141.355 85.4478 137.692 84.6719 134.355C84.254 132.557 83.3131 131.282 83.2139 129.385C83.0252 125.777 82.7188 122.168 82.7188 118.5" stroke="black" stroke-linecap="round"/>
<path d="M74.3005 138.378C71.7827 137.322 69.4292 135.406 66.873 134.592" stroke="black" stroke-linecap="round"/>
<path d="M81.7281 118.026C78.8525 119.099 76.3083 119.377 74.3006 116.712C72.907 114.861 69.4831 107.4 72.375 106.089C75.589 104.631 78.8462 102.929 81.7281 100.882C83.5561 99.5844 85.1717 97.8968 87.175 96.8331C90.2954 95.1761 93.435 94.078 96.5831 92.5734C99.7586 91.0558 102.647 89.1231 105.771 87.6301C106.583 87.242 108.614 85.7228 107.697 87.262C106.44 89.3709 104.141 91.2409 103.13 93.4148C102.034 95.773 101.058 98.6038 99.059 100.514C95.528 103.889 92.4864 107.38 89.6508 111.295C87.5275 114.226 84.7016 116.603 82.7185 119.446" stroke="black" stroke-linecap="round"/>
<path d="M146.1 159.203C147.758 157.131 149.793 154.283 152.069 152.787C155.12 150.783 156.805 147.168 159.359 144.636C162.236 141.785 166.497 140.974 169.372 138.378C171.622 136.347 173.339 133.852 175.094 131.384C177.334 128.235 180.048 125.406 181.999 122.049C183.448 119.557 185.662 115.065 188.684 114.24C190.848 113.649 193.537 110.193 194.103 108.297C194.883 105.688 196.817 104.751 198.092 102.618C199.025 101.057 201.213 99.4625 202.549 98.1479C203.981 96.7387 205.133 95.2042 206.51 93.8882" stroke="black" stroke-linecap="round"/>
<path d="M185.713 115.187C186.24 112.891 188.438 110.204 188.684 108.087C188.871 106.48 190.078 104.053 191.05 102.776C191.61 102.04 192.09 100.051 192.535 99.0944C192.963 98.1735 194.131 95.4859 194.131 94.5981C194.131 91.8545 196.607 89.9053 196.607 87.0254C196.607 82.1224 199.082 77.5702 199.082 72.5898" stroke="black" stroke-linecap="round"/>
<path d="M207.499 66.437C205.781 73.6287 203.48 80.6312 200.48 87.2329C197.873 92.968 197.23 99.8788 195.615 106.194" stroke="black" stroke-linecap="round"/>
<path d="M173.334 131.279C175.562 128.382 176.887 122.932 175.783 119.236C175.486 118.245 165.908 121.181 164.421 121.339C161.754 121.623 158.967 122.74 157.737 119.446C156.359 115.759 161.63 113.92 162.936 111.111C163.499 109.9 164.779 109.828 165.412 108.771C165.666 108.345 167.323 106.472 167.612 106.299C170.034 104.853 172.794 103.98 175.04 102.223C179.484 98.7481 187.479 99.1571 190.17 104.301" stroke="black" stroke-linecap="round"/>
<path d="M205.024 95.7812C207.639 94.2342 209.28 92.5595 211.159 90.3646C212.726 88.5344 210.129 84.7494 211.957 83.0022C213.09 81.919 215.852 81.0626 217.376 80.4254C219.687 79.4589 221.921 78.4938 224.446 78.0589C230.124 77.0811 235.784 75.2853 241.419 74.4566C243.107 74.2084 244.459 73.1309 246.233 73.063C247.544 73.0129 248.986 71.9027 250.332 71.6168C252.107 71.2398 253.913 70.4169 255.751 70.2495C268.632 69.0769 280.828 63.5971 293.907 63.5971C298.441 63.5971 306.086 61.2649 310 64.0704" stroke="black" stroke-linecap="round"/>
<path d="M210.471 94.8348C215.42 96.8149 219.785 98.7495 224.335 94.8348C226.871 92.6537 230.366 91.6474 232.753 89.3656C235.33 86.9026 239.699 86.3516 242.436 83.686C244.775 81.4086 246.501 78.2202 249.589 76.7443C253.806 74.7289 257.665 71.5333 261.473 68.8035" stroke="black" stroke-linecap="round"/>
<path d="M203.044 68.8034C200.654 67.3757 199.738 66.4886 198.835 64.0704C198.405 62.9197 198.537 62.1173 197.707 61.1255C197.37 60.7224 196.882 59.2191 196.607 58.6275C196.151 57.6475 195.121 57.7296 195.121 56.4977" stroke="black" stroke-linecap="round"/>
<path d="M197.102 73.063C196.308 69.5232 194.665 66.4104 192.893 63.3604C191.907 61.6653 190.169 59.177 190.169 57.2075C190.169 56.4241 177.187 56.0243 174.599 56.0243C173.136 56.0243 172.545 55.4851 171.16 55.0777C169.867 54.6973 168.88 53.5622 167.859 53.2371C164.939 52.3067 162.331 50.9528 159.359 50.1344C154.846 48.8914 151.975 44.9238 147.695 43.3505C145.086 42.3915 142.69 41.1841 140.157 40.0374C138.57 39.3187 137.552 38.0238 136.196 36.9873C135.213 36.2352 134.721 35.0892 133.72 34.3578C132.852 33.7235 131.989 33.9107 131.024 33.569C124.674 31.3208 120.405 25.5452 114.684 22.4202C111.133 20.4806 118.05 13.8105 119.36 12.2444C122.583 8.39411 126.095 8.67348 130.254 6.90663C132.231 6.06673 134.64 7.23419 136.581 5.74969C138.836 4.02537 149.205 -0.642189 151.546 1.5952" stroke="black" stroke-linecap="round"/>
<path d="M148.08 1.59528C150.531 4.82504 152.729 8.68161 156.498 10.4827C157.588 11.0036 159.551 12.7456 160.074 13.6906C160.934 15.244 162.624 16.9904 163.815 18.2658C165.936 20.5358 166.105 24.7494 168.629 26.68C169.407 27.2749 170.463 29.1961 171.105 30.0457C172.616 32.0449 173.202 34.3624 174.792 36.3563C177.41 39.6416 180.267 42.6941 182.989 45.8748C186.47 49.9416 189.668 54.2451 194.131 57.4443" stroke="black" stroke-linecap="round"/>
<path d="M207.005 71.6431C207.038 69.0042 207.996 66.3072 207.996 63.8337C207.996 62.9549 208.491 62.3027 208.491 61.4672C208.491 60.1287 208.5 58.8526 208.876 57.5494C209.321 56.008 208.86 57.4502 208.491 58.0227C207.137 60.1253 205.767 62.0705 204.31 64.0966C203.564 65.1329 202.961 65.9918 202.054 66.9101C201.395 67.5768 201.845 68.4299 201.063 68.8033" stroke="black" stroke-linecap="round"/>
<path d="M95.5931 151.63C91.3736 150.483 85.7681 149.928 81.7285 148.212C79.9989 147.477 78.05 148.238 76.2816 147.581C74.4084 146.885 72.1255 147.077 70.3396 146.319C68.3467 145.472 66.521 144.25 64.4251 143.374C59.4609 141.298 54.206 141.456 48.8274 140.771C43.2764 140.063 37.8402 140.418 32.5144 138.851C26.1214 136.971 18.6935 137.071 11.91 137.431C10.0097 137.532 6.15935 139.194 5.00517 140.482C4.10319 141.487 3.0701 144.623 2.997 145.951C2.88292 148.023 2.00667 149.693 2.00667 151.841C2.00667 153.19 2.00667 154.54 2.00667 155.89C2.00667 157.174 2.27876 158.812 1.89663 160.044C1.63378 160.892 0.801063 163.807 1.04384 164.62C1.42094 165.881 20.4262 163.319 21.0156 163.252C25.3662 162.759 29.8146 162.989 34.1925 162.989C36.3939 162.989 38.4484 162.301 40.6296 162.069C45.4397 161.558 50.61 162.043 55.4571 162.043C65.9932 162.043 76.5292 162.043 87.0652 162.043C93.108 162.043 98.9996 161.569 105.001 161.569C108.02 161.569 109.699 163.66 112.319 165.198C117.574 168.283 123.431 169.904 128.769 172.455" stroke="black" stroke-linecap="round"/>
<path d="M66.3775 134.592C61.4764 134.748 56.6788 136.012 51.7976 136.012C50.4428 136.012 48.7392 136.443 47.4512 136.853C43.8211 138.01 41.0316 139.879 37.6579 141.586C34.7338 143.066 32.755 145.403 29.3501 146.529C26.6957 147.408 23.5898 147.816 21.3174 149.264" stroke="black" stroke-linecap="round"/>
<path d="M90.1454 144.057C86.2915 142.689 82.0597 141.447 78.509 139.561C76.1902 138.33 73.9441 138.478 71.8242 136.958" stroke="black" stroke-linecap="round"/>
<path d="M70.8334 136.958C65.1281 139.139 58.5214 140.686 53.2275 143.216C52.6932 143.471 52.7564 144.298 52.2097 144.531C51.3994 144.875 50.5745 145.196 49.7889 145.53C48.2341 146.19 46.5894 147.561 44.8097 147.87C38.6624 148.938 33.591 151.823 27.5889 153.629C23.7722 154.777 19.6634 155.274 16.1175 157.099C13.3141 158.542 11.0753 161.067 8.46998 162.779C7.14426 163.65 6.72649 165.158 5.8566 166.197C4.10179 168.294 5.29025 164.537 5.96664 163.752C8.72125 160.555 10.5058 157.492 14.3845 155.311C15.6162 154.619 17.3079 153.345 18.1257 152.34C18.7954 151.517 20.0772 151.492 21.0417 151.157C21.8613 150.872 22.0591 149.983 22.8298 149.737C25.9903 148.73 29.0402 146.961 32.2105 145.951" stroke="black" stroke-linecap="round"/>
<path d="M112.427 371.24C110.6 368.766 109.456 366.879 109.456 363.904C109.456 362.285 109.807 359.881 111.932 359.881" stroke="black" stroke-linecap="round"/>
<path d="M44.5898 456.907C45.3758 450.521 51.1323 445.083 54.108 439.395C55.8164 436.129 58.591 433.286 60.2151 430.034C61.5609 427.339 63.7779 425.111 65.1668 422.33C66.6399 419.379 68.2954 416.203 70.3385 413.574C73.6381 409.328 77.5775 405.479 81.0121 401.321C88.1576 392.669 93.5706 382.638 101.782 374.79C104.345 372.34 108.297 371.09 109.952 367.927" stroke="black" stroke-linecap="round"/>
<path d="M126.292 371.24C130.3 374.875 135.12 377.323 139.827 380.022C142.155 381.358 143.823 383.695 145.603 385.597C147.985 388.141 150.434 390.66 153.031 393.012C155.045 394.835 157.985 396.753 159.578 399.164C160.764 400.959 162.85 402.471 162.934 404.739C163.008 406.703 163.537 408.296 164.31 410.05C165.667 413.131 167.367 418.795 170.857 420.463" stroke="black" stroke-linecap="round"/>
<path d="M150.061 341.422C154.962 340.907 159.802 340.26 164.475 338.688C166.658 337.953 168.402 336.668 170.472 335.743C174.209 334.073 177.584 332.074 181.421 330.642C187.034 328.546 193.391 328.099 199.192 326.54C203.682 325.332 210.474 323.712 213.937 320.597C215.472 319.216 217.708 317.284 219.879 317.284" stroke="black" stroke-linecap="round"/>
<path d="M219.879 317.284C222.041 316.11 225.89 314.444 228.544 314.444C230.212 314.444 231.505 313.498 233.248 313.498" stroke="black" stroke-linecap="round"/>
<path d="M96.0879 338.109C96.0879 341.415 96.5831 344.887 96.5831 348.048" stroke="black" stroke-linecap="round"/>
<path d="M95.5917 346.629C91.8003 340.951 86.3761 336.578 81.2319 332.061C78.3765 329.554 76.1306 326.244 72.9241 324.384C67.7908 321.405 61.4721 318.525 58.0691 313.498C57.5335 312.706 56.177 312.853 55.3732 312.341C54.3932 311.716 53.483 310.945 52.5123 310.29C49.906 308.531 46.6006 308.11 44.2045 305.82C42.3219 304.02 40.003 302.612 37.1621 302.612" stroke="black" stroke-linecap="round"/>
<path d="M187.198 383.072C184.88 380.175 183.49 380.27 180.155 379.391C179.06 379.102 176.606 379.528 175.809 378.576C174.475 376.982 170.304 376.955 168.629 375.71C164.686 372.779 158.247 374.879 154.021 372.187" stroke="black" stroke-linecap="round"/>
<path d="M156.003 373.606C152.818 373.606 149.865 373.133 146.595 373.133" stroke="black" stroke-linecap="round"/>
<path d="M17.8506 234.457C26.5488 234.653 34.9616 235.937 43.4892 237.455C46.1185 237.923 48.5573 238.851 51.1368 239.295C54.9191 239.947 58.2935 241.832 62.1405 242.398C65.8696 242.946 69.3987 243.716 73.1992 244.028C76.5387 244.303 81.22 244.284 84.0928 246.079C85.8575 247.182 88.577 247.841 90.0348 249.235C91.3427 250.485 91.9367 252.605 93.611 253.494C95.1806 254.328 96.2162 255.611 98.1776 255.755C99.5726 255.858 100.883 256.628 102.029 257.175" stroke="black" stroke-linecap="round"/>
<path d="M94.6016 262.382C96.7556 260.838 101.616 258.122 104.505 258.122C107.764 258.122 106.981 256.086 106.981 253.389" stroke="black" stroke-linecap="round"/>
<path d="M148.081 236.824C146.962 237.24 146.104 237.768 147.586 236.824" stroke="black" stroke-linecap="round"/>
<path d="M52.5119 224.518C51.2047 220.255 51.0264 215.691 51.0264 211.266C51.0264 209.441 51.8945 208.463 53.2821 207.243C59.2485 201.996 66.5799 199.183 74.6843 198.592C82.5866 198.015 91.335 199.602 99.03 197.303C101.219 196.649 103.99 197.126 106.265 197.067C108.566 197.007 110.839 196.594 113.197 196.594C118.233 196.594 123.28 197.067 128.272 197.067" stroke="black" stroke-linecap="round"/>
<path d="M148.08 237.77C151.748 234.979 155.897 231.927 160.239 230.198C162.666 229.231 165.129 228.3 167.419 227.069C169.974 225.695 171.16 223.493 173.058 221.678C175.181 219.649 177.407 217.733 179.496 215.736C182.329 213.028 186.637 211.594 189.289 208.426C190.996 206.386 194.077 203.582 196.579 202.536C197.665 202.082 198.789 201.64 199.825 201.09C200.844 200.549 201.544 199.884 202.548 199.328C205.693 197.588 208.949 195.218 212.204 193.754C214.805 192.584 216.859 190.441 219.879 190.441" stroke="black" stroke-linecap="round"/>
<path d="M122.826 254.809C124.293 257.283 126.292 259.962 126.292 262.855" stroke="black" stroke-linecap="round"/>
<path d="M107.971 153.05C105.78 153.449 103.739 153.524 101.534 153.524" stroke="black" stroke-linecap="round"/>
<path d="M67.8623 431.822C67.9977 436.998 69.843 441.519 69.843 446.967C69.843 451.206 70.8333 454.963 70.8333 459.273" stroke="black" stroke-linecap="round"/>
<path d="M63.9014 424.249C65.167 428.03 66.8724 432.553 66.8724 436.555" stroke="black" stroke-linecap="round"/>
<path d="M81.7275 399.638C83.5822 410.717 84.6985 420.424 84.6985 431.612C84.6985 438.308 84.6985 445.004 84.6985 451.7" stroke="black" stroke-linecap="round"/>
<path d="M90.6406 388.279C98.2755 397.912 95.5923 411.45 95.5923 423.303" stroke="black" stroke-linecap="round"/>
<path d="M107.477 375.026V411.943" stroke="black" stroke-linecap="round"/>
<path d="M100.544 371.24C95.0135 372.429 91.2992 374.806 86.6794 377.13C84.2244 378.365 81.5129 379.823 79.1969 381.232C76.5491 382.842 73.8128 381.754 71.3293 383.072C67.8674 384.911 64.1586 384.701 60.4356 385.491C58.139 385.979 50.9185 387.54 50.0371 389.225" stroke="black" stroke-linecap="round"/>
<path d="M90.6405 384.492C83.9104 384.612 78.3505 386.08 72.3999 388.443C68.6257 389.942 67.2427 393.491 64.1088 395.138C60.4253 397.074 57.5179 400.718 53.6066 402.272C49.7713 403.795 46.7311 405.05 43.1045 407.21" stroke="black" stroke-linecap="round"/>
<path d="M35.1826 433.715C38.6308 428.31 44.4611 421.786 49.7014 417.15C52.9515 414.274 56.7871 408.834 61.3164 407C69.9268 403.514 73.2413 395.851 84.6993 395.851" stroke="black" stroke-linecap="round"/>
<path d="M160.954 296.459C157.047 305.244 154.021 315.113 154.021 324.857" stroke="black" stroke-linecap="round"/>
<path d="M146.1 304.032V329.59" stroke="black" stroke-linecap="round"/>
<path d="M138.177 338.109C142.014 334.33 146.456 325.126 151.546 322.964C153.535 322.119 155.499 319.743 156.993 318.231C157.933 317.28 161.499 312.876 162.495 312.604C169.925 310.575 176.796 303.085 184.722 303.085" stroke="black" stroke-linecap="round"/>
<path d="M170.858 297.406C169.004 301.947 169.551 309.692 166.896 313.498" stroke="black" stroke-linecap="round"/>
<path d="M166.896 314.444L171.848 316.338" stroke="black" stroke-linecap="round"/>
<path d="M171.849 333.376C173.591 325.615 176.486 325.511 181.895 321.281C184.46 319.275 187.275 319.909 189.278 316.863C190.097 315.618 192.392 313.092 193.636 312.551" stroke="black" stroke-linecap="round"/>
<path d="M182.742 329.59C192.727 325.633 194.824 315.77 203.539 311.604" stroke="black" stroke-linecap="round"/>
<path d="M187.693 328.643C191.523 333.328 194.413 334.015 200.073 335.217C203.086 335.857 207.894 334.13 209.481 337.163" stroke="black" stroke-linecap="round"/>
<path d="M205.519 323.91C212.65 325.24 217.9 326.75 225.325 326.75" stroke="black" stroke-linecap="round"/>
<path d="M170.857 337.163C177.939 339.969 185.007 343.789 192.645 343.789" stroke="black" stroke-linecap="round"/>
<path d="M54.9893 230.198C58.0389 233.929 60.8428 236.655 62.9119 240.61" stroke="black" stroke-linecap="round"/>
<path d="M51.0264 225.465C53.4587 228.44 55.2923 230.78 56.9684 233.984" stroke="black" stroke-linecap="round"/>
<path d="M65.8828 226.411C70.58 229.039 74.0951 230.866 76.7765 235.351C78.3993 238.066 82.7185 241.257 82.7185 244.397" stroke="black" stroke-linecap="round"/>
<path d="M81.7275 233.037C84.6074 236.671 92.1526 241.172 93.5565 245.869C94.1401 247.821 96.0912 248.669 96.6375 250.497C97.1307 252.147 97.7353 254.173 98.5632 255.756" stroke="black" stroke-linecap="round"/>
<path d="M35.1826 247.236C46.5836 247.071 57.7044 245.343 68.8539 245.343" stroke="black" stroke-linecap="round"/>
<path d="M53.0078 258.595C65.8979 254.572 78.2252 254.809 91.6308 254.809" stroke="black" stroke-linecap="round"/>
<path d="M72.8145 200.853C66.0814 204.62 62.9111 204.485 62.9111 212.212" stroke="black" stroke-linecap="round"/>
<path d="M90.6399 198.013C84.3665 202.698 81.9434 207.065 78.7559 213.159" stroke="black" stroke-linecap="round"/>
<path d="M94.6016 213.159C97.8139 207.913 99.1967 201.396 104.505 198.013" stroke="black" stroke-linecap="round"/>
<path d="M100.544 196.12C97.1998 195.496 91.9023 194.907 89.4298 192.544C88.4637 191.621 87.9868 191.266 87.6142 190.02C87.3141 189.016 85.3227 189.741 84.6982 188.547" stroke="black" stroke-linecap="round"/>
<path d="M84.6986 198.013C81.8546 194.534 80.4776 193.893 76.776 192.124C74.942 191.247 71.674 192.046 70.834 190.441" stroke="black" stroke-linecap="round"/>
<path d="M69.843 198.013C65.7868 195.076 62.87 193.28 57.959 193.28" stroke="black" stroke-linecap="round"/>
<path d="M80.7373 173.402C92.5542 177.974 104.506 182.395 115.399 187.601" stroke="black" stroke-linecap="round"/>
<path d="M121.341 196.12C120.446 191.733 119.282 188.069 114.959 185.708C113.035 184.657 109.185 181.643 108.247 180.028C106.232 176.561 103.288 173.859 101.535 170.089C100.556 167.984 98.5402 163.613 96.583 162.99" stroke="black" stroke-linecap="round"/>
<path d="M122.331 198.96C124.223 204.521 130.254 210.733 130.254 215.999" stroke="black" stroke-linecap="round"/>
<path d="M120.351 202.746C122.243 208.308 128.273 214.52 128.273 219.785" stroke="black" stroke-linecap="round"/>
<path d="M104.505 172.455C99.6389 171.548 93.5204 169.993 89.2095 167.933C85.556 166.187 81.5204 163.239 77.7656 162.043" stroke="black" stroke-linecap="round"/>
<path d="M1.51074 151.63C7.31079 151.63 12.7814 150.684 18.3464 150.684" stroke="black" stroke-linecap="round"/>
<path d="M28.25 162.989C33.4301 160.091 39.6602 154.834 45.5808 153.576C49.777 152.685 55.2909 152.433 58.9503 150.684" stroke="black" stroke-linecap="round"/>
<path d="M49.0469 146.897C57.7769 146.897 66.3549 146.177 73.8052 149.947C76.6809 151.403 80.4406 153.78 83.1583 154.523C85.7483 155.23 89.1968 156.146 91.6312 157.31" stroke="black" stroke-linecap="round"/>
<path d="M85.6887 155.417C77.2709 155.417 68.853 155.417 60.4352 155.417C54.0336 155.417 49.7389 162.989 44.0947 162.989" stroke="black" stroke-linecap="round"/>
<path d="M169.867 241.557C166.12 244.352 161.902 246.104 158.973 249.603C157.234 251.681 155.517 254.67 153.802 256.492C152.048 258.354 149.513 260.907 147.584 262.382C145.442 264.02 145.082 268.074 143.128 269.008" stroke="black" stroke-linecap="round"/>
<path d="M156.993 213.159C156.993 218.554 158.091 223.89 155.013 228.304" stroke="black" stroke-linecap="round"/>
<path d="M149.07 249.129C154.466 245.1 158.95 239.709 161.945 233.984" stroke="black" stroke-linecap="round"/>
<path d="M151.051 245.343C148.323 247.239 144.664 249.033 143.128 251.969" stroke="black" stroke-linecap="round"/>
<path d="M74.7949 278.474C85.7083 280.509 97.093 283.236 102.524 293.619" stroke="black" stroke-linecap="round"/>
<path d="M73.8047 269.954C78.1117 270.057 83.861 271.387 87.6693 273.005C91.032 274.433 95.8877 276.581 99.5533 276.581" stroke="black" stroke-linecap="round"/>
<path d="M103.516 279.42C105.235 275.209 106.561 271.706 108.467 268.061" stroke="black" stroke-linecap="round"/>
<path d="M111.438 293.619C115.456 287.058 115.399 282.919 115.399 275.634" stroke="black" stroke-linecap="round"/>
<path d="M120.351 255.755V269.008" stroke="black" stroke-linecap="round"/>
<path d="M114.408 248.183C112.434 253.018 111.438 257.333 111.438 262.382" stroke="black" stroke-linecap="round"/>
<path d="M80.7373 304.978C80.7373 310.559 81.3975 316.568 81.3975 321.544C81.3975 325.993 82.718 328.961 82.718 333.376" stroke="black" stroke-linecap="round"/>
<path d="M62.9111 299.299C65.8698 307.863 68.8531 314.339 68.8531 323.91" stroke="black" stroke-linecap="round"/>
<path d="M45.0859 298.352C47.0077 303.059 48.439 308.887 53.9989 310.658" stroke="black" stroke-linecap="round"/>
<path d="M36.1719 316.338C43.566 317.717 50.1759 316.338 56.9689 316.338" stroke="black" stroke-linecap="round"/>
<path d="M38.1533 323.91C49.3656 327.993 58.6661 325.804 69.844 325.804" stroke="black" stroke-linecap="round"/>
<path d="M44.0947 335.269C54.5456 339.168 71.5439 338.514 81.7274 335.269" stroke="black" stroke-linecap="round"/>
<path d="M129.264 375.973C130.384 381.46 131.57 380.783 133.995 384.492C134.807 385.734 135.603 388.393 136.691 389.225C139.612 391.458 137.975 399.061 139.167 402.477" stroke="black" stroke-linecap="round"/>
<path d="M143.128 388.279C143.128 395.55 148.08 399.126 148.08 406.264C148.08 410.249 149.07 415.046 149.07 419.516" stroke="black" stroke-linecap="round"/>
<path d="M154.021 396.798C160.118 404.81 154.846 414.467 158.973 422.356" stroke="black" stroke-linecap="round"/>
<path d="M149.07 388.279C156.601 389.683 162.308 390.819 168.877 393.958" stroke="black" stroke-linecap="round"/>
<path d="M135.206 375.973C140.15 376.085 142.637 377.664 146.65 378.76C148.441 379.249 150.833 380.706 152.537 380.706C155.781 380.706 161.27 382.8 163.926 384.492" stroke="black" stroke-linecap="round"/>
<path d="M162.935 402.478C165.396 404.188 170.857 405.677 170.857 409.104" stroke="black" stroke-linecap="round"/>
<path d="M155.012 137.431C152.936 142.518 149.07 147.179 149.07 152.577" stroke="black" stroke-linecap="round"/>
<path d="M95.592 94.8347C90.5267 101.226 83.708 110.135 83.708 118.5" stroke="black" stroke-linecap="round"/>
<path d="M84.6982 99.5676C85.8572 101.46 86.7827 103.27 87.6692 105.247" stroke="black" stroke-linecap="round"/>
<path d="M76.7764 106.194C77.3129 108.53 78.1932 115.39 80.7377 116.606" stroke="black" stroke-linecap="round"/>
<path d="M171.849 107.141C173.598 111.426 173.809 116.567 175.81 120.393" stroke="black" stroke-linecap="round"/>
<path d="M163.925 111.873C167.087 111.949 171.847 112.819 171.847 116.606" stroke="black" stroke-linecap="round"/>
<path d="M174.818 116.606C176.452 109.666 180.074 107.893 185.712 104.301" stroke="black" stroke-linecap="round"/>
<path d="M139.167 37.0925H146.099" stroke="black" stroke-linecap="round"/>
<path d="M116.389 18.1607C121.983 19.2799 128.265 20.7977 133.995 21.0005C138.325 21.1538 140.82 22.982 144.613 23.7877C150.681 25.0766 154.093 29.9529 158.478 33.3062C159.142 33.8143 160.464 35.5907 160.514 34.7787C160.605 33.2855 159.214 31.2602 158.478 29.9932C157.083 27.5932 154.63 26.3298 153.251 23.8403C149.532 17.1256 148.079 11.7895 148.079 3.96185" stroke="black" stroke-linecap="round"/>
<path d="M159.964 34.2528C165.871 37.6957 170.395 42.0005 176.304 45.1386C179.747 46.9667 183.384 49.3476 184.722 53.1847" stroke="black" stroke-linecap="round"/>
<path d="M158.974 34.2527C151.302 34.2527 146.425 34.0448 140.157 38.0391" stroke="black" stroke-linecap="round"/>
<path d="M127.283 9.64136C131.082 12.3919 135.549 19.2712 139.167 21.0005" stroke="black" stroke-linecap="round"/>
<path d="M157.983 49.3982H177.79" stroke="black" stroke-linecap="round"/>
<path d="M105.496 318.231C105.496 326.64 103.634 338.337 107.476 345.682" stroke="black" stroke-linecap="round"/>
<path d="M211.461 151.63C215.939 151.732 219.977 153.061 224.335 153.523C225.645 153.663 225.99 155.343 227.306 155.417C230.812 155.614 233.76 158.256 237.21 158.256" stroke="black" stroke-linecap="round"/>
<path d="M210.471 92.9415C214.23 90.7507 217.711 87.9622 221.419 85.8946C224.03 84.4393 225.487 82.3381 227.802 81.1091C232.61 78.5556 237.562 75.9028 243.152 75.9028" stroke="black" stroke-linecap="round"/>
<path d="M240.181 150.684C245.83 152.199 252.74 151.496 258.007 153.734C259.914 154.544 259.667 155.937 261.418 156.416C262.733 156.775 264.708 157.478 265.929 158.256" stroke="black" stroke-linecap="round"/>
<path d="M191.654 152.577C196.178 152.577 199.415 151.411 201.558 154.996C202.6 156.739 205.359 159.203 207.5 159.203" stroke="black" stroke-linecap="round"/>
<path d="M120.351 402.478C120.351 408.933 121.341 414.17 121.341 420.463" stroke="black" stroke-linecap="round"/>
<path d="M114.409 403.424V426.142" stroke="black" stroke-linecap="round"/>
<path d="M130.253 394.905V423.303" stroke="black" stroke-linecap="round"/>
<path d="M134.216 397.744V424.249" stroke="black" stroke-linecap="round"/>
<path d="M208.49 89.1552C202.381 90.4691 204.706 91.2997 201.778 94.0985C200.277 95.5335 199.702 97.6745 197.597 97.6745" stroke="black" stroke-linecap="round"/>
<path d="M166.896 147.844C160.982 150.246 160.939 150.709 158.478 154.943C157.106 157.304 155.644 158.77 154.021 161.096" stroke="black" stroke-linecap="round"/>
<path d="M146.1 174.349C147.165 169.128 148.941 167.969 151.051 163.936" stroke="black" stroke-linecap="round"/>
<path d="M174.818 220.732H196.606" stroke="black" stroke-linecap="round"/>
<path d="M190.664 207.479H214.432" stroke="black" stroke-linecap="round"/>
<path d="M229.287 82.5291H241.171" stroke="black" stroke-linecap="round"/>
<path d="M218.394 89.1552C223.079 89.2644 227.504 90.1017 232.258 90.1017" stroke="black" stroke-linecap="round"/>
<path d="M217.403 81.5824V87.262" stroke="black" stroke-linecap="round"/>
<path d="M210.47 88.2085C208.413 89.0443 207.109 89.832 205.519 91.0483" stroke="black" stroke-linecap="round"/>
<path d="M35.6774 437.975C35.6774 439.84 35.1102 443.269 36.4752 444.864C38.4999 447.229 40.16 449.816 41.3718 452.647C42.103 454.355 42.8072 457.058 43.9852 457.958C45.5942 459.189 48.156 459.11 50.0372 460.009C51.3899 460.656 52.529 461.668 53.8885 462.218C54.5718 462.494 54.6217 463.017 55.0989 463.428C55.6193 463.875 57.7462 463.533 58.29 463.533C62.0496 463.533 65.8092 463.533 69.5688 463.533C71.0679 463.533 72.2233 463.644 73.5301 462.849C76.8241 460.845 78.9967 456.414 81.8379 453.699C84.3076 451.338 85.7718 448.624 87.4223 445.784C89.8559 441.597 92.8503 437.733 95.2074 433.452C97.5883 429.128 98.4978 423.257 101.782 419.49C103.488 417.534 105.104 414.254 106.376 411.943C109.06 407.07 113.407 402.516 115.509 397.745C117.108 394.115 120.351 390.766 120.351 386.622C120.351 385.022 120.613 383.447 119.746 382.021C118.913 380.652 117.875 379.029 117.875 377.393C117.875 375.697 117.228 373.6 115.152 373.159C113.452 372.798 112.528 370.767 110.943 370.767" stroke="black" stroke-linecap="round"/>
</svg>
