<svg width="405" height="331" viewBox="0 0 405 331" fill="none" xmlns="http://www.w3.org/2000/svg">
<path d="M1 144.741C4.36057 141.48 9.03276 137.205 13.2937 135.075C17.1195 133.162 23.1554 132.855 26.4805 130.084C30.5057 126.729 34.1026 123.391 38.8267 120.89C42.2079 119.1 45.4488 118.205 49.0189 117.107C50.5742 116.628 57.0419 115.177 57.7401 113.955C60.6096 108.933 67.3979 106.768 69.8236 102.186C71.1482 99.6844 70.9794 97.5996 70.9794 94.6211C70.9794 91.549 66.2716 92.7298 63.8869 92.7298C57.7194 92.7298 54.2794 94.8245 49.9646 99.1393C43.5315 105.572 33.1527 114.249 33.1527 123.937" stroke="black" stroke-linecap="round" stroke-linejoin="round"/>
<path d="M16.1307 133.394C14.7111 125.941 15.185 118.264 15.185 110.698" stroke="black" stroke-linecap="round" stroke-linejoin="round"/>
<path d="M15.185 110.698C19.7464 104.859 26.5534 105.05 31.7868 100.768C35.3747 97.8324 38.9722 95.0622 42.6094 92.2044C44.6769 90.58 46.8192 86.9309 49.2816 86.1101C51.903 85.2364 53.416 83.6188 55.8487 82.5376C58.9537 81.1577 62.7904 80.7841 66.0409 79.7006C72.3574 77.5951 80.3583 72.9486 85.1644 68.1425" stroke="black" stroke-linecap="round" stroke-linejoin="round"/>
<path d="M85.1644 68.1424C85.1644 63.3566 87.228 55.8488 80.9089 55.8488C76.4958 55.8488 72.0827 55.8488 67.6696 55.8488C62.9046 55.8488 59.2663 57.4977 54.9031 57.7401C52.3189 57.8837 46.0731 58.5845 44.2906 60.3669C42.2811 62.3765 38.842 64.3475 36.4625 66.2511C33.6287 68.5182 31.2176 71.2383 28.8447 74.2893C24.021 80.4912 21.8047 88.3503 21.8047 96.5125" stroke="black" stroke-linecap="round" stroke-linejoin="round"/>
<path d="M21.8047 96.5125C21.8047 90.0631 20.1735 87.6412 17.8119 82.3275C16.0559 78.3766 17.0763 72.4794 17.0763 68.1425C17.0763 62.9071 18.0182 61.1063 21.5945 57.53C24.5141 54.6104 25.1404 50.4336 28.6345 48.2834C37.451 42.8579 46.4754 42.2708 56.7944 41.6638C62.1433 41.3491 67.3654 39.7724 72.8708 39.7724C75.24 39.7724 83.2901 38.7927 84.2188 36.9354" stroke="black" stroke-linecap="round" stroke-linejoin="round"/>
<path d="M84.2188 36.9354C88.9353 30.3733 81.8633 32.207 77.1263 32.207C73.186 32.207 69.2457 32.207 65.3054 32.207C57.3271 32.207 50.8946 35.4956 47.3377 42.6094" stroke="black" stroke-linecap="round" stroke-linejoin="round"/>
<path d="M37.881 43.5551C40.6579 36.4395 38.8405 29.1164 43.555 23.2232C44.9262 21.5093 47.1729 20.3856 48.2834 18.4423C50.1978 15.0921 52.3591 15.555 54.9031 13.2937C59.197 9.47686 64.3818 7.18712 69.5609 4.30984C72.6766 2.57887 75.5147 2.89134 79.0176 2.89134C82.108 2.89134 83.1334 1 86.1101 1" stroke="black" stroke-linecap="round" stroke-linejoin="round"/>
<path d="M86.1101 1C92.3723 1 100.838 1.01713 104.813 4.99282C107.086 7.26598 110.847 12.6364 111.696 15.6053C111.878 16.2451 114.619 20.5917 114.953 20.859C117.027 22.5183 116.371 25.5595 116.371 27.9515C116.371 30.5657 115.987 33.1359 117.317 35.4643C118.595 37.6999 121.1 37.4629 121.1 40.718" stroke="black" stroke-linecap="round" stroke-linejoin="round"/>
<path d="M47.3377 214.721C47.3377 211.111 48.9984 202.137 45.0261 199.8C42.348 198.225 40.7071 196.217 38.6166 194.126C34.2744 189.784 29.0955 184.078 26.533 178.313C23.9026 172.394 16.9319 169.532 15.1325 163.235C14.3046 160.337 11.7808 156.705 10.4567 153.725C8.83404 150.074 5.19708 148.761 2.89133 145.687" stroke="black" stroke-linecap="round" stroke-linejoin="round"/>
<path d="M48.2834 213.775C48.9348 212.242 51.1015 204.758 52.2762 203.583C52.892 202.967 57.6949 202.486 58.6857 202.427C60.5023 202.32 62.682 200.219 64.3597 199.38C66.8265 198.147 69.6405 197.699 72.3979 197.699C82.836 197.699 89.6972 194.487 98.4038 190.134" stroke="black" stroke-linecap="round" stroke-linejoin="round"/>
<path d="M98.4038 190.134C104.803 188.943 110.517 187.797 116.371 185.195C118.863 184.088 125.828 179.233 125.828 176.894" stroke="black" stroke-linecap="round" stroke-linejoin="round"/>
<path d="M125.828 177.84C125.728 173.741 124.258 170.346 122.991 166.544C122.138 163.985 119.361 161.819 119.208 158.926C118.992 154.809 118.796 148.543 117.107 144.741C115.546 141.229 112.589 136.267 112.589 132.448C112.589 128.854 111.195 123.909 108.596 121.31C106.934 119.648 107.062 112.255 106.915 109.752C106.642 105.12 104.236 103.132 110.697 103.132C120.17 103.132 122.991 113.933 122.991 122.045C122.991 126.085 124.439 130.74 126.038 134.339C128.443 139.75 128.665 144.281 128.665 150.205C128.665 154.733 129.358 159.107 129.611 163.655C129.838 167.739 132.448 171.728 132.448 175.738C132.448 176.478 132.512 181.454 132.921 181.045C134.281 179.684 135.499 176.698 136.441 175.003C138.852 170.662 144.08 166.733 147.579 163.235C151.259 159.554 154.661 154.879 157.245 150.415C159.661 146.243 163.806 143.097 166.492 139.067" stroke="black" stroke-linecap="round" stroke-linejoin="round"/>
<path d="M156.09 118.263C148.675 108.796 141.699 98.4091 134.129 89.1573C133.699 88.6321 132.693 88.1489 132.5 87.4761C131.971 85.624 130.662 83.2826 130.556 81.3818C130.353 77.7211 125.828 75.2737 125.828 71.4523C125.828 67.8108 134.278 69.0881 136.703 69.0881C140.706 69.0881 141.911 74.1154 144.006 76.4433C146.359 79.0573 145.794 84.023 149.47 86.3203C152.997 88.5246 154.198 94.173 154.198 97.931C154.198 99.7014 153.682 102.444 154.408 104.078C155.321 106.132 157.466 106.295 158.033 108.281C158.598 110.256 159.872 111.089 159.872 113.535C159.872 115.741 159.872 117.948 159.872 120.154" stroke="black" stroke-linecap="round" stroke-linejoin="round"/>
<path d="M121.1 38.8267C127.851 43.7363 129.698 44.5908 135.075 38.6165C137.868 35.5124 139.672 31.2614 144.742 31.2614" stroke="black" stroke-linecap="round" stroke-linejoin="round"/>
<path d="M144.742 31.2614C151.308 31.2614 157.839 30.8622 164.128 32.2596C170.121 33.5915 169.395 39.7107 171.43 43.5551C172.454 45.4883 175.312 49.025 176.894 50.7001C178.204 52.0865 179.056 56.1082 180.257 56.7944C183.587 58.6976 182.881 66.8774 184.46 70.0338" stroke="black" stroke-linecap="round" stroke-linejoin="round"/>
<path d="M184.46 70.0338C185.628 76.022 185.405 81.9259 185.405 88.0015C185.405 91.8852 186.487 101.321 183.041 104.078C180.623 106.012 180.092 112.96 178.786 115.899C177.15 119.579 176.025 122.487 174.95 126.249C174.817 126.716 173.967 127.413 173.584 127.72C172.574 128.528 173.353 130.373 172.901 131.502C172.418 132.71 172.166 138.676 172.166 135.285C172.166 130.436 170.1 127.738 167.227 124.147C162.281 117.964 163.958 108.012 156.09 104.078" stroke="black" stroke-linecap="round" stroke-linejoin="round"/>
<path d="M176.894 126.774C178.544 131.002 179.095 136.787 181.15 140.486C182.685 143.249 184.46 148.308 184.46 151.361" stroke="black" stroke-linecap="round" stroke-linejoin="round"/>
<path d="M169.213 135.013C171.271 139.315 175.746 145.533 175.746 150.067C175.746 155.687 176.314 161.173 176.679 166.558C176.942 170.424 180.413 174.011 180.413 178.285C180.413 182.004 181.867 186.514 183.213 190.013" stroke="black" stroke-linecap="round" stroke-linejoin="round"/>
<path d="M195.808 140.013C191.429 144.392 185.953 149.095 182.358 141.905C179.618 136.425 187.032 134.422 190.344 131.712C193.662 128.997 195.989 125.44 198.855 122.256C201.904 118.868 204.603 116.465 206.21 111.643" stroke="black" stroke-linecap="round" stroke-linejoin="round"/>
<path d="M173.112 130.557C179.567 122.842 185.773 116.092 193.706 110.698C196.717 108.65 198.444 108.806 202.427 108.806C207.356 108.806 207.127 108.863 205.264 112.589" stroke="black" stroke-linecap="round" stroke-linejoin="round"/>
<path d="M186.351 94.6211C193.758 92.9952 203.878 89.9724 203.373 81.3817C203.189 78.2601 187.272 87.7025 185.405 88.9471" stroke="black" stroke-linecap="round" stroke-linejoin="round"/>
<path d="M176.894 47.3378C178.632 46.0736 183.006 44.149 183.566 42.1892C184.066 40.4417 187.858 40.4584 188.978 39.5623C190.619 38.2493 199.174 37.9254 201.009 39.3521C204.991 42.4493 204.031 46.0961 205.317 50.5951C206.183 53.628 210.406 56.6752 211.884 59.6315" stroke="black" stroke-linecap="round" stroke-linejoin="round"/>
<path d="M195.808 83.2731C195.808 85.7949 195.808 88.3166 195.808 90.8384" stroke="black" stroke-linecap="round" stroke-linejoin="round"/>
<path d="M190.134 112.589C190.134 119.524 190.134 126.459 190.134 133.394" stroke="black" stroke-linecap="round" stroke-linejoin="round"/>
<path d="M187.297 146.633C187.297 149.47 187.297 152.307 187.297 155.144" stroke="black" stroke-linecap="round" stroke-linejoin="round"/>
<ellipse cx="206.112" cy="295.672" rx="58.363" ry="23.5" transform="rotate(11.8948 206.112 295.672)" fill="#F2EDDC"/>
<path d="M194.862 150.416C194.862 147.894 194.862 145.372 194.862 142.85" stroke="black" stroke-linecap="round" stroke-linejoin="round"/>
<path d="M194.862 124.883C194.862 120.469 194.862 116.056 194.862 111.643" stroke="black" stroke-linecap="round" stroke-linejoin="round"/>
<path d="M199.59 88.9471C199.59 86.7405 199.59 84.534 199.59 82.3274" stroke="black" stroke-linecap="round" stroke-linejoin="round"/>
<path d="M211.884 56.7944C211.997 52.1493 213.775 47.3656 213.775 43.0823C213.775 38.7655 216.871 36.838 218.714 33.1527C221.681 27.2188 230.585 27.4787 236.471 27.4787" stroke="black" stroke-linecap="round" stroke-linejoin="round"/>
<path d="M236.471 27.4787C243.421 27.4787 247.587 26.3047 251.129 32.6799C252.945 35.948 255.69 38.4926 257.276 41.6638" stroke="black" stroke-linecap="round" stroke-linejoin="round"/>
<path d="M257.276 41.6637C268.449 44.1164 268.06 57.3527 273.878 64.8326C276.534 68.2482 280.505 71.6626 281.811 76.2331C282.924 80.1277 281.113 75.0349 280.182 74.0266C279.652 73.4527 279.064 71.1928 278.501 71.0319C277.443 70.7296 276.288 71.2332 275.244 70.7693C268.714 67.8671 263.572 62.4434 256.856 60.5245C254.016 59.7132 235.526 52.6082 235.526 58.6857" stroke="black" stroke-linecap="round" stroke-linejoin="round"/>
<path d="M235.526 58.6858C239.562 63.8519 239.884 63.1743 245.455 64.4123C248.847 65.1662 252.055 65.6672 255.437 66.724C264.184 69.4574 271.226 69.7594 278.081 76.2332C281.978 79.9143 285.646 83.4361 285.646 89.42C285.646 94.9364 285.646 100.453 285.646 105.969" stroke="black" stroke-linecap="round" stroke-linejoin="round"/>
<path d="M285.646 105.969C285.569 102.034 286.362 94.6212 280.97 94.6212C277.549 94.6212 274.045 92.197 270.988 90.8385C266.856 89.0018 262.729 87.3304 258.642 86.1627C254.809 85.0676 249.523 85.6063 245.928 84.0087C242.406 82.4434 238.043 80.8067 235.736 85.1645C234.526 87.4505 235.26 87.0558 237.89 87.0558C240.262 87.0558 240.343 89.1031 241.725 89.8928C243.052 90.651 244.979 92.9622 245.928 94.1483C247.066 95.5713 249.669 96.2905 251.129 97.4582C253.387 99.2647 257.761 102.631 258.957 105.024C259.939 106.987 262.004 107.374 262.004 109.752C262.004 111.54 261.33 114.616 262.95 115.426" stroke="black" stroke-linecap="round" stroke-linejoin="round"/>
<path d="M262.95 115.426C264.836 124.02 268.71 133.242 266.68 142.377C265.736 146.627 262.383 147.652 258.694 148.472C255.774 149.121 253.424 152.307 250.656 152.307" stroke="black" stroke-linecap="round" stroke-linejoin="round"/>
<path d="M250.656 152.307C253.213 147.94 258.834 142.363 260.166 137.702C261.92 131.56 258.654 132.694 254.386 129.138C247.831 123.675 239.39 120.154 230.797 120.154" stroke="black" stroke-linecap="round" stroke-linejoin="round"/>
<path d="M230.797 120.154C230.797 123.275 230.614 126.487 230.797 129.611C230.88 131.011 232.977 131.823 233.634 132.973C235.744 136.665 239.267 138.854 241.935 142.115C242.819 143.194 242.781 144.852 243.826 145.897C244.574 146.645 246.538 148.058 246.821 149.05C247.021 149.75 252.394 154.594 253.493 155.144" stroke="black" stroke-linecap="round" stroke-linejoin="round"/>
<path d="M183.514 159.872C190.976 162.893 199.43 166.655 205.264 172.166C206.72 173.541 207.828 175.898 209.572 176.894C212.223 178.409 215.567 177.89 218.031 179.258C222.474 181.727 219.803 175.595 224.913 179.731C227.545 181.862 230.355 184.134 234.055 183.461C235.514 183.196 239.742 179.698 240.989 178.575C243.003 176.763 244.082 176.894 246.874 176.894" stroke="black" stroke-linecap="round" stroke-linejoin="round"/>
<path d="M296.048 139.068C300.026 139.165 301.009 140.176 304.034 141.905C305.762 142.892 304.771 144.297 305.715 145.477C306.927 146.992 311.179 150.102 311.179 146.633C311.179 144.188 310.183 138.698 311.915 136.966C314.327 134.554 316.853 134.014 316.853 129.611C316.853 125.455 319.668 124.295 322.527 122.781C324.482 121.746 324.126 121.1 326.783 121.1C327.939 121.1 330.848 121.63 331.774 120.89C334.594 118.633 336.793 116.372 340.495 116.372C343.003 116.372 349.006 115.082 349.006 118.263" stroke="black" stroke-linecap="round" stroke-linejoin="round"/>
<path d="M348.06 115.426C351.833 120.406 353.231 125.489 357.99 129.191C361.997 132.308 365.996 137.12 368.392 141.432C369.949 144.234 375.031 146.784 375.484 150.415C375.751 152.549 378.743 154.441 379.215 156.562C379.574 158.179 380.919 162.117 382.104 162.709" stroke="black" stroke-linecap="round" stroke-linejoin="round"/>
<path d="M375.484 151.361C380.306 153.243 383.445 154.893 387.305 157.981C389.202 159.498 389.886 163.855 391.088 166.019C391.829 167.353 391.727 169.91 392.717 171.01C393.9 172.325 395.477 173.245 396.762 174.53C400.862 178.63 401.963 180.06 401.963 185.878C401.963 193.289 402.909 200.298 402.909 207.681C402.909 209.721 402.241 218.516 398.706 217.505C397.369 217.123 398.18 208.315 398.18 206.683C398.18 203.678 396.485 199.102 394.398 196.753C391.715 193.735 390.179 189.433 387.568 186.561C385.43 184.21 383.512 181.536 381.894 178.786C379.481 174.683 375.529 175.573 372.858 172.901C370.61 170.654 367.935 168.495 365.082 167.227C361.611 165.685 358.406 161.764 354.68 161.764C351.976 161.764 345.963 160.603 344.067 162.499C341.538 165.029 342.017 166.492 337.658 166.492" stroke="black" stroke-linecap="round" stroke-linejoin="round"/>
<path d="M337.658 166.492C339.825 167.813 342.763 169.094 344.488 171.01C345.526 172.164 344.606 173.759 345.433 174.793C347.339 177.175 348.42 178.42 351.37 179.731C357.031 182.247 364.714 182.533 369.863 186.824C371.919 188.537 382.933 192.877 383.05 194.862C383.374 200.368 385.923 202.918 390.615 205.264" stroke="black" stroke-linecap="round" stroke-linejoin="round"/>
<path d="M390.615 205.264C397.983 214.418 407.783 224.938 401.543 237.417C399.308 241.888 394.847 244.249 392.506 248.345C390.713 251.483 385.257 256.645 382.104 258.222" stroke="black" stroke-linecap="round" stroke-linejoin="round"/>
<path d="M382.104 258.222C383.705 250.017 383.995 242.003 383.995 233.634C383.995 226.239 380.658 221.785 375.484 216.612C370.289 211.416 367.563 206.619 360.354 203.583C357.034 202.185 345.856 205.585 344.277 202.427" stroke="black" stroke-linecap="round" stroke-linejoin="round"/>
<path d="M344.277 202.427C344.277 203.659 343.212 214.757 344.803 215.667C348.482 217.769 351.405 221.121 355.1 223.232C357.339 224.511 358.756 229.224 359.356 231.323C360.714 236.078 362.05 236.276 365.555 239.781C366.813 241.039 369.204 241.403 370.231 242.723C371.421 244.253 371.371 246.384 372.647 247.819C374.768 250.205 375.936 252.838 378.532 255.174C381.459 257.809 382.104 258.894 382.104 262.95C382.104 266.941 381.698 269.119 385.887 270.515" stroke="black" stroke-linecap="round" stroke-linejoin="round"/>
<path d="M385.887 270.515C384.382 278.709 378.731 280.426 375.695 287.327C375.128 288.615 372.386 291.477 371.176 292.686C369.589 294.273 368.957 296.3 367.499 297.94C364.558 301.248 361.359 304.138 358.462 307.396C354.592 311.75 353.734 314.884 353.734 320.636" stroke="black" stroke-linecap="round" stroke-linejoin="round"/>
<path d="M353.734 317.799C353.734 313.454 354.958 305.769 353.682 301.302C353.108 299.296 347.475 299.071 345.748 298.36C339.235 295.678 335.496 288.611 329.147 285.436C318.107 279.916 306.193 275.115 295.103 269.57" stroke="black" stroke-linecap="round" stroke-linejoin="round"/>
<path d="M295.103 269.57C298.749 258.403 307.396 247.984 307.396 235.999C307.396 225.534 315.907 218.021 315.907 208.101" stroke="black" stroke-linecap="round" stroke-linejoin="round"/>
<path d="M287.537 278.081C287.537 270.2 287.537 262.32 287.537 254.439C287.537 250.865 286.284 244.78 288.01 241.673C292.071 234.362 294.689 226.687 299.884 219.87C303.246 215.457 307.16 211.175 311.179 207.156" stroke="black" stroke-linecap="round" stroke-linejoin="round"/>
<path d="M303.614 172.166C303.614 178.065 303.463 182.193 299.096 186.561C296.345 189.312 293.773 190.824 291.793 194.389C287.897 201.402 282.296 209.335 277.135 215.141C272.398 220.47 266.46 228.006 264.894 235.053C263.679 240.52 262.921 246.959 261.059 252.548" stroke="black" stroke-linecap="round" stroke-linejoin="round"/>
<path d="M262.95 239.308C262.95 228.748 262.225 219.544 266.523 209.993C267.826 207.097 267.104 202.798 269.149 200.168C271.313 197.387 273.362 194.471 274.823 191.132C277.463 185.098 282.386 181.437 288.01 178.313C292.688 175.714 297.934 170.275 303.614 170.275" stroke="black" stroke-linecap="round" stroke-linejoin="round"/>
<path d="M261.059 252.548C267.19 257.007 269.494 260.652 272.407 267.205C274.938 272.9 286.592 271.624 286.592 279.972" stroke="black" stroke-linecap="round" stroke-linejoin="round"/>
<path d="M262.004 234.58C259.526 230.614 254.439 226.319 254.439 221.341C254.439 218.535 253.162 213.361 251.392 211.148C247.014 205.676 246.874 197.039 246.874 190.134" stroke="black" stroke-linecap="round" stroke-linejoin="round"/>
<path d="M187.213 163.013C187.566 165.726 187.753 165.277 188.546 166.763C188.781 167.204 189.425 168.255 189.528 168.791C189.915 170.825 190.213 172.748 190.213 175.013" stroke="black" stroke-linecap="round" stroke-linejoin="round"/>
<path d="M246.482 195.013C246.482 185.049 245.051 173.789 248.785 164.616C250.41 160.623 254.24 153.317 257.534 151.018C258.905 150.06 259.827 147.645 260.706 146.104C262.383 143.16 264.086 140.555 265.822 137.647C268.798 132.661 270.322 131.248 275.492 131.248C278.869 131.248 282.245 131.248 285.622 131.248C288.472 131.248 292.847 129.989 294.166 133.305C295.388 136.376 292.978 144.869 296.213 146.675" stroke="black" stroke-linecap="round" stroke-linejoin="round"/>
<path d="M186.351 160.818C188.065 157.89 190.72 154.875 192.025 151.939C192.673 150.482 195.075 149.99 195.808 148.524" stroke="black" stroke-linecap="round" stroke-linejoin="round"/>
<path d="M49.2291 202.427C49.2291 191.342 54.0713 182.568 55.8487 171.903C58.8467 153.915 66.5322 133.793 75.7603 118.105C84.5723 103.125 92.4278 87.322 102.397 73.0809C107.526 65.7538 111.965 57.5375 118.263 51.1204C120.226 49.1202 123.665 44.6366 125.828 43.5551" stroke="black" stroke-linecap="round" stroke-linejoin="round"/>
<path d="M209.993 59.6315C209.993 69.0294 212.68 76.9704 213.985 86.1102C214.893 92.4609 215.878 99.2521 217.138 105.549C219.483 117.276 219.449 127.96 219.449 140.013C219.449 146.18 220.078 152.796 219.397 158.927C218.773 164.538 215.667 169.68 215.667 175.003" stroke="black" stroke-linecap="round" stroke-linejoin="round"/>
<path d="M354.68 304.559C352.095 291.15 349.222 278.323 343.122 266.733C341.341 263.349 341.241 260.397 340.442 256.803C339.674 253.346 337.765 250.521 337.658 246.874C337.352 236.493 332.389 226.403 331.984 215.877C331.664 207.559 331.939 198.554 328.201 191.079" stroke="black" stroke-linecap="round" stroke-linejoin="round"/>
<path d="M328.201 191.079C325.808 180.523 324.146 168.271 318.955 158.927C317.489 156.288 313.6 149.735 311.179 148.524" stroke="black" stroke-linecap="round" stroke-linejoin="round"/>
<path d="M195.808 191.079C194.237 184.1 191.314 178.545 189.188 172.166" stroke="black" stroke-linecap="round" stroke-linejoin="round"/>
<path d="M196.753 167.438C196.753 176.541 197.699 186.272 197.699 194.862" stroke="black" stroke-linecap="round" stroke-linejoin="round"/>
<path d="M191.079 176.894C191.079 172.481 191.079 168.068 191.079 163.655" stroke="black" stroke-linecap="round" stroke-linejoin="round"/>
<path d="M167.438 136.23C165.671 131.034 162.886 124.117 158.716 120.364C157.754 119.498 156.34 119.285 155.354 118.053C154.336 116.78 154.62 114.902 153.253 113.534" stroke="black" stroke-linecap="round" stroke-linejoin="round"/>
<path d="M59.6314 150.416C50.2106 151.986 39.6976 153.747 31.4715 158.927C28.7459 160.643 25.3285 163.312 22.7504 164.601" stroke="black" stroke-linecap="round" stroke-linejoin="round"/>
<path d="M70.0338 130.557C78.416 138.739 86.2575 147.533 88.8946 159.399C89.69 162.979 88.9471 167.547 88.9471 171.22" stroke="black" stroke-linecap="round" stroke-linejoin="round"/>
<path d="M112.49 212.075C112.337 201.03 121.166 191.953 132.211 191.8L241.2 190.29C252.245 190.137 261.323 198.967 261.475 210.011L261.919 242.008C262.377 275.142 235.889 302.375 202.755 302.833L173.758 303.235C140.624 303.694 113.392 277.205 112.933 244.072L112.49 212.075Z" fill="#988C69"/>
<path d="M129.611 187.297C124.193 187.963 121.223 187.174 117.79 190.606C116.364 192.033 115.364 193.873 113.955 195.282C110.76 198.477 112.296 202.556 109.962 205.474C106.35 209.99 108.806 224.01 108.806 229.852" stroke="black" stroke-linecap="round" stroke-linejoin="round"/>
<path d="M108.806 228.906C108.806 237.102 108.806 245.298 108.806 253.493" stroke="black" stroke-linecap="round" stroke-linejoin="round"/>
<path d="M108.806 253.493C108.806 259.235 112.589 261.86 112.589 267.205C112.589 269.209 113.393 270.213 114.953 271.461C116.981 273.083 116.252 276.276 117.527 277.871C118.66 279.287 120.722 279.069 121.835 280.182C123.017 281.363 123.549 283.579 123.989 285.121C124.668 287.494 130.711 291.397 132.448 292.266" stroke="black" stroke-linecap="round" stroke-linejoin="round"/>
<path d="M174.057 136.23C175.292 142.559 177.84 146.822 177.84 153.252C177.84 158.044 179.731 162.775 179.731 167.91C179.731 172.23 183.514 175.134 183.514 179.258C183.514 183.978 186.351 187.731 186.351 192.025" stroke="black" stroke-linecap="round" stroke-linejoin="round"/>
<path d="M189.188 158.926C194.722 158.926 195.992 158.506 199.8 161.553C201.895 163.229 202.33 164.726 204.108 166.702C208.121 171.161 211.01 174.057 217.558 174.057" stroke="black" stroke-linecap="round" stroke-linejoin="round"/>
<path d="M245.928 173.112C243.372 173.61 237.285 174.222 235.526 176.421C233.331 179.165 233.388 179.731 229.379 179.731C229.029 179.731 224.622 176.682 223.967 176.159C221.633 174.291 218.663 174.057 215.667 174.057" stroke="black" stroke-linecap="round" stroke-linejoin="round"/>
<path d="M4.78268 146.633C9.8372 142.957 16.4319 135.285 22.7504 135.285C25.5081 135.285 29.1372 132.26 31.0512 130.346C32.7364 128.661 36.5824 126.95 38.8267 125.828" stroke="black" stroke-linecap="round" stroke-linejoin="round"/>
<path d="M40.718 125.828C42.8939 124.903 48.7562 121.993 50.3849 120.364C52.5821 118.167 55.709 120.329 57.7401 117.79C59.2835 115.861 62.3615 115.807 63.8869 113.062C65.554 110.061 66.2511 108.667 66.2511 105.023" stroke="black" stroke-linecap="round" stroke-linejoin="round"/>
<path d="M40.718 126.774C38.8246 127.143 36.948 127.447 35.044 127.719" stroke="black" stroke-linecap="round" stroke-linejoin="round"/>
<path d="M315.907 208.101C313.326 208.605 308.641 209.395 307.396 211.884" stroke="black" stroke-linecap="round" stroke-linejoin="round"/>
<path d="M293.211 174.057C288.414 175.137 279.694 178.511 277.135 182.989C276.428 184.226 273.994 186.13 272.617 187.507C271.372 188.751 267.021 191.439 266.785 192.498C266.177 195.236 264.652 197.653 263.948 200.116C263.316 202.329 265.13 207.031 263.686 208.837C261.21 211.932 262.95 221.97 262.95 226.069" stroke="black" stroke-linecap="round" stroke-linejoin="round"/>
</svg>
