<svg width="274" height="243" viewBox="0 0 274 243" fill="none" xmlns="http://www.w3.org/2000/svg">
<ellipse cx="137" cy="217.192" rx="137" ry="25" fill="black" fill-opacity="0.3"/>
<mask id="path-2-inside-1" fill="white">
<path fill-rule="evenodd" clip-rule="evenodd" d="M38.0227 0C32.4999 0 28.0227 4.47714 28.0227 9.99999V39.7387C28.0227 45.2616 32.4999 49.7387 38.0227 49.7387H48.3435L92.9421 217.192H188.219L227.672 49.7387H235.977C241.5 49.7387 245.977 45.2616 245.977 39.7387V10C245.977 4.47715 241.5 0 235.977 0H38.0227Z"/>
</mask>
<path fill-rule="evenodd" clip-rule="evenodd" d="M38.0227 0C32.4999 0 28.0227 4.47714 28.0227 9.99999V39.7387C28.0227 45.2616 32.4999 49.7387 38.0227 49.7387H48.3435L92.9421 217.192H188.219L227.672 49.7387H235.977C241.5 49.7387 245.977 45.2616 245.977 39.7387V10C245.977 4.47715 241.5 0 235.977 0H38.0227Z" fill="#988C69"/>
<path d="M48.3435 49.7387L49.3098 49.4814L49.112 48.7387H48.3435V49.7387ZM92.9421 217.192L91.9758 217.45L92.1736 218.192H92.9421V217.192ZM188.219 217.192V218.192H189.011L189.193 217.422L188.219 217.192ZM227.672 49.7387V48.7387H226.88L226.699 49.5094L227.672 49.7387ZM29.0227 9.99999C29.0227 5.02943 33.0521 1 38.0227 1V-1C31.9476 -1 27.0227 3.92486 27.0227 9.99999H29.0227ZM29.0227 39.7387V9.99999H27.0227V39.7387H29.0227ZM38.0227 48.7387C33.0521 48.7387 29.0227 44.7093 29.0227 39.7387H27.0227C27.0227 45.8138 31.9476 50.7387 38.0227 50.7387V48.7387ZM48.3435 48.7387H38.0227V50.7387H48.3435V48.7387ZM93.9084 216.935L49.3098 49.4814L47.3772 49.9961L91.9758 217.45L93.9084 216.935ZM188.219 216.192H92.9421V218.192H188.219V216.192ZM226.699 49.5094L187.246 216.963L189.193 217.422L228.645 49.968L226.699 49.5094ZM235.977 48.7387H227.672V50.7387H235.977V48.7387ZM244.977 39.7387C244.977 44.7093 240.948 48.7387 235.977 48.7387V50.7387C242.052 50.7387 246.977 45.8139 246.977 39.7387H244.977ZM244.977 10V39.7387H246.977V10H244.977ZM235.977 1C240.948 1 244.977 5.02944 244.977 10H246.977C246.977 3.92487 242.052 -1 235.977 -1V1ZM38.0227 1H235.977V-1H38.0227V1Z" fill="black" mask="url(#path-2-inside-1)"/>
<line x1="47.483" y1="47.5807" x2="234.301" y2="47.5807" stroke="black"/>
</svg>
