<svg width="70" height="50" viewBox="0 0 70 50" fill="none" xmlns="http://www.w3.org/2000/svg">
  <path fill-rule="evenodd"  d="M24.235.006c-2.818.115-4.986.426-7.342 1.051C10.156 2.846 4.647 6.873 1.9 12.016.637 14.382.01 16.842 0 19.46c-.015 4.62 1.998 8.963 5.817 12.551.61.574 2.226 1.848 2.952 2.33 6.197 4.101 14.368 5.597 22.279 4.078 8.215-1.578 14.966-6.433 17.659-12.7 1.515-3.529 1.704-7.39.538-10.982-.934-2.873-2.595-5.409-5.081-7.756-.638-.602-2.348-1.936-3.125-2.439C37.021 1.946 32.292.42 27.22.082c-.887-.059-2.434-.098-2.985-.076zm2.12.45c2.36.11 4.275.397 6.436.962 2.887.753 5.58 1.934 7.942 3.48 3.592 2.35 6.343 5.603 7.672 9.068 1.225 3.194 1.385 6.476.474 9.684-.76 2.674-2.192 5.092-4.335 7.319-1.6 1.662-3.74 3.24-5.946 4.385a29.952 29.952 0 01-4.649 1.902c-6.779 2.07-14.386 1.69-20.74-1.038C6.8 33.466 2.302 28.622.95 23.012a15.163 15.163 0 01.358-8.294c.915-2.784 2.682-5.413 5.157-7.672.978-.893 2.543-2.033 3.83-2.788 4.578-2.69 10.405-4.07 16.06-3.803zm-4.189 1.456c-1.278.124-1.32.13-1.392.216-.055.064-.055.097-.004.177.063.096.072.098.602.085.625-.015.558-.072.641.544.21 1.553.304 2.066.389 2.114.123.071.24.062.342-.026.084-.073.084-.105.007-.6-.089-.57-.206-1.341-.273-1.795-.023-.158-.027-.294-.009-.303.019-.009.24-.037.494-.062.535-.054.668-.122.587-.303-.045-.1-.07-.108-.35-.113-.166-.003-.631.027-1.034.066zm6.726.234c-.572.106-1.13.465-1.392.896-.15.248-.161.294-.159.679.003.334.025.457.118.64.151.299.564.646.948.798.27.107.337.116.824.116.474 0 .56-.011.809-.107.673-.258 1.074-.708 1.186-1.332.07-.386-.16-.918-.531-1.232-.462-.39-1.182-.573-1.803-.458zm-10.433.367c-.071.085-.047.16.369 1.143.245.579.418 1.044.386 1.034-.032-.01-.704-.37-1.493-.8-.788-.431-1.46-.796-1.493-.811-.032-.015-.118-.007-.189.018-.1.035-.13.075-.129.168.002.162 1.13 2.778 1.218 2.821.162.08.396-.012.396-.156 0-.036-.193-.516-.428-1.066-.236-.55-.42-1.007-.41-1.015.011-.008.686.35 1.501.796 1.215.665 1.508.808 1.628.799.304-.024.299-.049-.317-1.497-.315-.741-.605-1.387-.644-1.436-.094-.117-.296-.116-.395.002zm11.363.104c.317.112.64.385.765.647.286.595.003 1.196-.707 1.5-.232.099-.324.115-.649.114-.424 0-.588-.05-.915-.281-.331-.234-.468-.483-.468-.856 0-.562.333-.943 1.005-1.148.24-.074.727-.061.969.024zm4.33 1.424c-1.81 1.324-2.192 1.615-2.223 1.69-.04.1.1.233.245.233.056 0 .255-.107.442-.236l.34-.236.78.29.78.29-.025.297c-.014.163-.01.341.007.396.04.126.204.167.354.09.133-.067.115.052.285-1.934.114-1.33.107-1.397-.14-1.397-.11 0-.29.111-.846.517zm.466.88c-.03.368-.06.675-.066.682-.008.007-.279-.086-.603-.206l-.59-.218.422-.308c.617-.452.873-.633.882-.626.004.004-.016.308-.045.676zm-22.094-.37c-.067.052-.096.112-.08.167.032.104.107.437.21.93.044.206.148.685.232 1.063.085.379.167.75.183.827.044.213.103.275.262.275.25 0 .284-.076.21-.478-.034-.195-.056-.359-.046-.364.01-.006.342-.165.74-.353l.723-.343.343.198c.44.255.71.26.71.016 0-.095-.143-.19-1.313-.884l-1.274-.755c-.355-.21-.678-.382-.72-.382a.383.383 0 00-.18.083zm1.359 1.078c.331.195.594.366.583.38-.023.03-.923.452-1.033.485-.069.02-.12-.165-.34-1.218-.029-.138-.102-.17.79.353zm24.087-.38c-.302.084-.593.279-.696.467-.102.186-.089.537.027.712.053.08.237.252.41.382.382.29.48.443.4.632a.54.54 0 01-.184.212c-.517.317-1.343-.096-1.262-.631.063-.412-.406-.453-.523-.046-.06.207-.004.42.173.655.518.689 1.798.718 2.225.05.258-.403.161-.671-.407-1.132-.386-.313-.424-.358-.424-.5 0-.403.668-.583 1.135-.306.247.148.328.29.328.584 0 .265.052.344.23.344.164 0 .287-.136.313-.344.032-.26-.058-.484-.283-.706a1.541 1.541 0 00-1.462-.372zM8.277 7.07c-.145.065-.105.22.103.4 1.201 1.04 2.262 1.932 2.358 1.981.158.08.174.072.983-.505.697-.498.803-.62.653-.76-.13-.124-.286-.06-.88.358-.324.229-.62.41-.655.403-.036-.006-.524-.41-1.085-.897a41.908 41.908 0 00-1.121-.954.335.335 0 00-.356-.026zm31.819 1.035c-1.348 1.054-1.436 1.143-1.267 1.275.178.139.287.073 1.644-.987.87-.68 1.323-1.063 1.323-1.116 0-.097-.15-.21-.279-.21-.056 0-.63.42-1.421 1.038zM29.383 7.6c-.355.088-1.97.282-2.75.33a8.828 8.828 0 00-.884.087c-.495.12-.659.354-.694.995-.026.46.016.749.214 1.476.432 1.585.466 1.924.21 2.053-.183.094-.682-.398-.993-.979-.18-.335-.473-1.207-.547-1.629a1.989 1.989 0 01.15-1.077c.063-.133.203-.297.376-.44.427-.355.374-.411-.268-.286-.585.114-.847.21-1.45.53l-.984.52c-.264.139-.5.28-.525.315-.063.087 0 1.298.09 1.703.099.452.214.79.354 1.036.138.244.649.91 1.013 1.324l.657.744c.477.54.73.968.731 1.234 0 .16-.017.194-.121.23-.19.068-.45.008-.692-.158-.258-.177-1.512-1.55-1.804-1.975-.503-.733-1.402-2.598-1.547-3.211-.09-.377-.157-.467-.318-.427-.137.034-.793.58-1.097.915-.134.147-.378.4-.541.562-.398.395-.816.894-.886 1.059-.132.306-.036.632.37 1.261.574.889 1.433 1.588 2.957 2.408 1.345.723 2.116 1.27 2.116 1.501 0 .11-.009.115-.174.095-.23-.03-.62-.228-1.441-.734-.375-.231-.863-.524-1.085-.651-1.008-.578-1.6-1.033-1.992-1.533-.247-.316-.943-1.388-1.034-1.594-.045-.103-.095-.143-.186-.151-.155-.015-.17.007-.667.995-.413.822-.625 1.413-.672 1.877-.027.273-.018.323.1.511.248.393 1.157.998 2.256 1.499.905.413 1.047.471 1.737.719 1.288.461 1.54.63 1.08.728-.364.076-.724.026-1.383-.195-1.282-.43-1.998-.807-2.905-1.529a11.42 11.42 0 01-.921-.809c-.357-.376-.44-.384-.5-.046-.105.594.032 1.565.37 2.616.08.249.19.614.245.812.114.411.746 1.678 1.154 2.316.241.376.341.484.763.822.483.387 1.124.792 1.467.927.542.214 1.638.395 2.392.395.697 0 1.5-.226 1.949-.549.112-.08.204-.134.204-.118 0 .058-.471.853-.939 1.582a28.162 28.162 0 01-1.458 2.096c-.198.26-.64.843-.981 1.298-.342.454-.675.892-.741.973a.893.893 0 00-.12.17c0 .059-.798.948-1.158 1.289-.457.433-.504.552-.274.693.17.104.393.147.93.18.337.02.445.014.49-.029.21-.196 3.056-4.516 3.472-5.267.46-.833.927-1.822 1.455-3.085l.164-.393.034.344c.039.387.133.61.352.83.34.339 1.21.717 1.913.83.226.035.639.062.987.062.728 0 1.194-.085 1.863-.337.573-.216 1.136-.618 1.926-1.375.852-.817 1.326-1.236 1.804-1.594 1.355-1.015 1.555-1.29 1.833-2.522.235-1.046.254-1.146.226-1.182-.049-.062-.184-.035-.437.087-.266.127-.375.135-.178.012.209-.13.429-.383.539-.618.146-.313.205-.814.231-1.964l.022-.974-.111.001c-.081 0-.154.057-.263.205-.084.112-.335.346-.558.52-.89.692-1.981 1.136-3.505 1.422l-1.245.235c-.719.136-.941.155-1.29.11-.254-.032-.252-.138.005-.27.107-.056.59-.207 1.072-.337 1.641-.442 2.555-.764 3.39-1.193.532-.273 1.316-.899 1.57-1.254.272-.378.291-.605.094-1.092-.15-.37-.205-.545-.423-1.337-.154-.56-.202-.584-.484-.24-.252.308-.752.745-1.241 1.086-.218.151-.593.415-.834.585-1.166.828-2.706 1.61-2.942 1.497-.064-.031.076-.216.268-.354.092-.067.52-.332.95-.589 1.732-1.034 2.248-1.408 2.622-1.9.334-.438.424-.675.428-1.131.003-.396.003-.397-.193-.63-.107-.128-.586-.534-1.064-.901-.479-.368-.943-.754-1.032-.857-.253-.294-.457-.665-.526-.959-.057-.243-.076-.27-.187-.277a1.561 1.561 0 00-.35.05zM6.57 8.772c-.1.027-.236.08-.303.117-.132.072-.595.51-.888.84-.264.298-.413.172 1.674 1.409 1.23.73 1.381.79 1.495.595.085-.145-.004-.229-.64-.6-.317-.187-.577-.355-.577-.373 0-.02.144-.187.321-.374.177-.186.348-.405.379-.487.131-.342.03-.653-.295-.907a1.297 1.297 0 00-1.166-.22zm35.958-.007c-.504.138-.807.562-.69.967.027.092.148.296.268.451.287.37.302.57.055.742-.134.093-.21.114-.409.114-.602 0-.959-.455-.736-.939.077-.166.08-.207.024-.26-.112-.106-.358-.06-.487.089-.323.374-.108 1.035.436 1.342.76.43 1.867.057 1.867-.628 0-.228-.064-.372-.31-.7-.246-.328-.258-.5-.048-.683.133-.116.175-.129.426-.129.298 0 .466.068.656.266.132.138.168.479.07.66-.091.172-.038.302.14.337.168.033.297-.057.408-.284.164-.335-.007-.859-.366-1.124-.32-.236-.893-.333-1.304-.22zm-35.22.45a.442.442 0 01.243.408c-.006.155-.208.43-.537.726l-.17.154-.424-.253c-.232-.14-.454-.272-.492-.294-.106-.064.588-.75.81-.801a.907.907 0 01.57.06zm23.328 1.898c.009.05-.054.204-.14.341-.325.514-1.645 1.438-2.145 1.5l-.179.024.06-.133c.151-.34.628-.837 1.29-1.343.509-.389.744-.508.97-.491.09.006.132.036.144.102zm3.389 7.89c0 .04-.48.228-.997.39-1.064.334-2.3.494-3.923.508-1.05.01-1.337-.018-1.337-.128 0-.127.58-.193 2.624-.296 1.41-.072 2.616-.21 3.204-.37.222-.06.41-.11.416-.114.007-.003.013.002.013.01zm-15.608 1.46c.203.067.466.226 1 .606.875.624 1.383 1.194 1.315 1.477-.038.158-.158.226-.336.192-.214-.042-.739-.36-1.245-.755-.724-.566-1.173-1.075-1.173-1.33 0-.26.095-.301.44-.19zm11.997.898c.088.05.088.059.003.198-.316.519-2.358 1.352-2.782 1.136-.246-.125.865-.868 1.804-1.205.509-.183.81-.223.975-.129zm-25.455 4.38c-.569.206-1.066.399-1.104.427-.044.034-.058.09-.037.154.046.142.2.133.69-.041.221-.08.408-.137.414-.128.006.008.089.136.182.283.136.213.212.283.37.347.253.1.545.104.752.01.439-.2.497-.54.18-1.057-.185-.302-.254-.374-.362-.372-.028 0-.516.17-1.085.376zm38.507-.038c-.25.195-.304.378-.183.624a.659.659 0 00.22.25c.202.111 1.264.48 1.45.504a.91.91 0 00.654-.186.532.532 0 00.075-.7c-.159-.198-1.264-.606-1.704-.63-.31-.016-.318-.013-.513.138zm-37.378.324c.153.265.126.404-.094.483-.2.071-.354-.01-.529-.28l-.153-.237.24-.097c.348-.142.384-.133.536.13zm38.547.059c.715.262.868.399.643.574-.15.118-.295.098-.891-.12-.615-.223-.724-.286-.724-.417 0-.11.165-.25.297-.25.052 0 .355.096.675.213zM6.048 27.497c-.553.265-1.028.51-1.056.546-.05.064.135.346.534.81.16.186.349.226.44.092.063-.09.04-.137-.244-.506-.122-.157-.213-.292-.202-.3.031-.02.95-.455 1.28-.605.35-.158.53-.276.53-.347 0-.063-.14-.173-.217-.172-.033 0-.512.218-1.065.482zm36.509-.259c-.227.093-.358.238-.392.432-.06.35.43.752.68.556.094-.073.074-.135-.09-.281-.21-.187-.2-.317.035-.413.226-.093.325-.002.772.703.23.366.452.674.491.686.13.039.238-.047.531-.422.323-.415.364-.564.163-.603-.161-.032-.237.018-.437.291l-.16.22-.332-.528c-.198-.315-.383-.557-.458-.599-.194-.107-.593-.128-.803-.042zm-1.048 1.393c-.402.058-.621.26-.621.573 0 .218.137.364.613.653.704.427.785.462 1.066.462.447 0 .743-.23.743-.576 0-.21-.136-.364-.538-.61-.818-.502-.937-.549-1.263-.502zm-33.8.468c-.444.104-.951.221-1.127.26-.35.08-.45.162-.358.296.048.071.089.08.266.062.116-.012.257-.033.314-.047.087-.02.159.03.413.286l.308.31-.125.172c-.138.19-.14.304-.006.369a.177.177 0 00.176 0c.049-.024.382-.428.74-.9.704-.923.725-.978.378-.99-.094-.004-.535.079-.979.182zm34.138-.073c.353.167 1.009.591 1.015.656a.297.297 0 01-.306.323c-.048 0-.335-.147-.638-.327-.504-.299-.552-.339-.566-.469-.012-.11.01-.155.1-.204.148-.081.183-.08.395.021zm-33.755.513a3.867 3.867 0 01-.244.303l-.094.098-.174-.188c-.096-.104-.17-.2-.164-.212.008-.02.667-.188.786-.2.021-.002-.028.087-.11.2zm.817 1.084c-.825.66-.916.767-.748.875.123.08.24.017.808-.432.301-.238.553-.428.56-.422a.803.803 0 01-.028.207 43.77 43.77 0 00-.156.834c-.12.67-.108.76.1.76.104 0 1.822-1.34 1.822-1.422 0-.082-.103-.153-.224-.153-.063 0-.32.17-.671.442-.374.291-.569.418-.569.371 0-.096.25-1.448.279-1.514.043-.094-.074-.204-.216-.204-.109 0-.297.13-.957.658zm30.894-.563c-.256.089-.39.236-.417.454-.029.23.048.405.229.515.157.097.189.096.315-.002l.103-.08-.129-.171c-.105-.14-.12-.19-.079-.273.087-.179.438-.189.547-.016.03.049.14.372.243.718.102.346.209.651.236.679.116.116.284.049.69-.276.346-.276.405-.342.394-.443-.01-.099-.037-.12-.164-.131-.13-.012-.187.017-.389.196-.166.147-.244.192-.262.15a13.683 13.683 0 01-.174-.54c-.17-.55-.234-.646-.511-.756a.839.839 0 00-.632-.024zm-28.196 1.325c-.158.072-.105.215.142.38l.23.153-.346.352c-.19.193-.475.481-.634.64-.292.294-.336.386-.227.47.164.128.267.056 1.045-.73l.517-.523.242.139c.26.148.35.167.447.092.152-.119.066-.217-.482-.552-.578-.353-.776-.464-.819-.462a.546.546 0 00-.115.04zM35.64 32.69c-.719.346-.817.419-.727.531.086.107.248.104.496-.01.125-.057.248-.094.272-.083.025.012.28.315.57.674.534.663.656.76.828.648.04-.026.074-.077.074-.112s-.251-.371-.558-.747c-.307-.376-.55-.687-.542-.692l.255-.136c.167-.088.24-.153.24-.215 0-.095-.085-.183-.178-.183-.031 0-.36.146-.73.325zm-20.967.554c-.309.115-.448.284-.448.542 0 .229.1.353.421.518.308.158.39.276.28.407-.139.165-.496.173-.67.014a.654.654 0 01-.137-.241c-.067-.21-.184-.273-.326-.173-.226.16-.06.57.308.759.271.14.716.152.935.026.23-.133.369-.323.367-.503-.003-.22-.09-.328-.435-.539-.353-.215-.4-.335-.185-.467a.39.39 0 01.293-.064c.2.03.43.228.43.373 0 .213.271.27.387.081.07-.113.022-.338-.105-.49-.101-.12-.456-.282-.686-.313-.129-.017-.245.002-.43.07zm23.763.08c-.044.09-.006.189.093.237.13.064.265-.017.265-.157 0-.1-.02-.115-.165-.126-.11-.009-.174.007-.193.047zm-4.689.19c-.374.102-.602.378-.568.69.019.18.05.235.202.353.236.185.544.215.938.094.231-.072.288-.076.404-.033.103.038.138.083.15.192.013.118-.011.16-.143.245a.597.597 0 01-.594.042c-.18-.098-.335-.06-.354.087-.022.183.22.308.595.308.694-.002 1.123-.448.866-.9-.174-.308-.596-.422-1.034-.279-.272.089-.47.076-.564-.035-.1-.12-.054-.275.115-.379.156-.096.355-.1.594-.01.135.05.203.056.267.025.19-.093.097-.27-.202-.392-.158-.063-.453-.067-.672-.007zm-16.997.366c-.042.032-.16.231-.263.443l-.417.85c-.249.505-.247.585.01.608.12.012.148-.01.254-.198.066-.117.149-.286.184-.377a.52.52 0 01.082-.165c.028 0 .926.272.973.295.023.01-.033.173-.123.36-.09.188-.154.374-.14.414.028.085.248.14.323.082.046-.037.396-.724.746-1.467.158-.337.14-.47-.065-.47-.158 0-.192.037-.36.404-.079.168-.16.315-.183.325-.034.017-.94-.234-.99-.274-.01-.007.052-.151.136-.322.166-.336.186-.447.092-.52-.081-.063-.169-.059-.26.012zm14.88.314c-.332.094-.63.201-.664.237-.067.071-.06.095.172.61.477 1.058.565 1.235.625 1.265a.379.379 0 00.193.012c.226-.04 1.132-.3 1.249-.357.187-.092.118-.29-.1-.29-.052 0-.317.06-.591.135l-.498.135-.115-.241c-.064-.132-.094-.247-.068-.255.78-.23.907-.299.799-.434-.084-.104-.223-.102-.627.008a3.282 3.282 0 01-.379.09c-.048-.046-.178-.436-.16-.475.014-.028.124-.073.245-.1.588-.133.802-.212.832-.306.037-.114-.057-.21-.202-.208-.06 0-.379.079-.71.174zm-12.001.508c-.301.065-.573.233-.762.47-.192.24-.24.646-.107.916.26.53 1.043.791 1.69.563.296-.104.484-.246.648-.489.169-.25.189-.704.04-.924-.305-.451-.91-.667-1.51-.536zm2.524.344c-.047.06-.104.349-.157.802-.125 1.07-.11 1.2.128 1.2.127 0 .179-.099.216-.413.057-.47.019-.436.468-.422.463.015.677-.052.863-.267.1-.115.116-.175.099-.364-.017-.191-.046-.248-.184-.359-.194-.156-.393-.207-.948-.243-.395-.026-.414-.024-.485.066zm5.06-.025c-.05.047-.051.146-.007.463.073.525.204 1.324.235 1.433.032.114.213.158.316.077.07-.054.072-.108.018-.447l-.141-.896c-.08-.505-.157-.689-.29-.689a.229.229 0 00-.131.06zm-6.748.11c.49.29.44.923-.091 1.158-.36.159-.866.092-1.08-.141-.322-.354-.182-.869.29-1.069.26-.11.648-.088.881.051zm2.726.272c.128.051.194.208.137.324-.059.121-.294.175-.63.144l-.25-.023.013-.197c.023-.33.024-.331.351-.307.158.013.329.039.379.059z" fill="#000"/>
</svg>
