<svg width="400" height="300" viewBox="0 0 400 300" fill="none" xmlns="http://www.w3.org/2000/svg">
<path d="M210.479 185.04H207.1C206.981 185.04 206.867 185.082 206.783 185.158C206.699 185.233 206.652 185.336 206.652 185.442V186.775C206.652 186.828 206.664 186.88 206.686 186.929C206.709 186.978 206.742 187.022 206.783 187.06C206.825 187.097 206.874 187.127 206.929 187.147C206.983 187.167 207.041 187.178 207.1 187.178H207.66V189.174H209.919V187.178H210.479C210.597 187.178 210.711 187.135 210.795 187.06C210.879 186.984 210.927 186.882 210.927 186.775V185.442C210.927 185.336 210.879 185.233 210.795 185.158C210.711 185.082 210.597 185.04 210.479 185.04Z" fill="#E6E6E6"/>
<path d="M213.862 197.236C211.793 194.515 210.736 191.276 210.841 187.982C210.843 187.906 210.815 187.831 210.763 187.771C210.711 187.711 210.637 187.67 210.555 187.653V187.077H206.987V187.645H206.938C206.89 187.645 206.842 187.654 206.798 187.67C206.753 187.687 206.713 187.711 206.679 187.742C206.645 187.772 206.618 187.809 206.6 187.849C206.581 187.888 206.572 187.931 206.572 187.974C206.572 187.982 206.572 187.99 206.573 187.998C206.902 191.36 205.893 194.717 203.725 197.473C203.6 197.633 203.536 197.826 203.543 198.022L203.933 208.868C203.942 209.11 204.055 209.339 204.248 209.508C204.441 209.677 204.699 209.772 204.969 209.774H213.039C213.311 209.772 213.572 209.675 213.766 209.503C213.959 209.33 214.071 209.097 214.075 208.852L214.226 198.322C214.23 197.935 214.103 197.556 213.862 197.236V197.236Z" fill="#44633F"/>
<path opacity="0.2" d="M209.774 185.474C209.774 185.704 209.672 185.925 209.491 186.088C209.31 186.251 209.064 186.342 208.808 186.342C208.552 186.342 208.306 186.251 208.125 186.088C207.943 185.925 207.842 185.704 207.842 185.474" fill="black"/>
<path d="M212.291 199.326H205.478V203.408H212.291V199.326Z" fill="white"/>
<path d="M145.154 132.973L153.617 132.282L159.003 120.528L149.386 115.688L145.154 132.973Z" fill="#FFB8B8"/>
<path d="M222.82 165.242C223.101 164.611 223.212 163.929 223.143 163.253C223.073 162.576 222.826 161.924 222.421 161.35C222.016 160.776 221.466 160.297 220.814 159.952C220.163 159.607 219.43 159.406 218.675 159.365L205.535 158.661L203.601 164.443L217.127 167.781C218.258 168.06 219.463 167.956 220.513 167.487C221.562 167.019 222.384 166.22 222.82 165.242Z" fill="#FFB8B8"/>
<path d="M208.711 167.879L208.567 157.029L179.381 152.844L156.896 129.668C155.726 128.463 154.11 127.679 152.346 127.462C150.583 127.245 148.791 127.61 147.304 128.49C146.404 129.022 145.645 129.725 145.08 130.551C144.515 131.376 144.159 132.302 144.037 133.265C143.915 134.227 144.029 135.202 144.372 136.12C144.715 137.038 145.278 137.878 146.022 138.579L164.571 159.095L208.711 167.879Z" fill="#C4D6B0"/>
<path d="M138.615 289.927H146.308L165.391 212.388L185.16 236.342L196.7 288.198H204.009L202.47 232.539L176.697 173.076H151.309C144.371 184.361 138.929 195.993 145.154 207.993L138.615 289.927Z" fill="#2F2E41"/>
<path d="M191.984 294.637C191.899 294.881 191.873 295.14 191.907 295.394C191.942 295.648 192.037 295.893 192.185 296.112C192.333 296.331 192.531 296.519 192.766 296.664C193.002 296.809 193.269 296.907 193.55 296.952L212.375 299.954C213.119 300.077 213.887 299.95 214.535 299.599C215.182 299.247 215.664 298.695 215.889 298.046C216.109 297.426 216.078 296.757 215.803 296.155C215.527 295.554 215.025 295.058 214.384 294.757C210.244 292.847 206.682 290.063 204.002 286.645C201.933 288.376 199.62 288.213 197.164 286.937L194.559 287.23L191.984 294.637Z" fill="#2F2E41"/>
<path d="M135.053 294.637C134.968 294.881 134.942 295.14 134.976 295.394C135.011 295.648 135.105 295.893 135.254 296.112C135.402 296.331 135.6 296.519 135.835 296.664C136.071 296.809 136.338 296.907 136.619 296.952L155.444 299.954C156.188 300.077 156.956 299.95 157.603 299.599C158.251 299.247 158.733 298.695 158.958 298.046C159.178 297.426 159.147 296.757 158.872 296.155C158.596 295.554 158.094 295.058 157.453 294.757C153.313 292.847 149.751 290.063 147.071 286.645C145.001 288.376 142.689 288.213 140.233 286.937L137.628 287.23L135.053 294.637Z" fill="#2F2E41"/>
<path d="M159.195 124.849C165.143 124.849 169.966 120.516 169.966 115.169C169.966 109.823 165.143 105.49 159.195 105.49C153.246 105.49 148.424 109.823 148.424 115.169C148.424 120.516 153.246 124.849 159.195 124.849Z" fill="#FFB8B8"/>
<path d="M149.578 175.669L177.659 174.978L169.412 151.652C174.537 144.268 169.379 136.891 162.08 129.517L156.31 126.06L147.078 125.368C143.081 129.212 140.894 134.297 140.975 139.558C141.157 150.823 143.377 163.086 149.578 175.669Z" fill="#C4D6B0"/>
<path d="M214.095 191.37C214.63 190.89 215.03 190.302 215.263 189.656C215.495 189.009 215.553 188.322 215.432 187.651C215.311 186.98 215.015 186.345 214.567 185.798C214.119 185.25 213.533 184.806 212.857 184.502L201.085 179.209L196.775 183.841L207.75 191.692C208.667 192.348 209.821 192.678 210.991 192.619C212.161 192.559 213.266 192.115 214.095 191.37Z" fill="#FFB8B8"/>
<path d="M199.97 188.806L204.586 178.781L179.585 164.614L169.058 135.358C168.51 133.835 167.367 132.543 165.841 131.72C164.314 130.898 162.507 130.6 160.755 130.883V130.883C159.694 131.054 158.688 131.432 157.808 131.991C156.928 132.55 156.195 133.276 155.661 134.118C155.128 134.959 154.806 135.896 154.72 136.861C154.633 137.827 154.783 138.798 155.16 139.705L163.234 165.125L199.97 188.806Z" fill="#C4D6B0"/>
<path d="M141.5 111.367C141.5 115.133 144.222 120.966 147.655 123.467C149.965 125.149 153.017 125.078 154.194 122.775C155.402 120.413 159.563 114.86 166.888 111.367C176.653 106.71 163.425 98.7434 154.194 99.9582C147.257 100.871 141.5 105.066 141.5 111.367Z" fill="#2F2E41"/>
<path d="M148.039 106.181C152.288 106.181 155.733 103.085 155.733 99.2668C155.733 95.4482 152.288 92.3525 148.039 92.3525C143.791 92.3525 140.346 95.4482 140.346 99.2668C140.346 103.085 143.791 106.181 148.039 106.181Z" fill="#2F2E41"/>
<path d="M156.887 96.8466C156.886 95.1035 156.152 93.425 154.833 92.1476C153.513 90.8702 151.705 90.0883 149.771 89.9586C149.962 89.9458 150.153 89.9324 150.348 89.9324C152.388 89.9324 154.345 90.6608 155.788 91.9575C157.23 93.2542 158.041 95.0129 158.041 96.8466C158.041 98.6804 157.23 100.439 155.788 101.736C154.345 103.032 152.388 103.761 150.348 103.761C150.153 103.761 149.962 103.747 149.771 103.735C151.705 103.605 153.513 102.823 154.833 101.546C156.152 100.268 156.886 98.5898 156.887 96.8466Z" fill="#2F2E41"/>
<path d="M377.365 277.247H257.603L232.242 169.501H210.599V164.666H236.603L261.963 272.412H377.365V277.247Z" fill="#3F3D56"/>
<path d="M275.154 296.931C281.52 296.931 286.681 292.293 286.681 286.571C286.681 280.849 281.52 276.211 275.154 276.211C268.787 276.211 263.626 280.849 263.626 286.571C263.626 292.293 268.787 296.931 275.154 296.931Z" fill="#3F3D56"/>
<path d="M361.227 296.931C367.593 296.931 372.754 292.293 372.754 286.571C372.754 280.849 367.593 276.211 361.227 276.211C354.86 276.211 349.699 280.849 349.699 286.571C349.699 292.293 354.86 296.931 361.227 296.931Z" fill="#3F3D56"/>
<path d="M375.182 274.97H258.66L238.101 183.66H394.475C395.273 183.66 396.062 183.815 396.786 184.115C397.511 184.415 398.155 184.853 398.674 185.398C399.192 185.943 399.573 186.582 399.791 187.272C400.008 187.962 400.057 188.686 399.933 189.395L380.639 270.776C380.439 271.947 379.779 273.015 378.777 273.784C377.776 274.554 376.5 274.975 375.182 274.97ZM259.925 273.589H375.182C376.133 273.592 377.054 273.289 377.777 272.733C378.5 272.177 378.976 271.407 379.12 270.562L398.414 189.18C398.503 188.669 398.468 188.146 398.312 187.648C398.155 187.15 397.88 186.689 397.505 186.295C397.131 185.902 396.666 185.586 396.143 185.37C395.62 185.153 395.051 185.041 394.475 185.041H239.966L259.925 273.589Z" fill="#3F3D56"/>
<path d="M281.312 274.678L267.848 184.463L269.364 184.238L282.828 274.453L281.312 274.678Z" fill="#3F3D56"/>
<path d="M356.176 273.985L354.659 273.764L367.73 184.24L369.247 184.461L356.176 273.985Z" fill="#3F3D56"/>
<path d="M320.508 184.351H318.971V274.566H320.508V184.351Z" fill="#3F3D56"/>
<path d="M245.952 208.524L245.948 209.906L394.73 210.229L394.734 208.848L245.952 208.524Z" fill="#3F3D56"/>
<path d="M384.234 251.196L253.527 251.999L253.537 253.38L384.245 252.577L384.234 251.196Z" fill="#3F3D56"/>
<path d="M212.904 170.537C217.573 170.537 221.358 168.681 221.358 166.393C221.358 164.104 217.573 162.249 212.904 162.249C208.235 162.249 204.451 164.104 204.451 166.393C204.451 168.681 208.235 170.537 212.904 170.537Z" fill="#3F3D56"/>
</svg>
