<svg width="44" height="44" viewBox="0 0 44 44" fill="none" xmlns="http://www.w3.org/2000/svg">
<path d="M22.0001 14.3C22.2918 14.3 22.5716 14.4159 22.7779 14.6222C22.9842 14.8285 23.1001 15.1082 23.1001 15.4V26.5386C24.137 26.8063 25.0407 27.443 25.6418 28.3294C26.2428 29.2158 26.5 30.2909 26.365 31.3533C26.2301 32.4157 25.7123 33.3924 24.9088 34.1003C24.1052 34.8083 23.071 35.1989 22.0001 35.1989C20.9292 35.1989 19.895 34.8083 19.0915 34.1003C18.2879 33.3924 17.7701 32.4157 17.6352 31.3533C17.5002 30.2909 17.7574 29.2158 18.3584 28.3294C18.9595 27.443 19.8632 26.8063 20.9001 26.5386V15.4C20.9001 15.1082 21.016 14.8285 21.2223 14.6222C21.4286 14.4159 21.7084 14.3 22.0001 14.3Z" fill="#70916A"/>
<path d="M22.0002 4.39999C20.2498 4.39999 18.571 5.09535 17.3333 6.33309C16.0956 7.57083 15.4002 9.24956 15.4002 11V24.9788C14.28 26.2489 13.5502 27.8153 13.2982 29.49C13.0462 31.1647 13.2828 32.8765 13.9795 34.4201C14.6763 35.9637 15.8037 37.2734 17.2264 38.1921C18.6491 39.1108 20.3067 39.5994 22.0002 39.5994C23.6937 39.5994 25.3513 39.1108 26.774 38.1921C28.1967 37.2734 29.3241 35.9637 30.0209 34.4201C30.7176 32.8765 30.9542 31.1647 30.7022 29.49C30.4502 27.8153 29.7204 26.2489 28.6002 24.9788V11C28.6002 9.24956 27.9048 7.57083 26.6671 6.33309C25.4294 5.09535 23.7506 4.39999 22.0002 4.39999ZM22.0002 6.59999C23.1672 6.59999 24.2863 7.06356 25.1115 7.88872C25.9366 8.71388 26.4002 9.83304 26.4002 11V25.861L26.7148 26.18C27.6243 27.1083 28.2394 28.2845 28.4831 29.561C28.7268 30.8376 28.5882 32.1576 28.0848 33.3557C27.5813 34.5538 26.7353 35.5766 25.6529 36.2958C24.5704 37.015 23.2998 37.3987 22.0002 37.3987C20.7006 37.3987 19.43 37.015 18.3475 36.2958C17.2651 35.5766 16.4191 34.5538 15.9156 33.3557C15.4122 32.1576 15.2736 30.8376 15.5173 29.561C15.761 28.2845 16.3761 27.1083 17.2856 26.18L17.6002 25.861V11C17.6002 9.83304 18.0638 8.71388 18.8889 7.88872C19.7141 7.06356 20.8332 6.59999 22.0002 6.59999Z" fill="#70916A"/>
</svg>
