<svg width="44" height="44" viewBox="0 0 44 44" fill="none" xmlns="http://www.w3.org/2000/svg">
<path d="M21.6667 4C11.895 12.3417 7 19.5467 7 25.6333C7 34.7633 13.9667 40.6667 21.6667 40.6667C29.3667 40.6667 36.3333 34.7633 36.3333 25.6333C36.3333 19.5467 31.4383 12.3417 21.6667 4ZM21.6667 37C15.525 37 10.6667 32.2883 10.6667 25.6333C10.6667 21.3433 14.2417 15.66 21.6667 8.87667C29.0917 15.66 32.6667 21.325 32.6667 25.6333C32.6667 32.2883 27.8083 37 21.6667 37ZM14.0217 26C14.7 26 15.25 26.4767 15.3783 27.1367C16.13 31.2067 19.5583 32.6 22.0517 32.3983C22.84 32.3617 23.5 32.985 23.5 33.7733C23.5 34.5067 22.9133 35.1117 22.18 35.1483C18.275 35.3867 13.71 33.15 12.665 27.595C12.6331 27.3984 12.6444 27.1973 12.6979 27.0055C12.7514 26.8137 12.8459 26.6358 12.9749 26.4841C13.1039 26.3325 13.2643 26.2106 13.4451 26.127C13.6258 26.0434 13.8225 26.0001 14.0217 26Z" fill="#70916A"/>
</svg>
