<svg width="44" height="44" viewBox="0 0 44 44" fill="none" xmlns="http://www.w3.org/2000/svg">
<path d="M12.3935 8.87333L9.0935 5.59166L6.5085 8.17666L9.79016 11.4583L12.3935 8.87333ZM7.3335 19.25H1.8335V22.9167H7.3335V19.25ZM23.8335 1.00833H20.1668V6.41666H23.8335V1.00833ZM37.4918 8.17666L34.9068 5.59166L31.6252 8.87333L34.2102 11.4583L37.4918 8.17666ZM31.6068 33.2933L34.8885 36.5933L37.4735 34.0083L34.1735 30.7267L31.6068 33.2933ZM36.6668 19.25V22.9167H42.1668V19.25H36.6668ZM22.0002 10.0833C15.9318 10.0833 11.0002 15.015 11.0002 21.0833C11.0002 27.1517 15.9318 32.0833 22.0002 32.0833C28.0685 32.0833 33.0002 27.1517 33.0002 21.0833C33.0002 15.015 28.0685 10.0833 22.0002 10.0833ZM20.1668 41.1583H23.8335V35.75H20.1668V41.1583ZM6.5085 33.99L9.0935 36.575L12.3752 33.275L9.79016 30.69L6.5085 33.99Z" fill="#70916A"/>
</svg>
