<svg width="44" height="44" viewBox="0 0 44 44" fill="none" xmlns="http://www.w3.org/2000/svg">
<path d="M44 31.625C44 33.6302 43.6921 35.4349 43.0762 37.0391C42.4603 38.6432 41.6367 39.9395 40.6055 40.9277C39.5742 41.916 38.4069 42.6751 37.1035 43.2051C35.8001 43.735 34.4323 44 33 44H8.25C5.95833 44 4.01042 43.1979 2.40625 41.5938C0.802083 39.9896 0 38.0417 0 35.75C0 33.8021 0.644531 32.2122 1.93359 30.9805C3.22266 29.7487 4.98438 28.7174 7.21875 27.8867C6.53125 27.1133 6.05859 26.2682 5.80078 25.3516C5.25651 23.5755 5.45703 21.8783 6.40234 20.2598C7.34766 18.6413 8.7513 17.5742 10.6133 17.0586L12.7188 16.2852C12.0885 16.0846 11.6445 15.6048 11.3867 14.8457C11.1289 14.0866 11 12.8047 11 11C11 9.9974 11.3796 9.10221 12.1387 8.31445C12.8978 7.52669 13.8145 6.86068 14.8887 6.31641L18.1113 4.68359L20.8613 2.68555L22 0L22.5801 0.580078L23.9121 2.01953L25.5879 4.06055L26.8984 6.20898L27.5 8.25C27.5 9.33854 27.2852 10.3411 26.8555 11.2578C28.7174 10.7708 30.4863 10.9785 32.1621 11.8809C33.8379 12.7832 34.9336 14.1224 35.4492 15.8984C35.7643 17.0156 35.8001 18.1113 35.5566 19.1855C35.3132 20.2598 34.8333 21.2122 34.1172 22.043C36.9818 22.2435 39.3451 23.196 41.207 24.9004C43.069 26.6048 44 28.8464 44 31.625ZM31.625 24.75C31.2526 24.75 30.1927 24.7285 28.4453 24.6855C26.6979 24.6426 25.5521 24.6354 25.0078 24.6641C26.6693 24.2057 28.4167 23.2389 30.25 21.7637C32.0833 20.2884 33 18.9922 33 17.875C33 17.0443 32.7637 16.321 32.291 15.7051C31.8184 15.0892 31.2168 14.638 30.4863 14.3516C29.7559 14.0651 28.9681 13.8717 28.123 13.7715C27.278 13.6712 26.4688 13.7357 25.6953 13.9648L22 15.4258C22.6589 14.8242 23.1888 14.1797 23.5898 13.4922C23.9909 12.8047 24.263 12.11 24.4062 11.4082C24.5495 10.7064 24.6426 10.1549 24.6855 9.75391C24.7285 9.35286 24.75 8.85156 24.75 8.25C24.75 7.64844 24.5208 7.00391 24.0625 6.31641C23.6042 5.62891 23.1458 5.09896 22.6875 4.72656L22 4.125C22 4.89844 21.7135 5.62174 21.1406 6.29492C20.5677 6.9681 19.8802 7.54818 19.0781 8.03516C18.276 8.52214 17.474 8.99479 16.6719 9.45312C15.8698 9.91146 15.1823 10.3913 14.6094 10.8926C14.0365 11.3939 13.75 11.888 13.75 12.375C13.75 13.1771 14.4089 14.0651 15.7266 15.0391C17.0443 16.013 18.2188 16.5 19.25 16.5H19.293L12.375 19.25C11.6016 19.5078 11.0286 19.7155 10.6562 19.873C10.2839 20.0306 9.87565 20.2598 9.43164 20.5605C8.98763 20.8613 8.67969 21.2409 8.50781 21.6992C8.33594 22.1576 8.25 22.7161 8.25 23.375C8.25 24.349 8.6224 25.1152 9.36719 25.6738C10.112 26.2324 11 26.5404 12.0312 26.5977C13.0625 26.6549 14.1367 26.6406 15.2539 26.5547C13.7357 27.1562 12.0241 28.0085 10.1191 29.1113C8.21419 30.2142 6.50977 31.403 5.00586 32.6777C3.50195 33.9525 2.75 34.9766 2.75 35.75C2.75 37.1536 3.46615 38.4212 4.89844 39.5527C6.33073 40.6842 8.02083 41.25 9.96875 41.25H31.625C33.3438 41.25 34.9121 40.9134 36.3301 40.2402C37.748 39.5671 38.9225 38.5143 39.8535 37.082C40.7845 35.6497 41.25 33.9453 41.25 31.9688C41.25 29.763 40.3333 28.0085 38.5 26.7051C36.6667 25.4017 34.375 24.75 31.625 24.75Z" fill="#70916A"/>
</svg>
