<svg width="44" height="44" viewBox="0 0 44 44" fill="none" xmlns="http://www.w3.org/2000/svg">
<path d="M30.7041 13.75C29.8212 13.7214 28.9382 13.5065 28.0553 13.1055C27.9899 13.0768 27.9245 13.0339 27.8591 12.9766C27.7937 12.9193 27.7446 12.8906 27.7119 12.8906C26.2404 13.7786 24.9241 14.8099 23.7632 15.9844C22.6023 17.1589 22.0219 18.2474 22.0219 19.25C22.0219 19.8516 22.3652 20.7682 23.052 22H36.1489C36.5741 22 36.942 22.1361 37.2526 22.4082C37.5633 22.6803 37.7186 23.0026 37.7186 23.375V26.125C37.7186 26.4974 37.5633 26.8197 37.2526 27.0918C36.942 27.3639 36.5741 27.5 36.1489 27.5H34.5793L30.8022 42.8398C30.7041 43.1549 30.5079 43.4271 30.2136 43.6562C29.9193 43.8854 29.5923 44 29.2326 44H14.8602C14.4678 44 14.1244 43.8854 13.8301 43.6562C13.5358 43.4271 13.3396 43.1549 13.2415 42.8398L9.46445 27.5H7.89477C7.46965 27.5 7.10176 27.3639 6.79109 27.0918C6.48043 26.8197 6.32509 26.4974 6.32509 26.125V23.375C6.32509 23.0026 6.48043 22.6803 6.79109 22.4082C7.10176 22.1361 7.46965 22 7.89477 22H18.4901C18.7517 21.026 18.8825 20.1094 18.8825 19.25C18.8825 18.1615 18.6536 16.987 18.1958 15.7266C16.8223 14.3229 15.1545 13.2344 13.1924 12.4609C11.0668 13.9792 8.81041 14.151 6.4232 12.9766C5.63836 12.6042 4.93528 12.2174 4.31395 11.8164C3.69261 11.4154 3.16121 10.9642 2.71974 10.4629C2.27827 9.96159 1.9022 9.51042 1.59154 9.10938C1.28087 8.70833 1.02743 8.18555 0.831225 7.54102C0.635015 6.89648 0.479683 6.35938 0.365227 5.92969C0.250772 5.5 0.177193 4.88411 0.144492 4.08203C0.11179 3.27995 0.0872637 2.64258 0.0709129 2.16992C0.0545621 1.69727 0.0463867 0.973958 0.0463867 0C0.765822 0.716146 1.68147 1.23177 2.79332 1.54688C3.90518 1.86198 5.01703 2.04818 6.12888 2.10547C7.24074 2.16276 8.35259 2.25586 9.46445 2.38477C10.5763 2.51367 11.6391 2.86458 12.6529 3.4375C13.6666 4.01042 14.4841 4.84115 15.1055 5.92969C15.5306 6.64583 15.7432 7.44792 15.7432 8.33594C15.7432 9.05208 15.5796 9.72526 15.2526 10.3555C16.7896 11.1289 17.9996 11.8021 18.8825 12.375C19.5365 12.8047 20.1906 13.4635 20.8446 14.3516C21.6948 12.776 23.2318 11.401 25.4555 10.2266V10.1836C24.638 7.57682 25.5209 5.62891 28.1044 4.33984C29.1181 3.85286 30.0746 3.47331 30.9739 3.20117C31.8732 2.92904 32.7889 2.79297 33.7209 2.79297C34.6529 2.79297 35.4622 2.82878 36.1489 2.90039C36.8357 2.97201 37.6859 3.20117 38.6997 3.58789C39.7134 3.97461 40.531 4.30404 41.1523 4.57617C41.7736 4.84831 42.722 5.28516 43.9973 5.88672C42.9182 6.05859 41.9535 6.4668 41.1032 7.11133C40.253 7.75586 39.5254 8.45052 38.9204 9.19531C38.3154 9.9401 37.6696 10.6777 36.9828 11.4082C36.2961 12.1387 35.4295 12.7259 34.3831 13.1699C33.3366 13.6139 32.1103 13.8073 30.7041 13.75Z" fill="#44633F"/>
</svg>
